<svg width="32" height="32" viewBox="0 0 32 32" fill="none" xmlns="http://www.w3.org/2000/svg">
<path d="M16.0008 10.25L14.5089 12.8535C14.1743 13.4274 14.4531 13.9033 15.1084 13.9033H16.8792C17.5484 13.9033 17.8133 14.3792 17.4787 14.9531L16.0008 17.5565M11.1208 30C14.3137 29.0902 17.6879 29.0902 20.8807 30M10.842 24.4571V22.8335C7.63517 20.8879 5 17.0946 5 13.0635C5 6.13487 11.3439 0.703978 18.5105 2.27166C21.6615 2.97152 24.4222 5.07109 25.8583 7.9685C28.7723 13.8473 25.7049 20.09 21.2014 22.8195V24.4431C21.2014 24.8491 21.3548 25.7869 19.8629 25.7869H12.1805C10.6468 25.8009 10.842 25.199 10.842 24.4571Z" stroke="black" stroke-width="1.5" stroke-linecap="round" stroke-linejoin="round"/>
</svg>
