<svg width="32" height="32" viewBox="0 0 32 32" fill="none" xmlns="http://www.w3.org/2000/svg">
<path d="M14.5929 19.6957C18.2194 22.2844 23.2896 21.9513 26.5445 18.6964C30.1705 15.0704 30.1705 9.19145 26.5445 5.56545C22.9185 1.93945 17.0396 1.93945 13.4136 5.56545C10.1587 8.82039 9.8256 13.8907 12.4144 17.5172L3.65404 25.3554C2.71458 26.196 2.67414 27.6532 3.56552 28.5445C4.45691 29.4359 5.91411 29.3955 6.75468 28.456L14.5929 19.6957Z" stroke="black" stroke-width="1.5"/>
<path d="M19.4573 6.86835C19.7079 6.46728 20.292 6.46728 20.5427 6.86835L25.388 14.6208C25.6544 15.0471 25.3479 15.6 24.8453 15.6H15.1547C14.652 15.6 14.3456 15.0471 14.612 14.6208L19.4573 6.86835Z" stroke="black" stroke-width="1.5" stroke-linejoin="round"/>
<path d="M20 11.4V9.79999" stroke="black" stroke-linecap="round"/>
<path d="M20.625 13.2C20.625 13.5452 20.3452 13.825 20 13.825C19.6548 13.825 19.375 13.5452 19.375 13.2C19.375 12.8548 19.6548 12.575 20 12.575C20.3452 12.575 20.625 12.8548 20.625 13.2Z" fill="black"/>
</svg>
