<svg width="33" height="33" viewBox="0 0 33 33" fill="none" xmlns="http://www.w3.org/2000/svg">
<path d="M10.3256 28.0002H4.99231C3.88774 28.0002 2.99231 27.1047 2.99231 26.0002V23.3335C2.99231 22.2289 3.88774 21.3335 4.99231 21.3335H13.3256" stroke="black" stroke-width="1.5" stroke-linecap="round"/>
<path d="M27.5763 16C27.5763 16.4142 27.9121 16.75 28.3263 16.75C28.7405 16.75 29.0763 16.4142 29.0763 16H28.3263H27.5763ZM8.32629 4V4.75H24.3263V4V3.25H8.32629V4ZM4.32629 21.3333H5.07629V8H4.32629H3.57629V21.3333H4.32629ZM28.3263 8H27.5763V16H28.3263H29.0763V8H28.3263ZM24.3263 4V4.75C26.1212 4.75 27.5763 6.20507 27.5763 8H28.3263H29.0763C29.0763 5.37665 26.9496 3.25 24.3263 3.25V4ZM8.32629 4V3.25C5.70294 3.25 3.57629 5.37665 3.57629 8H4.32629H5.07629C5.07629 6.20507 6.53137 4.75 8.32629 4.75V4Z" fill="black"/>
<path d="M21.4198 14.4472C21.8376 13.7788 22.8111 13.7788 23.2289 14.4473L31.3043 27.368C31.7484 28.0785 31.2376 29 30.3998 29H14.2489C13.4111 29 12.9003 28.0785 13.3443 27.368L21.4198 14.4472Z" stroke="black" stroke-width="1.5" stroke-linejoin="round"/>
<path d="M22.3243 22.0002L22.3243 19.3335" stroke="black" stroke-width="1.5" stroke-linecap="round"/>
<path d="M23.3243 25C23.3243 25.5523 22.8766 26 22.3243 26C21.7721 26 21.3243 25.5523 21.3243 25C21.3243 24.4477 21.7721 24 22.3243 24C22.8766 24 23.3243 24.4477 23.3243 25Z" fill="black"/>
<rect x="12.8243" y="10.25" width="5" height="6" rx="2.5" stroke="black" stroke-width="1.5"/>
<path d="M10.3243 17.1997L10.6508 17.8749L11.0743 17.6702V17.1997H10.3243ZM19.5743 12.25C19.5743 12.6642 19.9101 13 20.3243 13C20.7386 13 21.0743 12.6642 21.0743 12.25H20.3243H19.5743ZM10.3243 17.1997L9.99793 16.5244C8.32412 17.3335 7.45569 18.4848 7.01568 19.4603C6.79824 19.9423 6.68832 20.3742 6.63256 20.6911C6.60463 20.8498 6.5901 20.9808 6.58254 21.0762C6.57876 21.1239 6.57671 21.1629 6.57561 21.1921C6.57505 21.2068 6.57474 21.219 6.57456 21.2287C6.57447 21.2335 6.57442 21.2377 6.57438 21.2413C6.57437 21.2431 6.57436 21.2447 6.57435 21.2461C6.57435 21.2469 6.57434 21.2475 6.57434 21.2482C6.57434 21.2485 6.57434 21.249 6.57434 21.2491C6.57434 21.2496 6.57434 21.25 7.32434 21.25C8.07434 21.25 8.07434 21.2504 8.07434 21.2508C8.07434 21.2509 8.07434 21.2513 8.07434 21.2516C8.07434 21.2521 8.07434 21.2525 8.07433 21.2529C8.07433 21.2537 8.07433 21.2544 8.07432 21.2549C8.07431 21.256 8.0743 21.2565 8.0743 21.2563C8.07431 21.2561 8.07436 21.2535 8.07454 21.2487C8.0749 21.2392 8.07578 21.2209 8.07786 21.1947C8.08201 21.1422 8.09092 21.0587 8.10987 20.951C8.14787 20.7351 8.22544 20.4263 8.383 20.0771C8.69299 19.3899 9.32456 18.516 10.6508 17.8749L10.3243 17.1997ZM15.3243 7.25V6.5C12.1487 6.5 9.57434 9.07436 9.57434 12.25H10.3243H11.0743C11.0743 9.90279 12.9771 8 15.3243 8V7.25ZM15.3243 7.25V8C17.6716 8 19.5743 9.90279 19.5743 12.25H20.3243H21.0743C21.0743 9.07436 18.5 6.5 15.3243 6.5V7.25ZM10.3243 12.25H9.57434V17.1997H10.3243H11.0743V12.25H10.3243Z" fill="black"/>
</svg>
