<svg width="32" height="33" viewBox="0 0 32 33" fill="none" xmlns="http://www.w3.org/2000/svg">
<path d="M6.00004 10C5.71004 9.33003 5.30004 8.72003 4.79004 8.21003C4.28004 7.70003 3.67004 7.29003 3.00004 7.00003" stroke="black" stroke-width="1.5" stroke-linecap="round" stroke-linejoin="round"/>
<path d="M6.00004 10C6.29004 9.33003 6.70004 8.72003 7.21004 8.21003C7.72004 7.70003 8.33004 7.29003 9.00004 7.00003" stroke="black" stroke-width="1.5" stroke-linecap="round" stroke-linejoin="round"/>
<path d="M6.00004 4.00003C6.29004 4.67003 6.70004 5.28003 7.21004 5.79003C7.72004 6.30003 8.33004 6.71003 9.00004 7.00003" stroke="black" stroke-width="1.5" stroke-linecap="round" stroke-linejoin="round"/>
<path d="M6.00004 4.00003C5.71004 4.67003 5.30004 5.28003 4.79004 5.79003C4.28004 6.30003 3.67004 6.71003 3.00004 7.00003" stroke="black" stroke-width="1.5" stroke-linecap="round" stroke-linejoin="round"/>
<path d="M14.5924 20.6955C18.2189 23.2841 23.2891 22.951 26.5441 19.6961C30.1701 16.0701 30.1701 10.1912 26.5441 6.5652C22.9181 2.9392 17.0391 2.9392 13.4131 6.5652C10.1582 9.82014 9.82511 14.8905 12.4139 18.517L3.65355 26.3552C2.71409 27.1957 2.67365 28.6529 3.56503 29.5443C4.45642 30.4357 5.91362 30.3952 6.75419 29.4558L14.5924 20.6955Z" stroke="black" stroke-width="1.5"/>
<path d="M19.4573 7.86835C19.7079 7.46728 20.292 7.46728 20.5427 7.86835L25.388 15.6208C25.6544 16.0471 25.3479 16.6 24.8453 16.6H15.1547C14.652 16.6 14.3456 16.0471 14.612 15.6208L19.4573 7.86835Z" stroke="black" stroke-width="1.5" stroke-linejoin="round"/>
<path d="M20 12.3998V10.7998" stroke="black" stroke-linecap="round"/>
<path d="M20.625 14.2002C20.625 14.5454 20.3452 14.8252 20 14.8252C19.6548 14.8252 19.375 14.5454 19.375 14.2002C19.375 13.855 19.6548 13.5752 20 13.5752C20.3452 13.5752 20.625 13.855 20.625 14.2002Z" fill="black"/>
</svg>
