<svg width="32" height="32" viewBox="0 0 32 32" fill="none" xmlns="http://www.w3.org/2000/svg">
<path d="M16 14.8418C17.502 14.8418 18.9667 15.1903 20.3017 15.8389L19.167 16.9736C18.1644 16.5609 17.0921 16.3418 16 16.3418C13.6824 16.3418 11.4501 17.3182 9.79684 19.0713C9.51265 19.3726 9.03762 19.3867 8.7363 19.1025C8.43503 18.8184 8.42109 18.3433 8.70505 18.042C10.6319 15.9988 13.2552 14.8418 16 14.8418ZM16 5.125C18.6118 5.125 21.197 5.67054 23.6074 6.72949C24.9049 7.29957 26.1371 8.0134 27.2861 8.85449L26.2119 9.92871C25.2042 9.21042 24.1304 8.5981 23.0049 8.10352C20.7827 7.12718 18.4023 6.625 16 6.625C13.5976 6.625 11.2172 7.12718 8.99509 8.10352C6.773 9.0799 4.7511 10.5125 3.04587 12.3213C2.76175 12.6225 2.28668 12.6365 1.98532 12.3525C1.68396 12.0684 1.67004 11.5934 1.95407 11.292C3.79434 9.33994 5.98214 7.78854 8.39255 6.72949C10.8029 5.67054 13.3881 5.125 16 5.125Z" fill="black"/>
<path d="M16.6996 25.3895C16.6996 25.9418 16.2519 26.3895 15.6996 26.3895C15.1473 26.3895 14.6996 25.9418 14.6996 25.3895C14.6996 24.8372 15.1473 24.3895 15.6996 24.3895C16.2519 24.3895 16.6996 24.8372 16.6996 25.3895Z" fill="black"/>
<path d="M30.125 12L21.0625 21.0625" stroke="black" stroke-width="1.5" stroke-linecap="round"/>
</svg>
