<svg width="33" height="33" viewBox="0 0 33 33" fill="none" xmlns="http://www.w3.org/2000/svg">
<rect x="11.8243" y="8" width="7" height="7" rx="3.5" stroke="black" stroke-width="1.5" stroke-miterlimit="10" stroke-linecap="round" stroke-linejoin="round"/>
<path d="M16.3243 15H12.8243C11.4436 15 10.3243 16.1193 10.3243 17.5V17.75V20" stroke="black" stroke-width="1.5" stroke-miterlimit="10" stroke-linecap="round" stroke-linejoin="round"/>
<circle cx="18.8243" cy="17.5" r="2.5" stroke="black" stroke-width="1.5"/>
<path d="M21.8243 23C21.8243 21.3431 20.4812 20 18.8243 20C17.1675 20 15.8243 21.3431 15.8243 23" stroke="black" stroke-width="1.5" stroke-miterlimit="10" stroke-linecap="round" stroke-linejoin="round"/>
<path d="M15.5724 4.62012C16.0016 4.45824 16.4749 4.45951 16.8966 4.62793L16.9034 4.63086L16.9113 4.63379L24.9113 7.62891H24.9122C25.2777 7.76524 25.5931 8.00962 25.8156 8.3291C26.0379 8.64849 26.1566 9.02826 26.1573 9.41699V15.6729C26.1573 21.8209 22.1663 27.54 16.7726 29.2686L16.7697 29.2695C16.4266 29.3806 16.0551 29.3806 15.712 29.2695L15.7101 29.2686L15.2081 29.0957C10.0704 27.1824 6.32442 21.6164 6.32434 15.6729V9.41602C6.32434 8.61534 6.81962 7.90391 7.57629 7.61328L7.57532 7.6123L15.5704 4.62012H15.5724Z" stroke="black" stroke-width="1.5"/>
</svg>
