<svg width="32" height="32" viewBox="0 0 32 32" fill="none" xmlns="http://www.w3.org/2000/svg">
<path d="M18.75 10H16.0001H11.2062C9.1031 10 7.29391 11.4144 6.93575 13.3603C6.30207 16.7891 5.65921 20.2351 5.03472 23.6296C4.68574 25.4983 7.04595 26.7413 8.58882 25.4983L12.4368 22.3867C12.6296 22.2238 12.8868 22.1381 13.1439 22.1381H18.847H18.8562C19.1133 22.1381 19.3705 22.2238 19.5633 22.3867L23.4113 25.4983C24.945 26.7413 27.3144 25.5069 26.9654 23.6296C26.4942 21.1054 26.023 18.5528 25.5518 16" stroke="black" stroke-width="1.5" stroke-linecap="round" stroke-linejoin="round"/>
<path d="M11.5 14V18" stroke="black" stroke-width="1.5" stroke-linecap="round"/>
<path d="M9.49997 16L13.5 16" stroke="black" stroke-width="1.5" stroke-linecap="round"/>
<circle cx="18" cy="16" r="1" fill="black"/>
<circle cx="22" cy="16" r="1" fill="black"/>
<circle cx="20" cy="14" r="1" fill="black"/>
<circle cx="20" cy="18" r="1" fill="black"/>
<path d="M22 10C23.6569 10 25 11.3431 25 13" stroke="black" stroke-width="1.5" stroke-linecap="round"/>
<path d="M22 7C25.3137 7 28 9.68629 28 13" stroke="black" stroke-width="1.5" stroke-linecap="round"/>
</svg>
