<svg width="32" height="32" viewBox="0 0 32 32" fill="none" xmlns="http://www.w3.org/2000/svg">
<path d="M9.25 9.25L13.75 13.75M9.25 22.75L13.75 18.25M18.25 18.25L22.75 22.75M22.75 9.25L18.25 13.75M10 25C10 24.2044 9.68393 23.4413 9.12132 22.8787C8.55871 22.3161 7.79565 22 7 22C6.20435 22 5.44129 22.3161 4.87868 22.8787C4.31607 23.4413 4 24.2044 4 25C4 25.7957 4.31607 26.5587 4.87868 27.1213C5.44129 27.6839 6.20435 28 7 28C7.79565 28 8.55871 27.6839 9.12132 27.1213C9.68393 26.5587 10 25.7957 10 25ZM28 7C28 6.20435 27.6839 5.44129 27.1213 4.87868C26.5587 4.31607 25.7957 4 25 4C24.2044 4 23.4413 4.31607 22.8787 4.87868C22.3161 5.44129 22 6.20435 22 7C22 7.79565 22.3161 8.55871 22.8787 9.12132C23.4413 9.68393 24.2044 10 25 10C25.7957 10 26.5587 9.68393 27.1213 9.12132C27.6839 8.55871 28 7.79565 28 7ZM10 7C10 6.20435 9.68393 5.44129 9.12132 4.87868C8.55871 4.31607 7.79565 4 7 4C6.20435 4 5.44129 4.31607 4.87868 4.87868C4.31607 5.44129 4 6.20435 4 7C4 7.79565 4.31607 8.55871 4.87868 9.12132C5.44129 9.68393 6.20435 10 7 10C7.79565 10 8.55871 9.68393 9.12132 9.12132C9.68393 8.55871 10 7.79565 10 7ZM28 25C28 24.2044 27.6839 23.4413 27.1213 22.8787C26.5587 22.3161 25.7957 22 25 22C24.2044 22 23.4413 22.3161 22.8787 22.8787C22.3161 23.4413 22 24.2044 22 25C22 25.7957 22.3161 26.5587 22.8787 27.1213C23.4413 27.6839 24.2044 28 25 28C25.7957 28 26.5587 27.6839 27.1213 27.1213C27.6839 26.5587 28 25.7957 28 25Z" stroke="black" stroke-width="1.5" stroke-linecap="round" stroke-linejoin="round"/>
<path d="M18.1213 13.8787C18.6839 14.4413 19 15.2044 19 16C19 16.7956 18.6839 17.5587 18.1213 18.1213C17.5587 18.6839 16.7956 19 16 19C15.2044 19 14.4413 18.6839 13.8787 18.1213C13.3161 17.5587 13 16.7956 13 16C13 15.2044 13.3161 14.4413 13.8787 13.8787C14.4413 13.3161 15.2044 13 16 13C16.7956 13 17.5587 13.3161 18.1213 13.8787Z" stroke="black" stroke-width="1.5" stroke-linecap="round" stroke-linejoin="round"/>
<path d="M19.2201 15.9419C20.3973 15.9419 22.1978 15.9419 22.1978 15.9419" stroke="black" stroke-width="1.5" stroke-linecap="round" stroke-linejoin="round"/>
<path d="M12.78 15.8282C11.6027 15.8282 9.80225 15.8282 9.80225 15.8282" stroke="black" stroke-width="1.5" stroke-linecap="round" stroke-linejoin="round"/>
<circle cx="23.9982" cy="15.8851" r="1.46594" transform="rotate(90 23.9982 15.8851)" stroke="black" stroke-width="1.5"/>
<circle cx="8.00183" cy="15.885" r="1.46594" transform="rotate(-90 8.00183 15.885)" stroke="black" stroke-width="1.5"/>
<path d="M16.0569 12.665C16.0569 11.4877 16.0569 9.68726 16.0569 9.68726" stroke="black" stroke-width="1.5" stroke-linecap="round" stroke-linejoin="round"/>
<path d="M15.9432 19.1051C15.9432 20.2823 15.9432 22.0828 15.9432 22.0828" stroke="black" stroke-width="1.5" stroke-linecap="round" stroke-linejoin="round"/>
<circle cx="16.0001" cy="7.88684" r="1.46594" stroke="black" stroke-width="1.5"/>
<circle cx="16" cy="23.8832" r="1.46594" transform="rotate(-180 16 23.8832)" stroke="black" stroke-width="1.5"/>
</svg>
