<svg width="32" height="32" viewBox="0 0 32 32" fill="none" xmlns="http://www.w3.org/2000/svg">
<mask id="path-1-inside-1_4851_11229" fill="white">
<path d="M23 3C23.7363 3 24.3328 3.59677 24.333 4.33301V5.66699H25.667C26.4032 5.66717 27 6.26373 27 7V9.66699L27.2725 9.68066C28.6171 9.81714 29.6668 10.9524 29.667 12.333V25.667C29.6668 27.1396 28.4726 28.333 27 28.333H5.66699C4.19435 28.333 3.00019 27.1396 3 25.667V12.333C3.00015 10.9526 4.0492 9.81744 5.39355 9.68066L5.66699 9.66699V7C5.66699 6.26362 6.26362 5.66699 7 5.66699H8.33301V4.33301C8.33317 3.59677 8.93071 3 9.66699 3H23Z"/>
</mask>
<path d="M24.333 4.33301H25.833V4.33267L24.333 4.33301ZM24.333 5.66699H22.833V7.16699H24.333V5.66699ZM25.667 5.66699L25.6674 4.16699H25.667V5.66699ZM27 9.66699H25.5V11.0936L26.9248 11.1651L27 9.66699ZM27.2725 9.68066L27.4239 8.18833L27.3859 8.18447L27.3476 8.18255L27.2725 9.68066ZM29.667 12.333H31.167V12.3328L29.667 12.333ZM29.667 25.667L31.167 25.6672V25.667H29.667ZM27 28.333V29.833V29.833V28.333ZM3 25.667H1.5V25.6672L3 25.667ZM3 12.333L1.5 12.3328V12.333H3ZM5.39355 9.68066L5.31865 8.18254L5.28011 8.18446L5.24173 8.18837L5.39355 9.68066ZM5.66699 9.66699L5.7419 11.1651L7.16699 11.0939V9.66699H5.66699ZM8.33301 5.66699V7.16699H9.83301V5.66699H8.33301ZM8.33301 4.33301L6.83301 4.33267V4.33301H8.33301ZM23 3V4.5C22.9075 4.5 22.833 4.42493 22.833 4.33334L24.333 4.33301L25.833 4.33267C25.8327 2.7686 24.565 1.5 23 1.5V3ZM24.333 4.33301H22.833V5.66699H24.333H25.833V4.33301H24.333ZM24.333 5.66699V7.16699H25.667V5.66699V4.16699H24.333V5.66699ZM25.667 5.66699L25.6666 7.16699C25.5751 7.16697 25.5 7.09252 25.5 7H27H28.5C28.5 5.43494 27.2314 4.16737 25.6674 4.16699L25.667 5.66699ZM27 7H25.5V9.66699H27H28.5V7H27ZM27 9.66699L26.9248 11.1651L27.1973 11.1788L27.2725 9.68066L27.3476 8.18255L27.0752 8.16888L27 9.66699ZM27.2725 9.68066L27.121 11.173C27.7081 11.2326 28.1669 11.7305 28.167 12.3332L29.667 12.333L31.167 12.3328C31.1667 10.1742 29.5261 8.40169 27.4239 8.18833L27.2725 9.68066ZM29.667 12.333H28.167V25.667H29.667H31.167V12.333H29.667ZM29.667 25.667L28.167 25.6668C28.1669 26.3106 27.6447 26.833 27 26.833V28.333V29.833C29.3005 29.833 31.1667 27.9686 31.167 25.6672L29.667 25.667ZM27 28.333V26.833H5.66699V28.333V29.833H27V28.333ZM5.66699 28.333V26.833C5.02225 26.833 4.50008 26.3106 4.5 25.6668L3 25.667L1.5 25.6672C1.50029 27.9686 3.36645 29.833 5.66699 29.833V28.333ZM3 25.667H4.5V12.333H3H1.5V25.667H3ZM3 12.333L4.5 12.3332C4.50007 11.7303 4.95867 11.2327 5.54538 11.173L5.39355 9.68066L5.24173 8.18837C3.13973 8.40222 1.50024 10.1749 1.5 12.3328L3 12.333ZM5.39355 9.68066L5.46846 11.1788L5.7419 11.1651L5.66699 9.66699L5.59209 8.16886L5.31865 8.18254L5.39355 9.68066ZM5.66699 9.66699H7.16699V7H5.66699H4.16699V9.66699H5.66699ZM5.66699 7H7.16699C7.16699 7.09205 7.09205 7.16699 7 7.16699V5.66699V4.16699C5.43519 4.16699 4.16699 5.43519 4.16699 7H5.66699ZM7 5.66699V7.16699H8.33301V5.66699V4.16699H7V5.66699ZM8.33301 5.66699H9.83301V4.33301H8.33301H6.83301V5.66699H8.33301ZM8.33301 4.33301L9.83301 4.33334C9.83299 4.42637 9.75804 4.5 9.66699 4.5V3V1.5C8.10338 1.5 6.83336 2.76717 6.83301 4.33267L8.33301 4.33301ZM9.66699 3V4.5H23V3V1.5H9.66699V3Z" fill="black" mask="url(#path-1-inside-1_4851_11229)"/>
<path d="M8.51173 22C8.28973 22 8.12473 21.949 8.01673 21.847C7.91473 21.739 7.86373 21.583 7.86373 21.379C7.86373 21.247 7.89673 21.124 7.96273 21.01C8.02873 20.896 8.11873 20.779 8.23273 20.659L9.92473 18.877C10.1767 18.607 10.3567 18.367 10.4647 18.157C10.5787 17.947 10.6357 17.737 10.6357 17.527C10.6357 17.263 10.5487 17.062 10.3747 16.924C10.2067 16.786 9.96073 16.717 9.63673 16.717C9.46273 16.717 9.28273 16.744 9.09673 16.798C8.91673 16.846 8.72773 16.927 8.52973 17.041C8.39773 17.113 8.27473 17.14 8.16073 17.122C8.05273 17.098 7.95973 17.047 7.88173 16.969C7.80373 16.885 7.75273 16.786 7.72873 16.672C7.70473 16.558 7.71673 16.444 7.76473 16.33C7.81273 16.216 7.90273 16.12 8.03473 16.042C8.29873 15.88 8.58673 15.76 8.89873 15.682C9.21073 15.598 9.51973 15.556 9.82573 15.556C10.2997 15.556 10.6987 15.628 11.0227 15.772C11.3467 15.91 11.5927 16.114 11.7607 16.384C11.9287 16.654 12.0127 16.984 12.0127 17.374C12.0127 17.626 11.9737 17.872 11.8957 18.112C11.8177 18.352 11.6947 18.595 11.5267 18.841C11.3647 19.081 11.1487 19.339 10.8787 19.615L9.30373 21.217V20.857H11.7427C11.9347 20.857 12.0787 20.905 12.1747 21.001C12.2767 21.097 12.3277 21.238 12.3277 21.424C12.3277 21.61 12.2767 21.754 12.1747 21.856C12.0787 21.952 11.9347 22 11.7427 22H8.51173ZM13.3952 22.045C13.1552 22.045 12.9632 21.973 12.8192 21.829C12.6812 21.685 12.6122 21.499 12.6122 21.271C12.6122 21.049 12.6812 20.869 12.8192 20.731C12.9632 20.587 13.1552 20.515 13.3952 20.515C13.6352 20.515 13.8212 20.587 13.9532 20.731C14.0912 20.869 14.1602 21.049 14.1602 21.271C14.1602 21.499 14.0912 21.685 13.9532 21.829C13.8212 21.973 13.6352 22.045 13.3952 22.045ZM16.8131 22.099C16.5071 22.099 16.1921 22.06 15.8681 21.982C15.5441 21.904 15.2471 21.787 14.9771 21.631C14.8391 21.553 14.7431 21.457 14.6891 21.343C14.6411 21.229 14.6261 21.112 14.6441 20.992C14.6681 20.872 14.7161 20.77 14.7881 20.686C14.8661 20.596 14.9621 20.539 15.0761 20.515C15.1961 20.491 15.3281 20.518 15.4721 20.596C15.6821 20.704 15.8951 20.788 16.1111 20.848C16.3331 20.908 16.5581 20.938 16.7861 20.938C17.0141 20.938 17.2091 20.899 17.3711 20.821C17.5331 20.743 17.6561 20.635 17.7401 20.497C17.8241 20.359 17.8661 20.197 17.8661 20.011C17.8661 19.723 17.7731 19.492 17.5871 19.318C17.4071 19.144 17.1611 19.057 16.8491 19.057C16.6931 19.057 16.5341 19.084 16.3721 19.138C16.2161 19.186 16.0541 19.273 15.8861 19.399C15.8261 19.447 15.7481 19.492 15.6521 19.534C15.5561 19.576 15.4541 19.597 15.3461 19.597C15.1601 19.597 15.0221 19.555 14.9321 19.471C14.8421 19.381 14.7971 19.252 14.7971 19.084V16.258C14.7971 16.06 14.8481 15.91 14.9501 15.808C15.0581 15.706 15.2081 15.655 15.4001 15.655H18.2891C18.4871 15.655 18.6371 15.706 18.7391 15.808C18.8411 15.904 18.8921 16.045 18.8921 16.231C18.8921 16.411 18.8411 16.552 18.7391 16.654C18.6371 16.75 18.4871 16.798 18.2891 16.798H16.1381V18.517H15.7961C15.9461 18.331 16.1441 18.187 16.3901 18.085C16.6361 17.983 16.9061 17.932 17.2001 17.932C17.6021 17.932 17.9531 18.019 18.2531 18.193C18.5531 18.361 18.7871 18.598 18.9551 18.904C19.1231 19.21 19.2071 19.564 19.2071 19.966C19.2071 20.386 19.1111 20.758 18.9191 21.082C18.7271 21.4 18.4511 21.649 18.0911 21.829C17.7311 22.009 17.3051 22.099 16.8131 22.099ZM22.8306 22.099C22.1166 22.099 21.5106 21.964 21.0126 21.694C20.5206 21.424 20.1456 21.046 19.8876 20.56C19.6296 20.074 19.5006 19.504 19.5006 18.85C19.5006 18.346 19.5756 17.893 19.7256 17.491C19.8816 17.083 20.1036 16.738 20.3916 16.456C20.6856 16.168 21.0396 15.946 21.4536 15.79C21.8736 15.634 22.3476 15.556 22.8756 15.556C23.1996 15.556 23.5236 15.592 23.8476 15.664C24.1716 15.736 24.4836 15.856 24.7836 16.024C24.9096 16.096 24.9936 16.189 25.0356 16.303C25.0836 16.411 25.0956 16.528 25.0716 16.654C25.0536 16.774 25.0056 16.882 24.9276 16.978C24.8556 17.068 24.7596 17.128 24.6396 17.158C24.5256 17.182 24.3936 17.158 24.2436 17.086C24.0456 16.978 23.8356 16.9 23.6136 16.852C23.3916 16.798 23.1486 16.771 22.8846 16.771C22.4586 16.771 22.1016 16.852 21.8136 17.014C21.5256 17.17 21.3096 17.404 21.1656 17.716C21.0276 18.022 20.9586 18.4 20.9586 18.85C20.9586 19.528 21.1206 20.041 21.4446 20.389C21.7746 20.737 22.2606 20.911 22.9026 20.911C23.1186 20.911 23.3406 20.89 23.5686 20.848C23.7966 20.806 24.0216 20.746 24.2436 20.668L23.9826 21.235V19.507H23.1726C22.9926 19.507 22.8546 19.462 22.7586 19.372C22.6626 19.282 22.6146 19.159 22.6146 19.003C22.6146 18.841 22.6626 18.718 22.7586 18.634C22.8546 18.544 22.9926 18.499 23.1726 18.499H24.5856C24.7656 18.499 24.9006 18.547 24.9906 18.643C25.0866 18.739 25.1346 18.877 25.1346 19.057V21.145C25.1346 21.301 25.1046 21.433 25.0446 21.541C24.9846 21.649 24.8826 21.727 24.7386 21.775C24.4686 21.871 24.1656 21.949 23.8296 22.009C23.4936 22.069 23.1606 22.099 22.8306 22.099Z" fill="black"/>
</svg>
