<svg width="32" height="32" viewBox="0 0 32 32" fill="none" xmlns="http://www.w3.org/2000/svg">
<path d="M9.25119 18.5566C11.0413 16.6584 13.4688 15.5921 16 15.5921C18.5312 15.5921 20.9587 16.6584 22.7488 18.5566M2.5 11.8064C4.27281 9.92595 6.37748 8.43425 8.69381 7.41653C11.0102 6.39881 13.4928 5.875 16 5.875C18.5072 5.875 20.9899 6.39881 23.3062 7.41653C25.6225 8.43425 27.7272 9.92595 29.5 11.8064" stroke="black" stroke-width="1.5" stroke-linecap="round" stroke-linejoin="round"/>
<path d="M17 25.7031C17 26.2554 16.5523 26.7031 16 26.7031C15.4477 26.7031 15 26.2554 15 25.7031C15 25.1508 15.4477 24.7031 16 24.7031C16.5523 24.7031 17 25.1508 17 25.7031Z" fill="black"/>
</svg>
