<svg width="32" height="32" viewBox="0 0 32 32" fill="none" xmlns="http://www.w3.org/2000/svg">
<g clip-path="url(#clip0_4911_2350)">
<path d="M9.05834 20C8.76234 20 8.54234 19.932 8.39834 19.796C8.26234 19.652 8.19434 19.444 8.19434 19.172C8.19434 18.996 8.23834 18.832 8.32634 18.68C8.41434 18.528 8.53434 18.372 8.68634 18.212L10.9423 15.836C11.2783 15.476 11.5183 15.156 11.6623 14.876C11.8143 14.596 11.8903 14.316 11.8903 14.036C11.8903 13.684 11.7743 13.416 11.5423 13.232C11.3183 13.048 10.9903 12.956 10.5583 12.956C10.3263 12.956 10.0863 12.992 9.83834 13.064C9.59834 13.128 9.34634 13.236 9.08234 13.388C8.90634 13.484 8.74234 13.52 8.59034 13.496C8.44634 13.464 8.32234 13.396 8.21834 13.292C8.11434 13.18 8.04634 13.048 8.01434 12.896C7.98234 12.744 7.99834 12.592 8.06234 12.44C8.12634 12.288 8.24634 12.16 8.42234 12.056C8.77434 11.84 9.15834 11.68 9.57434 11.576C9.99034 11.464 10.4023 11.408 10.8103 11.408C11.4423 11.408 11.9743 11.504 12.4063 11.696C12.8383 11.88 13.1663 12.152 13.3903 12.512C13.6143 12.872 13.7263 13.312 13.7263 13.832C13.7263 14.168 13.6743 14.496 13.5703 14.816C13.4663 15.136 13.3023 15.46 13.0783 15.788C12.8623 16.108 12.5743 16.452 12.2143 16.82L10.1143 18.956V18.476H13.3663C13.6223 18.476 13.8143 18.54 13.9423 18.668C14.0783 18.796 14.1463 18.984 14.1463 19.232C14.1463 19.48 14.0783 19.672 13.9423 19.808C13.8143 19.936 13.6223 20 13.3663 20H9.05834Z" fill="black"/>
<path d="M20.517 20.132C19.917 20.132 19.385 20.056 18.921 19.904C18.465 19.744 18.081 19.512 17.769 19.208C17.457 18.904 17.221 18.524 17.061 18.068C16.909 17.604 16.833 17.068 16.833 16.46V12.38C16.833 12.068 16.913 11.832 17.073 11.672C17.233 11.512 17.465 11.432 17.769 11.432C18.065 11.432 18.293 11.512 18.453 11.672C18.613 11.832 18.693 12.068 18.693 12.38V16.472C18.693 17.16 18.849 17.68 19.161 18.032C19.473 18.376 19.925 18.548 20.517 18.548C21.109 18.548 21.557 18.376 21.861 18.032C22.173 17.68 22.329 17.16 22.329 16.472V12.38C22.329 12.068 22.409 11.832 22.569 11.672C22.729 11.512 22.957 11.432 23.253 11.432C23.549 11.432 23.773 11.512 23.925 11.672C24.085 11.832 24.165 12.068 24.165 12.38V16.46C24.165 17.268 24.025 17.948 23.745 18.5C23.473 19.044 23.065 19.452 22.521 19.724C21.985 19.996 21.317 20.132 20.517 20.132Z" fill="black"/>
<rect x="3" y="3" width="26" height="26" rx="4" stroke="black" stroke-width="1.5"/>
</g>
<defs>
<clipPath id="clip0_4911_2350">
<rect width="32" height="32" fill="white"/>
</clipPath>
</defs>
</svg>
