<svg width="32" height="29" viewBox="0 0 32 29" fill="none" xmlns="http://www.w3.org/2000/svg">
<g clip-path="url(#clip0_6230_395)">
<path d="M1.66666 15.4375L1.66666 12.1667C1.66666 10.6939 2.86055 9.50003 4.33329 9.50001L5.66629 9.5L11.0004 9.50001L12.3333 9.50001C13.8061 9.50001 15 10.6939 15 12.1667L15 12.914" stroke="black" stroke-width="1.5" stroke-miterlimit="10" stroke-linecap="round" stroke-linejoin="round"/>
<path d="M12.3333 5.9375C12.3333 3.96999 10.5425 2.375 8.33334 2.375C6.1242 2.375 4.33334 3.96999 4.33334 5.9375C4.33334 7.90501 6.1242 9.5 8.33334 9.5C10.5425 9.5 12.3333 7.90501 12.3333 5.9375Z" stroke="black" stroke-width="1.5" stroke-miterlimit="10" stroke-linecap="round"/>
<path d="M4.33334 17.8125V23.4583C4.33334 24.9311 5.52725 26.125 7.00001 26.125H9.66668C11.1394 26.125 12.3333 24.9311 12.3333 23.4583V23.1563" stroke="black" stroke-width="1.5" stroke-linecap="round"/>
<path d="M20.6666 23.1563V23.4583C20.6666 24.9311 21.8605 26.125 23.3333 26.125H26C27.4727 26.125 28.6666 24.9311 28.6666 23.4583V17.8125" stroke="black" stroke-width="1.5" stroke-linecap="round"/>
<path d="M28.6666 5.9375C28.6666 3.96999 26.8758 2.375 24.6666 2.375C22.4575 2.375 20.6666 3.96999 20.6666 5.9375C20.6666 7.90501 22.4575 9.5 24.6666 9.5C26.8758 9.5 28.6666 7.90501 28.6666 5.9375Z" stroke="black" stroke-width="1.5" stroke-miterlimit="10" stroke-linecap="round"/>
<path d="M18 12.914V12.1667C18 10.6939 19.1939 9.50003 20.6666 9.50001L21.9996 9.5L27.3337 9.50001L28.6667 9.50001C30.1394 9.50001 31.3333 10.6939 31.3333 12.1667V15.4375" stroke="black" stroke-width="1.5" stroke-miterlimit="10" stroke-linecap="round" stroke-linejoin="round"/>
<path d="M24.3001 17.3363H18" stroke="black" stroke-width="1.5" stroke-linecap="round" stroke-linejoin="round"/>
<path d="M21.3 20.6625L25.3 17.463L21.3 14.25" stroke="black" stroke-width="1.5" stroke-linecap="round" stroke-linejoin="round"/>
<path d="M8.99998 17.5762L15.3 17.5762" stroke="black" stroke-width="1.5" stroke-linecap="round" stroke-linejoin="round"/>
<path d="M12 14.25L8 17.4495L12 20.6625" stroke="black" stroke-width="1.5" stroke-linecap="round" stroke-linejoin="round"/>
</g>
<defs>
<clipPath id="clip0_6230_395">
<rect width="32" height="28.5" fill="white"/>
</clipPath>
</defs>
</svg>
