<svg width="32" height="32" viewBox="0 0 32 32" fill="none" xmlns="http://www.w3.org/2000/svg">
<g clip-path="url(#clip0_6230_223)">
<path d="M11.2267 8.66663L9.00002 10.8933L7.66669 9.55996" stroke="black" stroke-width="1.5" stroke-linecap="round" stroke-linejoin="round"/>
<path d="M15.6667 9.56H19.6667" stroke="black" stroke-width="1.5" stroke-linecap="round" stroke-linejoin="round"/>
<path d="M11.2267 13.9999L9.00002 16.2266L7.66669 14.8933" stroke="black" stroke-width="1.5" stroke-linecap="round" stroke-linejoin="round"/>
<path d="M11.2267 19.2266L9.00002 21.4533L7.66669 20.12" stroke="black" stroke-width="1.5" stroke-linecap="round" stroke-linejoin="round"/>
<path d="M15.6667 14.8933H19.6667" stroke="black" stroke-width="1.5" stroke-linecap="round" stroke-linejoin="round"/>
<path d="M13 27H5.66667C4.2 27 3 25.8 3 24.3333V5.66667C3 4.2 4.2 3 5.66667 3H8.33333H21.6667C23.1333 3 24.3333 4.2 24.3333 5.66667V12.5" stroke="black" stroke-width="1.5" stroke-linecap="round" stroke-linejoin="round"/>
<path d="M21 24L22.6667 26L26 22" stroke="black" stroke-width="1.5" stroke-miterlimit="10" stroke-linecap="round" stroke-linejoin="round"/>
<circle cx="23.5" cy="23.5" r="7.25" stroke="black" stroke-width="1.5"/>
</g>
<defs>
<clipPath id="clip0_6230_223">
<rect width="32" height="32" fill="white"/>
</clipPath>
</defs>
</svg>
