<svg width="32" height="32" viewBox="0 0 32 32" fill="none" xmlns="http://www.w3.org/2000/svg">
<path d="M13.2571 25H3.74288C2.7804 25 2 24.0914 2 22.9875V21.0125C2 19.9011 2.7869 19 3.74288 19H13.2571C14.2196 19 15 19.9086 15 21.0125V22.9875C15 24.0914 14.2131 25 13.2571 25Z" stroke="black" stroke-width="1.5" stroke-linecap="round" stroke-linejoin="round"/>
<path d="M28.2571 25H18.7429C17.7804 25 17 24.0914 17 22.9875V21.0125C17 19.9011 17.7869 19 18.7429 19H28.2571C29.2196 19 30 19.9086 30 21.0125V22.9875C30 24.0914 29.2131 25 28.2571 25Z" stroke="black" stroke-width="1.5" stroke-linecap="round" stroke-linejoin="round"/>
<path d="M21.1231 11H10.8769C9.84043 11 9 10.0914 9 8.98749V7.01252C9 5.90113 9.84743 5 10.8769 5H21.1231C22.1596 5 23 5.90864 23 7.01252V8.98749C23 10.0914 22.1526 11 21.1231 11Z" stroke="black" stroke-width="1.5" stroke-linecap="round" stroke-linejoin="round"/>
<path d="M16 12L16 14" stroke="black" stroke-width="1.5" stroke-linecap="round" stroke-linejoin="round"/>
<path d="M24 18V15H8V18" stroke="black" stroke-width="1.5" stroke-linecap="round" stroke-linejoin="round"/>
</svg>
