<svg width="32" height="32" viewBox="0 0 32 32" fill="none" xmlns="http://www.w3.org/2000/svg">
<path d="M26.6667 18.6667V17.9167C26.4678 17.9167 26.277 17.9957 26.1363 18.1363L26.6667 18.6667ZM24 21.3333L23.4697 21.8637C23.7626 22.1566 24.2374 22.1566 24.5303 21.8637L24 21.3333ZM21.3333 18.6667L21.8637 18.1363C21.723 17.9957 21.5322 17.9167 21.3333 17.9167V18.6667ZM5.33333 24L5.86366 23.4697C5.72301 23.329 5.53224 23.25 5.33333 23.25V24ZM8 26.6667L7.46967 27.197C7.76256 27.4899 8.23743 27.4899 8.53033 27.197L8 26.6667ZM10.6667 24V23.25C10.4678 23.25 10.277 23.329 10.1363 23.4697L10.6667 24ZM20 24.75C20.4142 24.75 20.75 24.4142 20.75 24C20.75 23.5858 20.4142 23.25 20 23.25V24V24.75ZM11.6667 5.33334V6.08334H28.3333V5.33334V4.58334H11.6667V5.33334ZM29.3333 6.33334H28.5833V17.6667H29.3333H30.0833V6.33334H29.3333ZM10.6667 17.6667H11.4167V6.33334H10.6667H9.91666V17.6667H10.6667ZM26.6667 18.6667L26.1363 18.1363L23.4697 20.803L24 21.3333L24.5303 21.8637L27.197 19.197L26.6667 18.6667ZM24 21.3333L24.5303 20.803L21.8637 18.1363L21.3333 18.6667L20.803 19.197L23.4697 21.8637L24 21.3333ZM2.66666 10.3333H1.91666V23H2.66666H3.41666V10.3333H2.66666ZM10.6667 9.33334V8.58334H3.66666V9.33334V10.0833H10.6667V9.33334ZM5.33333 24L4.803 24.5303L7.46967 27.197L8 26.6667L8.53033 26.1363L5.86366 23.4697L5.33333 24ZM8 26.6667L8.53033 27.197L11.197 24.5303L10.6667 24L10.1363 23.4697L7.46967 26.1363L8 26.6667ZM3.66666 24V24.75H5.33333V24V23.25H3.66666V24ZM10.6667 24V24.75H20V24V23.25H10.6667V24ZM28.3333 18.6667V17.9167H26.6667V18.6667V19.4167H28.3333V18.6667ZM21.3333 18.6667V17.9167H11.6667V18.6667V19.4167H21.3333V18.6667ZM2.66666 23H1.91666C1.91666 23.9665 2.70017 24.75 3.66666 24.75V24V23.25C3.52859 23.25 3.41666 23.1381 3.41666 23H2.66666ZM10.6667 17.6667H9.91666C9.91666 18.6332 10.7002 19.4167 11.6667 19.4167V18.6667V17.9167C11.5286 17.9167 11.4167 17.8047 11.4167 17.6667H10.6667ZM2.66666 10.3333H3.41666C3.41666 10.1953 3.52859 10.0833 3.66666 10.0833V9.33334V8.58334C2.70017 8.58334 1.91666 9.36685 1.91666 10.3333H2.66666ZM29.3333 17.6667H28.5833C28.5833 17.8047 28.4714 17.9167 28.3333 17.9167V18.6667V19.4167C29.2998 19.4167 30.0833 18.6332 30.0833 17.6667H29.3333ZM28.3333 5.33334V6.08334C28.4714 6.08334 28.5833 6.19527 28.5833 6.33334H29.3333H30.0833C30.0833 5.36685 29.2998 4.58334 28.3333 4.58334V5.33334ZM11.6667 5.33334V4.58334C10.7002 4.58334 9.91666 5.36684 9.91666 6.33334H10.6667H11.4167C11.4167 6.19527 11.5286 6.08334 11.6667 6.08334V5.33334Z" fill="black"/>
<circle cx="16" cy="12" r="1" fill="black"/>
<circle cx="20" cy="12" r="1" fill="black"/>
<circle cx="24" cy="12" r="1" fill="black"/>
</svg>
