<svg width="32" height="32" viewBox="0 0 32 32" fill="none" xmlns="http://www.w3.org/2000/svg">
<path d="M16.0045 4.32944L17.8603 6.62869C17.9657 6.75993 18.1065 6.8575 18.2657 6.90961C18.4249 6.96172 18.5956 6.96616 18.7572 6.92235L21.5841 6.15384C21.7087 6.12015 21.8393 6.11503 21.9661 6.13883C22.093 6.16264 22.213 6.21476 22.3173 6.29141C22.4217 6.36806 22.5077 6.4673 22.5692 6.58186C22.6307 6.69643 22.6661 6.82343 22.6728 6.95358L22.8213 9.90887C22.8306 10.0776 22.8882 10.24 22.987 10.3763C23.0858 10.5127 23.2216 10.6173 23.378 10.6774L26.1121 11.7333C26.2324 11.7801 26.3409 11.8535 26.4296 11.9481C26.5183 12.0427 26.5849 12.1562 26.6246 12.2801C26.6643 12.4041 26.6761 12.5354 26.6592 12.6646C26.6422 12.7937 26.5969 12.9174 26.5265 13.0266L24.9306 15.5258C24.8401 15.6673 24.7919 15.8322 24.7919 16.0006C24.7919 16.1691 24.8401 16.334 24.9306 16.4755L26.5265 18.9747C26.5969 19.0839 26.6422 19.2076 26.6592 19.3367C26.6761 19.4659 26.6643 19.5972 26.6246 19.7211C26.5849 19.8451 26.5183 19.9585 26.4296 20.0531C26.3409 20.1478 26.2324 20.2211 26.1121 20.268L23.378 21.3239C23.2207 21.3844 23.0842 21.4899 22.9854 21.6275C22.8865 21.7651 22.8295 21.9288 22.8213 22.0986L22.6728 25.054C22.6652 25.1836 22.6292 25.3098 22.5673 25.4236C22.5055 25.5374 22.4193 25.6359 22.315 25.7119C22.2108 25.7878 22.0911 25.8394 21.9647 25.8629C21.8383 25.8863 21.7083 25.881 21.5841 25.8474L18.7572 25.0789C18.5956 25.0351 18.4249 25.0396 18.2657 25.0917C18.1065 25.1438 17.9657 25.2413 17.8603 25.3726L16.0045 27.6781C15.9233 27.7787 15.821 27.8598 15.7049 27.9155C15.5888 27.9711 15.4619 28 15.3334 28C15.2049 28 15.078 27.9711 14.9619 27.9155C14.8458 27.8598 14.7434 27.7787 14.6622 27.6781L12.8065 25.3726C12.701 25.2413 12.5602 25.1438 12.4011 25.0917C12.2419 25.0396 12.0712 25.0351 11.9095 25.0789L9.08264 25.8474C8.95848 25.881 8.82848 25.8863 8.70205 25.8629C8.57563 25.8394 8.45595 25.7878 8.35171 25.7119C8.24748 25.6359 8.16129 25.5374 8.09941 25.4236C8.03753 25.3098 8.0015 25.1836 7.99395 25.054L7.84549 22.0986C7.83727 21.9288 7.78025 21.7651 7.68137 21.6275C7.5825 21.4899 7.44607 21.3844 7.28877 21.3239L4.55466 20.268C4.4343 20.2211 4.32582 20.1478 4.23715 20.0531C4.14847 19.9585 4.08184 19.8451 4.04212 19.7211C4.0024 19.5972 3.9906 19.4659 4.00757 19.3367C4.02454 19.2076 4.06986 19.0839 4.14021 18.9747L5.73613 16.4755C5.82668 16.334 5.87485 16.1691 5.87485 16.0006C5.87485 15.8322 5.82668 15.6673 5.73613 15.5258L4.14021 13.0266C4.06986 12.9174 4.02454 12.7937 4.00757 12.6646C3.9906 12.5354 4.0024 12.4041 4.04212 12.2801C4.08184 12.1562 4.14847 12.0427 4.23715 11.9481C4.32582 11.8535 4.4343 11.7801 4.55466 11.7333L7.28877 10.6774C7.44515 10.6173 7.58094 10.5127 7.67974 10.3763C7.77854 10.24 7.8361 10.0776 7.84549 9.90887L7.99395 6.95358C8.00062 6.82343 8.03601 6.69643 8.09751 6.58186C8.15902 6.4673 8.24508 6.36806 8.34943 6.29141C8.45378 6.21476 8.57377 6.16264 8.70063 6.13883C8.82748 6.11503 8.958 6.12015 9.08264 6.15384L11.9095 6.92235C12.0712 6.96616 12.2419 6.96172 12.4011 6.90961C12.5602 6.8575 12.701 6.75993 12.8065 6.62869L14.6622 4.32944C14.7421 4.22679 14.844 4.14378 14.9603 4.08672C15.0765 4.02965 15.2041 4 15.3334 4C15.4626 4 15.5902 4.02965 15.7065 4.08672C15.8227 4.14378 15.9247 4.22679 16.0045 4.32944Z" stroke="black" stroke-width="1.5" stroke-miterlimit="10"/>
</svg>
