<svg width="32" height="32" viewBox="0 0 32 32" fill="none" xmlns="http://www.w3.org/2000/svg">
<path d="M9.25 9.24997L13.75 13.75M9.25 22.75L13.75 18.25M18.25 18.25L22.75 22.75M22.75 9.24997L18.25 13.75M10 25C10 24.2043 9.68393 23.4413 9.12132 22.8787C8.55871 22.316 7.79565 22 7 22C6.20435 22 5.44129 22.316 4.87868 22.8787C4.31607 23.4413 4 24.2043 4 25C4 25.7956 4.31607 26.5587 4.87868 27.1213C5.44129 27.6839 6.20435 28 7 28C7.79565 28 8.55871 27.6839 9.12132 27.1213C9.68393 26.5587 10 25.7956 10 25ZM28 6.99997C28 6.20432 27.6839 5.44126 27.1213 4.87865C26.5587 4.31604 25.7957 3.99997 25 3.99997C24.2044 3.99997 23.4413 4.31604 22.8787 4.87865C22.3161 5.44126 22 6.20432 22 6.99997C22 7.79562 22.3161 8.55868 22.8787 9.12129C23.4413 9.6839 24.2044 9.99997 25 9.99997C25.7957 9.99997 26.5587 9.6839 27.1213 9.12129C27.6839 8.55868 28 7.79562 28 6.99997ZM10 6.99997C10 6.20432 9.68393 5.44126 9.12132 4.87865C8.55871 4.31604 7.79565 3.99997 7 3.99997C6.20435 3.99997 5.44129 4.31604 4.87868 4.87865C4.31607 5.44126 4 6.20432 4 6.99997C4 7.79562 4.31607 8.55868 4.87868 9.12129C5.44129 9.6839 6.20435 9.99997 7 9.99997C7.79565 9.99997 8.55871 9.6839 9.12132 9.12129C9.68393 8.55868 10 7.79562 10 6.99997ZM28 25C28 24.2043 27.6839 23.4413 27.1213 22.8787C26.5587 22.316 25.7957 22 25 22C24.2044 22 23.4413 22.316 22.8787 22.8787C22.3161 23.4413 22 24.2043 22 25C22 25.7956 22.3161 26.5587 22.8787 27.1213C23.4413 27.6839 24.2044 28 25 28C25.7957 28 26.5587 27.6839 27.1213 27.1213C27.6839 26.5587 28 25.7956 28 25Z" stroke="black" stroke-width="1.5" stroke-linecap="round" stroke-linejoin="round"/>
<path d="M18.1213 13.8787C18.6839 14.4413 19 15.2044 19 16C19 16.7956 18.6839 17.5587 18.1213 18.1213C17.5587 18.6839 16.7956 19 16 19C15.2044 19 14.4413 18.6839 13.8787 18.1213C13.3161 17.5587 13 16.7956 13 16C13 15.2044 13.3161 14.4413 13.8787 13.8787C14.4413 13.3161 15.2044 13 16 13C16.7956 13 17.5587 13.3161 18.1213 13.8787Z" stroke="black" stroke-width="1.5" stroke-linecap="round" stroke-linejoin="round"/>
</svg>
