<svg width="32" height="32" viewBox="0 0 32 32" fill="none" xmlns="http://www.w3.org/2000/svg">
<path d="M11.4167 4C11.4167 3.58579 11.0809 3.25 10.6667 3.25C10.2525 3.25 9.91669 3.58579 9.91669 4L10.6667 4L11.4167 4ZM10.6667 4L9.91669 4L9.91669 8L10.6667 8L11.4167 8L11.4167 4L10.6667 4Z" fill="black"/>
<path d="M28 11.4167C28.4142 11.4167 28.75 11.0809 28.75 10.6667C28.75 10.2525 28.4142 9.91669 28 9.91669L28 10.6667L28 11.4167ZM28 10.6667L28 9.91669L24 9.91669L24 10.6667L24 11.4167L28 11.4167L28 10.6667Z" fill="black"/>
<path d="M4 9.91669C3.58579 9.91669 3.25 10.2525 3.25 10.6667C3.25 11.0809 3.58579 11.4167 4 11.4167L4 10.6667L4 9.91669ZM8 10.6667L8 9.91669L4 9.91669L4 10.6667L4 11.4167L8 11.4167L8 10.6667Z" fill="black"/>
<path d="M9.91669 28C9.91669 28.4142 10.2525 28.75 10.6667 28.75C11.0809 28.75 11.4167 28.4142 11.4167 28L10.6667 28L9.91669 28ZM10.6667 24L9.91669 24L9.91669 28L10.6667 28L11.4167 28L11.4167 24L10.6667 24Z" fill="black"/>
<path d="M16.75 4C16.75 3.58579 16.4142 3.25 16 3.25C15.5858 3.25 15.25 3.58579 15.25 4L16 4L16.75 4ZM16 4L15.25 4L15.25 8L16 8L16.75 8L16.75 4L16 4Z" fill="black"/>
<path d="M28 16.75C28.4142 16.75 28.75 16.4142 28.75 16C28.75 15.5858 28.4142 15.25 28 15.25L28 16L28 16.75ZM28 16L28 15.25L24 15.25L24 16L24 16.75L28 16.75L28 16Z" fill="black"/>
<path d="M4 15.25C3.58579 15.25 3.25 15.5858 3.25 16C3.25 16.4142 3.58579 16.75 4 16.75L4 16L4 15.25ZM8 16L8 15.25L4 15.25L4 16L4 16.75L8 16.75L8 16Z" fill="black"/>
<path d="M15.25 28C15.25 28.4142 15.5858 28.75 16 28.75C16.4142 28.75 16.75 28.4142 16.75 28L16 28L15.25 28ZM16 24L15.25 24L15.25 28L16 28L16.75 28L16.75 24L16 24Z" fill="black"/>
<path d="M22.0833 4C22.0833 3.58579 21.7475 3.25 21.3333 3.25C20.9191 3.25 20.5833 3.58579 20.5833 4L21.3333 4L22.0833 4ZM21.3333 4L20.5833 4L20.5833 8L21.3333 8L22.0833 8L22.0833 4L21.3333 4Z" fill="black"/>
<path d="M28 22.0833C28.4142 22.0833 28.75 21.7476 28.75 21.3333C28.75 20.9191 28.4142 20.5833 28 20.5833L28 21.3333L28 22.0833ZM28 21.3333L28 20.5833L24 20.5833L24 21.3333L24 22.0833L28 22.0833L28 21.3333Z" fill="black"/>
<path d="M4 20.5833C3.58579 20.5833 3.25 20.9191 3.25 21.3333C3.25 21.7476 3.58579 22.0833 4 22.0833L4 21.3333L4 20.5833ZM8 21.3333L8 20.5833L4 20.5833L4 21.3333L4 22.0833L8 22.0833L8 21.3333Z" fill="black"/>
<path d="M20.5833 28C20.5833 28.4142 20.9191 28.75 21.3333 28.75C21.7475 28.75 22.0833 28.4142 22.0833 28L21.3333 28L20.5833 28ZM21.3333 24L20.5833 24L20.5833 28L21.3333 28L22.0833 28L22.0833 24L21.3333 24Z" fill="black"/>
<rect x="8" y="8" width="16" height="16" rx="2.66667" stroke="black" stroke-width="1.5" stroke-linecap="round" stroke-linejoin="round"/>
</svg>
