<svg width="32" height="32" viewBox="0 0 32 32" fill="none" xmlns="http://www.w3.org/2000/svg">
<path d="M10 28H4.66668C3.56212 28 2.66669 27.1046 2.66669 26V23.3333C2.66669 22.2288 3.56212 21.3333 4.66669 21.3333H13" stroke="black" stroke-width="1.5" stroke-linecap="round"/>
<path d="M27.25 16C27.25 16.4142 27.5858 16.75 28 16.75C28.4142 16.75 28.75 16.4142 28.75 16H28H27.25ZM8 4V4.75H24V4V3.25H8V4ZM4 21.3333H4.75V8H4H3.25V21.3333H4ZM28 8H27.25V16H28H28.75V8H28ZM24 4V4.75C25.7949 4.75 27.25 6.20507 27.25 8H28H28.75C28.75 5.37665 26.6234 3.25 24 3.25V4ZM8 4V3.25C5.37665 3.25 3.25 5.37665 3.25 8H4H4.75C4.75 6.20507 6.20507 4.75 8 4.75V4Z" fill="black"/>
<path d="M21.0955 14.4472C21.5132 13.7788 22.4867 13.7788 22.9045 14.4473L30.98 27.368C31.424 28.0785 30.9132 29 30.0755 29H13.9245C13.0867 29 12.5759 28.0785 13.02 27.368L21.0955 14.4472Z" stroke="black" stroke-width="1.5" stroke-linejoin="round"/>
<path d="M22 22L22 19.3333" stroke="black" stroke-width="1.5" stroke-linecap="round"/>
<path d="M23 25C23 25.5523 22.5523 26 22 26C21.4477 26 21 25.5523 21 25C21 24.4477 21.4477 24 22 24C22.5523 24 23 24.4477 23 25Z" fill="black"/>
</svg>
