<svg width="32" height="33" viewBox="0 0 32 33" fill="none" xmlns="http://www.w3.org/2000/svg">
<path d="M21.6667 13.6667V8.33333C21.6667 6.49333 17.4933 5 12.3333 5C7.17333 5 3 6.49333 3 8.33333V19C3 20.84 7.17333 22.3333 12.3333 22.3333C13.2667 22.3333 14.16 22.28 15.0133 22.1867" stroke="black" stroke-width="1.5" stroke-linecap="round" stroke-linejoin="round"/>
<path d="M21.668 28.832C25.2578 28.832 28.168 25.9219 28.168 22.332C28.168 18.7422 25.2578 15.832 21.668 15.832C18.0781 15.832 15.168 18.7422 15.168 22.332C15.168 25.9219 18.0781 28.832 21.668 28.832Z" stroke="black" stroke-width="1.4625" stroke-linecap="round" stroke-linejoin="round"/>
<path d="M24 22H19.5V25H24V22Z" stroke="black" stroke-width="1.5" stroke-linecap="round" stroke-linejoin="round"/>
<path d="M21.75 19C22.575 19 23.25 19.675 23.25 20.5V22H20.25V20.5C20.25 19.675 20.925 19 21.75 19Z" stroke="black" stroke-width="1.5" stroke-linecap="round" stroke-linejoin="round"/>
<path d="M21.6667 8.33398C21.6667 10.174 17.4933 11.6673 12.3333 11.6673C7.17333 11.6673 3 10.174 3 8.33398" stroke="black" stroke-width="1.5" stroke-linecap="round" stroke-linejoin="round"/>
<path d="M21.6667 13.666C21.6667 15.506 17.4933 16.9993 12.3333 16.9993C7.17333 16.9993 3 15.506 3 13.666" stroke="black" stroke-width="1.5" stroke-linecap="round" stroke-linejoin="round"/>
</svg>
