<svg width="32" height="32" viewBox="0 0 32 32" fill="none" xmlns="http://www.w3.org/2000/svg">
<path d="M15.3314 3.53677C15.7606 3.3749 16.2339 3.37617 16.6556 3.54459L16.6624 3.54752L16.6703 3.55045L24.6703 6.54556H24.6712C25.0367 6.68189 25.3521 6.92628 25.5746 7.24576C25.7969 7.56515 25.9156 7.94491 25.9164 8.33365V14.5895C25.9163 20.7376 21.9253 26.4567 16.5316 28.1852L16.5287 28.1862C16.1856 28.2972 15.8141 28.2973 15.471 28.1862L15.4691 28.1852L14.9671 28.0124C9.82945 26.0991 6.08342 20.5331 6.08334 14.5895V8.33267C6.08334 7.53199 6.57862 6.82057 7.3353 6.52994L7.33432 6.52896L15.3294 3.53677H15.3314Z" stroke="black" stroke-width="1.5"/>
<path d="M12 14.6667L14.6667 17.3333L20 12" stroke="black" stroke-width="1.5" stroke-miterlimit="10" stroke-linecap="round" stroke-linejoin="round"/>
</svg>
