<svg width="32" height="32" viewBox="0 0 32 32" fill="none" xmlns="http://www.w3.org/2000/svg">
<mask id="path-1-inside-1_4851_11227" fill="white">
<path d="M22.6667 4C23.4029 4 23.9995 4.59678 23.9997 5.33301V6.66699H25.3336C26.0699 6.66717 26.6667 7.26373 26.6667 8V10.667L26.9391 10.6807C28.2838 10.8171 29.3335 11.9524 29.3336 13.333V26.667C29.3335 28.1396 28.1393 29.333 26.6667 29.333H5.33365C3.861 29.333 2.66683 28.1396 2.66666 26.667V13.333C2.66682 11.9526 3.71586 10.8174 5.06021 10.6807L5.33365 10.667V8C5.33365 7.26362 5.93028 6.66699 6.66666 6.66699H7.99966V5.33301C7.99984 4.59678 8.59738 4 9.33365 4H22.6667Z"/>
</mask>
<path d="M23.9997 5.33301H25.4997V5.33265L23.9997 5.33301ZM23.9997 6.66699H22.4997V8.16699H23.9997V6.66699ZM25.3336 6.66699L25.334 5.16699H25.3336V6.66699ZM26.6667 8H28.1667V8H26.6667ZM26.6667 10.667H25.1667V12.0936L26.5915 12.1651L26.6667 10.667ZM26.9391 10.6807L27.0906 9.18833L27.0525 9.18447L27.0143 9.18255L26.9391 10.6807ZM29.3336 13.333H30.8336V13.3328L29.3336 13.333ZM29.3336 26.667L30.8336 26.6672V26.667H29.3336ZM26.6667 29.333V30.833V30.833V29.333ZM2.66666 26.667H1.16666V26.6672L2.66666 26.667ZM2.66666 13.333L1.16666 13.3328V13.333H2.66666ZM5.06021 10.6807L4.9853 9.18254L4.94677 9.18446L4.90839 9.18837L5.06021 10.6807ZM5.33365 10.667L5.40856 12.1651L6.83365 12.0939V10.667H5.33365ZM7.99966 6.66699V8.16699H9.49966V6.66699H7.99966ZM7.99966 5.33301L6.49966 5.33265V5.33301H7.99966ZM22.6667 4V5.5C22.5741 5.5 22.4997 5.42493 22.4997 5.33337L23.9997 5.33301L25.4997 5.33265C25.4993 3.76863 24.2317 2.5 22.6667 2.5V4ZM23.9997 5.33301H22.4997V6.66699H23.9997H25.4997V5.33301H23.9997ZM23.9997 6.66699V8.16699H25.3336V6.66699V5.16699H23.9997V6.66699ZM25.3336 6.66699L25.3333 8.16699C25.2417 8.16697 25.1667 8.09252 25.1667 8H26.6667H28.1667C28.1667 6.43494 26.898 5.16737 25.334 5.16699L25.3336 6.66699ZM26.6667 8H25.1667V10.667H26.6667H28.1667V8H26.6667ZM26.6667 10.667L26.5915 12.1651L26.8639 12.1788L26.9391 10.6807L27.0143 9.18255L26.7418 9.16888L26.6667 10.667ZM26.9391 10.6807L26.7877 12.173C27.3748 12.2326 27.8336 12.7305 27.8336 13.3332L29.3336 13.333L30.8336 13.3328C30.8334 11.1742 29.1928 9.40169 27.0906 9.18833L26.9391 10.6807ZM29.3336 13.333H27.8336V26.667H29.3336H30.8336V13.333H29.3336ZM29.3336 26.667L27.8336 26.6668C27.8336 27.3106 27.3114 27.833 26.6667 27.833V29.333V30.833C28.9672 30.833 30.8334 28.9686 30.8336 26.6672L29.3336 26.667ZM26.6667 29.333V27.833H5.33365V29.333V30.833H26.6667V29.333ZM5.33365 29.333V27.833C4.68889 27.833 4.16673 27.3106 4.16666 26.6668L2.66666 26.667L1.16666 26.6672C1.16693 28.9686 3.03311 30.833 5.33365 30.833V29.333ZM2.66666 26.667H4.16666V13.333H2.66666H1.16666V26.667H2.66666ZM2.66666 13.333L4.16666 13.3332C4.16673 12.7303 4.62534 12.2326 5.21203 12.173L5.06021 10.6807L4.90839 9.18837C2.80639 9.40222 1.16691 11.1749 1.16666 13.3328L2.66666 13.333ZM5.06021 10.6807L5.13512 12.1788L5.40856 12.1651L5.33365 10.667L5.25874 9.16886L4.9853 9.18254L5.06021 10.6807ZM5.33365 10.667H6.83365V8H5.33365H3.83365V10.667H5.33365ZM5.33365 8H6.83365C6.83365 8.09205 6.7587 8.16699 6.66666 8.16699V6.66699V5.16699C5.10185 5.16699 3.83365 6.43519 3.83365 8H5.33365ZM6.66666 6.66699V8.16699H7.99966V6.66699V5.16699H6.66666V6.66699ZM7.99966 6.66699H9.49966V5.33301H7.99966H6.49966V6.66699H7.99966ZM7.99966 5.33301L9.49966 5.33337C9.49964 5.42636 9.42473 5.5 9.33365 5.5V4V2.5C7.77002 2.5 6.50004 3.7672 6.49966 5.33265L7.99966 5.33301ZM9.33365 4V5.5H22.6667V4V2.5H9.33365V4Z" fill="black" mask="url(#path-1-inside-1_4851_11227)"/>
<path d="M6.6534 22.3333C6.4614 22.3333 6.3144 22.2823 6.2124 22.1803C6.1104 22.0783 6.0594 21.9373 6.0594 21.7573C6.0594 21.5713 6.1104 21.4303 6.2124 21.3343C6.3144 21.2383 6.4614 21.1903 6.6534 21.1903H7.5624V17.1313H8.2194L6.9054 17.9323C6.7674 18.0163 6.6384 18.0493 6.5184 18.0313C6.4044 18.0133 6.3054 17.9623 6.2214 17.8783C6.1374 17.7943 6.0804 17.6953 6.0504 17.5813C6.0264 17.4613 6.0384 17.3443 6.0864 17.2303C6.1344 17.1103 6.2244 17.0083 6.3564 16.9243L7.6074 16.1683C7.7334 16.0903 7.8594 16.0273 7.9854 15.9793C8.1174 15.9313 8.2464 15.9073 8.3724 15.9073C8.5524 15.9073 8.6934 15.9553 8.7954 16.0513C8.9034 16.1413 8.9574 16.2823 8.9574 16.4743V21.1903H9.7764C9.9624 21.1903 10.1064 21.2383 10.2084 21.3343C10.3104 21.4303 10.3614 21.5713 10.3614 21.7573C10.3614 21.9433 10.3104 22.0873 10.2084 22.1893C10.1064 22.2853 9.9624 22.3333 9.7764 22.3333H6.6534ZM12.8869 22.4323C12.1189 22.4323 11.5309 22.1473 11.1229 21.5773C10.7209 21.0013 10.5199 20.1883 10.5199 19.1383C10.5199 18.4363 10.6099 17.8453 10.7899 17.3653C10.9759 16.8793 11.2429 16.5133 11.5909 16.2673C11.9449 16.0153 12.3769 15.8893 12.8869 15.8893C13.6609 15.8893 14.2489 16.1683 14.6509 16.7263C15.0529 17.2783 15.2539 18.0823 15.2539 19.1383C15.2539 19.8403 15.1609 20.4373 14.9749 20.9293C14.7949 21.4153 14.5309 21.7873 14.1829 22.0453C13.8349 22.3033 13.4029 22.4323 12.8869 22.4323ZM12.8869 21.2983C13.2349 21.2983 13.4929 21.1273 13.6609 20.7853C13.8289 20.4373 13.9129 19.8883 13.9129 19.1383C13.9129 18.3883 13.8289 17.8483 13.6609 17.5183C13.4929 17.1883 13.2349 17.0233 12.8869 17.0233C12.5389 17.0233 12.2809 17.1883 12.1129 17.5183C11.9449 17.8483 11.8609 18.3883 11.8609 19.1383C11.8609 19.8883 11.9449 20.4373 12.1129 20.7853C12.2809 21.1273 12.5389 21.2983 12.8869 21.2983ZM17.8334 22.4323C17.0654 22.4323 16.4774 22.1473 16.0694 21.5773C15.6674 21.0013 15.4664 20.1883 15.4664 19.1383C15.4664 18.4363 15.5564 17.8453 15.7364 17.3653C15.9224 16.8793 16.1894 16.5133 16.5374 16.2673C16.8914 16.0153 17.3234 15.8893 17.8334 15.8893C18.6074 15.8893 19.1954 16.1683 19.5974 16.7263C19.9994 17.2783 20.2004 18.0823 20.2004 19.1383C20.2004 19.8403 20.1074 20.4373 19.9214 20.9293C19.7414 21.4153 19.4774 21.7873 19.1294 22.0453C18.7814 22.3033 18.3494 22.4323 17.8334 22.4323ZM17.8334 21.2983C18.1814 21.2983 18.4394 21.1273 18.6074 20.7853C18.7754 20.4373 18.8594 19.8883 18.8594 19.1383C18.8594 18.3883 18.7754 17.8483 18.6074 17.5183C18.4394 17.1883 18.1814 17.0233 17.8334 17.0233C17.4854 17.0233 17.2274 17.1883 17.0594 17.5183C16.8914 17.8483 16.8074 18.3883 16.8074 19.1383C16.8074 19.8883 16.8914 20.4373 17.0594 20.7853C17.2274 21.1273 17.4854 21.2983 17.8334 21.2983ZM23.8599 22.4323C23.1459 22.4323 22.5399 22.2973 22.0419 22.0273C21.5499 21.7573 21.1749 21.3793 20.9169 20.8933C20.6589 20.4073 20.5299 19.8373 20.5299 19.1833C20.5299 18.6793 20.6049 18.2263 20.7549 17.8243C20.9109 17.4163 21.1329 17.0713 21.4209 16.7893C21.7149 16.5013 22.0689 16.2793 22.4829 16.1233C22.9029 15.9673 23.3769 15.8893 23.9049 15.8893C24.2289 15.8893 24.5529 15.9253 24.8769 15.9973C25.2009 16.0693 25.5129 16.1893 25.8129 16.3573C25.9389 16.4293 26.0229 16.5223 26.0649 16.6363C26.1129 16.7443 26.1249 16.8613 26.1009 16.9873C26.0829 17.1073 26.0349 17.2153 25.9569 17.3113C25.8849 17.4013 25.7889 17.4613 25.6689 17.4913C25.5549 17.5153 25.4229 17.4913 25.2729 17.4193C25.0749 17.3113 24.8649 17.2333 24.6429 17.1853C24.4209 17.1313 24.1779 17.1043 23.9139 17.1043C23.4879 17.1043 23.1309 17.1853 22.8429 17.3473C22.5549 17.5033 22.3389 17.7373 22.1949 18.0493C22.0569 18.3553 21.9879 18.7333 21.9879 19.1833C21.9879 19.8613 22.1499 20.3743 22.4739 20.7223C22.8039 21.0703 23.2899 21.2443 23.9319 21.2443C24.1479 21.2443 24.3699 21.2233 24.5979 21.1813C24.8259 21.1393 25.0509 21.0793 25.2729 21.0013L25.0119 21.5683V19.8403H24.2019C24.0219 19.8403 23.8839 19.7953 23.7879 19.7053C23.6919 19.6153 23.6439 19.4923 23.6439 19.3363C23.6439 19.1743 23.6919 19.0513 23.7879 18.9673C23.8839 18.8773 24.0219 18.8323 24.2019 18.8323H25.6149C25.7949 18.8323 25.9299 18.8803 26.0199 18.9763C26.1159 19.0723 26.1639 19.2103 26.1639 19.3903V21.4783C26.1639 21.6343 26.1339 21.7663 26.0739 21.8743C26.0139 21.9823 25.9119 22.0603 25.7679 22.1083C25.4979 22.2043 25.1949 22.2823 24.8589 22.3423C24.5229 22.4023 24.1899 22.4323 23.8599 22.4323Z" fill="black"/>
</svg>
