<svg width="32" height="32" viewBox="0 0 32 32" fill="none" xmlns="http://www.w3.org/2000/svg">
<path d="M8.93941 21.4C7.27578 21.4 5.68029 20.7679 4.50393 19.6426C3.32756 18.5174 2.66669 16.9913 2.66669 15.4C2.66669 13.8087 3.32756 12.2826 4.50393 11.1574C5.68029 10.0321 7.27578 9.4 8.93941 9.4C9.33233 7.64957 10.4818 6.11131 12.1349 5.12362C12.9534 4.63456 13.8709 4.2954 14.8351 4.12548C15.7993 3.95557 16.7912 3.95824 17.7542 4.13333C18.7173 4.30843 19.6325 4.65252 20.4478 5.14597C21.2631 5.63942 21.9624 6.27256 22.5058 7.00924C23.0492 7.74592 23.426 8.57171 23.6148 9.43946C23.8036 10.3072 23.8006 11.1999 23.6061 12.0667H24.9394C26.1771 12.0667 27.3641 12.5583 28.2392 13.4335C29.1144 14.3087 29.6061 15.4957 29.6061 16.7333C29.6061 17.971 29.1144 19.158 28.2392 20.0332C27.3641 20.9083 26.1771 21.4 24.9394 21.4H23.6061M16.2346 16H15.9853C15.6847 16 15.3965 16.1194 15.1839 16.3319C14.9714 16.5445 14.852 16.8328 14.852 17.1333V17.2353C14.8518 17.4341 14.7993 17.6293 14.6998 17.8013C14.6004 17.9734 14.4574 18.1163 14.2853 18.2157L14.0416 18.3573C13.8693 18.4568 13.6739 18.5092 13.475 18.5092C13.276 18.5092 13.0806 18.4568 12.9083 18.3573L12.8233 18.312C12.5632 18.162 12.2543 18.1213 11.9642 18.1988C11.6742 18.2764 11.4268 18.4659 11.2763 18.7257L11.1516 18.941C11.0016 19.2011 10.9609 19.51 11.0385 19.8001C11.116 20.0901 11.3055 20.3375 11.5653 20.488L11.6503 20.5447C11.8216 20.6436 11.964 20.7856 12.0634 20.9565C12.1628 21.1275 12.2158 21.3216 12.217 21.5193V21.8083C12.2178 22.008 12.1658 22.2044 12.0663 22.3776C11.9667 22.5507 11.8232 22.6945 11.6503 22.7943L11.5653 22.8453C11.3055 22.9958 11.116 23.2432 11.0385 23.5333C10.9609 23.8233 11.0016 24.1323 11.1516 24.3923L11.2763 24.6077C11.4268 24.8675 11.6742 25.057 11.9642 25.1345C12.2543 25.2121 12.5632 25.1714 12.8233 25.0213L12.9083 24.976C13.0806 24.8765 13.276 24.8242 13.475 24.8242C13.6739 24.8242 13.8693 24.8765 14.0416 24.976L14.2853 25.1177C14.4574 25.2171 14.6004 25.3599 14.6998 25.532C14.7993 25.7041 14.8518 25.8993 14.852 26.098V26.2C14.852 26.5006 14.9714 26.7889 15.1839 27.0014C15.3965 27.2139 15.6847 27.3334 15.9853 27.3334H16.2346C16.5352 27.3334 16.8235 27.2139 17.036 27.0014C17.2486 26.7889 17.368 26.5006 17.368 26.2V26.098C17.3682 25.8993 17.4206 25.7041 17.5201 25.532C17.6196 25.3599 17.7625 25.2171 17.9346 25.1177L18.1783 24.976C18.3506 24.8765 18.546 24.8242 18.745 24.8242C18.9439 24.8242 19.1394 24.8765 19.3116 24.976L19.3966 25.0213C19.6567 25.1714 19.9657 25.2121 20.2557 25.1345C20.5458 25.057 20.7932 24.8675 20.9436 24.6077L21.0683 24.3867C21.2183 24.1266 21.259 23.8177 21.1815 23.5276C21.1039 23.2376 20.9144 22.9902 20.6546 22.8397L20.5696 22.7943C20.3967 22.6945 20.2532 22.5507 20.1537 22.3776C20.0542 22.2044 20.0022 22.008 20.003 21.8083V21.525C20.0022 21.3253 20.0542 21.1289 20.1537 20.9558C20.2532 20.7826 20.3967 20.6389 20.5696 20.539L20.6546 20.488C20.9144 20.3375 21.1039 20.0901 21.1815 19.8001C21.259 19.51 21.2183 19.2011 21.0683 18.941L20.9436 18.7257C20.7932 18.4659 20.5458 18.2764 20.2557 18.1988C19.9657 18.1213 19.6567 18.162 19.3966 18.312L19.3116 18.3573C19.1394 18.4568 18.9439 18.5092 18.745 18.5092C18.546 18.5092 18.3506 18.4568 18.1783 18.3573L17.9346 18.2157C17.7625 18.1163 17.6196 17.9734 17.5201 17.8013C17.4206 17.6293 17.3682 17.4341 17.368 17.2353V17.1333C17.368 16.8328 17.2486 16.5445 17.036 16.3319C16.8235 16.1194 16.5352 16 16.2346 16ZM17.81 21.6667C17.81 22.6056 17.0489 23.3667 16.11 23.3667C15.1711 23.3667 14.41 22.6056 14.41 21.6667C14.41 20.7278 15.1711 19.9667 16.11 19.9667C17.0489 19.9667 17.81 20.7278 17.81 21.6667Z" stroke="black" stroke-width="1.5" stroke-linecap="round" stroke-linejoin="round"/>
</svg>
