<svg width="32" height="32" viewBox="0 0 32 32" fill="none" xmlns="http://www.w3.org/2000/svg">
<path d="M10 8V6C10 4.89543 10.8954 4 12 4H20C21.1046 4 22 4.89543 22 6V8" stroke="black" stroke-width="1.5" stroke-linecap="round"/>
<rect x="2.75" y="8.75" width="26.5" height="17.5" rx="3.25" stroke="black" stroke-width="1.5"/>
<path d="M18.4504 11.2907C19.2032 11.2197 19.9503 11.3882 20.5982 11.7757C20.8106 11.903 20.9463 12.1267 20.9611 12.3739C20.976 12.6212 20.8677 12.8595 20.6718 13.0113L18.9129 14.3724L18.9816 15.1569L19.6162 15.6193L21.2579 14.3491L21.3429 14.292C21.5468 14.1745 21.7965 14.1589 22.016 14.2542C22.267 14.3633 22.4392 14.6006 22.4644 14.8731C22.5347 15.6343 22.4106 16.4107 22.1081 17.1179C21.8055 17.8252 21.332 18.4446 20.7336 18.902L20.7324 18.9027C20.1004 19.3851 19.3511 19.6703 18.5741 19.7035C17.9851 19.7287 17.4078 19.6074 16.8845 19.3538L11.867 23.1851C11.8624 23.1886 11.8578 23.1921 11.8531 23.1955C11.4205 23.51 10.8792 23.6471 10.3449 23.5411C9.8097 23.4348 9.36193 23.1006 9.08778 22.6387C8.81582 22.1804 8.73304 21.632 8.83205 21.112C8.9311 20.5921 9.20926 20.1129 9.6238 19.7809L9.6377 19.7704L14.7319 15.8788C14.7061 15.2511 14.8089 14.6176 15.0363 14.0255C15.3189 13.2899 15.7832 12.6383 16.3831 12.1521C16.9835 11.6656 17.6993 11.3615 18.4504 11.2907Z" stroke="black" stroke-width="1.5" stroke-linejoin="round"/>
</svg>
