<svg width="32" height="32" viewBox="0 0 32 32" fill="none" xmlns="http://www.w3.org/2000/svg">
<mask id="path-1-inside-1_4851_11228" fill="white">
<path d="M22.6667 4C23.403 4 23.9995 4.59678 23.9997 5.33301V6.66699H25.3337C26.0699 6.66717 26.6667 7.26373 26.6667 8V10.667L26.9391 10.6807C28.2838 10.8171 29.3335 11.9524 29.3337 13.333V26.667C29.3335 28.1396 28.1393 29.333 26.6667 29.333H5.33368C3.86103 29.333 2.66686 28.1396 2.66669 26.667V13.333C2.66685 11.9526 3.71589 10.8174 5.06024 10.6807L5.33368 10.667V8C5.33368 7.26362 5.93031 6.66699 6.66669 6.66699H7.99969V5.33301C7.99987 4.59678 8.59741 4 9.33368 4H22.6667Z"/>
</mask>
<path d="M23.9997 5.33301H25.4997V5.33265L23.9997 5.33301ZM23.9997 6.66699H22.4997V8.16699H23.9997V6.66699ZM25.3337 6.66699L25.334 5.16699H25.3337V6.66699ZM26.6667 8H28.1667V8H26.6667ZM26.6667 10.667H25.1667V12.0936L26.5915 12.1651L26.6667 10.667ZM26.9391 10.6807L27.0906 9.18833L27.0525 9.18447L27.0143 9.18255L26.9391 10.6807ZM29.3337 13.333H30.8337V13.3328L29.3337 13.333ZM29.3337 26.667L30.8337 26.6672V26.667H29.3337ZM26.6667 29.333V30.833V30.833V29.333ZM2.66669 26.667H1.16669V26.6672L2.66669 26.667ZM2.66669 13.333L1.16669 13.3328V13.333H2.66669ZM5.06024 10.6807L4.98534 9.18254L4.9468 9.18446L4.90842 9.18837L5.06024 10.6807ZM5.33368 10.667L5.40859 12.1651L6.83368 12.0939V10.667H5.33368ZM7.99969 6.66699V8.16699H9.49969V6.66699H7.99969ZM7.99969 5.33301L6.49969 5.33265V5.33301H7.99969ZM22.6667 4V5.5C22.5742 5.5 22.4997 5.42493 22.4997 5.33337L23.9997 5.33301L25.4997 5.33265C25.4993 3.76863 24.2317 2.5 22.6667 2.5V4ZM23.9997 5.33301H22.4997V6.66699H23.9997H25.4997V5.33301H23.9997ZM23.9997 6.66699V8.16699H25.3337V6.66699V5.16699H23.9997V6.66699ZM25.3337 6.66699L25.3333 8.16699C25.2418 8.16697 25.1667 8.09252 25.1667 8H26.6667H28.1667C28.1667 6.43494 26.8981 5.16737 25.334 5.16699L25.3337 6.66699ZM26.6667 8H25.1667V10.667H26.6667H28.1667V8H26.6667ZM26.6667 10.667L26.5915 12.1651L26.864 12.1788L26.9391 10.6807L27.0143 9.18255L26.7419 9.16888L26.6667 10.667ZM26.9391 10.6807L26.7877 12.173C27.3748 12.2326 27.8336 12.7305 27.8337 13.3332L29.3337 13.333L30.8337 13.3328C30.8334 11.1742 29.1928 9.40169 27.0906 9.18833L26.9391 10.6807ZM29.3337 13.333H27.8337V26.667H29.3337H30.8337V13.333H29.3337ZM29.3337 26.667L27.8337 26.6668C27.8336 27.3106 27.3114 27.833 26.6667 27.833V29.333V30.833C28.9672 30.833 30.8334 28.9686 30.8337 26.6672L29.3337 26.667ZM26.6667 29.333V27.833H5.33368V29.333V30.833H26.6667V29.333ZM5.33368 29.333V27.833C4.68892 27.833 4.16676 27.3106 4.16669 26.6668L2.66669 26.667L1.16669 26.6672C1.16696 28.9686 3.03314 30.833 5.33368 30.833V29.333ZM2.66669 26.667H4.16669V13.333H2.66669H1.16669V26.667H2.66669ZM2.66669 13.333L4.16669 13.3332C4.16676 12.7303 4.62537 12.2326 5.21206 12.173L5.06024 10.6807L4.90842 9.18837C2.80642 9.40222 1.16694 11.1749 1.16669 13.3328L2.66669 13.333ZM5.06024 10.6807L5.13515 12.1788L5.40859 12.1651L5.33368 10.667L5.25877 9.16886L4.98534 9.18254L5.06024 10.6807ZM5.33368 10.667H6.83368V8H5.33368H3.83368V10.667H5.33368ZM5.33368 8H6.83368C6.83368 8.09205 6.75873 8.16699 6.66669 8.16699V6.66699V5.16699C5.10188 5.16699 3.83368 6.43519 3.83368 8H5.33368ZM6.66669 6.66699V8.16699H7.99969V6.66699V5.16699H6.66669V6.66699ZM7.99969 6.66699H9.49969V5.33301H7.99969H6.49969V6.66699H7.99969ZM7.99969 5.33301L9.49969 5.33337C9.49967 5.42636 9.42476 5.5 9.33368 5.5V4V2.5C7.77006 2.5 6.50007 3.7672 6.49969 5.33265L7.99969 5.33301ZM9.33368 4V5.5H22.6667V4V2.5H9.33368V4Z" fill="black" mask="url(#path-1-inside-1_4851_11228)"/>
<path d="M9.12669 22.3333C8.93469 22.3333 8.78769 22.2823 8.68569 22.1803C8.58369 22.0783 8.53269 21.9373 8.53269 21.7573C8.53269 21.5713 8.58369 21.4303 8.68569 21.3343C8.78769 21.2383 8.93469 21.1903 9.12669 21.1903H10.0357V17.1313H10.6927L9.37869 17.9323C9.24069 18.0163 9.11169 18.0493 8.99169 18.0313C8.87769 18.0133 8.77869 17.9623 8.69469 17.8783C8.61069 17.7943 8.55369 17.6953 8.52369 17.5813C8.49969 17.4613 8.51169 17.3443 8.55969 17.2303C8.60769 17.1103 8.69769 17.0083 8.82969 16.9243L10.0807 16.1683C10.2067 16.0903 10.3327 16.0273 10.4587 15.9793C10.5907 15.9313 10.7197 15.9073 10.8457 15.9073C11.0257 15.9073 11.1667 15.9553 11.2687 16.0513C11.3767 16.1413 11.4307 16.2823 11.4307 16.4743V21.1903H12.2497C12.4357 21.1903 12.5797 21.2383 12.6817 21.3343C12.7837 21.4303 12.8347 21.5713 12.8347 21.7573C12.8347 21.9433 12.7837 22.0873 12.6817 22.1893C12.5797 22.2853 12.4357 22.3333 12.2497 22.3333H9.12669ZM15.3602 22.4323C14.5922 22.4323 14.0042 22.1473 13.5962 21.5773C13.1942 21.0013 12.9932 20.1883 12.9932 19.1383C12.9932 18.4363 13.0832 17.8453 13.2632 17.3653C13.4492 16.8793 13.7162 16.5133 14.0642 16.2673C14.4182 16.0153 14.8502 15.8893 15.3602 15.8893C16.1342 15.8893 16.7222 16.1683 17.1242 16.7263C17.5262 17.2783 17.7272 18.0823 17.7272 19.1383C17.7272 19.8403 17.6342 20.4373 17.4482 20.9293C17.2682 21.4153 17.0042 21.7873 16.6562 22.0453C16.3082 22.3033 15.8762 22.4323 15.3602 22.4323ZM15.3602 21.2983C15.7082 21.2983 15.9662 21.1273 16.1342 20.7853C16.3022 20.4373 16.3862 19.8883 16.3862 19.1383C16.3862 18.3883 16.3022 17.8483 16.1342 17.5183C15.9662 17.1883 15.7082 17.0233 15.3602 17.0233C15.0122 17.0233 14.7542 17.1883 14.5862 17.5183C14.4182 17.8483 14.3342 18.3883 14.3342 19.1383C14.3342 19.8883 14.4182 20.4373 14.5862 20.7853C14.7542 21.1273 15.0122 21.2983 15.3602 21.2983ZM21.3867 22.4323C20.6727 22.4323 20.0667 22.2973 19.5687 22.0273C19.0767 21.7573 18.7017 21.3793 18.4437 20.8933C18.1857 20.4073 18.0567 19.8373 18.0567 19.1833C18.0567 18.6793 18.1317 18.2263 18.2817 17.8243C18.4377 17.4163 18.6597 17.0713 18.9477 16.7893C19.2417 16.5013 19.5957 16.2793 20.0097 16.1233C20.4297 15.9673 20.9037 15.8893 21.4317 15.8893C21.7557 15.8893 22.0797 15.9253 22.4037 15.9973C22.7277 16.0693 23.0397 16.1893 23.3397 16.3573C23.4657 16.4293 23.5497 16.5223 23.5917 16.6363C23.6397 16.7443 23.6517 16.8613 23.6277 16.9873C23.6097 17.1073 23.5617 17.2153 23.4837 17.3113C23.4117 17.4013 23.3157 17.4613 23.1957 17.4913C23.0817 17.5153 22.9497 17.4913 22.7997 17.4193C22.6017 17.3113 22.3917 17.2333 22.1697 17.1853C21.9477 17.1313 21.7047 17.1043 21.4407 17.1043C21.0147 17.1043 20.6577 17.1853 20.3697 17.3473C20.0817 17.5033 19.8657 17.7373 19.7217 18.0493C19.5837 18.3553 19.5147 18.7333 19.5147 19.1833C19.5147 19.8613 19.6767 20.3743 20.0007 20.7223C20.3307 21.0703 20.8167 21.2443 21.4587 21.2443C21.6747 21.2443 21.8967 21.2233 22.1247 21.1813C22.3527 21.1393 22.5777 21.0793 22.7997 21.0013L22.5387 21.5683V19.8403H21.7287C21.5487 19.8403 21.4107 19.7953 21.3147 19.7053C21.2187 19.6153 21.1707 19.4923 21.1707 19.3363C21.1707 19.1743 21.2187 19.0513 21.3147 18.9673C21.4107 18.8773 21.5487 18.8323 21.7287 18.8323H23.1417C23.3217 18.8323 23.4567 18.8803 23.5467 18.9763C23.6427 19.0723 23.6907 19.2103 23.6907 19.3903V21.4783C23.6907 21.6343 23.6607 21.7663 23.6007 21.8743C23.5407 21.9823 23.4387 22.0603 23.2947 22.1083C23.0247 22.2043 22.7217 22.2823 22.3857 22.3423C22.0497 22.4023 21.7167 22.4323 21.3867 22.4323Z" fill="black"/>
</svg>
