<svg width="32" height="32" viewBox="0 0 32 32" fill="none" xmlns="http://www.w3.org/2000/svg">
<path d="M20 14.6667V6.00002C20 4.15907 18.5076 2.66669 16.6667 2.66669H8.66667C6.82572 2.66669 5.33333 4.15907 5.33333 6.00002V24.6667C5.33333 26.5076 6.82572 28 8.66667 28H10.6667" stroke="black" stroke-width="1.5" stroke-linecap="round"/>
<path d="M11.3333 6.66669H14" stroke="black" stroke-width="1.5" stroke-linecap="round"/>
<path d="M10.6667 28L9.95887 24.4611C9.63526 22.843 10.8729 21.3334 12.523 21.3334C13.7694 21.3334 14.8426 22.2132 15.0871 23.4354L16 28H16.6667C18.5076 28 20 26.5076 20 24.6667V22.6667V14.6667L24.665 18.3987C25.9302 19.4108 26.6667 20.9432 26.6667 22.5634V28" stroke="black" stroke-width="1.5" stroke-miterlimit="10" stroke-linecap="round" stroke-linejoin="round"/>
<path d="M10.6667 14.6666L12 16L14.6667 13.3333" stroke="black" stroke-width="1.5" stroke-miterlimit="10" stroke-linecap="round" stroke-linejoin="round"/>
</svg>
