<svg width="32" height="32" viewBox="0 0 32 32" fill="none" xmlns="http://www.w3.org/2000/svg">
<path d="M10.5 7H21.5833L25.6667 11.0833V22.75C25.6667 25.0833 23.3333 25.6667 22.1667 25.6667H9.91667C7.58333 25.6667 7 23.3333 7 22.1667V9.91667C7 7.58333 9.33333 7 10.5 7Z" stroke="black" stroke-width="1.5"/>
<path d="M10.0834 3C10.0834 2.58579 9.74759 2.25 9.33337 2.25C8.91916 2.25 8.58337 2.58579 8.58337 3L9.33337 3L10.0834 3ZM9.33337 3L8.58337 3L8.58337 7L9.33337 7L10.0834 7L10.0834 3L9.33337 3Z" fill="black"/>
<path d="M3 8.58333C2.58579 8.58333 2.25 8.91911 2.25 9.33333C2.25 9.74754 2.58579 10.0833 3 10.0833L3 9.33333L3 8.58333ZM7 9.33333L7 8.58333L3 8.58333L3 9.33333L3 10.0833L7 10.0833L7 9.33333Z" fill="black"/>
<path d="M8.58337 29.3333C8.58337 29.7475 8.91916 30.0833 9.33337 30.0833C9.74759 30.0833 10.0834 29.7475 10.0834 29.3333L9.33337 29.3333L8.58337 29.3333ZM9.33337 25.3333L8.58337 25.3333L8.58337 29.3333L9.33337 29.3333L10.0834 29.3333L10.0834 25.3333L9.33337 25.3333Z" fill="black"/>
<path d="M15.9167 3C15.9167 2.58579 15.5809 2.25 15.1667 2.25C14.7525 2.25 14.4167 2.58579 14.4167 3L15.1667 3L15.9167 3ZM15.1667 3L14.4167 3L14.4167 7L15.1667 7L15.9167 7L15.9167 3L15.1667 3Z" fill="black"/>
<path d="M21.9167 3C21.9167 2.58579 21.5809 2.25 21.1667 2.25C20.7525 2.25 20.4167 2.58579 20.4167 3L21.1667 3L21.9167 3ZM21.1667 3L20.4167 3L20.4167 7L21.1667 7L21.9167 7L21.9167 3L21.1667 3Z" fill="black"/>
<path d="M29.6667 18.25C30.081 18.25 30.4167 17.9142 30.4167 17.5C30.4167 17.0858 30.081 16.75 29.6667 16.75L29.6667 17.5L29.6667 18.25ZM29.6667 17.5L29.6667 16.75L25.6667 16.75L25.6667 17.5L25.6667 18.25L29.6667 18.25L29.6667 17.5Z" fill="black"/>
<path d="M29.6667 12.25C30.081 12.25 30.4167 11.9142 30.4167 11.5C30.4167 11.0858 30.081 10.75 29.6667 10.75L29.6667 11.5L29.6667 12.25ZM29.6667 11.5L29.6667 10.75L25.6667 10.75L25.6667 11.5L25.6667 12.25L29.6667 12.25L29.6667 11.5Z" fill="black"/>
<path d="M3 15.5833C2.58579 15.5833 2.25 15.9191 2.25 16.3333C2.25 16.7475 2.58579 17.0833 3 17.0833L3 16.3333L3 15.5833ZM7 16.3333L7 15.5833L3 15.5833L3 16.3333L3 17.0833L7 17.0833L7 16.3333Z" fill="black"/>
<path d="M15.5834 29.3333C15.5834 29.7475 15.9192 30.0833 16.3334 30.0833C16.7476 30.0833 17.0834 29.7475 17.0834 29.3333L16.3334 29.3333L15.5834 29.3333ZM16.3334 25.3333L15.5834 25.3333L15.5834 29.3333L16.3334 29.3333L17.0834 29.3333L17.0834 25.3333L16.3334 25.3333Z" fill="black"/>
<path d="M29.6667 24.0833C30.081 24.0833 30.4167 23.7475 30.4167 23.3333C30.4167 22.9191 30.081 22.5833 29.6667 22.5833L29.6667 23.3333L29.6667 24.0833ZM29.6667 23.3333L29.6667 22.5833L25.6667 22.5833L25.6667 23.3333L25.6667 24.0833L29.6667 24.0833L29.6667 23.3333Z" fill="black"/>
<path d="M3 22.5833C2.58579 22.5833 2.25 22.9191 2.25 23.3333C2.25 23.7475 2.58579 24.0833 3 24.0833L3 23.3333L3 22.5833ZM7 23.3333L7 22.5833L3 22.5833L3 23.3333L3 24.0833L7 24.0833L7 23.3333Z" fill="black"/>
<path d="M22.4584 29.3333C22.4584 29.8166 22.8501 30.2083 23.3334 30.2083C23.8166 30.2083 24.2084 29.8166 24.2084 29.3333L23.3334 29.3333L22.4584 29.3333ZM23.3334 25.3333L22.4584 25.3333L22.4584 29.3333L23.3334 29.3333L24.2084 29.3333L24.2084 25.3333L23.3334 25.3333Z" fill="black"/>
<path d="M10.7813 18.7437C10.3753 18.7437 10.0253 18.6713 9.73135 18.5267C9.44201 18.3773 9.21801 18.1697 9.05935 17.9037C8.90535 17.633 8.82835 17.3157 8.82835 16.9517C8.82835 16.597 8.90301 16.2867 9.05235 16.0207C9.20168 15.75 9.40935 15.54 9.67535 15.3907C9.94601 15.2367 10.2517 15.1597 10.5923 15.1597C10.8397 15.1597 11.0637 15.2017 11.2643 15.2857C11.465 15.365 11.6377 15.4817 11.7823 15.6357C11.927 15.785 12.0367 15.9693 12.1113 16.1887C12.186 16.4033 12.2233 16.6437 12.2233 16.9097C12.2233 16.9983 12.1953 17.066 12.1393 17.1127C12.0833 17.1547 12.0017 17.1757 11.8943 17.1757H9.69635V16.6297H11.4603L11.3483 16.7277C11.3483 16.5363 11.3203 16.3777 11.2643 16.2517C11.2083 16.121 11.1267 16.023 11.0193 15.9577C10.9167 15.8923 10.7883 15.8597 10.6343 15.8597C10.4617 15.8597 10.3147 15.8993 10.1933 15.9787C10.072 16.058 9.97868 16.1723 9.91335 16.3217C9.84801 16.471 9.81535 16.6507 9.81535 16.8607V16.9167C9.81535 17.2713 9.89701 17.5327 10.0603 17.7007C10.2283 17.8687 10.4757 17.9527 10.8023 17.9527C10.9143 17.9527 11.0427 17.9387 11.1873 17.9107C11.332 17.8827 11.4673 17.8383 11.5933 17.7777C11.7007 17.7263 11.7963 17.71 11.8803 17.7287C11.9643 17.7427 12.0297 17.78 12.0763 17.8407C12.123 17.9013 12.1487 17.9713 12.1533 18.0507C12.1627 18.13 12.1463 18.2093 12.1043 18.2887C12.0623 18.3633 11.9923 18.4263 11.8943 18.4777C11.7357 18.5663 11.556 18.6317 11.3553 18.6737C11.1593 18.7203 10.968 18.7437 10.7813 18.7437ZM14.3431 18.7437C14.1471 18.7437 13.9465 18.7273 13.7411 18.6947C13.5405 18.6667 13.3468 18.6247 13.1601 18.5687C12.9781 18.5127 12.8148 18.4427 12.6701 18.3587C12.5675 18.3027 12.4951 18.2303 12.4531 18.1417C12.4111 18.0483 12.3948 17.955 12.4041 17.8617C12.4181 17.7683 12.4531 17.6867 12.5091 17.6167C12.5698 17.542 12.6445 17.4953 12.7331 17.4767C12.8265 17.4533 12.9291 17.4697 13.0411 17.5257C13.2325 17.633 13.4401 17.7123 13.6641 17.7637C13.8928 17.815 14.1191 17.8407 14.3431 17.8407C14.6838 17.8407 14.9265 17.7893 15.0711 17.6867C15.2158 17.5793 15.2881 17.4463 15.2881 17.2877C15.2881 17.1523 15.2368 17.045 15.1341 16.9657C15.0315 16.8863 14.8518 16.8187 14.5951 16.7627L13.8041 16.5947C13.3561 16.5013 13.0225 16.3427 12.8031 16.1187C12.5885 15.89 12.4811 15.5913 12.4811 15.2227C12.4811 14.9893 12.5301 14.777 12.6281 14.5857C12.7261 14.3943 12.8638 14.2287 13.0411 14.0887C13.2185 13.9487 13.4285 13.8413 13.6711 13.7667C13.9185 13.692 14.1891 13.6547 14.4831 13.6547C14.7445 13.6547 15.0011 13.6873 15.2531 13.7527C15.5051 13.8133 15.7268 13.9043 15.9181 14.0257C16.0115 14.0817 16.0745 14.154 16.1071 14.2427C16.1445 14.3267 16.1561 14.413 16.1421 14.5017C16.1328 14.5857 16.0978 14.6603 16.0371 14.7257C15.9811 14.791 15.9088 14.833 15.8201 14.8517C15.7315 14.8703 15.6241 14.8493 15.4981 14.7887C15.3441 14.7093 15.1808 14.651 15.0081 14.6137C14.8355 14.5763 14.6581 14.5577 14.4761 14.5577C14.2801 14.5577 14.1121 14.5833 13.9721 14.6347C13.8368 14.686 13.7318 14.7583 13.6571 14.8517C13.5871 14.945 13.5521 15.0523 13.5521 15.1737C13.5521 15.309 13.6011 15.4187 13.6991 15.5027C13.7971 15.5867 13.9675 15.6543 14.2101 15.7057L15.0011 15.8737C15.4585 15.9717 15.7991 16.1303 16.0231 16.3497C16.2471 16.5643 16.3591 16.849 16.3591 17.2037C16.3591 17.437 16.3125 17.6493 16.2191 17.8407C16.1258 18.0273 15.9905 18.1883 15.8131 18.3237C15.6358 18.459 15.4235 18.564 15.1761 18.6387C14.9288 18.7087 14.6511 18.7437 14.3431 18.7437ZM17.2595 18.7297C17.0822 18.7297 16.9469 18.6807 16.8535 18.5827C16.7602 18.4847 16.7135 18.347 16.7135 18.1697V14.2287C16.7135 14.0513 16.7602 13.9137 16.8535 13.8157C16.9469 13.7177 17.0822 13.6687 17.2595 13.6687C17.4322 13.6687 17.5652 13.7177 17.6585 13.8157C17.7519 13.9137 17.7985 14.0513 17.7985 14.2287V18.1697C17.7985 18.347 17.7519 18.4847 17.6585 18.5827C17.5699 18.6807 17.4369 18.7297 17.2595 18.7297ZM18.9456 18.7297C18.787 18.7297 18.6656 18.6853 18.5816 18.5967C18.4976 18.508 18.4556 18.3843 18.4556 18.2257V14.1727C18.4556 14.014 18.5 13.8903 18.5886 13.8017C18.682 13.713 18.808 13.6687 18.9666 13.6687C19.1066 13.6687 19.2163 13.6967 19.2956 13.7527C19.3796 13.804 19.4566 13.895 19.5266 14.0257L21.1436 16.9797H20.9056L22.5226 14.0257C22.5926 13.895 22.6673 13.804 22.7466 13.7527C22.8306 13.6967 22.9403 13.6687 23.0756 13.6687C23.2343 13.6687 23.3556 13.713 23.4396 13.8017C23.5283 13.8903 23.5726 14.014 23.5726 14.1727V18.2257C23.5726 18.3843 23.5306 18.508 23.4466 18.5967C23.3626 18.6853 23.2413 18.7297 23.0826 18.7297C22.924 18.7297 22.8003 18.6853 22.7116 18.5967C22.6276 18.508 22.5856 18.3843 22.5856 18.2257V15.3907H22.7396L21.4376 17.7217C21.3816 17.8103 21.321 17.878 21.2556 17.9247C21.195 17.9667 21.1133 17.9877 21.0106 17.9877C20.908 17.9877 20.824 17.9643 20.7586 17.9177C20.6933 17.871 20.635 17.8057 20.5836 17.7217L19.2676 15.3837H19.4356V18.2257C19.4356 18.3843 19.3936 18.508 19.3096 18.5967C19.2303 18.6853 19.109 18.7297 18.9456 18.7297Z" fill="black"/>
</svg>
