<svg width="32" height="32" viewBox="0 0 32 32" fill="none" xmlns="http://www.w3.org/2000/svg">
<path d="M15.3314 3.53679C15.7606 3.37491 16.2339 3.37618 16.6556 3.5446L16.6624 3.54753L16.6703 3.55046L24.6703 6.54557H24.6712C25.0367 6.68191 25.3521 6.92629 25.5746 7.24577C25.7969 7.56516 25.9156 7.94492 25.9164 8.33366V14.5895C25.9163 20.7376 21.9253 26.4567 16.5316 28.1852L16.5287 28.1862C16.1856 28.2972 15.8141 28.2973 15.471 28.1862L15.4691 28.1852L14.9671 28.0124C9.82945 26.0991 6.08342 20.5331 6.08334 14.5895V8.33268C6.08334 7.532 6.57862 6.82058 7.3353 6.52995L7.33432 6.52897L15.3294 3.53679H15.3314Z" stroke="black" stroke-width="1.5"/>
<path d="M15.1147 14.5855C15.0423 14.748 15.0033 14.9234 15.0002 15.1014C14.9971 15.2793 15.0298 15.456 15.0964 15.621C15.1631 15.786 15.2623 15.9358 15.3881 16.0616C15.5139 16.1875 15.6638 16.2867 15.8288 16.3533C15.9937 16.4199 16.1705 16.4527 16.3484 16.4495C16.5263 16.4464 16.7017 16.4074 16.8643 16.335M15.7971 12.0353C15.9832 12.0117 16.1705 11.9999 16.3581 12C19.4497 12 20.7747 15.0917 20.7747 15.0917C20.5771 15.5143 20.3295 15.9117 20.0371 16.2753" stroke="black" stroke-width="1.5" stroke-linecap="round" stroke-linejoin="round"/>
<path d="M13.6194 12.9194C12.7407 13.5173 12.0377 14.3392 11.5833 15.3C11.5833 15.3 12.9083 18.3917 16 18.3917C16.8462 18.3939 17.6743 18.1466 18.3806 17.6806M11.5833 10.8833L20.4167 19.7167" stroke="black" stroke-width="1.5" stroke-linecap="round" stroke-linejoin="round"/>
</svg>
