<svg width="32" height="32" viewBox="0 0 32 32" fill="none" xmlns="http://www.w3.org/2000/svg">
<path d="M28 14V21C28 24.866 24.866 28 21 28H11C7.13401 28 4 24.866 4 21V11C4 7.13401 7.13401 4 11 4L18.5 4" stroke="black" stroke-width="1.5" stroke-linecap="round"/>
<path d="M22 7C23.6569 7 25 8.34315 25 10" stroke="black" stroke-width="1.5" stroke-linecap="round"/>
<path d="M22 4C25.3137 4 28 6.68629 28 10" stroke="black" stroke-width="1.5" stroke-linecap="round"/>
<path d="M13.7708 21H18.2292C19.7595 21 21 19.7595 21 18.2292V15.1667V13.7708C21 12.2405 19.7595 11 18.2292 11H13.7708C12.2405 11 11 12.2405 11 13.7708V18.2292C11 19.7595 12.2405 21 13.7708 21Z" stroke="black" stroke-width="1.5" stroke-linecap="round"/>
</svg>
