<svg width="32" height="32" viewBox="0 0 32 32" fill="none" xmlns="http://www.w3.org/2000/svg">
<path d="M4.5 16H3M6.5 16H13" stroke="black" stroke-width="1.5" stroke-linecap="round" stroke-linejoin="round"/>
<path d="M3 19H9M11.5 19H13.25H13.5816C13.9721 19.9669 14.5593 20.873 15.3431 21.6569C18.4673 24.781 23.5327 24.781 26.6569 21.6569C29.781 18.5327 29.781 13.4673 26.6569 10.3431C23.5327 7.21895 18.4673 7.21895 15.3431 10.3431C14.5593 11.127 13.9721 12.0331 13.5816 13H13H9.75H3" stroke="black" stroke-width="1.5" stroke-linecap="round" stroke-linejoin="round"/>
<path d="M19.1337 17.008C19.6995 16.4081 20.4667 16.0711 21.2667 16.0711C22.0667 16.0711 22.8339 16.4081 23.3996 17.008M17 14.8746C17.5603 14.2803 18.2255 13.8089 18.9576 13.4872C19.6896 13.1656 20.4743 13 21.2667 13C22.0591 13 22.8437 13.1656 23.5758 13.4872C24.3079 13.8089 24.9731 14.2803 25.5333 14.8746" stroke="black" stroke-width="1.5" stroke-linecap="round" stroke-linejoin="round"/>
<path d="M22.25 19.5C22.25 20.0523 21.8023 20.5 21.25 20.5C20.6977 20.5 20.25 20.0523 20.25 19.5C20.25 18.9477 20.6977 18.5 21.25 18.5C21.8023 18.5 22.25 18.9477 22.25 19.5Z" fill="black"/>
</svg>
