<svg width="32" height="32" viewBox="0 0 32 32" fill="none" xmlns="http://www.w3.org/2000/svg">
<g clip-path="url(#clip0_4911_2334)">
<path d="M9.28634 20C9.03034 20 8.83434 19.932 8.69834 19.796C8.56234 19.66 8.49434 19.472 8.49434 19.232C8.49434 18.984 8.56234 18.796 8.69834 18.668C8.83434 18.54 9.03034 18.476 9.28634 18.476H10.4983V13.064H11.3743L9.62234 14.132C9.43834 14.244 9.26634 14.288 9.10634 14.264C8.95434 14.24 8.82234 14.172 8.71034 14.06C8.59834 13.948 8.52234 13.816 8.48234 13.664C8.45034 13.504 8.46634 13.348 8.53034 13.196C8.59434 13.036 8.71434 12.9 8.89034 12.788L10.5583 11.78C10.7263 11.676 10.8943 11.592 11.0623 11.528C11.2383 11.464 11.4103 11.432 11.5783 11.432C11.8183 11.432 12.0063 11.496 12.1423 11.624C12.2863 11.744 12.3583 11.932 12.3583 12.188V18.476H13.4503C13.6983 18.476 13.8903 18.54 14.0263 18.668C14.1623 18.796 14.2303 18.984 14.2303 19.232C14.2303 19.48 14.1623 19.672 14.0263 19.808C13.8903 19.936 13.6983 20 13.4503 20H9.28634Z" fill="black"/>
<path d="M20.517 20.132C19.917 20.132 19.385 20.056 18.921 19.904C18.465 19.744 18.081 19.512 17.769 19.208C17.457 18.904 17.221 18.524 17.061 18.068C16.909 17.604 16.833 17.068 16.833 16.46V12.38C16.833 12.068 16.913 11.832 17.073 11.672C17.233 11.512 17.465 11.432 17.769 11.432C18.065 11.432 18.293 11.512 18.453 11.672C18.613 11.832 18.693 12.068 18.693 12.38V16.472C18.693 17.16 18.849 17.68 19.161 18.032C19.473 18.376 19.925 18.548 20.517 18.548C21.109 18.548 21.557 18.376 21.861 18.032C22.173 17.68 22.329 17.16 22.329 16.472V12.38C22.329 12.068 22.409 11.832 22.569 11.672C22.729 11.512 22.957 11.432 23.253 11.432C23.549 11.432 23.773 11.512 23.925 11.672C24.085 11.832 24.165 12.068 24.165 12.38V16.46C24.165 17.268 24.025 17.948 23.745 18.5C23.473 19.044 23.065 19.452 22.521 19.724C21.985 19.996 21.317 20.132 20.517 20.132Z" fill="black"/>
<rect x="3" y="3" width="26" height="26" rx="4" stroke="black" stroke-width="1.5"/>
</g>
<defs>
<clipPath id="clip0_4911_2334">
<rect width="32" height="32" fill="white"/>
</clipPath>
</defs>
</svg>
