<svg width="32" height="32" viewBox="0 0 32 32" fill="none" xmlns="http://www.w3.org/2000/svg">
<g clip-path="url(#clip0_4911_1849)">
<path d="M15.3333 4C8.70593 10.6274 8.70593 21.3726 15.3333 28" stroke="black" stroke-width="1.5" stroke-linecap="round" stroke-linejoin="round"/>
<path d="M15.3333 4C17.4478 6.11445 18.7348 7.81471 19.5 10.5" stroke="black" stroke-width="1.5" stroke-linecap="round" stroke-linejoin="round"/>
<path d="M3.33334 16H16.5" stroke="black" stroke-width="1.5" stroke-linecap="round"/>
<path d="M15 28C8.37258 28 3 22.6274 3 16C3 9.37258 8.37258 4 15 4C19.3422 4 23.1457 6.30627 25.2524 9.76069" stroke="black" stroke-width="1.5" stroke-linecap="round"/>
<path d="M24.6667 26.6667V24" stroke="black" stroke-width="1.5" stroke-linecap="round" stroke-linejoin="round"/>
<path d="M24.6667 12C26.8667 12 28.6667 13.8 28.6667 16V20H20.6667V16C20.6667 13.8 22.4667 12 24.6667 12Z" stroke="black" stroke-width="1.5" stroke-linecap="round" stroke-linejoin="round"/>
<path d="M31.3333 20H18V30.6667H31.3333V20Z" stroke="black" stroke-width="1.5" stroke-linecap="round" stroke-linejoin="round"/>
</g>
<defs>
<clipPath id="clip0_4911_1849">
<rect width="32" height="32" fill="white"/>
</clipPath>
</defs>
</svg>
