<svg width="32" height="32" viewBox="0 0 32 32" fill="none" xmlns="http://www.w3.org/2000/svg">
<path d="M11.3333 28H4.66666C3.56209 28 2.66666 27.1046 2.66666 26V23.3333C2.66666 22.2288 3.56209 21.3333 4.66666 21.3333H9.99999" stroke="black" stroke-width="1.5" stroke-linecap="round"/>
<path d="M27.25 12.6667C27.25 13.0809 27.5858 13.4167 28 13.4167C28.4142 13.4167 28.75 13.0809 28.75 12.6667H28H27.25ZM8 4V4.75H24V4V3.25H8V4ZM4 21.3333H4.75V8H4H3.25V21.3333H4ZM28 8H27.25V12.6667H28H28.75V8H28ZM24 4V4.75C25.7949 4.75 27.25 6.20508 27.25 8H28H28.75C28.75 5.37665 26.6234 3.25 24 3.25V4ZM8 4V3.25C5.37665 3.25 3.25 5.37665 3.25 8H4H4.75C4.75 6.20507 6.20507 4.75 8 4.75V4Z" fill="black"/>
<path d="M21.3333 17.3333L21.3333 13.3333" stroke="black" stroke-width="1.5" stroke-linecap="round" stroke-linejoin="round"/>
<path d="M21.3333 25.3333L21.3333 29.3333" stroke="black" stroke-width="1.5" stroke-linecap="round" stroke-linejoin="round"/>
<path d="M20 13.3333H22.6667" stroke="black" stroke-width="1.5" stroke-linecap="round" stroke-linejoin="round"/>
<path d="M22.6667 29.3333L20 29.3333" stroke="black" stroke-width="1.5" stroke-linecap="round" stroke-linejoin="round"/>
<path d="M25.3333 21.3333L29.3333 21.3333" stroke="black" stroke-width="1.5" stroke-linecap="round" stroke-linejoin="round"/>
<path d="M17.3333 21.3333L13.3333 21.3333" stroke="black" stroke-width="1.5" stroke-linecap="round" stroke-linejoin="round"/>
<path d="M29.3333 20L29.3333 22.6667" stroke="black" stroke-width="1.5" stroke-linecap="round" stroke-linejoin="round"/>
<path d="M13.3333 22.6667L13.3333 20" stroke="black" stroke-width="1.5" stroke-linecap="round" stroke-linejoin="round"/>
<path d="M24.1618 18.5049L26.9902 15.6765" stroke="black" stroke-width="1.5" stroke-linecap="round" stroke-linejoin="round"/>
<path d="M18.5049 24.1617L15.6765 26.9902" stroke="black" stroke-width="1.5" stroke-linecap="round" stroke-linejoin="round"/>
<path d="M26.0474 14.7336L27.933 16.6193" stroke="black" stroke-width="1.5" stroke-linecap="round" stroke-linejoin="round"/>
<path d="M16.6193 27.933L14.7337 26.0474" stroke="black" stroke-width="1.5" stroke-linecap="round" stroke-linejoin="round"/>
<path d="M24.1618 24.1617L26.9902 26.9902" stroke="black" stroke-width="1.5" stroke-linecap="round" stroke-linejoin="round"/>
<path d="M18.5049 18.5049L15.6765 15.6765" stroke="black" stroke-width="1.5" stroke-linecap="round" stroke-linejoin="round"/>
<path d="M27.933 26.0474L26.0474 27.933" stroke="black" stroke-width="1.5" stroke-linecap="round" stroke-linejoin="round"/>
<path d="M14.7337 16.6193L16.6193 14.7337" stroke="black" stroke-width="1.5" stroke-linecap="round" stroke-linejoin="round"/>
<path d="M21.3333 25.3333C23.5425 25.3333 25.3333 23.5425 25.3333 21.3333C25.3333 19.1242 23.5425 17.3333 21.3333 17.3333C19.1242 17.3333 17.3333 19.1242 17.3333 21.3333C17.3333 23.5425 19.1242 25.3333 21.3333 25.3333Z" stroke="black" stroke-width="1.5" stroke-linecap="round" stroke-linejoin="round"/>
</svg>
