<svg width="32" height="32" viewBox="0 0 32 32" fill="none" xmlns="http://www.w3.org/2000/svg">
<path d="M11.3333 28H4.66667C3.5621 28 2.66667 27.1046 2.66667 26V23.3333C2.66667 22.2288 3.5621 21.3333 4.66667 21.3333H10" stroke="black" stroke-width="1.5" stroke-linecap="round"/>
<path d="M27.25 12.6667C27.25 13.0809 27.5858 13.4167 28 13.4167C28.4142 13.4167 28.75 13.0809 28.75 12.6667H28H27.25ZM8 4V4.75H24V4V3.25H8V4ZM4 21.3333H4.75V8H4H3.25V21.3333H4ZM28 8H27.25V12.6667H28H28.75V8H28ZM24 4V4.75C25.7949 4.75 27.25 6.20508 27.25 8H28H28.75C28.75 5.37665 26.6234 3.25 24 3.25V4ZM8 4V3.25C5.37665 3.25 3.25 5.37665 3.25 8H4H4.75C4.75 6.20507 6.20507 4.75 8 4.75V4Z" fill="black"/>
<path d="M21.5433 30.24C20.2865 30.24 19.1345 30.0371 18.0873 29.6313C17.0531 29.2385 16.1564 28.6625 15.3971 27.9033C14.6509 27.1571 14.0749 26.2669 13.6691 25.2327C13.2633 24.1855 13.0604 23.0204 13.0604 21.7375C13.0604 20.4153 13.2698 19.2175 13.6887 18.144C14.1076 17.0705 14.7098 16.1476 15.4953 15.3753C16.2807 14.6029 17.2102 14.0073 18.2836 13.5884C19.3702 13.1695 20.568 12.96 21.8771 12.96C23.4218 12.96 24.7702 13.2676 25.9222 13.8829C27.0873 14.4851 27.9905 15.336 28.632 16.4356C29.2735 17.5222 29.5942 18.8051 29.5942 20.2844C29.5942 21.4233 29.4305 22.4116 29.1033 23.2495C28.7891 24.0742 28.344 24.7156 27.768 25.1738C27.2051 25.6189 26.544 25.8415 25.7847 25.8415C24.9862 25.8415 24.3644 25.6255 23.9193 25.1935C23.4873 24.7484 23.2582 24.1331 23.232 23.3476L23.8407 23.1513C23.5135 24.0415 23.0487 24.7156 22.4465 25.1738C21.8444 25.6189 21.1898 25.8415 20.4829 25.8415C19.4356 25.8415 18.624 25.5142 18.048 24.8596C17.472 24.2051 17.184 23.3084 17.184 22.1695C17.184 21.2138 17.3607 20.3629 17.7142 19.6167C18.0807 18.8705 18.5782 18.2815 19.2065 17.8495C19.848 17.4175 20.5745 17.2015 21.3862 17.2015C22.08 17.2015 22.6495 17.3782 23.0945 17.7316C23.5396 18.072 23.8407 18.576 23.9978 19.2436H23.664L23.8407 18.1833C23.9324 17.6204 24.2727 17.3389 24.8618 17.3389C25.1629 17.3389 25.3855 17.424 25.5295 17.5942C25.6865 17.7644 25.7324 18.0131 25.6669 18.3404L24.9993 22.1302C24.96 22.3396 24.9273 22.536 24.9011 22.7193C24.888 22.8895 24.8815 23.0465 24.8815 23.1905C24.8815 23.5964 24.9665 23.8975 25.1367 24.0938C25.3069 24.2902 25.5622 24.3884 25.9025 24.3884C26.3345 24.3884 26.7076 24.2182 27.0218 23.8778C27.3491 23.5375 27.6044 23.0596 27.7876 22.4444C27.9709 21.816 28.0625 21.096 28.0625 20.2844C28.0625 19.0669 27.8073 18.0262 27.2967 17.1622C26.7993 16.2982 26.0858 15.6371 25.1564 15.1789C24.24 14.7076 23.1404 14.472 21.8575 14.472C20.4305 14.472 19.1869 14.7731 18.1265 15.3753C17.0662 15.9644 16.2415 16.8022 15.6524 17.8887C15.0633 18.9753 14.7687 20.2582 14.7687 21.7375C14.7687 23.1905 15.0436 24.4407 15.5935 25.488C16.1564 26.5353 16.9418 27.3338 17.9498 27.8836C18.9709 28.4465 20.1687 28.728 21.5433 28.728C22.4073 28.728 23.1862 28.6233 23.88 28.4138C24.5869 28.2175 25.2218 27.9229 25.7847 27.5302C26.0204 27.36 26.2364 27.2945 26.4327 27.3338C26.6422 27.3862 26.7993 27.4975 26.904 27.6676C27.0087 27.8378 27.0415 28.0276 27.0022 28.2371C26.976 28.4465 26.8451 28.6364 26.6095 28.8065C26.0073 29.2385 25.2742 29.5855 24.4102 29.8473C23.5593 30.1091 22.6036 30.24 21.5433 30.24ZM20.8364 24.2902C21.3338 24.2902 21.7724 24.1396 22.152 23.8385C22.5447 23.5244 22.8458 23.0989 23.0553 22.5622C23.2778 22.0124 23.3891 21.384 23.3891 20.6771C23.3891 20.0487 23.2516 19.5775 22.9767 19.2633C22.7018 18.936 22.2764 18.7724 21.7004 18.7724C21.2029 18.7724 20.7578 18.9164 20.3651 19.2044C19.9724 19.4924 19.6647 19.8916 19.4422 20.4022C19.2196 20.8996 19.1084 21.4822 19.1084 22.1498C19.1084 22.8436 19.2589 23.3738 19.56 23.7404C19.8611 24.1069 20.2865 24.2902 20.8364 24.2902Z" fill="black"/>
</svg>
