<svg width="32" height="32" viewBox="0 0 32 32" fill="none" xmlns="http://www.w3.org/2000/svg">
<path d="M16.0346 27.3181L14 29H9L5 26V6L9 3L14 3.00001L18 6V12.265" stroke="black" stroke-width="1.5" stroke-linecap="round" stroke-linejoin="round"/>
<path d="M22.4295 28.2885C22.0365 28.4195 21.8242 28.8442 21.9551 29.2372C22.0861 29.6301 22.5109 29.8425 22.9038 29.7115L22.6667 29L22.4295 28.2885ZM22.9452 12.3036C22.5606 12.1498 22.1241 12.3369 21.9703 12.7215C21.8165 13.106 22.0035 13.5425 22.3881 13.6964L22.6667 13L22.9452 12.3036ZM21.197 20.4697C20.9041 20.1768 20.4292 20.1768 20.1363 20.4697C19.8434 20.7626 19.8434 21.2374 20.1363 21.5303L20.6667 21L21.197 20.4697ZM22 22.3333L21.4697 22.8637C21.6103 23.0043 21.8011 23.0833 22 23.0833C22.1989 23.0833 22.3897 23.0043 22.5303 22.8637L22 22.3333ZM25.197 20.197C25.4899 19.9041 25.4899 19.4292 25.197 19.1363C24.9041 18.8434 24.4292 18.8434 24.1363 19.1363L24.6667 19.6667L25.197 20.197ZM29.3333 15.6667H30.0833V15.1589L29.6119 14.9703L29.3333 15.6667ZM20.6667 21L20.1363 21.5303L21.4697 22.8637L22 22.3333L22.5303 21.803L21.197 20.4697L20.6667 21ZM22 22.3333L22.5303 22.8637L25.197 20.197L24.6667 19.6667L24.1363 19.1363L21.4697 21.803L22 22.3333ZM22.6667 13L22.3881 13.6964L29.0548 16.363L29.3333 15.6667L29.6119 14.9703L22.9452 12.3036L22.6667 13ZM29.3333 15.6667H28.5833V21H29.3333H30.0833V15.6667H29.3333ZM29.3333 21H28.5833C28.5833 24.5687 26.2406 27.0181 22.4295 28.2885L22.6667 29L22.9038 29.7115C27.0928 28.3152 30.0833 25.4313 30.0833 21H29.3333Z" fill="black"/>
<path d="M22.6667 29C18.6667 27.6667 16 25 16 21V15.6667L22.6667 13" stroke="black" stroke-width="1.5" stroke-miterlimit="10" stroke-linecap="round"/>
<path d="M5 6L9 10H14L18 6" stroke="black" stroke-width="1.5" stroke-linecap="round" stroke-linejoin="round"/>
<path d="M11.5 23L11.5 15" stroke="black" stroke-width="1.5" stroke-linecap="round" stroke-linejoin="round"/>
<path d="M21 6C22.6569 6 24 7.34315 24 9" stroke="black" stroke-width="1.5" stroke-linecap="round"/>
<path d="M21 3C24.3137 3 27 5.68629 27 9" stroke="black" stroke-width="1.5" stroke-linecap="round"/>
</svg>
