<svg width="32" height="33" viewBox="0 0 32 33" fill="none" xmlns="http://www.w3.org/2000/svg">
<path d="M12.6641 28.0007H4.66406C3.55949 28.0007 2.66406 27.1052 2.66406 26.0007V23.334C2.66406 22.2294 3.55949 21.334 4.66406 21.334H11.3307" stroke="black" stroke-width="1.5" stroke-linecap="round"/>
<path d="M27.2461 12.6667C27.2461 13.0809 27.5819 13.4167 27.9961 13.4167C28.4103 13.4167 28.7461 13.0809 28.7461 12.6667H27.9961H27.2461ZM7.99609 4V4.75H23.9961V4V3.25H7.99609V4ZM3.99609 21.3333H4.74609V8H3.99609H3.24609V21.3333H3.99609ZM27.9961 8H27.2461V12.6667H27.9961H28.7461V8H27.9961ZM23.9961 4V4.75C25.791 4.75 27.2461 6.20508 27.2461 8H27.9961H28.7461C28.7461 5.37665 26.6194 3.25 23.9961 3.25V4ZM7.99609 4V3.25C5.37274 3.25 3.24609 5.37665 3.24609 8H3.99609H4.74609C4.74609 6.20507 6.20117 4.75 7.99609 4.75V4Z" fill="black"/>
<path d="M22.6602 31C26.6602 29.6667 29.3268 27 29.3268 23V17.6667L22.6602 15M20.6602 23L21.9935 24.3333L24.6602 21.6667" stroke="black" stroke-width="1.5" stroke-miterlimit="10" stroke-linecap="round" stroke-linejoin="round"/>
<path d="M22.6602 31C18.6602 29.6667 15.9935 27 15.9935 23V17.6667L22.6602 15" stroke="black" stroke-width="1.5" stroke-miterlimit="10" stroke-linecap="round" stroke-linejoin="round"/>
</svg>
