<svg width="32" height="32" viewBox="0 0 32 32" fill="none" xmlns="http://www.w3.org/2000/svg">
<path d="M25.3333 1.33333L30.6667 1.33333L30.6667 6.66667" stroke="black" stroke-width="1.5" stroke-linecap="round" stroke-linejoin="round"/>
<path d="M6.66666 30.6667L1.33333 30.6667L1.33333 25.3333" stroke="black" stroke-width="1.5" stroke-linecap="round" stroke-linejoin="round"/>
<path d="M30.6667 25.3333L30.6667 30.6667L25.3333 30.6667" stroke="black" stroke-width="1.5" stroke-linecap="round" stroke-linejoin="round"/>
<path d="M1.33333 6.66667L1.33333 1.33333L6.66666 1.33333" stroke="black" stroke-width="1.5" stroke-linecap="round" stroke-linejoin="round"/>
<path d="M27.2298 17C26.3406 22.7909 22.3297 27.9029 16.9886 29.6143L16.9876 29.6133C16.3456 29.8205 15.653 29.8207 15.0111 29.6133V29.6143C9.67096 27.9032 5.66126 22.7825 4.77084 17H6.29037C7.13746 21.9879 10.5327 26.3613 14.9671 28.0127L15.4691 28.1856L15.471 28.1865C15.814 28.2976 16.1856 28.2975 16.5287 28.1865L16.5316 28.1856C21.2113 26.6859 24.8338 22.1816 25.7113 17H27.2298ZM14.804 2.13381C15.5694 1.84558 16.4219 1.84295 17.1956 2.14748L17.1966 2.1465L25.1947 5.14064C25.8457 5.38352 26.4081 5.8196 26.805 6.38967C27.2018 6.9597 27.4151 7.63762 27.4164 8.33205V13H25.9164V8.334C25.9156 7.94536 25.7968 7.56546 25.5746 7.24611C25.3521 6.92667 25.0366 6.68226 24.6712 6.54592H24.6703L16.6703 3.5508L16.6624 3.54787L16.6556 3.54494C16.2339 3.37653 15.7606 3.37525 15.3314 3.53713H15.3294L7.33432 6.52932L7.3353 6.53029C6.57869 6.82095 6.08334 7.53239 6.08334 8.33303V13H4.58334V8.33303C4.58334 6.89737 5.47501 5.63806 6.79819 5.1299L6.80405 5.12795L14.804 2.13283V2.13381Z" fill="black"/>
<path d="M29 15L3 15" stroke="black" stroke-width="1.5" stroke-linecap="round"/>
</svg>
