<svg width="32" height="32" viewBox="0 0 32 32" fill="none" xmlns="http://www.w3.org/2000/svg">
<rect width="32" height="32" fill="white"/>
<path d="M13.1488 3.34564L13.7293 2.87076L13.5043 2.59564H13.1488V3.34564ZM5.66677 3.34564V2.59564H4.91677V3.34564H5.66677ZM5.66677 28.6544H4.91677V29.4044H5.66677V28.6544ZM17.6569 8.85644L17.0764 9.33132L17.3015 9.60644H17.6569V8.85644ZM30.3616 28.6544V29.4044H31.1116V28.6544H30.3616ZM4.91677 5.10028C4.91677 5.51449 5.25256 5.85028 5.66677 5.85028C6.08098 5.85028 6.41677 5.51449 6.41677 5.10028H5.66677H4.91677ZM6.41677 25.8707C6.41677 25.4565 6.08098 25.1207 5.66677 25.1207C5.25256 25.1207 4.91677 25.4565 4.91677 25.8707H5.66677H6.41677ZM13.1488 3.34564V2.59564H5.66677V3.34564V4.09564H13.1488V3.34564ZM30.3616 8.85644V8.10644H17.6569V8.85644V9.60644H30.3616V8.85644ZM17.6569 8.85644L18.2374 8.38155L13.7293 2.87076L13.1488 3.34564L12.5683 3.82052L17.0764 9.33132L17.6569 8.85644ZM5.66677 28.6544V29.4044H30.3616V28.6544V27.9044H5.66677V28.6544ZM30.3616 28.6544H31.1116V6.62006H30.3616H29.6116V28.6544H30.3616ZM5.66677 3.34564H4.91677V5.10028H5.66677H6.41677V3.34564H5.66677ZM5.66677 25.8707H4.91677V28.6544H5.66677H6.41677V25.8707H5.66677Z" fill="black"/>
<path d="M7.78538 22.7819C7.39242 22.9129 7.18005 23.3376 7.31104 23.7306C7.44203 24.1235 7.86677 24.3359 8.25972 24.2049L8.02255 23.4934L7.78538 22.7819ZM8.3011 6.79705C7.91651 6.64322 7.48003 6.83028 7.3262 7.21487C7.17236 7.59945 7.35942 8.03593 7.74401 8.18977L8.02255 7.49341L8.3011 6.79705ZM6.55288 14.9631C6.25999 14.6702 5.78512 14.6702 5.49222 14.9631C5.19933 15.256 5.19933 15.7308 5.49222 16.0237L6.02255 15.4934L6.55288 14.9631ZM7.35589 16.8267L6.82556 17.3571C6.96621 17.4977 7.15697 17.5767 7.35589 17.5767C7.5548 17.5767 7.74556 17.4977 7.88622 17.3571L7.35589 16.8267ZM10.5529 14.6904C10.8458 14.3975 10.8458 13.9226 10.5529 13.6297C10.26 13.3369 9.78512 13.3369 9.49222 13.6297L10.0226 14.1601L10.5529 14.6904ZM14.6892 10.1601H15.4392V9.6523L14.9678 9.46372L14.6892 10.1601ZM6.02255 15.4934L5.49222 16.0237L6.82556 17.3571L7.35589 16.8267L7.88622 16.2964L6.55288 14.9631L6.02255 15.4934ZM7.35589 16.8267L7.88622 17.3571L10.5529 14.6904L10.0226 14.1601L9.49222 13.6297L6.82556 16.2964L7.35589 16.8267ZM8.02255 7.49341L7.74401 8.18977L14.4107 10.8564L14.6892 10.1601L14.9678 9.46372L8.3011 6.79705L8.02255 7.49341ZM14.6892 10.1601H13.9392V15.4934H14.6892H15.4392V10.1601H14.6892ZM14.6892 15.4934H13.9392C13.9392 19.0621 11.5965 21.5115 7.78538 22.7819L8.02255 23.4934L8.25972 24.2049C12.4486 22.8086 15.4392 19.9247 15.4392 15.4934H14.6892Z" fill="black"/>
<path d="M8.02255 23.4934C4.02255 22.1601 1.35589 19.4934 1.35589 15.4934V10.1601L8.02255 7.49341" stroke="black" stroke-width="1.5" stroke-miterlimit="10" stroke-linecap="round"/>
<path d="M14.6891 4.57025H30.3616V11.3741" stroke="black" stroke-width="1.5" stroke-linecap="round" stroke-linejoin="round"/>
<circle cx="21.5316" cy="16.9711" r="3.38545" stroke="black" stroke-width="1.5"/>
<path d="M27.2708 28.6488C27.5241 27.9767 27.6626 27.2483 27.6626 26.4875C27.6626 23.1015 24.9177 20.3565 21.5316 20.3565C18.1456 20.3565 15.4006 23.1015 15.4006 26.4875C15.4006 27.2483 15.5392 27.9767 15.7924 28.6488" stroke="black" stroke-width="1.5"/>
</svg>
