<svg width="32" height="32" viewBox="0 0 32 32" fill="none" xmlns="http://www.w3.org/2000/svg">
<circle cx="6.16217" cy="9.66133" r="1" fill="black"/>
<circle cx="17.8764" cy="9.66133" r="1" fill="black"/>
<circle cx="10.0669" cy="9.66133" r="1" fill="black"/>
<circle cx="21.7812" cy="9.66133" r="1" fill="black"/>
<circle cx="13.9717" cy="9.66133" r="1" fill="black"/>
<circle cx="25.6859" cy="9.66133" r="1" fill="black"/>
<path d="M29.1625 11.9779V7.2755C29.1625 6.72321 28.7148 6.2755 28.1625 6.2755H4.22415C3.67187 6.2755 3.22415 6.72321 3.22415 7.2755V12.0472C3.22415 12.5995 3.67187 13.0472 4.22415 13.0472H12.5699" stroke="black" stroke-width="1.5" stroke-linecap="round"/>
<path d="M21.4012 28.3357C21.0082 28.4667 20.7958 28.8914 20.9268 29.2844C21.0578 29.6773 21.4825 29.8897 21.8755 29.7587L21.6383 29.0472L21.4012 28.3357ZM21.9169 12.3508C21.5323 12.197 21.0958 12.384 20.942 12.7686C20.7881 13.1532 20.9752 13.5897 21.3598 13.7435L21.6383 13.0472L21.9169 12.3508ZM20.1687 20.5168C19.8758 20.224 19.4009 20.224 19.108 20.5168C18.8151 20.8097 18.8151 21.2846 19.108 21.5775L19.6383 21.0472L20.1687 20.5168ZM20.9717 22.3805L20.4413 22.9108C20.582 23.0515 20.7728 23.1305 20.9717 23.1305C21.1706 23.1305 21.3613 23.0515 21.502 22.9108L20.9717 22.3805ZM24.1687 20.2442C24.4616 19.9513 24.4616 19.4764 24.1687 19.1835C23.8758 18.8906 23.4009 18.8906 23.108 19.1835L23.6383 19.7138L24.1687 20.2442ZM28.305 15.7138H29.055V15.2061L28.5835 15.0175L28.305 15.7138ZM19.6383 21.0472L19.108 21.5775L20.4413 22.9108L20.9717 22.3805L21.502 21.8502L20.1687 20.5168L19.6383 21.0472ZM20.9717 22.3805L21.502 22.9108L24.1687 20.2442L23.6383 19.7138L23.108 19.1835L20.4413 21.8502L20.9717 22.3805ZM21.6383 13.0472L21.3598 13.7435L28.0265 16.4102L28.305 15.7138L28.5835 15.0175L21.9169 12.3508L21.6383 13.0472ZM28.305 15.7138H27.555V21.0472H28.305H29.055V15.7138H28.305ZM28.305 21.0472H27.555C27.555 24.6159 25.2122 27.0653 21.4012 28.3357L21.6383 29.0472L21.8755 29.7587C26.0644 28.3624 29.055 25.4785 29.055 21.0472H28.305Z" fill="black"/>
<path d="M21.6383 29.0472C17.6383 27.7138 14.9717 25.0472 14.9717 21.0472V15.7138L21.6383 13.0472" stroke="black" stroke-width="1.5" stroke-miterlimit="10" stroke-linecap="round"/>
</svg>
