<svg width="32" height="32" viewBox="0 0 32 32" fill="none" xmlns="http://www.w3.org/2000/svg">
<path d="M13.5 28H4.66666C3.56209 28 2.66666 27.1045 2.66666 26V23.3333C2.66666 22.2287 3.56209 21.3333 4.66666 21.3333H11.5" stroke="black" stroke-width="1.5" stroke-linecap="round"/>
<path d="M27.25 12C27.25 12.4142 27.5858 12.75 28 12.75C28.4142 12.75 28.75 12.4142 28.75 12H28H27.25ZM7.99999 4V4.75H24V4V3.25H7.99999V4ZM3.99999 21.3333H4.74999V8H3.99999H3.24999V21.3333H3.99999ZM28 8H27.25V12H28H28.75V8H28ZM24 4V4.75C25.7949 4.75 27.25 6.20507 27.25 8H28H28.75C28.75 5.37665 26.6233 3.25 24 3.25V4ZM7.99999 4V3.25C5.37664 3.25 3.24999 5.37665 3.24999 8H3.99999H4.74999C4.74999 6.20507 6.20507 4.75 7.99999 4.75V4Z" fill="black"/>
<path d="M18.0477 20C18.0477 20.4142 18.3835 20.75 18.7977 20.75C19.2119 20.75 19.5477 20.4142 19.5477 20H18.7977H18.0477ZM19.5477 16V15.25H18.0477V16H18.7977H19.5477ZM21.0915 20C21.0915 20.4142 21.4273 20.75 21.8415 20.75C22.2557 20.75 22.5915 20.4142 22.5915 20H21.8415H21.0915ZM22.5915 16V15.25H21.0915V16H21.8415H22.5915ZM24.1354 20C24.1354 20.4142 24.4712 20.75 24.8854 20.75C25.2996 20.75 25.6354 20.4142 25.6354 20H24.8854H24.1354ZM25.6354 14.5V13.75H24.1354V14.5H24.8854H25.6354ZM27.1793 21C27.1793 21.4142 27.515 21.75 27.9293 21.75C28.3435 21.75 28.6793 21.4142 28.6793 21H27.9293H27.1793ZM28.6793 18V17.25H27.1793V18H27.9293H28.6793ZM18.0477 14.5V15.25H19.5477V14.5H18.7977H18.0477ZM21.0916 14.5V15.25H22.5916V14.5H21.8416H21.0916ZM15.7538 16.5H16.5038V16.5H15.7538ZM21.0915 13.5V14.25H22.5915V13.5H21.8415H21.0915ZM24.1353 13.5V14.25H25.6353V13.5H24.8853H24.1353ZM24.1354 16.5V17.25H25.6354V16.5H24.8854H24.1354ZM27.1792 16.5V17.25H28.6792V16.5H27.9292H27.1792ZM15.7538 24H15.0038V24H15.7538ZM21.0877 30V30.75H21.0877L21.0877 30ZM30.422 26.3L30.9485 26.8341L30.9485 26.8341L30.422 26.3ZM27.9293 28.7568L28.4557 29.291V29.291L27.9293 28.7568ZM26.1415 23.9658C25.8465 24.2565 25.8431 24.7314 26.1338 25.0264C26.4246 25.3214 26.8995 25.3249 27.1945 25.0341L26.668 24.4999L26.1415 23.9658ZM27.6316 23.5502L28.1581 24.0844H28.1581L27.6316 23.5502ZM24.8842 29.9999L24.8842 29.2499H24.8842L24.8842 29.9999ZM30.0056 23.2369L29.6375 23.8903V23.8903L30.0056 23.2369ZM18.7977 20H19.5477V16H18.7977H18.0477V20H18.7977ZM21.8415 20H22.5915V16H21.8415H21.0915V20H21.8415ZM24.8854 20H25.6354V14.5H24.8854H24.1354V20H24.8854ZM27.9293 21H28.6793V18H27.9293H27.1793V21H27.9293ZM18.7977 14.5H19.5477C19.5477 14.096 19.883 13.75 20.3196 13.75V13V12.25C19.0752 12.25 18.0477 13.2472 18.0477 14.5H18.7977ZM20.3196 13V13.75C20.7563 13.75 21.0916 14.096 21.0916 14.5H21.8416H22.5916C22.5916 13.2472 21.5641 12.25 20.3196 12.25V13ZM15.7538 16.5H16.5038C16.5038 16.096 16.8391 15.75 17.2758 15.75V15V14.25C16.0313 14.25 15.0038 15.2471 15.0038 16.5H15.7538ZM17.2758 15V15.75C17.7124 15.75 18.0477 16.096 18.0477 16.5H18.7977H19.5477C19.5477 15.2471 18.5202 14.25 17.2758 14.25V15ZM21.8415 13.5H22.5915C22.5915 13.096 22.9268 12.75 23.3634 12.75V12V11.25C22.119 11.25 21.0915 12.2471 21.0915 13.5H21.8415ZM23.3634 12V12.75C23.8 12.75 24.1353 13.096 24.1353 13.5H24.8853H25.6353C25.6353 12.2471 24.6079 11.25 23.3634 11.25V12ZM24.8854 16.5H25.6354C25.6354 16.096 25.9707 15.75 26.4073 15.75V15V14.25C25.1628 14.25 24.1354 15.2471 24.1354 16.5H24.8854ZM26.4073 15V15.75C26.8439 15.75 27.1792 16.096 27.1792 16.5H27.9292H28.6792C28.6792 15.2471 27.6517 14.25 26.4073 14.25V15ZM15.7538 24H16.5038L16.5038 16.5H15.7538H15.0038L15.0038 24H15.7538ZM15.7538 24H15.0038C15.0038 25.7999 15.5392 27.4808 16.586 28.7254C17.644 29.9833 19.1888 30.75 21.0877 30.75V30V29.25C19.6244 29.25 18.5023 28.6735 17.7339 27.7599C16.9543 26.8329 16.5038 25.5138 16.5038 24H15.7538ZM30.422 26.3L29.8955 25.7658L27.4028 28.2227L27.9293 28.7568L28.4557 29.291L30.9485 26.8341L30.422 26.3ZM26.668 24.4999L27.1945 25.0341L28.1581 24.0844L27.6316 23.5502L27.1052 23.016L26.1415 23.9658L26.668 24.4999ZM24.8842 29.9999L24.8842 29.2499L21.0876 29.25L21.0877 30L21.0877 30.75L24.8842 30.7499L24.8842 29.9999ZM27.6316 23.5502L28.1581 24.0844C28.5478 23.7003 29.155 23.6186 29.6375 23.8903L30.0056 23.2369L30.3736 22.5834C29.3112 21.985 27.9737 22.16 27.1052 23.016L27.6316 23.5502ZM27.9293 28.7568L27.4028 28.2227C26.7367 28.8792 25.8309 29.2499 24.8842 29.2499L24.8842 29.9999L24.8842 30.7499C26.2218 30.7499 27.5066 30.2264 28.4557 29.291L27.9293 28.7568ZM30.422 26.3L30.9485 26.8341C32.2266 25.5745 31.934 23.4622 30.3736 22.5834L30.0056 23.2369L29.6375 23.8903C30.3362 24.2838 30.4572 25.2122 29.8955 25.7658L30.422 26.3Z" fill="black"/>
</svg>
