<svg width="32" height="32" viewBox="0 0 32 32" fill="none" xmlns="http://www.w3.org/2000/svg">
<path d="M20 18.25C23.3137 18.25 26 15.5637 26 12.25C26 8.93629 23.3137 6.25 20 6.25C16.6863 6.25 14 8.93629 14 12.25C14 15.5637 16.6863 18.25 20 18.25Z" stroke="black" stroke-width="1.5" stroke-linecap="round" stroke-linejoin="round"/>
<path d="M14 12.25H26M20 6.25C18.4593 7.86769 17.6 10.016 17.6 12.25C17.6 14.484 18.4593 16.6323 20 18.25C21.5407 16.6323 22.4 14.484 22.4 12.25C22.4 10.016 21.5407 7.86769 20 6.25Z" stroke="black" stroke-width="1.5" stroke-linecap="round" stroke-linejoin="round"/>
<path d="M14.5929 19.6957C18.2193 22.2844 23.2896 21.9513 26.5445 18.6964C30.1705 15.0704 30.1705 9.19145 26.5445 5.56545C22.9185 1.93945 17.0396 1.93945 13.4136 5.56545C10.1587 8.82039 9.82559 13.8907 12.4143 17.5172L3.65403 25.3554C2.71457 26.196 2.67412 27.6532 3.56551 28.5445C4.45689 29.4359 5.91409 29.3955 6.75466 28.456L14.5929 19.6957Z" stroke="black" stroke-width="1.5"/>
</svg>
