<svg width="32" height="32" viewBox="0 0 32 32" fill="none" xmlns="http://www.w3.org/2000/svg">
<g clip-path="url(#clip0_4911_2359)">
<circle cx="15.1429" cy="22.2857" r="5.14286" stroke="black" stroke-width="1.5"/>
<circle cx="6.14286" cy="14.1429" r="2.14286" stroke="black" stroke-width="1.5"/>
<path d="M11.2857 18.8571L7.85715 15.8571" stroke="black" stroke-width="1.5"/>
<path d="M17.2857 17.5714L21 10.5" stroke="black" stroke-width="1.5"/>
<path d="M20.2857 22.2857L22.8571 21.8571" stroke="black" stroke-width="1.5"/>
<circle cx="14.7143" cy="6.71429" r="1.71429" stroke="black" stroke-width="1.5"/>
<circle cx="25.4286" cy="21.4286" r="2.57143" stroke="black" stroke-width="1.5"/>
<circle cx="22" cy="8" r="3" stroke="black" stroke-width="1.5"/>
<path d="M19 7.14287L16.4286 6.71429" stroke="black" stroke-width="1.5"/>
<path d="M27 2H5C3.34315 2 2 3.34315 2 5V6V27C2 28.6569 3.34315 30 5 30H27C28.6569 30 30 28.6569 30 27V5C30 3.34315 28.6569 2 27 2Z" stroke="black" stroke-width="1.5" stroke-linecap="round" stroke-linejoin="round"/>
</g>
<defs>
<clipPath id="clip0_4911_2359">
<rect width="32" height="32" fill="white"/>
</clipPath>
</defs>
</svg>
