<svg width="32" height="32" viewBox="0 0 32 32" fill="none" xmlns="http://www.w3.org/2000/svg">
<path d="M12.6667 28H4.66666C3.56209 28 2.66666 27.1046 2.66666 26V23.3333C2.66666 22.2288 3.56209 21.3333 4.66666 21.3333H11.3333" stroke="black" stroke-width="1.5" stroke-linecap="round"/>
<path d="M27.25 12.6667C27.25 13.0809 27.5858 13.4167 28 13.4167C28.4142 13.4167 28.75 13.0809 28.75 12.6667H28H27.25ZM8 4V4.75H24V4V3.25H8V4ZM4 21.3333H4.75V8H4H3.25V21.3333H4ZM28 8H27.25V12.6667H28H28.75V8H28ZM24 4V4.75C25.7949 4.75 27.25 6.20508 27.25 8H28H28.75C28.75 5.37665 26.6234 3.25 24 3.25V4ZM8 4V3.25C5.37665 3.25 3.25 5.37665 3.25 8H4H4.75C4.75 6.20507 6.20507 4.75 8 4.75V4Z" fill="black"/>
<path d="M14.6667 22.6667C14.6667 23.7172 14.8736 24.7575 15.2756 25.7281C15.6777 26.6987 16.2669 27.5806 17.0098 28.3235C17.7527 29.0664 18.6346 29.6557 19.6052 30.0577C20.5758 30.4597 21.6161 30.6667 22.6667 30.6667C23.7172 30.6667 24.7575 30.4597 25.7281 30.0577C26.6987 29.6557 27.5806 29.0664 28.3235 28.3235C29.0664 27.5806 29.6557 26.6987 30.0577 25.7281C30.4597 24.7575 30.6667 23.7172 30.6667 22.6667C30.6667 21.6161 30.4597 20.5758 30.0577 19.6052C29.6557 18.6346 29.0664 17.7527 28.3235 17.0098C27.5806 16.2669 26.6987 15.6777 25.7281 15.2756C24.7575 14.8736 23.7172 14.6667 22.6667 14.6667C21.6161 14.6667 20.5758 14.8736 19.6052 15.2756C18.6346 15.6777 17.7527 16.2669 17.0098 17.0098C16.2669 17.7527 15.6777 18.6346 15.2756 19.6052C14.8736 20.5758 14.6667 21.6161 14.6667 22.6667Z" stroke="black" stroke-width="1.5" stroke-linecap="round" stroke-linejoin="round"/>
<path d="M28 17.3334L17.3333 28" stroke="black" stroke-width="1.5" stroke-linecap="round" stroke-linejoin="round"/>
</svg>
