<svg width="32" height="32" viewBox="0 0 32 32" fill="none" xmlns="http://www.w3.org/2000/svg">
<path d="M8.93939 24C7.27576 24 5.68027 23.3679 4.50391 22.2426C3.32754 21.1174 2.66667 19.5913 2.66667 18C2.66667 16.4087 3.32754 14.8826 4.50391 13.7574C5.68027 12.6321 7.27576 12 8.93939 12C9.33231 10.2496 10.4817 8.71132 12.1348 7.72363C12.9534 7.23457 13.8709 6.8954 14.8351 6.72549C15.7993 6.55558 16.7912 6.55824 17.7542 6.73334C18.7172 6.90844 19.6325 7.25253 20.4478 7.74598C21.2631 8.23943 21.9623 8.87257 22.5057 9.60924C23.0491 10.3459 23.426 11.1717 23.6148 12.0395C23.8036 12.9072 23.8006 13.7999 23.6061 14.6667H24.9394C26.1771 14.6667 27.3641 15.1583 28.2392 16.0335C29.1144 16.9087 29.6061 18.0957 29.6061 19.3333C29.6061 20.571 29.1144 21.758 28.2392 22.6332C27.3641 23.5083 26.1771 24 24.9394 24H23.6061" stroke="black" stroke-width="1.5" stroke-linecap="round" stroke-linejoin="round"/>
<path d="M12 21.3331L16 25.3331L20 21.3331M16 25.3331L16 13.3331" stroke="black" stroke-width="1.5" stroke-linecap="round" stroke-linejoin="round"/>
</svg>
