<svg width="32" height="32" viewBox="0 0 32 32" fill="none" xmlns="http://www.w3.org/2000/svg">
<path d="M9.33333 24C7.6697 24 6.07421 23.3679 4.89785 22.2426C3.72148 21.1174 3.06061 19.5913 3.06061 18C3.06061 16.4087 3.72148 14.8826 4.89785 13.7574C6.07421 12.6321 7.6697 12 9.33333 12C9.72625 10.2496 10.8757 8.71132 12.5288 7.72363C13.3473 7.23457 14.2649 6.8954 15.229 6.72549C16.1932 6.55558 17.1851 6.55824 18.1481 6.73334C19.1112 6.90844 20.0265 7.25253 20.8417 7.74598C21.657 8.23943 22.3563 8.87257 22.8997 9.60924C23.4431 10.3459 23.8199 11.1717 24.0087 12.0395C24.1975 12.9072 24.1946 13.7999 24 14.6667H25.3333C26.571 14.6667 27.758 15.1583 28.6332 16.0335C29.5083 16.9087 30 18.0957 30 19.3333C30 20.571 29.5083 21.758 28.6332 22.6332C27.758 23.5083 26.571 24 25.3333 24H24" stroke="black" stroke-width="1.5" stroke-linecap="round" stroke-linejoin="round"/>
<path d="M16.3825 15.4616C16.5636 15.4001 16.7644 15.4021 16.9381 15.4645L16.945 15.4665L16.9518 15.4694L21.4518 16.985H21.4528C21.6071 17.0368 21.7273 17.1255 21.8053 17.2262C21.8822 17.3256 21.9165 17.4332 21.9167 17.5348V20.6989C21.9167 23.6111 19.8033 26.3777 16.8864 27.2184L16.8844 27.2194C16.779 27.2501 16.6657 27.2572 16.5563 27.2419L16.4489 27.2194L16.4469 27.2184L16.1754 27.1344C13.4 26.2047 11.4167 23.5138 11.4167 20.6989V17.5338C11.4167 17.3358 11.5557 17.0928 11.8815 16.9782L16.3815 15.4626L16.3825 15.4616Z" stroke="black" stroke-width="1.5"/>
</svg>
