<svg width="33" height="33" viewBox="0 0 33 33" fill="none" xmlns="http://www.w3.org/2000/svg">
<path d="M11.3699 25.395C11.2206 25.395 11.0969 25.3624 10.9989 25.297C10.9056 25.227 10.8286 25.122 10.7679 24.982L9.0039 21.062C8.93857 20.922 8.9199 20.7984 8.9479 20.691C8.9759 20.579 9.03424 20.4927 9.1229 20.432C9.21157 20.3667 9.3189 20.334 9.4449 20.334C9.60357 20.334 9.7249 20.3714 9.8089 20.446C9.8929 20.516 9.9629 20.621 10.0189 20.761L11.5659 24.338H11.2159L12.7629 20.754C12.8236 20.614 12.8959 20.509 12.9799 20.439C13.0639 20.369 13.1806 20.334 13.3299 20.334C13.4559 20.334 13.5586 20.3667 13.6379 20.432C13.7219 20.4927 13.7732 20.579 13.7919 20.691C13.8152 20.7984 13.7966 20.922 13.7359 21.062L11.9719 24.982C11.9066 25.122 11.8272 25.227 11.7339 25.297C11.6452 25.3624 11.5239 25.395 11.3699 25.395Z" fill="black"/>
<path d="M14.9508 25.395C14.7735 25.395 14.6382 25.346 14.5448 25.248C14.4515 25.15 14.4048 25.0124 14.4048 24.835V20.95C14.4048 20.768 14.4515 20.6304 14.5448 20.537C14.6428 20.4437 14.7805 20.397 14.9578 20.397H16.6588C17.2095 20.397 17.6342 20.537 17.9328 20.817C18.2315 21.0924 18.3808 21.4774 18.3808 21.972C18.3808 22.4667 18.2315 22.854 17.9328 23.134C17.6342 23.414 17.2095 23.554 16.6588 23.554H15.4898V24.835C15.4898 25.0124 15.4432 25.15 15.3498 25.248C15.2612 25.346 15.1282 25.395 14.9508 25.395ZM15.4898 22.714H16.4768C16.7568 22.714 16.9692 22.651 17.1138 22.525C17.2632 22.399 17.3378 22.2147 17.3378 21.972C17.3378 21.7294 17.2632 21.5474 17.1138 21.426C16.9692 21.3047 16.7568 21.244 16.4768 21.244H15.4898V22.714Z" fill="black"/>
<path d="M19.5573 25.395C19.3939 25.395 19.2679 25.3507 19.1793 25.262C19.0953 25.1687 19.0533 25.038 19.0533 24.87V20.88C19.0533 20.7027 19.0953 20.5674 19.1793 20.474C19.2679 20.3807 19.3846 20.334 19.5293 20.334C19.6553 20.334 19.7509 20.3597 19.8163 20.411C19.8863 20.4577 19.9656 20.537 20.0543 20.649L22.5113 23.778H22.3223V20.852C22.3223 20.6887 22.3643 20.5627 22.4483 20.474C22.5369 20.3807 22.6629 20.334 22.8263 20.334C22.9896 20.334 23.1133 20.3807 23.1973 20.474C23.2859 20.5627 23.3303 20.6887 23.3303 20.852V24.891C23.3303 25.045 23.2906 25.1687 23.2113 25.262C23.1319 25.3507 23.0246 25.395 22.8893 25.395C22.7586 25.395 22.6536 25.3694 22.5743 25.318C22.4996 25.2667 22.4179 25.185 22.3293 25.073L19.8793 21.944H20.0613V24.87C20.0613 25.038 20.0193 25.1687 19.9353 25.262C19.8513 25.3507 19.7253 25.395 19.5573 25.395Z" fill="black"/>
<rect x="4.32434" y="18.332" width="24" height="9" rx="1" stroke="black" stroke-width="1.5"/>
<path d="M10.3829 17.91V11" stroke="black" stroke-width="1.5" stroke-linecap="round"/>
<path d="M22.2657 17.91V11" stroke="black" stroke-width="1.5" stroke-linecap="round"/>
<path d="M14.1993 10.4863C15.3709 9.31476 17.2704 9.31476 18.442 10.4863" stroke="black" stroke-width="1.5" stroke-linecap="round"/>
<path d="M12.0822 8.36523C14.4253 6.02209 18.2243 6.02209 20.5674 8.36523" stroke="black" stroke-width="1.5" stroke-linecap="round"/>
</svg>
