<svg width="32" height="32" viewBox="0 0 32 32" fill="none" xmlns="http://www.w3.org/2000/svg">
<g clip-path="url(#clip0_4851_11231)">
<path d="M10.75 18.6667C10.75 18.2525 10.4142 17.9167 10 17.9167C9.58579 17.9167 9.25 18.2525 9.25 18.6667H10H10.75ZM10 28.5H10.75V18.6667H10H9.25V28.5H10Z" fill="black"/>
<path d="M16.75 18.6667C16.75 18.2525 16.4142 17.9167 16 17.9167C15.5858 17.9167 15.25 18.2525 15.25 18.6667H16H16.75ZM16 28.6667H16.75V18.6667H16H15.25V28.6667H16Z" fill="black"/>
<path d="M22.75 18.6667C22.75 18.2525 22.4142 17.9167 22 17.9167C21.5858 17.9167 21.25 18.2525 21.25 18.6667H22H22.75ZM22 28.6667H22.75V18.6667H22H21.25V28.6667H22Z" fill="black"/>
<mask id="path-4-inside-1_4851_11231" fill="white">
<path d="M22.6667 4.00001C23.403 4.00001 23.9995 4.59679 23.9997 5.33302V6.667H25.3337C26.0699 6.66718 26.6667 7.26374 26.6667 8.00001V10.667L26.9391 10.6807C28.2838 10.8171 29.3335 11.9524 29.3337 13.333V26.667C29.3335 28.1396 28.1393 29.333 26.6667 29.333H5.33368C3.86103 29.333 2.66686 28.1396 2.66669 26.667V13.333C2.66686 11.9526 3.7159 10.8174 5.06024 10.6807L5.33368 10.667V8.00001C5.33368 7.26363 5.93031 6.667 6.66669 6.667H7.99969V5.33302C7.99988 4.59679 8.59741 4.00001 9.33368 4.00001H22.6667Z"/>
</mask>
<path d="M23.9997 5.33302H25.4997V5.33265L23.9997 5.33302ZM23.9997 6.667H22.4997V8.167H23.9997V6.667ZM25.3337 6.667L25.334 5.167H25.3337V6.667ZM26.6667 8.00001H28.1667V8L26.6667 8.00001ZM26.6667 10.667H25.1667V12.0936L26.5915 12.1651L26.6667 10.667ZM26.9391 10.6807L27.0906 9.18834L27.0525 9.18447L27.0143 9.18256L26.9391 10.6807ZM29.3337 13.333H30.8337V13.3328L29.3337 13.333ZM29.3337 26.667L30.8337 26.6672V26.667H29.3337ZM26.6667 29.333V30.833V30.833V29.333ZM2.66669 26.667H1.16669V26.6672L2.66669 26.667ZM2.66669 13.333L1.16669 13.3328V13.333H2.66669ZM5.06024 10.6807L4.98534 9.18254L4.9468 9.18447L4.90842 9.18837L5.06024 10.6807ZM5.33368 10.667L5.40859 12.1651L6.83368 12.0939V10.667H5.33368ZM5.33368 8.00001L3.83368 8V8.00001H5.33368ZM7.99969 6.667V8.167H9.49969V6.667H7.99969ZM7.99969 5.33302L6.49969 5.33265V5.33302H7.99969ZM22.6667 4.00001V5.50001C22.5742 5.50001 22.4997 5.42493 22.4997 5.33339L23.9997 5.33302L25.4997 5.33265C25.4993 3.76865 24.2318 2.50001 22.6667 2.50001V4.00001ZM23.9997 5.33302H22.4997V6.667H23.9997H25.4997V5.33302H23.9997ZM23.9997 6.667V8.167H25.3337V6.667V5.167H23.9997V6.667ZM25.3337 6.667L25.3333 8.167C25.2417 8.16698 25.1667 8.09252 25.1667 8.00002L26.6667 8.00001L28.1667 8C28.1667 6.43496 26.8981 5.16738 25.334 5.167L25.3337 6.667ZM26.6667 8.00001H25.1667V10.667H26.6667H28.1667V8.00001H26.6667ZM26.6667 10.667L26.5915 12.1651L26.864 12.1788L26.9391 10.6807L27.0143 9.18256L26.7419 9.16888L26.6667 10.667ZM26.9391 10.6807L26.7877 12.173C27.3748 12.2326 27.8336 12.7305 27.8337 13.3332L29.3337 13.333L30.8337 13.3328C30.8334 11.1742 29.1928 9.40169 27.0906 9.18834L26.9391 10.6807ZM29.3337 13.333H27.8337V26.667H29.3337H30.8337V13.333H29.3337ZM29.3337 26.667L27.8337 26.6668C27.8336 27.3106 27.3115 27.833 26.6667 27.833V29.333V30.833C28.9672 30.833 30.8334 28.9686 30.8337 26.6672L29.3337 26.667ZM26.6667 29.333V27.833H5.33368V29.333V30.833H26.6667V29.333ZM5.33368 29.333V27.833C4.68891 27.833 4.16676 27.3106 4.16669 26.6668L2.66669 26.667L1.16669 26.6672C1.16695 28.9686 3.03314 30.833 5.33368 30.833V29.333ZM2.66669 26.667H4.16669V13.333H2.66669H1.16669V26.667H2.66669ZM2.66669 13.333L4.16669 13.3332C4.16676 12.7303 4.62538 12.2327 5.21206 12.173L5.06024 10.6807L4.90842 9.18837C2.80641 9.40223 1.16695 11.1749 1.16669 13.3328L2.66669 13.333ZM5.06024 10.6807L5.13515 12.1788L5.40859 12.1651L5.33368 10.667L5.25877 9.16887L4.98534 9.18254L5.06024 10.6807ZM5.33368 10.667H6.83368V8.00001H5.33368H3.83368V10.667H5.33368ZM5.33368 8.00001L6.83368 8.00002C6.83368 8.09205 6.75875 8.167 6.66669 8.167V6.667V5.167C5.10187 5.167 3.83369 6.43521 3.83368 8L5.33368 8.00001ZM6.66669 6.667V8.167H7.99969V6.667V5.167H6.66669V6.667ZM7.99969 6.667H9.49969V5.33302H7.99969H6.49969V6.667H7.99969ZM7.99969 5.33302L9.49969 5.33338C9.49967 5.42636 9.42477 5.50001 9.33368 5.50001V4.00001V2.50001C7.77005 2.50001 6.50008 3.76722 6.49969 5.33265L7.99969 5.33302ZM9.33368 4.00001V5.50001H22.6667V4.00001V2.50001H9.33368V4.00001Z" fill="black" mask="url(#path-4-inside-1_4851_11231)"/>
</g>
<defs>
<clipPath id="clip0_4851_11231">
<rect width="32" height="32" fill="white"/>
</clipPath>
</defs>
</svg>
