<svg width="32" height="32" viewBox="0 0 32 32" fill="none" xmlns="http://www.w3.org/2000/svg">
<path d="M17 12.5C17 11.3954 17.8954 10.5 19 10.5H27C28.1046 10.5 29 11.3954 29 12.5V27.5C29 28.6046 28.1046 29.5 27 29.5H19C17.8954 29.5 17 28.6046 17 27.5L17 12.5Z" stroke="black" stroke-width="1.5"/>
<path d="M14 28H4.66669C3.56212 28 2.66669 27.1046 2.66669 26V23.3333C2.66669 22.2288 3.56212 21.3333 4.66669 21.3333H14" stroke="black" stroke-width="1.5" stroke-linecap="round"/>
<path d="M27.25 8C27.25 8.41421 27.5858 8.75 28 8.75C28.4142 8.75 28.75 8.41421 28.75 8H28H27.25ZM8 4V4.75H24V4V3.25H8V4ZM4 21.3333H4.75V8H4H3.25V21.3333H4ZM24 4V4.75C25.7949 4.75 27.25 6.20507 27.25 8H28H28.75C28.75 5.37665 26.6234 3.25 24 3.25V4ZM8 4V3.25C5.37665 3.25 3.25 5.37665 3.25 8H4H4.75C4.75 6.20507 6.20507 4.75 8 4.75V4Z" fill="black"/>
<circle cx="23" cy="25" r="1" fill="black"/>
</svg>
