<svg width="32" height="32" viewBox="0 0 32 32" fill="none" xmlns="http://www.w3.org/2000/svg">
<path d="M15.9046 27.0329C15.7661 27.0329 15.6275 26.9803 15.521 26.8751L15.5172 26.8713C15.3832 26.7369 13.2798 24.6286 11.1454 21.5887C8.21668 17.4198 6.73254 13.6845 6.73254 10.4853C6.73254 5.42853 10.8462 1.31354 15.9043 1.31354C20.9625 1.31354 25.0762 5.42886 25.0774 10.4866C25.0774 13.7436 23.5922 17.497 20.6636 21.6429C18.5035 24.7008 16.3754 26.7904 16.2856 26.8777C16.1791 26.9816 16.0419 27.0329 15.9046 27.0329Z" stroke="black" stroke-width="1.5"/>
<path d="M12.4786 11.6577L14.8868 14.1205L19.7031 9.19476" stroke="black" stroke-width="1.5" stroke-linecap="round"/>
<path d="M12 23.1011C7.66609 23.6131 4.59741 24.8843 4.59741 26.3714C4.59741 28.3108 9.81673 29.883 16.2551 29.883C22.6934 29.883 27.9128 28.3108 27.9128 26.3714C27.9128 24.8632 24.4693 23.577 20 23.0797" stroke="black" stroke-width="1.5"/>
</svg>
