<svg width="32" height="32" viewBox="0 0 32 32" fill="none" xmlns="http://www.w3.org/2000/svg">
<path d="M12.6155 16.9297C12.7999 17.3006 13.2501 17.4518 13.621 17.2674C13.9919 17.083 14.1431 16.6328 13.9587 16.2619L13.2871 16.5958L12.6155 16.9297ZM12.1779 12.6801L11.844 12.0086L10.5009 12.6763L10.8348 13.3479L11.5064 13.014L12.1779 12.6801ZM15.341 15.5746C15.5254 15.9455 15.9756 16.0967 16.3465 15.9123C16.7174 15.7279 16.8686 15.2778 16.6842 14.9069L16.0126 15.2407L15.341 15.5746ZM14.9034 11.3251L14.5696 10.6535L13.2264 11.3213L13.5603 11.9929L14.2319 11.659L14.9034 11.3251ZM18.0666 14.2196C18.251 14.5905 18.7012 14.7416 19.0721 14.5572C19.443 14.3728 19.5942 13.9227 19.4098 13.5518L18.7382 13.8857L18.0666 14.2196ZM16.9613 8.62687L16.6274 7.95529L15.2842 8.62306L15.6181 9.29464L16.2897 8.96076L16.9613 8.62687ZM21.2374 13.7599C21.4218 14.1308 21.872 14.282 22.2429 14.0976C22.6138 13.9132 22.765 13.463 22.5806 13.0921L21.909 13.426L21.2374 13.7599ZM21.245 10.4058L20.9111 9.73421L19.568 10.402L19.9019 11.0736L20.5734 10.7397L21.245 10.4058ZM10.167 12.0048L10.5009 12.6764L11.8441 12.0086L11.5102 11.337L10.8386 11.6709L10.167 12.0048ZM12.8926 10.6497L13.2265 11.3213L14.5696 10.6535L14.2357 9.98194L13.5641 10.3158L12.8926 10.6497ZM9.00332 14.8168L9.6749 14.4829V14.4829L9.00332 14.8168ZM12.4473 9.75427L12.7812 10.4259L14.1244 9.75808L13.7905 9.0865L13.1189 9.42038L12.4473 9.75427ZM15.1729 8.39921L15.5068 9.07079L16.8499 8.40301L16.516 7.73144L15.8445 8.06532L15.1729 8.39921ZM16.5085 11.0855L16.8424 11.7571L18.1855 11.0893L17.8516 10.4177L17.1801 10.7516L16.5085 11.0855ZM19.234 9.73044L19.5679 10.402L20.9111 9.73424L20.5772 9.06266L19.9056 9.39655L19.234 9.73044ZM12.3422 21.5326L11.6706 21.8665V21.8665L12.3422 21.5326ZM19.7894 24.5307L20.1233 25.2023L20.1233 25.2023L19.7894 24.5307ZM26.5006 17.0621L27.2098 17.306L27.2098 17.306L26.5006 17.0621ZM25.3622 20.3718L26.0714 20.6157V20.6157L25.3622 20.3718ZM21.6285 16.8776C21.4938 17.2692 21.7021 17.696 22.0938 17.8307C22.4855 17.9654 22.9122 17.7571 23.047 17.3654L22.3377 17.1215L21.6285 16.8776ZM22.7778 15.842L23.487 16.086L23.487 16.086L22.7778 15.842ZM23.189 22.8405L22.8551 22.1689L22.8551 22.1689L23.189 22.8405ZM24.764 14.5046L24.7254 15.2536V15.2536L24.764 14.5046ZM13.2871 16.5958L13.9587 16.2619L12.1779 12.6801L11.5064 13.014L10.8348 13.3479L12.6155 16.9297L13.2871 16.5958ZM16.0126 15.2407L16.6842 14.9069L14.9034 11.3251L14.2319 11.659L13.5603 11.9929L15.341 15.5746L16.0126 15.2407ZM18.7382 13.8857L19.4098 13.5518L16.9613 8.62687L16.2897 8.96076L15.6181 9.29464L18.0666 14.2196L18.7382 13.8857ZM21.909 13.426L22.5806 13.0921L21.245 10.4058L20.5734 10.7397L19.9019 11.0736L21.2374 13.7599L21.909 13.426ZM10.8386 11.6709L11.5102 11.337C11.3303 10.9752 11.4765 10.5161 11.8675 10.3218L11.5336 9.6502L11.1997 8.97862C10.0854 9.53263 9.60925 10.8829 10.167 12.0048L10.8386 11.6709ZM11.5336 9.6502L11.8675 10.3218C12.2584 10.1274 12.7127 10.288 12.8926 10.6497L13.5641 10.3158L14.2357 9.98194C13.678 8.86008 12.314 8.42461 11.1997 8.97862L11.5336 9.6502ZM9.00332 14.8168L9.6749 14.4829C9.49505 14.1212 9.64126 13.6621 10.0322 13.4677L9.69833 12.7961L9.36444 12.1246C8.25011 12.6786 7.77399 14.0288 8.33174 15.1507L9.00332 14.8168ZM9.69833 12.7961L10.0322 13.4677C10.4232 13.2733 10.8775 13.4339 11.0573 13.7956L11.7289 13.4618L12.4005 13.1279C11.8427 12.006 10.4788 11.5705 9.36444 12.1246L9.69833 12.7961ZM13.1189 9.42038L13.7905 9.0865C13.6106 8.72474 13.7568 8.26565 14.1478 8.07128L13.8139 7.3997L13.48 6.72812C12.3657 7.28213 11.8896 8.63241 12.4473 9.75427L13.1189 9.42038ZM13.8139 7.3997L14.1478 8.07128C14.5388 7.8769 14.993 8.03746 15.1729 8.39921L15.8445 8.06532L16.516 7.73144C15.9583 6.60958 14.5944 6.17411 13.48 6.72812L13.8139 7.3997ZM17.1801 10.7516L17.8516 10.4177C17.6718 10.056 17.818 9.59688 18.2089 9.4025L17.8751 8.73093L17.5412 8.05935C16.4268 8.61335 15.9507 9.96364 16.5085 11.0855L17.1801 10.7516ZM17.8751 8.73093L18.2089 9.4025C18.5999 9.20813 19.0542 9.36869 19.234 9.73044L19.9056 9.39655L20.5772 9.06266C20.0194 7.9408 18.6555 7.50534 17.5412 8.05935L17.8751 8.73093ZM12.3422 21.5326L13.0138 21.1987L9.6749 14.4829L9.00332 14.8168L8.33174 15.1507L11.6706 21.8665L12.3422 21.5326ZM12.3422 21.5326L11.6706 21.8665C12.4719 23.4782 13.6996 24.745 15.191 25.3935C16.6984 26.0489 18.423 26.0477 20.1233 25.2023L19.7894 24.5307L19.4555 23.8592C18.1453 24.5106 16.8839 24.4939 15.7891 24.0179C14.6783 23.5349 13.6877 22.5542 13.0138 21.1987L12.3422 21.5326ZM26.5006 17.0621L25.7914 16.8182L24.653 20.1279L25.3622 20.3718L26.0714 20.6157L27.2098 17.306L26.5006 17.0621ZM22.3377 17.1215L23.047 17.3654L23.487 16.086L22.7778 15.842L22.0686 15.5981L21.6285 16.8776L22.3377 17.1215ZM23.189 22.8405L22.8551 22.1689L19.4555 23.8592L19.7894 24.5307L20.1233 25.2023L23.5229 23.5121L23.189 22.8405ZM22.7778 15.842L23.487 16.086C23.665 15.5686 24.1723 15.2251 24.7254 15.2536L24.764 14.5046L24.8027 13.7556C23.585 13.6928 22.4652 14.4449 22.0686 15.5981L22.7778 15.842ZM25.3622 20.3718L24.653 20.1279C24.3488 21.0123 23.7028 21.7475 22.8551 22.1689L23.189 22.8405L23.5229 23.5121C24.7206 22.9166 25.638 21.8759 26.0714 20.6157L25.3622 20.3718ZM26.5006 17.0621L27.2098 17.306C27.7935 15.6091 26.5911 13.8479 24.8027 13.7556L24.764 14.5046L24.7254 15.2536C25.5261 15.295 26.0479 16.0724 25.7914 16.8182L26.5006 17.0621Z" fill="black"/>
<path d="M23 7C24.6569 7 26 8.34315 26 10" stroke="black" stroke-width="1.5" stroke-linecap="round"/>
<path d="M9.57201 24.4507C7.97162 24.0219 7.02187 22.3769 7.45069 20.7765" stroke="black" stroke-width="1.5" stroke-linecap="round"/>
<path d="M23 4C26.3137 4 29 6.68629 29 10" stroke="black" stroke-width="1.5" stroke-linecap="round"/>
<path d="M8.79556 27.3484C5.59476 26.4908 3.69526 23.2008 4.55291 20" stroke="black" stroke-width="1.5" stroke-linecap="round"/>
</svg>
