<svg width="32" height="32" viewBox="0 0 32 32" fill="none" xmlns="http://www.w3.org/2000/svg">
<path d="M8.47693 10.1814L16.0152 10.1814L8.47694 25.0425L0.976987 25.0425L8.47693 10.1814Z" stroke="black" stroke-width="1.5" stroke-linejoin="round"/>
<path d="M16.0153 10.1815L23.4769 25.0425L15.9769 25.0425L12.3135 17.4923L16.0153 10.1815Z" stroke="black" stroke-width="1.5" stroke-linejoin="round"/>
<path d="M31.023 25.0425L23.5231 25.0425L23.5231 12.841L31.023 12.841L31.023 25.0425Z" stroke="black" stroke-width="1.5" stroke-linejoin="round"/>
<path d="M27.2731 10.1815C26.9831 9.51152 26.5731 8.90152 26.0631 8.39153C25.5531 7.88154 24.9431 7.47155 24.2731 7.18155" stroke="black" stroke-width="1.5" stroke-linecap="round" stroke-linejoin="round"/>
<path d="M27.2731 10.1815C27.5631 9.51152 27.973 8.90152 28.483 8.39153C28.993 7.88154 29.603 7.47155 30.273 7.18155" stroke="black" stroke-width="1.5" stroke-linecap="round" stroke-linejoin="round"/>
<path d="M27.2731 4.18161C27.5631 4.85159 27.973 5.46159 28.483 5.97158C28.993 6.48157 29.603 6.89156 30.273 7.18155" stroke="black" stroke-width="1.5" stroke-linecap="round" stroke-linejoin="round"/>
<path d="M27.2731 4.18161C26.9831 4.85159 26.5731 5.46159 26.0631 5.97158C25.5531 6.48157 24.9431 6.89156 24.2731 7.18155" stroke="black" stroke-width="1.5" stroke-linecap="round" stroke-linejoin="round"/>
</svg>
