<svg width="32" height="32" viewBox="0 0 32 32" fill="none" xmlns="http://www.w3.org/2000/svg">
<path d="M6.07587 10.3137C7.20826 9.11296 8.74391 8.43842 10.3451 8.43842C11.9463 8.43842 13.482 9.11296 14.6144 10.3137M1.80511 6.04363C2.92658 4.85404 4.25798 3.91041 5.72328 3.26661C7.18858 2.6228 8.75908 2.29144 10.3451 2.29144C11.9312 2.29144 13.5017 2.6228 14.967 3.26661C16.4323 3.91041 17.7637 4.85404 18.8851 6.04363" stroke="black" stroke-width="1.5" stroke-linecap="round" stroke-linejoin="round"/>
<path d="M18.3078 26.3137C19.4402 25.113 20.9758 24.4384 22.577 24.4384C24.1782 24.4384 25.7139 25.113 26.8463 26.3137M14.037 22.0436C15.1585 20.854 16.4899 19.9104 17.9552 19.2666C19.4205 18.6228 20.991 18.2914 22.577 18.2914C24.1631 18.2914 25.7336 18.6228 27.1989 19.2666C28.6642 19.9104 29.9956 20.854 31.117 22.0436" stroke="black" stroke-width="1.5" stroke-linecap="round" stroke-linejoin="round"/>
<path d="M23.7424 30.8346C23.7424 31.4782 23.2206 32 22.577 32C21.9333 32 21.4116 31.4782 21.4116 30.8346C21.4116 30.1909 21.9333 29.6691 22.577 29.6691C23.2206 29.6691 23.7424 30.1909 23.7424 30.8346Z" fill="black"/>
<path d="M11.5105 14.8346C11.5105 15.4782 10.9887 16 10.3451 16C9.70144 16 9.17966 15.4782 9.17966 14.8346C9.17966 14.1909 9.70144 13.6691 10.3451 13.6691C10.9887 13.6691 11.5105 14.1909 11.5105 14.8346Z" fill="black"/>
</svg>
