<svg width="32" height="32" viewBox="0 0 32 32" fill="none" xmlns="http://www.w3.org/2000/svg">
<path d="M6.47833 16.9997C6.329 16.9997 6.21467 16.96 6.13533 16.8807C6.056 16.8014 6.01633 16.6917 6.01633 16.5517C6.01633 16.407 6.056 16.2974 6.13533 16.2227C6.21467 16.148 6.329 16.1107 6.47833 16.1107H7.18533V12.9537H7.69633L6.67433 13.5767C6.567 13.642 6.46667 13.6677 6.37333 13.6537C6.28467 13.6397 6.20767 13.6 6.14233 13.5347C6.077 13.4694 6.03267 13.3924 6.00933 13.3037C5.99067 13.2104 6 13.1194 6.03733 13.0307C6.07467 12.9374 6.14467 12.858 6.24733 12.7927L7.22033 12.2047C7.31833 12.144 7.41633 12.095 7.51433 12.0577C7.617 12.0204 7.71733 12.0017 7.81533 12.0017C7.95533 12.0017 8.065 12.039 8.14433 12.1137C8.22833 12.1837 8.27033 12.2934 8.27033 12.4427V16.1107H8.90733C9.052 16.1107 9.164 16.148 9.24333 16.2227C9.32267 16.2974 9.36233 16.407 9.36233 16.5517C9.36233 16.6964 9.32267 16.8084 9.24333 16.8877C9.164 16.9624 9.052 16.9997 8.90733 16.9997H6.47833Z" fill="black"/>
<path d="M13.032 20C12.8593 20 12.731 19.9603 12.647 19.881C12.5677 19.797 12.528 19.6757 12.528 19.517C12.528 19.4143 12.5537 19.3187 12.605 19.23C12.6563 19.1413 12.7263 19.0503 12.815 18.957L14.131 17.571C14.327 17.361 14.467 17.1743 14.551 17.011C14.6397 16.8477 14.684 16.6843 14.684 16.521C14.684 16.3157 14.6163 16.1593 14.481 16.052C14.3503 15.9447 14.159 15.891 13.907 15.891C13.7717 15.891 13.6317 15.912 13.487 15.954C13.347 15.9913 13.2 16.0543 13.046 16.143C12.9433 16.199 12.8477 16.22 12.759 16.206C12.675 16.1873 12.6027 16.1477 12.542 16.087C12.4813 16.0217 12.4417 15.9447 12.423 15.856C12.4043 15.7673 12.4137 15.6787 12.451 15.59C12.4883 15.5013 12.5583 15.4267 12.661 15.366C12.8663 15.24 13.0903 15.1467 13.333 15.086C13.5757 15.0207 13.816 14.988 14.054 14.988C14.4227 14.988 14.733 15.044 14.985 15.156C15.237 15.2633 15.4283 15.422 15.559 15.632C15.6897 15.842 15.755 16.0987 15.755 16.402C15.755 16.598 15.7247 16.7893 15.664 16.976C15.6033 17.1627 15.5077 17.3517 15.377 17.543C15.251 17.7297 15.083 17.9303 14.873 18.145L13.648 19.391V19.111H15.545C15.6943 19.111 15.8063 19.1483 15.881 19.223C15.9603 19.2977 16 19.4073 16 19.552C16 19.6967 15.9603 19.8087 15.881 19.888C15.8063 19.9627 15.6943 20 15.545 20H13.032Z" fill="black"/>
<path fill-rule="evenodd" clip-rule="evenodd" d="M12.4274 11.5274C12.6884 11.6176 12.8269 11.9023 12.7367 12.1633L9.9726 20.163C9.88241 20.424 9.59772 20.5624 9.33672 20.4723C9.07572 20.3821 8.93725 20.0974 9.02743 19.8364L11.7916 11.8367C11.8817 11.5757 12.1664 11.4372 12.4274 11.5274Z" fill="black"/>
<path d="M21.3586 20.132C20.7586 20.132 20.2266 20.056 19.7626 19.904C19.3066 19.744 18.9226 19.512 18.6106 19.208C18.2986 18.904 18.0626 18.524 17.9026 18.068C17.7506 17.604 17.6746 17.068 17.6746 16.46V12.38C17.6746 12.068 17.7546 11.832 17.9146 11.672C18.0746 11.512 18.3066 11.432 18.6106 11.432C18.9066 11.432 19.1346 11.512 19.2946 11.672C19.4546 11.832 19.5346 12.068 19.5346 12.38V16.472C19.5346 17.16 19.6906 17.68 20.0026 18.032C20.3146 18.376 20.7666 18.548 21.3586 18.548C21.9506 18.548 22.3986 18.376 22.7026 18.032C23.0146 17.68 23.1706 17.16 23.1706 16.472V12.38C23.1706 12.068 23.2506 11.832 23.4106 11.672C23.5706 11.512 23.7986 11.432 24.0946 11.432C24.3906 11.432 24.6146 11.512 24.7666 11.672C24.9266 11.832 25.0066 12.068 25.0066 12.38V16.46C25.0066 17.268 24.8666 17.948 24.5866 18.5C24.3146 19.044 23.9066 19.452 23.3626 19.724C22.8266 19.996 22.1586 20.132 21.3586 20.132Z" fill="black"/>
<rect x="3" y="3" width="26" height="26" rx="4" stroke="black" stroke-width="1.5"/>
</svg>
