<svg width="32" height="32" viewBox="0 0 32 32" fill="none" xmlns="http://www.w3.org/2000/svg">
<path d="M3.5 14.75H9.5C9.86281 14.75 10.2499 15.0841 10.25 15.6152V26.3848C10.2499 26.9159 9.86281 27.25 9.5 27.25H3.5C3.13719 27.25 2.75007 26.9159 2.75 26.3848V15.6152C2.75007 15.0841 3.13719 14.75 3.5 14.75Z" stroke="black" stroke-width="1.5" stroke-miterlimit="10" stroke-linecap="round"/>
<path d="M21 21L13 21" stroke="black" stroke-width="1.5" stroke-miterlimit="10" stroke-linecap="round"/>
<path d="M4 12V6.5C4 5.67 4.67 5 5.5 5H26.5C27.33 5 28 5.67 28 6.5V16" stroke="black" stroke-width="1.5" stroke-miterlimit="10" stroke-linecap="round"/>
<path d="M13 25L19 25" stroke="black" stroke-width="1.5" stroke-miterlimit="10" stroke-linecap="round"/>
<path d="M18 25L17 21H15L14 25" stroke="black" stroke-width="1.5" stroke-miterlimit="10" stroke-linecap="round"/>
<mask id="path-6-inside-1_6230_368" fill="white">
<rect x="23" y="18" width="7" height="10" rx="1"/>
</mask>
<rect x="23" y="18" width="7" height="10" rx="1" stroke="black" stroke-width="3" mask="url(#path-6-inside-1_6230_368)"/>
</svg>
