<svg width="32" height="32" viewBox="0 0 32 32" fill="none" xmlns="http://www.w3.org/2000/svg">
<path d="M11.9879 27.9887H19.9908" stroke="black" stroke-width="1.5" stroke-linecap="round" stroke-linejoin="round"/>
<path d="M15.9837 18.97V27.9887" stroke="black" stroke-width="1.5" stroke-linecap="round" stroke-linejoin="round"/>
<path d="M18.0945 13.8907C19.2571 15.0533 19.2571 16.9383 18.0945 18.1009C16.9319 19.2635 15.0469 19.2635 13.8843 18.1009C12.7216 16.9383 12.7216 15.0533 13.8843 13.8907C15.0469 12.7281 16.9319 12.7281 18.0945 13.8907Z" stroke="black" stroke-width="1.5" stroke-linecap="round" stroke-linejoin="round"/>
<path d="M10.2045 20.4487C7.99218 17.5704 8.17278 13.4505 10.8028 10.8092C13.6698 7.94218 18.3089 7.94218 21.176 10.8092C23.8172 13.4505 23.9865 17.5704 21.7742 20.4487" stroke="black" stroke-width="1.5" stroke-linecap="round" stroke-linejoin="round"/>
<path d="M6.87473 23.7785C2.8451 19.0603 3.04827 11.9718 7.50682 7.51323C12.1911 2.82892 19.7876 2.82892 24.4719 7.51323C28.9305 11.9718 29.1336 19.0716 25.104 23.7785" stroke="black" stroke-width="1.5" stroke-linecap="round" stroke-linejoin="round"/>
</svg>
