<svg width="32" height="32" viewBox="0 0 32 32" fill="none" xmlns="http://www.w3.org/2000/svg">
<mask id="path-1-inside-1_4851_11230" fill="white">
<path d="M22.6667 3.99998C23.403 3.99998 23.9995 4.59675 23.9997 5.33298V6.66697H25.3337C26.0699 6.66715 26.6667 7.26371 26.6667 7.99998V10.667L26.9391 10.6806C28.2838 10.8171 29.3335 11.9524 29.3337 13.333V26.667C29.3335 28.1396 28.1393 29.333 26.6667 29.333H5.33368C3.86104 29.333 2.66687 28.1396 2.66669 26.667V13.333C2.66684 11.9526 3.71589 10.8174 5.06024 10.6806L5.33368 10.667V7.99998C5.33368 7.2636 5.93031 6.66697 6.66669 6.66697H7.99969V5.33298C7.99986 4.59675 8.5974 3.99998 9.33368 3.99998H22.6667Z"/>
</mask>
<path d="M23.9997 5.33298H25.4997V5.33265L23.9997 5.33298ZM23.9997 6.66697H22.4997V8.16697H23.9997V6.66697ZM25.3337 6.66697L25.334 5.16697H25.3337V6.66697ZM26.6667 10.667H25.1667V12.0936L26.5915 12.1651L26.6667 10.667ZM26.9391 10.6806L27.0906 9.18831L27.0525 9.18444L27.0143 9.18253L26.9391 10.6806ZM29.3337 13.333H30.8337V13.3328L29.3337 13.333ZM29.3337 26.667L30.8337 26.6672V26.667H29.3337ZM26.6667 29.333V30.833V30.833V29.333ZM2.66669 26.667H1.16669V26.6672L2.66669 26.667ZM2.66669 13.333L1.16669 13.3328V13.333H2.66669ZM5.06024 10.6806L4.98534 9.18251L4.9468 9.18444L4.90842 9.18834L5.06024 10.6806ZM5.33368 10.667L5.40859 12.1651L6.83368 12.0938V10.667H5.33368ZM7.99969 6.66697V8.16697H9.49969V6.66697H7.99969ZM7.99969 5.33298L6.49969 5.33265V5.33298H7.99969ZM22.6667 3.99998V5.49998C22.5742 5.49998 22.4997 5.42491 22.4997 5.33332L23.9997 5.33298L25.4997 5.33265C25.4993 3.76858 24.2317 2.49998 22.6667 2.49998V3.99998ZM23.9997 5.33298H22.4997V6.66697H23.9997H25.4997V5.33298H23.9997ZM23.9997 6.66697V8.16697H25.3337V6.66697V5.16697H23.9997V6.66697ZM25.3337 6.66697L25.3333 8.16697C25.2418 8.16695 25.1667 8.09249 25.1667 7.99998H26.6667H28.1667C28.1667 6.43492 26.8981 5.16735 25.334 5.16697L25.3337 6.66697ZM26.6667 7.99998H25.1667V10.667H26.6667H28.1667V7.99998H26.6667ZM26.6667 10.667L26.5915 12.1651L26.864 12.1788L26.9391 10.6806L27.0143 9.18253L26.7419 9.16885L26.6667 10.667ZM26.9391 10.6806L26.7877 12.173C27.3748 12.2326 27.8336 12.7305 27.8337 13.3332L29.3337 13.333L30.8337 13.3328C30.8334 11.1742 29.1928 9.40166 27.0906 9.18831L26.9391 10.6806ZM29.3337 13.333H27.8337V26.667H29.3337H30.8337V13.333H29.3337ZM29.3337 26.667L27.8337 26.6668C27.8336 27.3106 27.3114 27.833 26.6667 27.833V29.333V30.833C28.9672 30.833 30.8334 28.9686 30.8337 26.6672L29.3337 26.667ZM26.6667 29.333V27.833H5.33368V29.333V30.833H26.6667V29.333ZM5.33368 29.333V27.833C4.68894 27.833 4.16677 27.3106 4.16669 26.6668L2.66669 26.667L1.16669 26.6672C1.16698 28.9686 3.03313 30.833 5.33368 30.833V29.333ZM2.66669 26.667H4.16669V13.333H2.66669H1.16669V26.667H2.66669ZM2.66669 13.333L4.16669 13.3332C4.16675 12.7303 4.62535 12.2326 5.21206 12.1729L5.06024 10.6806L4.90842 9.18834C2.80642 9.4022 1.16693 11.1748 1.16669 13.3328L2.66669 13.333ZM5.06024 10.6806L5.13515 12.1788L5.40859 12.1651L5.33368 10.667L5.25877 9.16884L4.98534 9.18251L5.06024 10.6806ZM5.33368 10.667H6.83368V7.99998H5.33368H3.83368V10.667H5.33368ZM5.33368 7.99998H6.83368C6.83368 8.09202 6.75873 8.16697 6.66669 8.16697V6.66697V5.16697C5.10188 5.16697 3.83368 6.43517 3.83368 7.99998H5.33368ZM6.66669 6.66697V8.16697H7.99969V6.66697V5.16697H6.66669V6.66697ZM7.99969 6.66697H9.49969V5.33298H7.99969H6.49969V6.66697H7.99969ZM7.99969 5.33298L9.49969 5.33332C9.49967 5.42634 9.42473 5.49998 9.33368 5.49998V3.99998V2.49998C7.77007 2.49998 6.50004 3.76715 6.49969 5.33265L7.99969 5.33298ZM9.33368 3.99998V5.49998H22.6667V3.99998V2.49998H9.33368V3.99998Z" fill="black" mask="url(#path-1-inside-1_4851_11230)"/>
<path d="M10.1694 23.6667C9.94407 23.6667 9.76641 23.606 9.63641 23.4847C9.51507 23.3547 9.45441 23.1813 9.45441 22.9647C9.45441 22.7393 9.51507 22.5703 9.63641 22.4577C9.76641 22.345 9.94407 22.2887 10.1694 22.2887H11.6254V15.9057H12.4314L10.5204 17.0627C10.3557 17.158 10.1997 17.197 10.0524 17.1797C9.91374 17.1537 9.79241 17.093 9.68841 16.9977C9.59307 16.8937 9.52807 16.7723 9.49341 16.6337C9.45874 16.495 9.46741 16.3563 9.51941 16.2177C9.58007 16.0703 9.69274 15.949 9.85741 15.8537L11.6514 14.7747C11.8247 14.6707 11.9981 14.584 12.1714 14.5147C12.3447 14.4367 12.5051 14.3977 12.6524 14.3977C12.8344 14.3977 12.9861 14.4497 13.1074 14.5537C13.2287 14.649 13.2894 14.8093 13.2894 15.0347V22.2887H14.6154C14.8407 22.2887 15.0141 22.345 15.1354 22.4577C15.2654 22.5703 15.3304 22.7393 15.3304 22.9647C15.3304 23.19 15.2654 23.3633 15.1354 23.4847C15.0141 23.606 14.8407 23.6667 14.6154 23.6667H10.1694ZM20.6943 23.7967C19.6803 23.7967 18.8223 23.606 18.1203 23.2247C17.427 22.8433 16.8983 22.3017 16.5343 21.5997C16.1703 20.8977 15.9883 20.0657 15.9883 19.1037C15.9883 18.3757 16.0923 17.7213 16.3003 17.1407C16.517 16.56 16.8247 16.066 17.2233 15.6587C17.6307 15.2427 18.1247 14.9263 18.7053 14.7097C19.286 14.4843 19.9447 14.3717 20.6813 14.3717C21.1667 14.3717 21.652 14.4323 22.1373 14.5537C22.6313 14.6663 23.095 14.8613 23.5283 15.1387C23.6757 15.234 23.771 15.351 23.8143 15.4897C23.8663 15.6283 23.875 15.7713 23.8403 15.9187C23.8057 16.0573 23.7407 16.1787 23.6453 16.2827C23.55 16.3867 23.4287 16.4517 23.2813 16.4777C23.1427 16.5037 22.9867 16.469 22.8133 16.3737C22.484 16.183 22.1503 16.0443 21.8123 15.9577C21.4743 15.871 21.0973 15.8277 20.6813 15.8277C20.04 15.8277 19.4983 15.9577 19.0563 16.2177C18.6143 16.469 18.2807 16.8373 18.0553 17.3227C17.8387 17.808 17.7303 18.4017 17.7303 19.1037C17.7303 20.1697 17.986 20.98 18.4973 21.5347C19.0087 22.0893 19.767 22.3667 20.7723 22.3667C21.119 22.3667 21.47 22.332 21.8253 22.2627C22.1807 22.1933 22.5273 22.098 22.8653 21.9767L22.5403 22.7177V19.9487H21.1103C20.8937 19.9487 20.7247 19.8923 20.6033 19.7797C20.4907 19.667 20.4343 19.5153 20.4343 19.3247C20.4343 19.1253 20.4907 18.9737 20.6033 18.8697C20.7247 18.7657 20.8937 18.7137 21.1103 18.7137H23.2553C23.472 18.7137 23.6367 18.7743 23.7493 18.8957C23.8707 19.0083 23.9313 19.173 23.9313 19.3897V22.5487C23.9313 22.7393 23.8923 22.8997 23.8143 23.0297C23.745 23.1597 23.628 23.255 23.4633 23.3157C23.082 23.4543 22.6443 23.5713 22.1503 23.6667C21.6563 23.7533 21.171 23.7967 20.6943 23.7967Z" fill="black"/>
</svg>
