<svg width="32" height="32" viewBox="0 0 32 32" fill="none" xmlns="http://www.w3.org/2000/svg">
<path d="M10.1764 11.9741C10.3239 12.4493 10.5269 12.9133 10.7771 13.3442C10.8667 13.4987 11.0332 13.6242 11.2061 13.6714C11.378 13.7184 11.6068 13.6971 11.7593 13.5996C11.9125 13.5015 12.0475 13.3556 12.0891 13.174C12.1322 12.9862 12.1153 12.7951 12.0167 12.6253C11.9104 12.4422 11.8148 12.2537 11.7285 12.0608C11.5584 11.6405 11.4377 11.2027 11.3684 10.7551C11.3145 10.2951 11.3145 9.83055 11.3684 9.37068C11.4377 8.92302 11.5582 8.48523 11.7285 8.06496C11.8148 7.87203 11.9104 7.68352 12.0167 7.50046C12.1101 7.33959 12.1388 7.13121 12.0891 6.95179C12.0433 6.78664 11.9145 6.6076 11.7593 6.5262C11.5926 6.43895 11.3908 6.39507 11.2061 6.4544C11.0286 6.5114 10.8721 6.61799 10.7771 6.78158C9.87353 8.33852 9.64238 10.2535 10.1764 11.9739V11.9741Z" fill="black"/>
<path d="M21.2713 12.061C21.1851 12.2539 21.0894 12.4424 20.9831 12.6253C20.8898 12.7862 20.861 12.9946 20.9107 13.174C20.9565 13.3392 21.0853 13.5182 21.2406 13.5996C21.4072 13.6868 21.609 13.7307 21.7937 13.6714C21.9712 13.6144 22.1277 13.5078 22.2228 13.3442C23.1263 11.7873 23.3574 9.87226 22.8234 8.15185C22.6759 7.67667 22.4729 7.21265 22.2228 6.78174C22.1331 6.62724 21.9666 6.50169 21.7937 6.45456C21.6218 6.40756 21.393 6.42886 21.2406 6.52636C21.0873 6.62438 20.9523 6.77031 20.9107 6.95195C20.8677 7.13969 20.8845 7.3308 20.9831 7.50062C21.0894 7.68368 21.1851 7.87207 21.2713 8.065C21.4415 8.48526 21.5622 8.92306 21.6314 9.37085C21.6853 9.83084 21.6853 10.2952 21.6314 10.7552C21.5622 11.2029 21.4416 11.6407 21.2713 12.0611V12.061Z" fill="black"/>
<path d="M7.92065 5.89117C7.52654 6.69912 7.23505 7.5551 7.08819 8.44172C6.93662 9.35677 6.89866 10.2835 7.01934 11.2045C7.08256 11.6863 7.16699 12.162 7.29971 12.6302C7.4285 13.0845 7.59853 13.5242 7.79042 13.9559C8.14945 14.7635 8.63584 15.504 9.20534 16.1807C9.27078 16.2585 9.3378 16.3351 9.40586 16.4108C9.52419 16.5423 9.73989 16.6193 9.91345 16.6193C10.087 16.6193 10.2998 16.5417 10.421 16.4108C10.5466 16.2751 10.6399 16.097 10.6313 15.9073C10.6225 15.7124 10.5527 15.5503 10.421 15.4038C10.2985 15.2678 10.1811 15.1274 10.067 14.9842C9.64696 14.4316 9.29317 13.8322 9.01398 13.198C8.74343 12.5412 8.55403 11.8542 8.44958 11.1522C8.36018 10.4293 8.36018 9.69732 8.44958 8.97429C8.5539 8.27242 8.7433 7.58535 9.01398 6.92853C9.29317 6.2943 9.64696 5.69487 10.0669 5.1423C10.1809 4.99923 10.2984 4.85888 10.4209 4.72269C10.548 4.58156 10.6311 4.41252 10.6311 4.2192C10.6311 4.04458 10.553 3.83594 10.4209 3.71571C10.2841 3.5912 10.1046 3.49863 9.91332 3.5072C9.72929 3.51538 9.53243 3.57497 9.40573 3.71571C8.81646 4.37045 8.30612 5.1005 7.92052 5.89117H7.92065Z" fill="black"/>
<path d="M22.9329 5.14213C23.3529 5.69469 23.7067 6.29425 23.9859 6.92848C24.2564 7.58517 24.4458 8.27224 24.5503 8.97411C24.6397 9.69715 24.6397 10.4291 24.5503 11.152C24.446 11.8539 24.2566 12.541 23.9859 13.1978C23.7067 13.832 23.3529 14.4315 22.9329 14.984C22.8189 15.1271 22.7013 15.2674 22.5788 15.4035C22.4517 15.5446 22.3686 15.7137 22.3686 15.907C22.3686 16.0816 22.4467 16.2903 22.5788 16.4105C22.7156 16.535 22.8952 16.6276 23.0864 16.619C23.2704 16.6108 23.4673 16.5512 23.594 16.4105C24.1833 15.7557 24.6936 15.0257 25.0792 14.235C25.4733 13.4271 25.7648 12.5711 25.9117 11.6845C26.0632 10.7694 26.1012 9.84269 25.9804 8.92179C25.9172 8.43998 25.8327 7.96428 25.7 7.49624C25.5712 7.04183 25.4012 6.60222 25.2093 6.17053C24.8503 5.36297 24.364 4.62254 23.7944 3.94573C23.7289 3.86796 23.6619 3.79136 23.5939 3.71567C23.4755 3.58415 23.2598 3.50716 23.0863 3.50716C22.9127 3.50716 22.6999 3.5848 22.5787 3.71567C22.4532 3.85134 22.3598 4.02947 22.3685 4.21915C22.3772 4.41403 22.447 4.57619 22.5787 4.72264C22.7012 4.85871 22.8186 4.99905 22.9327 5.14213H22.9329Z" fill="black"/>
<path d="M8.70704 19.5409C8.88309 19.5409 9.09343 19.4633 9.21463 19.3324C9.34016 19.1967 9.43348 19.0186 9.42484 18.8289C9.4166 18.6469 9.35691 18.4503 9.21463 18.3254C8.67746 17.8541 8.1844 17.3353 7.74068 16.7767C7.16267 16.0221 6.67798 15.2005 6.29827 14.3309C5.92772 13.438 5.67013 12.5025 5.53086 11.5469C5.40612 10.5621 5.40612 9.56398 5.53086 8.57921C5.67013 7.62365 5.92772 6.68808 6.29827 5.79535C6.67785 4.92561 7.16267 4.10404 7.74068 3.34945C8.18453 2.79079 8.67746 2.27198 9.21477 1.80069C9.34749 1.68423 9.42497 1.46845 9.42497 1.2972C9.42497 1.12595 9.34683 0.91394 9.21477 0.793715C9.07798 0.669207 8.8984 0.576637 8.70717 0.585206C8.51018 0.593904 8.34801 0.663494 8.19958 0.793715C7.19814 1.67229 6.33597 2.72237 5.66777 3.87099C4.98741 5.04064 4.49356 6.3313 4.23688 7.65792C4.1001 8.36447 4.01829 9.08516 4.00259 9.80469C3.98649 10.5414 4.04644 11.2736 4.15651 12.0018C4.35913 13.3417 4.80494 14.644 5.43911 15.8432C6.05822 17.0139 6.88086 18.093 7.84317 19.0074C7.95966 19.1182 8.07851 19.2263 8.19945 19.3323C8.34277 19.4581 8.51123 19.5408 8.70704 19.5408V19.5409Z" fill="black"/>
<path d="M28.8368 8.08151C28.6283 6.73788 28.1756 5.4319 27.5335 4.23174C26.9085 3.06351 26.0802 1.98708 25.1128 1.07722C24.9957 0.966989 24.8762 0.859359 24.7547 0.753935C24.6102 0.628518 24.4438 0.545425 24.2471 0.545425C24.0711 0.545425 23.8607 0.623065 23.7395 0.753935C23.614 0.889609 23.5207 1.06774 23.5293 1.25742C23.5375 1.43893 23.5968 1.63705 23.7395 1.76091C24.2941 2.24246 24.8021 2.77425 25.2582 3.34823C25.8362 4.10269 26.3212 4.92413 26.7009 5.79361C27.0717 6.68686 27.3296 7.62282 27.469 8.5789C27.5932 9.55939 27.5938 10.5531 27.4708 11.5336C27.3324 12.4909 27.0754 13.4284 26.7048 14.3229C26.3233 15.1988 25.8351 16.0259 25.2525 16.785C24.8105 17.3405 24.3196 17.8563 23.7852 18.3252C23.6525 18.4417 23.575 18.6575 23.575 18.8287C23.575 19 23.6533 19.212 23.7852 19.3322C23.922 19.4567 24.1016 19.5493 24.2928 19.5407C24.4898 19.532 24.6519 19.4623 24.8004 19.3322C25.8044 18.4513 26.6686 17.3981 27.3374 16.2459C28.0187 15.0723 28.5122 13.7775 28.7671 12.4466C28.9047 11.7281 28.986 10.9957 28.9984 10.2642C29.0109 9.53238 28.9489 8.80428 28.8368 8.08125V8.08151Z" fill="black"/>
<path d="M25.0074 29.803H23.8678C23.7082 29.3865 23.5485 28.9702 23.389 28.5537C23.1446 27.9159 22.9001 27.2782 22.6557 26.6405C22.3565 25.8598 22.0573 25.0792 21.7582 24.2986C21.4315 23.4462 21.1048 22.5939 20.7783 21.7414C20.6209 21.3307 20.4635 20.9201 20.3061 20.5094C20.2974 20.4818 20.2868 20.4548 20.275 20.4281C20.1129 20.0055 19.951 19.5828 19.789 19.1602C19.4806 18.3554 19.1721 17.5507 18.8636 16.7459C18.6038 16.068 18.344 15.3901 18.0841 14.7122C17.8972 14.2245 17.7103 13.7369 17.5234 13.2492C17.5149 13.227 17.5064 13.2049 17.4979 13.1827C18.0131 13.0228 18.4957 12.7234 18.8663 12.3417C19.3128 11.8818 19.6455 11.276 19.7429 10.6413C19.7724 10.449 19.7974 10.2574 19.7981 10.0629C19.7968 9.73208 19.7487 9.39088 19.6447 9.07591C19.5444 8.77171 19.4051 8.47141 19.2161 8.21071C19.1085 8.06231 18.9944 7.91599 18.8663 7.78408C18.7328 7.64659 18.5832 7.53026 18.4301 7.41497C18.1724 7.22113 17.883 7.08312 17.5798 6.97276C16.958 6.74647 16.2357 6.73504 15.6006 6.91447C14.9883 7.08753 14.403 7.44613 13.9974 7.93598C13.8782 8.07984 13.7621 8.22927 13.6654 8.38936C13.5688 8.54918 13.4958 8.71874 13.4245 8.8909C13.297 9.1986 13.2369 9.52513 13.2101 9.85607C13.1573 10.5078 13.3331 11.1961 13.6755 11.7532C13.8399 12.0205 14.0447 12.2743 14.2814 12.4824C14.5193 12.6916 14.7837 12.8801 15.0742 13.0106C15.251 13.09 15.4317 13.1651 15.6192 13.2166C15.4934 13.5761 15.3676 13.9356 15.2419 14.2951C15.0186 14.9334 14.7951 15.5718 14.5717 16.21C14.2992 16.9889 14.0267 17.7678 13.754 18.5465C13.4555 19.3996 13.1569 20.2529 12.8584 21.106C12.5569 21.9673 12.2556 22.8286 11.9542 23.6898C11.6731 24.4929 11.392 25.2962 11.111 26.0993C10.8734 26.7782 10.6358 27.4571 10.3983 28.136C10.2273 28.6243 10.0565 29.1127 9.88557 29.601C9.86201 29.6685 9.8378 29.7358 9.81385 29.8032H8.69264C8.50861 29.8032 8.31528 29.8826 8.18505 30.0117C8.06057 30.1351 7.96686 30.3378 7.97484 30.5152C7.99225 30.9009 8.29028 31.2272 8.69264 31.2272H11.9556C12.1396 31.2272 12.333 31.1477 12.4632 31.0186C12.5934 30.8896 12.6815 30.6925 12.6734 30.5152C12.6564 30.1388 12.3721 29.82 11.9847 29.8046C12.2419 29.5338 12.4989 29.2631 12.7561 28.9922C13.1641 28.5626 13.5722 28.1329 13.9802 27.7033C14.4251 27.2347 14.8701 26.7661 15.315 26.2977C15.7642 25.8247 16.2133 25.3517 16.6625 24.8788C16.6789 24.8615 16.6954 24.8442 16.7118 24.8268C17.0983 25.2156 17.4847 25.6043 17.8712 25.993C18.3373 26.4617 18.8033 26.9305 19.2694 27.3992C19.7059 27.8383 20.1424 28.2772 20.5788 28.7162C20.9407 29.0803 21.3027 29.4443 21.6648 29.8085C21.5061 29.8274 21.3481 29.9012 21.2366 30.0118C21.1122 30.1353 21.0184 30.3379 21.0264 30.5153C21.0438 30.901 21.3419 31.2273 21.7442 31.2273H25.0072C25.1912 31.2273 25.3845 31.1478 25.5148 31.0188C25.6393 30.8953 25.733 30.6926 25.725 30.5153C25.7076 30.1296 25.4095 29.8033 25.0072 29.8033L25.0074 29.803ZM15.3595 11.5271C15.2378 11.4261 15.1256 11.3149 15.0238 11.1941C14.9303 11.0644 14.8493 10.9269 14.781 10.7827C14.723 10.6303 14.6797 10.4732 14.6513 10.3127C14.6354 10.1464 14.6354 9.97954 14.6513 9.81322C14.6798 9.65275 14.723 9.49565 14.781 9.34323C14.8493 9.19886 14.9303 9.0615 15.0238 8.93179C15.1256 8.81105 15.2378 8.69979 15.3595 8.59878C15.4903 8.50608 15.6289 8.42571 15.7743 8.35794C15.928 8.30042 16.0864 8.25745 16.2481 8.22928C16.4158 8.21357 16.584 8.21357 16.7517 8.22928C16.9135 8.25745 17.0718 8.30042 17.2255 8.35794C17.3711 8.42571 17.5095 8.50608 17.6403 8.59878C17.762 8.69979 17.8742 8.81105 17.976 8.93179C18.0695 9.0615 18.1505 9.19899 18.2188 9.34323C18.2769 9.49604 18.3203 9.65327 18.3487 9.81413C18.3565 9.89683 18.362 9.97967 18.3624 10.0629C18.362 10.1461 18.3567 10.2289 18.3487 10.3116C18.3203 10.4725 18.2768 10.6299 18.2188 10.7825C18.1505 10.9269 18.0695 11.0643 17.976 11.194C17.8742 11.3147 17.762 11.426 17.6403 11.527C17.5095 11.6197 17.3709 11.7001 17.2255 11.7678C17.0718 11.8254 16.9135 11.8683 16.7517 11.8965C16.584 11.9122 16.4158 11.9122 16.2481 11.8965C16.0864 11.8683 15.9281 11.8254 15.7743 11.7678C15.6288 11.7001 15.4903 11.6197 15.3595 11.527V11.5271ZM14.632 24.941C14.1828 25.4139 13.7337 25.8869 13.2845 26.3599C12.8898 26.7756 12.495 27.1912 12.1004 27.6068C12.169 27.411 12.2374 27.2151 12.306 27.0193C12.5785 26.2404 12.851 25.4616 13.1237 24.6829C13.4222 23.8297 13.7208 22.9765 14.0193 22.1234C14.0197 22.1222 14.0201 22.121 14.0207 22.1197C14.072 22.1714 14.1233 22.2229 14.1746 22.2746C14.5216 22.6236 14.8687 22.9727 15.2157 23.3217C15.3784 23.4853 15.5411 23.6489 15.7038 23.8126C15.3466 24.1887 14.9894 24.5648 14.6322 24.941H14.632ZM16.6887 22.7752C16.6322 22.7182 16.5755 22.6614 16.519 22.6044C16.1517 22.235 15.7844 21.8656 15.4173 21.4963C15.1519 21.2295 14.8868 20.9627 14.6214 20.6959C14.5962 20.6704 14.5709 20.6448 14.5458 20.6193C14.6717 20.2594 14.7978 19.8993 14.9237 19.5394C15.2047 18.7363 15.4858 17.933 15.7669 17.1299C16.0044 16.451 16.242 15.7721 16.4796 15.0932C16.5148 14.9926 16.55 14.892 16.5852 14.7915C16.8148 15.3905 17.0444 15.9897 17.2741 16.5888C17.5733 17.3694 17.8725 18.15 18.1716 18.9307C18.3794 19.473 18.5873 20.0151 18.795 20.5575C18.5933 20.7699 18.3916 20.9821 18.19 21.1945C17.8572 21.5451 17.5242 21.8956 17.1913 22.2462C17.0239 22.4225 16.8564 22.5988 16.689 22.7752H16.6887ZM20.6178 26.7271C20.154 26.2606 19.6903 25.7942 19.2266 25.3277C18.7605 24.859 18.2945 24.3902 17.8284 23.9215C17.7847 23.8775 17.7408 23.8335 17.6971 23.7895C17.773 23.7095 17.8491 23.6295 17.925 23.5496C18.2789 23.1768 18.6328 22.8041 18.9869 22.4314C19.1119 22.2999 19.2368 22.1683 19.3618 22.0366C19.6214 22.7141 19.881 23.3915 20.1407 24.069C20.4491 24.8738 20.7576 25.6785 21.0661 26.4834C21.2105 26.86 21.3548 27.2368 21.4992 27.6134C21.2055 27.3179 20.9116 27.0226 20.6179 26.7271H20.6178Z" fill="black"/>
</svg>
