<svg width="32" height="29" viewBox="0 0 32 29" fill="none" xmlns="http://www.w3.org/2000/svg">
<g clip-path="url(#clip0_6230_413)">
<path d="M9 17.6666L6.33334 20.3333L3.66667 17.6666H2C1.44772 17.6666 1 17.2189 1 16.6666V5.33331C1 4.78103 1.44772 4.33331 2 4.33331H18.6667C19.219 4.33331 19.6667 4.78103 19.6667 5.33331V9" stroke="black" stroke-width="1.5" stroke-linecap="round" stroke-linejoin="round"/>
<ellipse cx="10" cy="8.90625" rx="1" ry="0.890625" fill="black"/>
<ellipse cx="13" cy="8.90625" rx="1" ry="0.890625" fill="black"/>
<ellipse cx="7" cy="8.90625" rx="1" ry="0.890625" fill="black"/>
<path d="M12.6667 13H29.3333C29.8856 13 30.3333 13.4477 30.3333 14V25.3333C30.3333 25.8856 29.8856 26.3333 29.3333 26.3333H19.6667L17 29L14.3333 26.3333H12.6667C12.1144 26.3333 11.6667 25.8856 11.6667 25.3333V14C11.6667 13.4477 12.1144 13 12.6667 13Z" stroke="black" stroke-width="1.5" stroke-linejoin="round"/>
<path d="M18 19.8125L19.6667 21.5938L23 18.0312" stroke="black" stroke-width="1.5" stroke-miterlimit="10" stroke-linecap="round" stroke-linejoin="round"/>
</g>
<defs>
<clipPath id="clip0_6230_413">
<rect width="32" height="28.5" fill="white"/>
</clipPath>
</defs>
</svg>
