<svg width="32" height="32" viewBox="0 0 32 32" fill="none" xmlns="http://www.w3.org/2000/svg">
<path d="M22.6667 25.3333V22.6667" stroke="black" stroke-width="1.5" stroke-linecap="round" stroke-linejoin="round"/>
<path d="M12.6667 28H4.66669C3.56212 28 2.66669 27.1046 2.66669 26V23.3333C2.66669 22.2288 3.56212 21.3333 4.66669 21.3333H12.6667" stroke="black" stroke-width="1.5" stroke-linecap="round"/>
<path d="M27.25 8C27.25 8.41421 27.5858 8.75 28 8.75C28.4142 8.75 28.75 8.41421 28.75 8H28H27.25ZM8 4V4.75H24V4V3.25H8V4ZM4 21.3333H4.75V8H4H3.25V21.3333H4ZM24 4V4.75C25.7949 4.75 27.25 6.20507 27.25 8H28H28.75C28.75 5.37665 26.6234 3.25 24 3.25V4ZM8 4V3.25C5.37665 3.25 3.25 5.37665 3.25 8H4H4.75C4.75 6.20507 6.20507 4.75 8 4.75V4Z" fill="black"/>
<path d="M22.6667 10.6667C24.8667 10.6667 26.6667 12.4667 26.6667 14.6667V18.6667H18.6667V14.6667C18.6667 12.4667 20.4667 10.6667 22.6667 10.6667Z" stroke="black" stroke-width="1.5" stroke-linecap="round" stroke-linejoin="round"/>
<path d="M29.3333 18.6667H16V29.3333H29.3333V18.6667Z" stroke="black" stroke-width="1.5" stroke-linecap="round" stroke-linejoin="round"/>
</svg>
