<svg width="32" height="32" viewBox="0 0 32 32" fill="none" xmlns="http://www.w3.org/2000/svg">
<path d="M6.5 12.0714H25.5M17 24H8C6.93913 24 5.92172 23.6162 5.17157 22.933C4.42143 22.2499 4 21.3233 4 20.3571V10.6429C4 9.67671 4.42143 8.75014 5.17157 8.06697C5.92172 7.3838 6.93913 7 8 7H24C25.0609 7 26.0783 7.3838 26.8284 8.06697C27.5786 8.75014 28 9.67671 28 10.6429V14.5" stroke="black" stroke-width="1.5" stroke-linecap="round" stroke-linejoin="round"/>
<path d="M29.3333 24H21.3333V29.3333H29.3333V24Z" stroke="black" stroke-width="1.5" stroke-linecap="round" stroke-linejoin="round"/>
<path d="M25.3333 18.6667C26.8 18.6667 28 19.8667 28 21.3333V24H22.6667V21.3333C22.6667 19.8667 23.8667 18.6667 25.3333 18.6667Z" stroke="black" stroke-width="1.5" stroke-linecap="round" stroke-linejoin="round"/>
</svg>
