<svg width="32" height="32" viewBox="0 0 32 32" fill="none" xmlns="http://www.w3.org/2000/svg">
<path d="M13.8055 25.7609C13.9845 26.0864 14.2476 26.3579 14.5674 26.547C14.8871 26.7361 15.2518 26.8358 15.6233 26.8358C15.9947 26.8358 16.3594 26.7361 16.6792 26.547C16.9989 26.3579 17.262 26.0864 17.441 25.7609M9.20775 11.8606C9.20775 10.1591 9.88367 8.5273 11.0868 7.32416C12.29 6.12102 13.9218 5.4451 15.6233 5.4451C17.3248 5.4451 18.9566 6.12102 20.1597 7.32416C21.3629 8.5273 22.0388 10.1591 22.0388 11.8606C22.0388 19.3454 25.2465 21.4839 25.2465 21.4839H6C6 21.4839 9.20775 19.3454 9.20775 11.8606Z" stroke="black" stroke-width="1.5" stroke-linecap="round" stroke-linejoin="round"/>
<path d="M25.0931 9.26688C25.2218 8.86578 25.2703 8.44325 25.2357 8.02342C25.2011 7.6036 25.0841 7.1947 24.8915 6.82007C24.6989 6.44544 24.4344 6.11242 24.113 5.84002C23.7917 5.56762 23.4199 5.36118 23.0188 5.23248" stroke="black" stroke-width="1.5" stroke-linecap="round"/>
<path d="M28.4742 9.22864C28.6887 8.56013 28.7694 7.85592 28.7117 7.15621C28.6541 6.4565 28.4592 5.775 28.1381 5.15062C27.8171 4.52623 27.3762 3.9712 26.8407 3.5172C26.3051 3.0632 25.6854 2.71914 25.0169 2.50464" stroke="black" stroke-width="1.5" stroke-linecap="round"/>
</svg>
