<svg width="32" height="32" viewBox="0 0 32 32" fill="none" xmlns="http://www.w3.org/2000/svg">
<path d="M2.66669 5.33331L2.66669 10.6666C2.66669 12.1394 3.86059 13.3333 5.33335 13.3333H10.6667C12.1394 13.3333 13.3334 12.1394 13.3334 10.6666V5.33331C13.3334 3.86055 12.1394 2.66665 10.6667 2.66665H5.33335C3.86059 2.66665 2.66669 3.86055 2.66669 5.33331Z" stroke="black" stroke-width="1.5" stroke-linecap="round" stroke-linejoin="round"/>
<path d="M2.66669 21.3333L2.66669 26.6666C2.66669 28.1394 3.86059 29.3333 5.33335 29.3333H10.6667C12.1394 29.3333 13.3334 28.1394 13.3334 26.6666V21.3333C13.3334 19.8606 12.1394 18.6666 10.6667 18.6666H5.33335C3.86059 18.6666 2.66669 19.8606 2.66669 21.3333Z" stroke="black" stroke-width="1.5" stroke-linecap="round" stroke-linejoin="round"/>
<path d="M18.6667 5.33331V10.6666C18.6667 12.1394 19.8606 13.3333 21.3334 13.3333H26.6667C28.1394 13.3333 29.3334 12.1394 29.3334 10.6666V5.33331C29.3334 3.86055 28.1394 2.66665 26.6667 2.66665H21.3334C19.8606 2.66665 18.6667 3.86055 18.6667 5.33331Z" stroke="black" stroke-width="1.5" stroke-linecap="round" stroke-linejoin="round"/>
<path d="M24 18.6667V29.3334" stroke="black" stroke-width="1.5" stroke-linecap="round" stroke-linejoin="round"/>
<path d="M29.3334 24H18.6667" stroke="black" stroke-width="1.5" stroke-linecap="round" stroke-linejoin="round"/>
</svg>
