<svg width="32" height="32" viewBox="0 0 32 32" fill="none" xmlns="http://www.w3.org/2000/svg">
<path d="M9.33333 14.6667V25.3333C9.33333 25.687 9.19286 26.0261 8.94281 26.2761C8.69276 26.5262 8.35362 26.6667 8 26.6667H5.33333C4.97971 26.6667 4.64057 26.5262 4.39052 26.2761C4.14048 26.0261 4 25.687 4 25.3333V16C4 15.6464 4.14048 15.3072 4.39052 15.0572C4.64057 14.8071 4.97971 14.6667 5.33333 14.6667H9.33333ZM9.33333 14.6667C10.7478 14.6667 12.1044 14.1048 13.1046 13.1046C14.1048 12.1044 14.6667 10.7478 14.6667 9.33334V8C14.6667 7.29276 14.9476 6.61448 15.4477 6.11438C15.9478 5.61429 16.6261 5.33334 17.3333 5.33334C18.0406 5.33334 18.7189 5.61429 19.219 6.11438C19.719 6.61448 20 7.29276 20 8V14.6667H24C24.7072 14.6667 25.3855 14.9476 25.8856 15.4477C26.3857 15.9478 26.6667 16.6261 26.6667 17.3333L25.3333 24C25.1416 24.818 24.7778 25.5203 24.2969 26.0013C23.8159 26.4822 23.2438 26.7158 22.6667 26.6667H13.3333C12.2725 26.6667 11.2551 26.2452 10.5049 25.4951C9.75476 24.745 9.33333 23.7275 9.33333 22.6667" stroke="black" stroke-width="1.5" stroke-linecap="round" stroke-linejoin="round"/>
</svg>
