<svg width="32" height="32" viewBox="0 0 32 32" fill="none" xmlns="http://www.w3.org/2000/svg">
<mask id="path-1-inside-1_4851_11224" fill="white">
<path d="M9.33331 29.3333C8.59704 29.3333 8.00048 28.7366 8.00031 28.0003L8.00031 26.6663L6.66632 26.6663C5.93009 26.6662 5.33331 26.0696 5.33331 25.3333L5.33331 22.6663L5.06085 22.6527C3.71619 22.5162 2.66649 21.3809 2.66632 20.0003L2.66632 6.66634C2.6665 5.19373 3.86066 4.00033 5.33332 4.00033L26.6663 4.00033C28.139 4.00033 29.3331 5.19374 29.3333 6.66634L29.3333 20.0003C29.3332 21.3807 28.2841 22.5159 26.9398 22.6527L26.6663 22.6663L26.6663 25.3333C26.6663 26.0697 26.0697 26.6663 25.3333 26.6663L24.0003 26.6663L24.0003 28.0003C24.0001 28.7366 23.4026 29.3333 22.6663 29.3333L9.33331 29.3333Z"/>
</mask>
<path d="M8.00031 28.0003L6.50031 28.0003L6.50031 28.0007L8.00031 28.0003ZM8.00031 26.6663L9.50031 26.6663L9.50031 25.1663L8.00031 25.1663L8.00031 26.6663ZM6.66632 26.6663L6.66596 28.1663L6.66632 28.1663L6.66632 26.6663ZM5.33331 25.3333L3.83331 25.3333V25.3333L5.33331 25.3333ZM5.33331 22.6663L6.83331 22.6663L6.83331 21.2397L5.40849 21.1682L5.33331 22.6663ZM5.06085 22.6527L4.90939 24.145L4.94746 24.1489L4.98568 24.1508L5.06085 22.6527ZM2.66632 20.0003L1.16632 20.0003L1.16632 20.0005L2.66632 20.0003ZM2.66632 6.66634L1.16632 6.66616L1.16632 6.66634L2.66632 6.66634ZM5.33332 4.00033L5.33332 2.50033V2.50033L5.33332 4.00033ZM29.3333 6.66634L30.8333 6.66634L30.8333 6.66616L29.3333 6.66634ZM29.3333 20.0003L30.8333 20.0005L30.8333 20.0003L29.3333 20.0003ZM26.9398 22.6527L27.0147 24.1508L27.0532 24.1489L27.0916 24.145L26.9398 22.6527ZM26.6663 22.6663L26.5914 21.1682L25.1663 21.2395L25.1663 22.6663L26.6663 22.6663ZM24.0003 26.6663L24.0003 25.1663L22.5003 25.1663L22.5003 26.6663L24.0003 26.6663ZM24.0003 28.0003L25.5003 28.0007L25.5003 28.0003L24.0003 28.0003ZM9.33331 29.3333L9.33331 27.8333C9.42583 27.8333 9.50028 27.9084 9.50031 28L8.00031 28.0003L6.50031 28.0007C6.50068 29.5647 7.76826 30.8333 9.33331 30.8333L9.33331 29.3333ZM8.00031 28.0003L9.50031 28.0003L9.50031 26.6663L8.00031 26.6663L6.50031 26.6663L6.50031 28.0003L8.00031 28.0003ZM8.00031 26.6663L8.00031 25.1663L6.66632 25.1663L6.66632 26.6663L6.66632 28.1663L8.00031 28.1663L8.00031 26.6663ZM6.66632 26.6663L6.66668 25.1663C6.75824 25.1664 6.83331 25.2408 6.83331 25.3333L5.33331 25.3333L3.83331 25.3333C3.83331 26.8984 5.10195 28.166 6.66596 28.1663L6.66632 26.6663ZM5.33331 25.3333L6.83331 25.3333L6.83331 22.6663L5.33331 22.6663L3.83331 22.6663L3.83331 25.3333L5.33331 25.3333ZM5.33331 22.6663L5.40849 21.1682L5.13603 21.1546L5.06085 22.6527L4.98568 24.1508L5.25814 24.1645L5.33331 22.6663ZM5.06085 22.6527L5.21231 21.1603C4.62518 21.1007 4.16639 20.6028 4.16632 20.0001L2.66632 20.0003L1.16632 20.0005C1.16658 22.1591 2.80721 23.9316 4.90939 24.145L5.06085 22.6527ZM2.66632 20.0003L4.16632 20.0003L4.16632 6.66634L2.66632 6.66634L1.16632 6.66634L1.16632 20.0003L2.66632 20.0003ZM2.66632 6.66634L4.16632 6.66652C4.1664 6.02274 4.68855 5.50033 5.33332 5.50033L5.33332 4.00033L5.33332 2.50033C3.03278 2.50033 1.1666 4.36473 1.16632 6.66616L2.66632 6.66634ZM5.33332 4.00033L5.33332 5.50033L26.6663 5.50033L26.6663 4.00033L26.6663 2.50033L5.33332 2.50033L5.33332 4.00033ZM26.6663 4.00033L26.6663 5.50033C27.3111 5.50033 27.8332 6.02274 27.8333 6.66652L29.3333 6.66634L30.8333 6.66616C30.833 4.36473 28.9669 2.50033 26.6663 2.50033L26.6663 4.00033ZM29.3333 6.66634L27.8333 6.66634L27.8333 20.0003L29.3333 20.0003L30.8333 20.0003L30.8333 6.66634L29.3333 6.66634ZM29.3333 20.0003L27.8333 20.0002C27.8332 20.603 27.3746 21.1007 26.7879 21.1604L26.9398 22.6527L27.0916 24.145C29.1936 23.9311 30.8331 22.1585 30.8333 20.0005L29.3333 20.0003ZM26.9398 22.6527L26.8649 21.1545L26.5914 21.1682L26.6663 22.6663L26.7412 24.1645L27.0147 24.1508L26.9398 22.6527ZM26.6663 22.6663L25.1663 22.6663L25.1663 25.3333L26.6663 25.3333L28.1663 25.3333L28.1663 22.6663L26.6663 22.6663ZM26.6663 25.3333L25.1663 25.3333C25.1663 25.2413 25.2413 25.1663 25.3333 25.1663L25.3333 26.6663L25.3333 28.1663C26.8981 28.1663 28.1663 26.8981 28.1663 25.3333L26.6663 25.3333ZM25.3333 26.6663L25.3333 25.1663L24.0003 25.1663L24.0003 26.6663L24.0003 28.1663L25.3333 28.1663L25.3333 26.6663ZM24.0003 26.6663L22.5003 26.6663L22.5003 28.0003L24.0003 28.0003L25.5003 28.0003L25.5003 26.6663L24.0003 26.6663ZM24.0003 28.0003L22.5003 28C22.5003 27.907 22.5752 27.8333 22.6663 27.8333L22.6663 29.3333L22.6663 30.8333C24.2299 30.8333 25.4999 29.5661 25.5003 28.0007L24.0003 28.0003ZM22.6663 29.3333L22.6663 27.8333L9.33331 27.8333L9.33331 29.3333L9.33331 30.8333L22.6663 30.8333L22.6663 29.3333Z" fill="black" mask="url(#path-1-inside-1_4851_11224)"/>
<path d="M8 8V12" stroke="black" stroke-width="1.5" stroke-linecap="round"/>
<path d="M12 8V12" stroke="black" stroke-width="1.5" stroke-linecap="round"/>
<path d="M16 8V12" stroke="black" stroke-width="1.5" stroke-linecap="round"/>
<path d="M20 8V12" stroke="black" stroke-width="1.5" stroke-linecap="round"/>
<path d="M24 8V12" stroke="black" stroke-width="1.5" stroke-linecap="round"/>
<path d="M9.54686 21.081C9.31886 21.081 9.14486 21.018 9.02486 20.892C8.90486 20.766 8.84486 20.589 8.84486 20.361V15.366C8.84486 15.132 8.90486 14.955 9.02486 14.835C9.15086 14.715 9.32786 14.655 9.55586 14.655H11.7429C12.4509 14.655 12.9969 14.835 13.3809 15.195C13.7649 15.549 13.9569 16.044 13.9569 16.68C13.9569 17.316 13.7649 17.814 13.3809 18.174C12.9969 18.534 12.4509 18.714 11.7429 18.714H10.2399V20.361C10.2399 20.589 10.1799 20.766 10.0599 20.892C9.94586 21.018 9.77486 21.081 9.54686 21.081ZM10.2399 17.634H11.5089C11.8689 17.634 12.1419 17.553 12.3279 17.391C12.5199 17.229 12.6159 16.992 12.6159 16.68C12.6159 16.368 12.5199 16.134 12.3279 15.978C12.1419 15.822 11.8689 15.744 11.5089 15.744H10.2399V17.634ZM16.1411 21.099C15.6671 21.099 15.2531 21.006 14.8991 20.82C14.5511 20.634 14.2811 20.367 14.0891 20.019C13.8971 19.671 13.8011 19.26 13.8011 18.786C13.8011 18.432 13.8551 18.114 13.9631 17.832C14.0711 17.55 14.2271 17.31 14.4311 17.112C14.6411 16.908 14.8901 16.755 15.1781 16.653C15.4661 16.545 15.7871 16.491 16.1411 16.491C16.6151 16.491 17.0261 16.584 17.3741 16.77C17.7281 16.956 18.0011 17.22 18.1931 17.562C18.3911 17.904 18.4901 18.312 18.4901 18.786C18.4901 19.146 18.4331 19.467 18.3191 19.749C18.2111 20.031 18.0551 20.274 17.8511 20.478C17.6471 20.682 17.3981 20.838 17.1041 20.946C16.8161 21.048 16.4951 21.099 16.1411 21.099ZM16.1411 20.082C16.3391 20.082 16.5101 20.034 16.6541 19.938C16.7981 19.842 16.9121 19.701 16.9961 19.515C17.0801 19.323 17.1221 19.08 17.1221 18.786C17.1221 18.348 17.0321 18.027 16.8521 17.823C16.6721 17.613 16.4351 17.508 16.1411 17.508C15.9491 17.508 15.7781 17.553 15.6281 17.643C15.4841 17.733 15.3701 17.874 15.2861 18.066C15.2081 18.252 15.1691 18.492 15.1691 18.786C15.1691 19.224 15.2591 19.551 15.4391 19.767C15.6191 19.977 15.8531 20.082 16.1411 20.082ZM19.7129 21C19.4789 21 19.2989 20.937 19.1729 20.811C19.0469 20.685 18.9839 20.505 18.9839 20.271V15.384C18.9839 15.15 19.0469 14.97 19.1729 14.844C19.2989 14.718 19.4789 14.655 19.7129 14.655H22.8539C23.0339 14.655 23.1689 14.703 23.2589 14.799C23.3549 14.889 23.4029 15.021 23.4029 15.195C23.4029 15.375 23.3549 15.513 23.2589 15.609C23.1689 15.699 23.0339 15.744 22.8539 15.744H20.3159V17.229H22.6469C22.8329 17.229 22.9709 17.277 23.0609 17.373C23.1569 17.463 23.2049 17.598 23.2049 17.778C23.2049 17.958 23.1569 18.096 23.0609 18.192C22.9709 18.282 22.8329 18.327 22.6469 18.327H20.3159V19.911H22.8539C23.0339 19.911 23.1689 19.959 23.2589 20.055C23.3549 20.145 23.4029 20.277 23.4029 20.451C23.4029 20.631 23.3549 20.769 23.2589 20.865C23.1689 20.955 23.0339 21 22.8539 21H19.7129Z" fill="black"/>
<path d="M13.6658 26.7365C13.5185 26.7365 13.4052 26.6968 13.3258 26.6175C13.2465 26.5325 13.2068 26.4163 13.2068 26.269V25.0025H11.9658C11.8242 25.0025 11.7137 24.9657 11.6343 24.892C11.555 24.8127 11.5153 24.7022 11.5153 24.5605C11.5153 24.4188 11.555 24.3112 11.6343 24.2375C11.7137 24.1582 11.8242 24.1185 11.9658 24.1185H13.2068V22.903C13.2068 22.75 13.2465 22.6338 13.3258 22.5545C13.4052 22.4752 13.5213 22.4355 13.6743 22.4355C13.8217 22.4355 13.9322 22.4752 14.0058 22.5545C14.0852 22.6338 14.1248 22.75 14.1248 22.903V24.1185H15.3658C15.5132 24.1185 15.6237 24.1582 15.6973 24.2375C15.7767 24.3112 15.8163 24.4188 15.8163 24.5605C15.8163 24.7022 15.7767 24.8127 15.6973 24.892C15.6237 24.9657 15.5132 25.0025 15.3658 25.0025H14.1248V26.269C14.1248 26.4163 14.0852 26.5325 14.0058 26.6175C13.9322 26.6968 13.8188 26.7365 13.6658 26.7365ZM18.3375 26.7365C18.1902 26.7365 18.0768 26.6968 17.9975 26.6175C17.9182 26.5325 17.8785 26.4163 17.8785 26.269V25.0025H16.6375C16.4958 25.0025 16.3853 24.9657 16.306 24.892C16.2267 24.8127 16.187 24.7022 16.187 24.5605C16.187 24.4188 16.2267 24.3112 16.306 24.2375C16.3853 24.1582 16.4958 24.1185 16.6375 24.1185H17.8785V22.903C17.8785 22.75 17.9182 22.6338 17.9975 22.5545C18.0768 22.4752 18.193 22.4355 18.346 22.4355C18.4933 22.4355 18.6038 22.4752 18.6775 22.5545C18.7568 22.6338 18.7965 22.75 18.7965 22.903V24.1185H20.0375C20.1848 24.1185 20.2953 24.1582 20.369 24.2375C20.4483 24.3112 20.488 24.4188 20.488 24.5605C20.488 24.7022 20.4483 24.8127 20.369 24.892C20.2953 24.9657 20.1848 25.0025 20.0375 25.0025H18.7965V26.269C18.7965 26.4163 18.7568 26.5325 18.6775 26.6175C18.6038 26.6968 18.4905 26.7365 18.3375 26.7365Z" fill="black"/>
</svg>
