<svg width="32" height="32" viewBox="0 0 32 32" fill="none" xmlns="http://www.w3.org/2000/svg">
<path d="M17.3333 9.33334L20 6.66667V13.3333" stroke="black" stroke-width="1.5" stroke-linecap="round" stroke-linejoin="round"/>
<path d="M13.3333 10.6667H6.66667C5.95942 10.6667 5.28115 10.9476 4.78105 11.4477C4.28095 11.9478 4 12.6261 4 13.3333V26.6667C4 27.3739 4.28095 28.0522 4.78105 28.5523C5.28115 29.0524 5.95942 29.3333 6.66667 29.3333H25.3333C26.0406 29.3333 26.7189 29.0524 27.219 28.5523C27.719 28.0522 28 27.3739 28 26.6667V13.3333C28 12.6261 27.719 11.9478 27.219 11.4477C26.7189 10.9476 26.0406 10.6667 25.3333 10.6667H24" stroke="black" stroke-width="1.5" stroke-linecap="round" stroke-linejoin="round"/>
<path d="M4 14.6667L16 22.6667L28 14.6667" stroke="black" stroke-width="1.5" stroke-linecap="round" stroke-linejoin="round"/>
<path d="M14.6666 3.99999C14.6666 5.47275 13.4727 6.66666 12 6.66666C10.5272 6.66666 9.33331 5.47275 9.33331 3.99999C9.33331 2.52724 10.5272 1.33333 12 1.33333C13.4727 1.33333 14.6666 2.52724 14.6666 3.99999Z" stroke="black" stroke-width="1.5"/>
<path d="M12.9347 14.4167C12.7967 14.0262 12.3682 13.8215 11.9777 13.9595C11.5871 14.0976 11.3824 14.5261 11.5205 14.9166L12.2276 14.6667L12.9347 14.4167ZM20 13.3333H19.25C19.25 15.1283 17.7949 16.5833 16 16.5833V17.3333V18.0833C18.6233 18.0833 20.75 15.9567 20.75 13.3333H20ZM16 17.3333V16.5833C14.5861 16.5833 13.3812 15.68 12.9347 14.4167L12.2276 14.6667L11.5205 14.9166C12.1722 16.7605 13.9306 18.0833 16 18.0833V17.3333Z" fill="black"/>
<path d="M12 6.66663L12 10.6667" stroke="black" stroke-width="1.5" stroke-linecap="round" stroke-linejoin="round"/>
</svg>
