<svg width="32" height="32" viewBox="0 0 32 32" fill="none" xmlns="http://www.w3.org/2000/svg">
<path d="M3 16C3 8.8203 8.8203 3 16 3C23.1797 3 29 8.8203 29 16C29 23.1797 23.1797 29 16 29C8.8203 29 3 23.1797 3 16Z" stroke="black" stroke-width="1.5"/>
<path d="M14.4585 13.4258C13.1924 11.2463 12.308 8.38907 13.7256 6H19C17.78 7.54203 15.9674 10.4751 15.6771 13.0172C15.2351 13.0645 14.8218 13.2078 14.4585 13.4258Z" stroke="black" stroke-width="1.5"/>
<path d="M13.0172 16.3229C10.4751 16.0326 7.54203 14.22 6 13V18.2744C8.38907 19.692 11.2463 18.8076 13.4258 17.5415C13.2078 17.1782 13.0645 16.7649 13.0172 16.3229Z" stroke="black" stroke-width="1.5"/>
<path d="M16.3229 18.9828C16.0326 21.5249 14.22 24.458 13 26H18.2744C19.692 23.6109 18.8076 20.7537 17.5415 18.5742C17.1782 18.7922 16.7649 18.9355 16.3229 18.9828Z" stroke="black" stroke-width="1.5"/>
<path d="M18.9828 15.6771C21.5249 15.9674 24.458 17.78 26 19V13.7256C23.6109 12.308 20.7537 13.1924 18.5742 14.4585C18.7922 14.8218 18.9355 15.2351 18.9828 15.6771Z" stroke="black" stroke-width="1.5"/>
<path d="M19 16C19 17.6569 17.6569 19 16 19C14.3431 19 13 17.6569 13 16C13 14.3431 14.3431 13 16 13C17.6569 13 19 14.3431 19 16Z" stroke="black" stroke-width="1.5"/>
</svg>
