<svg width="32" height="32" viewBox="0 0 32 32" fill="none" xmlns="http://www.w3.org/2000/svg">
<mask id="path-1-outside-1_6230_258" maskUnits="userSpaceOnUse" x="14" y="0.666656" width="17" height="17" fill="black">
<rect fill="white" x="14" y="0.666656" width="17" height="17"/>
<path d="M22.7885 15.7516C21.8035 15.7516 20.8716 15.5349 20.0297 15.1439L16 16L16.8419 11.9678C16.4501 11.1275 16.233 10.1921 16.233 9.20385C16.233 5.59439 19.1665 2.66666 22.7832 2.66666C26.3998 2.66666 29.3333 5.59439 29.3333 9.20385C29.3333 12.8133 26.3998 15.741 22.7832 15.741"/>
</mask>
<path d="M22.7885 17.2516C23.6169 17.2516 24.2885 16.58 24.2885 15.7516C24.2885 14.9232 23.6169 14.2516 22.7885 14.2516V15.7516V17.2516ZM20.0297 15.1439L20.6615 13.7835C20.3669 13.6466 20.0357 13.6091 19.7179 13.6766L20.0297 15.1439ZM16 16L14.5317 15.6934C14.428 16.1897 14.5821 16.7047 14.9412 17.0625C15.3003 17.4203 15.8158 17.5726 16.3117 17.4672L16 16ZM16.8419 11.9678L18.3103 12.2743C18.3765 11.9573 18.3383 11.6273 18.2014 11.3338L16.8419 11.9678ZM22.7832 14.241C21.9547 14.241 21.2832 14.9126 21.2832 15.741C21.2832 16.5695 21.9547 17.241 22.7832 17.241V15.741V14.241ZM22.7885 15.7516V14.2516C22.0266 14.2516 21.3099 14.0846 20.6615 13.7835L20.0297 15.1439L19.3978 16.5043C20.4333 16.9853 21.5805 17.2516 22.7885 17.2516V15.7516ZM20.0297 15.1439L19.7179 13.6766L15.6883 14.5327L16 16L16.3117 17.4672L20.3414 16.6111L20.0297 15.1439ZM16 16L17.4683 16.3066L18.3103 12.2743L16.8419 11.9678L15.3736 11.6612L14.5317 15.6934L16 16ZM16.8419 11.9678L18.2014 11.3338C17.9008 10.6892 17.733 9.96994 17.733 9.20385H16.233H14.733C14.733 10.4142 14.9994 11.5657 15.4825 12.6017L16.8419 11.9678ZM16.233 9.20385H17.733C17.733 6.42562 19.9922 4.16666 22.7832 4.16666V2.66666V1.16666C18.3409 1.16666 14.733 4.76316 14.733 9.20385H16.233ZM22.7832 2.66666V4.16666C25.5742 4.16666 27.8333 6.42562 27.8333 9.20385H29.3333H30.8333C30.8333 4.76316 27.2254 1.16666 22.7832 1.16666V2.66666ZM29.3333 9.20385H27.8333C27.8333 11.9821 25.5742 14.241 22.7832 14.241V15.741V17.241C27.2254 17.241 30.8333 13.6445 30.8333 9.20385H29.3333Z" fill="black" mask="url(#path-1-outside-1_6230_258)"/>
<path d="M3.2991 11.0066C4.49197 9.80838 6.42938 9.81158 7.62527 11.0066L8.97683 12.3572L9.15261 12.5505C9.9701 13.5466 9.8593 14.9919 8.88308 15.9675L7.92703 16.9226C7.90938 16.9402 7.89807 16.9625 7.89383 16.9832C7.88997 17.0021 7.89234 17.0159 7.89676 17.0261C8.53923 18.4733 9.50652 19.9159 10.7952 21.2039C11.9301 22.338 13.1774 23.2236 14.4475 23.8523L14.9925 24.1062L15.0052 24.1121C15.006 24.1124 15.0069 24.1119 15.0081 24.1121C15.0096 24.1122 15.0131 24.1122 15.0188 24.1111C15.0321 24.1083 15.051 24.1004 15.0677 24.0837L16.1302 23.0212C17.0988 22.044 18.6731 22.0482 19.6448 23.0193L20.968 24.3416C20.98 24.3521 20.9938 24.3605 21.0052 24.3718C22.2031 25.569 22.203 27.5066 21.0052 28.7039L20.2542 29.4539L20.2522 29.4568C19.2084 30.492 17.7233 30.9164 16.2678 30.6423H16.2669C13.0767 30.0398 9.64033 28.2054 6.71902 25.2859C3.79766 22.3663 1.9626 18.9316 1.35965 15.7429L1.35867 15.7419C1.0847 14.2884 1.50898 12.7961 2.54812 11.7576L3.2991 11.0066Z" stroke="black" stroke-width="1.5" stroke-linecap="round" stroke-linejoin="round"/>
<circle cx="23" cy="9" r="1" fill="black"/>
<circle cx="26" cy="9" r="1" fill="black"/>
<circle cx="20" cy="9" r="1" fill="black"/>
</svg>
