<svg width="32" height="32" viewBox="0 0 32 32" fill="none" xmlns="http://www.w3.org/2000/svg">
<path d="M3 13L3.01635 15.6641" stroke="black" stroke-width="1.5" stroke-linecap="round" stroke-linejoin="round"/>
<path d="M7 13L7.01635 15.6641" stroke="black" stroke-width="1.5" stroke-linecap="round" stroke-linejoin="round"/>
<path d="M4.96993 9.2056C4.76475 9.56542 4.89011 10.0234 5.24993 10.2286C5.60975 10.4338 6.06778 10.3085 6.27296 9.94864L5.62145 9.57712L4.96993 9.2056ZM23.4016 4.70009L23.0319 5.35263L23.4016 4.70009ZM28.2944 22.4229L27.6429 22.0514V22.0514L28.2944 22.4229ZM10.5143 27.2999L10.884 26.6474L10.5143 27.2999ZM5.68761 20.8861C5.52221 20.5063 5.08027 20.3326 4.70051 20.498C4.32076 20.6634 4.14699 21.1053 4.31239 21.4851L5 21.1856L5.68761 20.8861ZM5.62145 9.57712L6.27296 9.94864C9.62635 4.06799 17.1296 2.00858 23.0319 5.35263L23.4016 4.70009L23.7713 4.04754C17.1517 0.297071 8.73403 2.6047 4.96993 9.2056L5.62145 9.57712ZM23.4016 4.70009L23.0319 5.35263C28.9328 8.69589 30.9955 16.1721 27.6429 22.0514L28.2944 22.4229L28.9459 22.7944C32.7108 16.1921 30.3924 7.79881 23.7713 4.04754L23.4016 4.70009ZM28.2944 22.4229L27.6429 22.0514C24.2895 27.932 16.7863 29.9914 10.884 26.6474L10.5143 27.2999L10.1445 27.9525C16.7642 31.7029 25.1818 29.3953 28.9459 22.7944L28.2944 22.4229ZM10.5143 27.2999L10.884 26.6474C8.47733 25.2838 6.71047 23.2345 5.68761 20.8861L5 21.1856L4.31239 21.4851C5.46087 24.1219 7.44603 26.4236 10.1445 27.9525L10.5143 27.2999Z" fill="black"/>
<path d="M17.5 22.5V25.5M17.5 19V13" stroke="black" stroke-width="1.5" stroke-linecap="round" stroke-linejoin="round"/>
<path d="M17.2871 7.77148C17.3848 7.61332 17.6152 7.61331 17.7129 7.77148L21.8438 14.4609C23.9448 17.8627 21.4983 22.25 17.5 22.25C13.5017 22.25 11.0552 17.8627 13.1562 14.4609L17.2871 7.77148Z" stroke="black" stroke-width="1.5"/>
<path d="M2 17C2 16.4477 2.44772 16 3 16H7C7.55228 16 8 16.4477 8 17V19C8 20.1046 7.10457 21 6 21H4C2.89543 21 2 20.1046 2 19V17Z" stroke="black" stroke-width="1.5"/>
<path d="M17.5 17.1547L19.5 15" stroke="black" stroke-width="1.5" stroke-linecap="round" stroke-linejoin="round"/>
<path d="M17.5 17L15.5 15" stroke="black" stroke-width="1.5" stroke-linecap="round" stroke-linejoin="round"/>
</svg>
