<svg width="32" height="32" viewBox="0 0 32 32" fill="none" xmlns="http://www.w3.org/2000/svg">
<path d="M11.5333 14.0933V20.64" stroke="black" stroke-width="1.5" stroke-linecap="round" stroke-linejoin="round"/>
<path d="M15.8933 20.64V16.8267C15.8933 15.32 17.12 14.0933 18.6267 14.0933C20.1333 14.0933 21.36 15.32 21.36 16.8267V20.64" stroke="black" stroke-width="1.5" stroke-linecap="round" stroke-linejoin="round"/>
<path d="M11.5333 10.1466C11.3867 10.1466 11.2667 10.2667 11.2667 10.4133C11.2667 10.56 11.3867 10.68 11.5333 10.68C11.68 10.68 11.8 10.56 11.8 10.4133C11.8 10.2667 11.68 10.1466 11.52 10.1466" stroke="black" stroke-width="1.5" stroke-linecap="round" stroke-linejoin="round"/>
<path fill-rule="evenodd" clip-rule="evenodd" d="M10 4H22.0133C25.32 4 28.0133 6.68 28.0133 10V22.0133C28.0133 25.32 25.3333 28.0133 22.0133 28.0133H10C6.69333 28.0133 4 25.3333 4 22.0133V10C4 6.69333 6.68 4 10 4Z" stroke="black" stroke-width="1.5" stroke-linecap="round" stroke-linejoin="round"/>
</svg>
