<svg width="32" height="32" viewBox="0 0 32 32" fill="none" xmlns="http://www.w3.org/2000/svg">
<path d="M15.3314 3.53679C15.7606 3.37491 16.2339 3.37619 16.6556 3.5446L16.6624 3.54753L16.6703 3.55046L24.6703 6.54558H24.6712C25.0367 6.68191 25.3521 6.9263 25.5746 7.24577C25.7969 7.56517 25.9156 7.94493 25.9164 8.33366V14.5895C25.9163 20.7376 21.9253 26.4567 16.5316 28.1852L16.5287 28.1862C16.1856 28.2972 15.8141 28.2973 15.471 28.1862L15.4691 28.1852L14.9671 28.0124C9.82945 26.0991 6.08342 20.5331 6.08334 14.5895V8.33269C6.08334 7.53201 6.57862 6.82059 7.3353 6.52995L7.33432 6.52898L15.3294 3.53679H15.3314Z" stroke="black" stroke-width="1.5"/>
<path d="M11.0456 17.063C10.8962 17.063 10.7726 17.0303 10.6746 16.965C10.5812 16.895 10.5042 16.79 10.4436 16.65L8.67956 12.73C8.61423 12.59 8.59556 12.4663 8.62356 12.359C8.65156 12.247 8.70989 12.1607 8.79856 12.1C8.88723 12.0347 8.99456 12.002 9.12056 12.002C9.27923 12.002 9.40056 12.0393 9.48456 12.114C9.56856 12.184 9.63856 12.289 9.69456 12.429L11.2416 16.006H10.8916L12.4386 12.422C12.4992 12.282 12.5716 12.177 12.6556 12.107C12.7396 12.037 12.8562 12.002 13.0056 12.002C13.1316 12.002 13.2342 12.0347 13.3136 12.1C13.3976 12.1607 13.4489 12.247 13.4676 12.359C13.4909 12.4663 13.4722 12.59 13.4116 12.73L11.6476 16.65C11.5822 16.79 11.5029 16.895 11.4096 16.965C11.3209 17.0303 11.1996 17.063 11.0456 17.063ZM14.6265 17.063C14.4492 17.063 14.3138 17.014 14.2205 16.916C14.1272 16.818 14.0805 16.6803 14.0805 16.503V12.618C14.0805 12.436 14.1272 12.2983 14.2205 12.205C14.3185 12.1117 14.4562 12.065 14.6335 12.065H16.3345C16.8852 12.065 17.3098 12.205 17.6085 12.485C17.9072 12.7603 18.0565 13.1453 18.0565 13.64C18.0565 14.1347 17.9072 14.522 17.6085 14.802C17.3098 15.082 16.8852 15.222 16.3345 15.222H15.1655V16.503C15.1655 16.6803 15.1188 16.818 15.0255 16.916C14.9368 17.014 14.8038 17.063 14.6265 17.063ZM15.1655 14.382H16.1525C16.4325 14.382 16.6448 14.319 16.7895 14.193C16.9388 14.067 17.0135 13.8827 17.0135 13.64C17.0135 13.3973 16.9388 13.2153 16.7895 13.094C16.6448 12.9727 16.4325 12.912 16.1525 12.912H15.1655V14.382ZM19.2329 17.063C19.0696 17.063 18.9436 17.0187 18.8549 16.93C18.7709 16.8367 18.7289 16.706 18.7289 16.538V12.548C18.7289 12.3707 18.7709 12.2353 18.8549 12.142C18.9436 12.0487 19.0603 12.002 19.2049 12.002C19.3309 12.002 19.4266 12.0277 19.4919 12.079C19.5619 12.1257 19.6413 12.205 19.7299 12.317L22.1869 15.446H21.9979V12.52C21.9979 12.3567 22.0399 12.2307 22.1239 12.142C22.2126 12.0487 22.3386 12.002 22.5019 12.002C22.6653 12.002 22.7889 12.0487 22.8729 12.142C22.9616 12.2307 23.0059 12.3567 23.0059 12.52V16.559C23.0059 16.713 22.9663 16.8367 22.8869 16.93C22.8076 17.0187 22.7003 17.063 22.5649 17.063C22.4343 17.063 22.3293 17.0373 22.2499 16.986C22.1753 16.9347 22.0936 16.853 22.0049 16.741L19.5549 13.612H19.7369V16.538C19.7369 16.706 19.6949 16.8367 19.6109 16.93C19.5269 17.0187 19.4009 17.063 19.2329 17.063Z" fill="black"/>
</svg>
