<svg width="32" height="32" viewBox="0 0 32 32" fill="none" xmlns="http://www.w3.org/2000/svg">
<path d="M28 14V21C28 24.866 24.866 28 21 28H11C7.13401 28 4 24.866 4 21V11C4 7.13401 7.13401 4 11 4L18.5 4" stroke="black" stroke-width="1.5" stroke-linecap="round"/>
<path d="M24 5C25.6569 5 27 6.34315 27 8" stroke="black" stroke-width="1.5" stroke-linecap="round"/>
<path d="M24 2C27.3137 2 30 4.68629 30 8" stroke="black" stroke-width="1.5" stroke-linecap="round"/>
<path d="M11.7708 23H20.2292C21.7595 23 23 21.7595 23 20.2292V14.8333V11.7708C23 10.2405 21.7595 9 20.2292 9H11.7708C10.2405 9 9 10.2405 9 11.7708V20.2292C9 21.7595 10.2405 23 11.7708 23Z" stroke="black" stroke-width="1.5" stroke-linecap="round"/>
</svg>
