<svg width="32" height="32" viewBox="0 0 32 32" fill="none" xmlns="http://www.w3.org/2000/svg">
<g clip-path="url(#clip0_4911_2301)">
<path d="M17.25 6.375L6.16666 12.6458" stroke="black" stroke-width="1.5" stroke-linecap="square" stroke-linejoin="round"/>
<path d="M12 28L12 17" stroke="black" stroke-width="1.5" stroke-linecap="square" stroke-linejoin="round"/>
<path d="M0.625 9.875L12 16.2917" stroke="black" stroke-width="1.5" stroke-linecap="round" stroke-linejoin="round"/>
<path d="M23.375 9.875L12 16.2917" stroke="black" stroke-width="1.5" stroke-linecap="round" stroke-linejoin="round"/>
<path d="M23.3073 28.868C22.9144 28.999 22.702 29.4237 22.833 29.8167C22.964 30.2097 23.3887 30.422 23.7817 30.291L23.5445 29.5795L23.3073 28.868ZM23.823 12.8832C23.4384 12.7293 23.002 12.9164 22.8481 13.301C22.6943 13.6856 22.8814 14.1221 23.266 14.2759L23.5445 13.5795L23.823 12.8832ZM22.0748 21.0492C21.7819 20.7563 21.3071 20.7563 21.0142 21.0492C20.7213 21.3421 20.7213 21.817 21.0142 22.1099L21.5445 21.5795L22.0748 21.0492ZM22.8778 22.9129L22.3475 23.4432C22.4882 23.5838 22.6789 23.6629 22.8778 23.6629C23.0767 23.6629 23.2675 23.5838 23.4082 23.4432L22.8778 22.9129ZM26.0748 20.7765C26.3677 20.4836 26.3677 20.0088 26.0748 19.7159C25.7819 19.423 25.3071 19.423 25.0142 19.7159L25.5445 20.2462L26.0748 20.7765ZM30.2112 16.2462H30.9612V15.7384L30.4897 15.5498L30.2112 16.2462ZM21.5445 21.5795L21.0142 22.1099L22.3475 23.4432L22.8778 22.9129L23.4082 22.3825L22.0748 21.0492L21.5445 21.5795ZM22.8778 22.9129L23.4082 23.4432L26.0748 20.7765L25.5445 20.2462L25.0142 19.7159L22.3475 22.3825L22.8778 22.9129ZM23.5445 13.5795L23.266 14.2759L29.9326 16.9426L30.2112 16.2462L30.4897 15.5498L23.823 12.8832L23.5445 13.5795ZM30.2112 16.2462H29.4612V21.5795H30.2112H30.9612V16.2462H30.2112ZM30.2112 21.5795H29.4612C29.4612 25.1482 27.1184 27.5977 23.3073 28.868L23.5445 29.5795L23.7817 30.291C27.9706 28.8947 30.9612 26.0108 30.9612 21.5795H30.2112Z" fill="black"/>
<path d="M23.5445 29.5795C19.5445 28.2462 16.8778 25.5795 16.8778 21.5795V16.2462L23.5445 13.5795" stroke="black" stroke-width="1.5" stroke-miterlimit="10" stroke-linecap="round"/>
<path d="M16.721 26.6758L12.2274 28.972L0.632996 22.4661V9.67309L11.8946 2.83923L23.5445 9.67309V11.5046" stroke="black" stroke-width="1.5" stroke-linecap="round" stroke-linejoin="round"/>
</g>
<defs>
<clipPath id="clip0_4911_2301">
<rect width="32" height="32" fill="white"/>
</clipPath>
</defs>
</svg>
