<svg width="32" height="32" viewBox="0 0 32 32" fill="none" xmlns="http://www.w3.org/2000/svg">
<path d="M30.5735 14.723L27.7278 23.5732L26.0232 24.1189C25.4238 24.308 24.8171 24.4721 24.2176 24.6041C23.6073 24.7396 22.9933 24.8395 22.3902 24.9037C21.7835 24.9679 21.2202 25 20.7074 25C19.2448 25 17.9953 24.7539 16.9913 24.2688C15.9765 23.7801 15.1929 23.1059 14.6584 22.2676C14.1275 21.4329 13.8169 20.4555 13.7411 19.3568C13.6653 18.2723 13.8242 17.113 14.2142 15.9109C14.5103 14.9834 14.7776 14.2949 15.229 13.5458L13.6147 11.6766H20.1909C19.5301 12.226 18.9378 12.8752 18.4286 13.5993C17.8869 14.377 17.4716 15.2117 17.1972 16.0821C16.9191 16.9775 16.8144 17.8157 16.8902 18.5755C16.9624 19.3282 17.1863 19.9882 17.5511 20.5411C17.9122 21.0868 18.4178 21.522 19.0498 21.8324C19.689 22.1463 20.4582 22.3033 21.343 22.3033C22.1266 22.3033 22.8994 22.2319 23.6362 22.0857C24.3223 21.9537 24.9471 21.761 25.496 21.5185L26.8141 17.4126H23.0981L23.9359 14.7194H30.5771L30.5735 14.723Z" fill="black"/>
<path d="M15.3735 7.42091L14.5031 10.1106L4.8356 10.1141L5.027 9.59332L3.14911 7.42447L15.3735 7.42091Z" fill="black"/>
<path d="M12.2207 19.1748C11.9391 20.0345 11.5201 20.8192 10.9821 21.5148C10.444 22.2069 9.8156 22.8097 9.10777 23.3091C8.39995 23.8085 7.62352 24.1938 6.80736 24.4613C5.98759 24.7289 5.13892 24.8609 4.29026 24.8609C3.0913 24.8609 2.08374 24.5469 1.29647 23.9298C0.491141 23.2984 0.0613926 22.3924 0.010834 21.233L0 21.0083L3.13463 20.0594L3.15269 20.434C3.1888 21.1117 3.37659 21.5933 3.71967 21.8751C4.07358 22.1641 4.59722 22.3103 5.28338 22.3103C5.69146 22.3103 6.11037 22.239 6.52206 22.0927C6.94098 21.9465 7.33822 21.736 7.70297 21.4685C8.06771 21.1974 8.39995 20.862 8.68525 20.4661C8.97054 20.0701 9.19806 19.6171 9.36057 19.1177C9.69642 18.0297 9.6242 17.2092 9.15111 16.6884C8.65997 16.1462 7.84742 15.8716 6.73513 15.8716C6.52929 15.8716 6.2801 15.8894 6.00203 15.9286C5.72035 15.9643 5.41338 16.0178 5.09198 16.0892C4.77779 16.1569 4.44194 16.2461 4.09886 16.3531C3.7594 16.4601 3.42715 16.5814 3.11658 16.717L2.50265 16.9809L4.30471 11.6801H7.1721L6.54373 13.5422H6.54734C6.76763 13.4922 6.99876 13.453 7.24433 13.4209C7.47906 13.3888 7.71019 13.3638 7.92326 13.3496C8.14355 13.3317 8.32412 13.3246 8.47218 13.3246C9.30279 13.3246 10.0251 13.4708 10.6173 13.7526C11.2168 14.0416 11.6899 14.4554 12.0221 14.9869C12.3507 15.5113 12.5313 16.1427 12.5674 16.8597C12.5999 17.5624 12.4844 18.3436 12.2207 19.1819V19.1748Z" fill="black"/>
<path d="M22.9067 10.1141C23.694 9.83591 24.5173 9.68965 25.3552 9.68965C26.193 9.68965 26.9117 9.81451 27.5653 10.0571C28.1973 10.2925 28.7426 10.7206 29.1904 11.327L29.371 11.5731L31.9964 9.5113L31.852 9.29013C31.3897 8.57313 30.6855 8.00595 29.7646 7.59929C28.8582 7.20333 27.605 7 26.0377 7C24.7268 7 23.434 7.2283 22.1917 7.6849C20.953 8.13793 19.7973 8.76932 18.7573 9.5648C18.5262 9.7396 18.3059 9.92509 18.0856 10.1141H22.9103H22.9067Z" fill="black"/>
</svg>
