<svg width="32" height="32" viewBox="0 0 32 32" fill="none" xmlns="http://www.w3.org/2000/svg">
<path d="M20.8758 25.3333C19.9831 26.0547 18.9899 26.6457 17.9255 27.0866C16.4696 27.6896 14.9092 28 13.3333 28C11.7575 28 10.197 27.6896 8.74111 27.0866C7.2852 26.4835 5.96233 25.5996 4.84803 24.4853C3.73373 23.371 2.84981 22.0481 2.24676 20.5922C1.6437 19.1363 1.33331 17.5759 1.33331 16C1.33331 14.4241 1.6437 12.8637 2.24676 11.4078C2.84981 9.95189 3.73373 8.62902 4.84803 7.51472C5.96233 6.40042 7.2852 5.5165 8.74111 4.91345C10.197 4.31039 11.7575 4 13.3333 4C14.9092 4 16.4696 4.31039 17.9255 4.91345C19.3814 5.5165 20.7043 6.40042 21.8186 7.51472C22.1183 7.81439 22.4013 8.12915 22.6666 8.45753C22.8947 8.73972 23.1097 9.03196 23.3111 9.33333" stroke="black" stroke-width="1.5" stroke-linecap="round" stroke-linejoin="round"/>
<path d="M13.3333 4C6.7059 10.6274 6.7059 21.3726 13.3333 28" stroke="black" stroke-width="1.5" stroke-linecap="round" stroke-linejoin="round"/>
<path d="M13.3334 4C15.4478 6.11445 16.8877 8.64805 17.6529 11.3333M13.3334 28C15.0942 26.2392 16.3872 24.1877 17.2123 22" stroke="black" stroke-width="1.5" stroke-linecap="round" stroke-linejoin="round"/>
<path d="M16 16.75H16.75V15.25H16V16V16.75ZM1.33331 16V16.75H16V16V15.25H1.33331V16Z" fill="black"/>
<path d="M16 17.3333H16.75V17.3333H16ZM22.6667 25.3333L22.4295 26.0448L22.669 26.1247L22.9081 26.0434L22.6667 25.3333ZM22.6667 9.33333L22.9452 8.63697L22.6667 8.52555L22.3881 8.63697L22.6667 9.33333ZM16 12L15.7215 11.3036L15.25 11.4922L15.25 12H16ZM21.3725 16.8083C21.0825 16.5125 20.6077 16.5078 20.3119 16.7978C20.0161 17.0877 20.0114 17.5626 20.3014 17.8584L20.8369 17.3333L21.3725 16.8083ZM22.1441 18.6667L21.6085 19.1917C21.7495 19.3356 21.9426 19.4167 22.1441 19.4167C22.3455 19.4167 22.5386 19.3356 22.6796 19.1917L22.1441 18.6667ZM25.2939 16.525C25.5839 16.2293 25.5792 15.7544 25.2834 15.4644C24.9876 15.1745 24.5127 15.1792 24.2228 15.475L24.7583 16L25.2939 16.525ZM29.3333 12H30.0833V11.4922L29.6119 11.3036L29.3333 12ZM16 17.3333H15.25C15.25 21.7646 18.2406 24.6485 22.4295 26.0448L22.6667 25.3333L22.9038 24.6218C19.0928 23.3515 16.75 20.902 16.75 17.3333H16ZM20.8369 17.3333L20.3014 17.8584L21.6085 19.1917L22.1441 18.6667L22.6796 18.1416L21.3725 16.8083L20.8369 17.3333ZM22.1441 18.6667L22.6796 19.1917L25.2939 16.525L24.7583 16L24.2228 15.475L21.6085 18.1416L22.1441 18.6667ZM22.6667 9.33333L22.3881 10.0297L29.0548 12.6964L29.3333 12L29.6119 11.3036L22.9452 8.63697L22.6667 9.33333ZM29.3333 12H28.5833V17.3333H29.3333H30.0833V12H29.3333ZM29.3333 17.3333H28.5833C28.5833 20.8964 26.1689 23.3504 22.4252 24.6233L22.6667 25.3333L22.9081 26.0434C27.0073 24.6496 30.0833 21.7703 30.0833 17.3333H29.3333ZM22.6667 9.33333L22.3881 8.63697L15.7215 11.3036L16 12L16.2785 12.6964L22.9452 10.0297L22.6667 9.33333ZM16 17.3333H16.75L16.75 12H16H15.25L15.25 17.3333H16Z" fill="black"/>
</svg>
