<svg width="32" height="29" viewBox="0 0 32 29" fill="none" xmlns="http://www.w3.org/2000/svg">
<path d="M14.6667 24.9375C13.6737 24.0037 12.8808 23.1901 12.1549 22.406C10.565 20.6885 11.854 17.8125 14.1944 17.8125H14.6667L13.1068 12.95C12.5596 11.2444 13.832 9.50001 15.6232 9.50002C16.6639 9.50003 17.6076 10.1107 18.034 11.06L20 15.4375L24 15.4375C26.2091 15.4375 28 17.2284 28 19.4375V24.9375" stroke="black" stroke-width="1.5" stroke-linecap="round" stroke-linejoin="round"/>
<path d="M9 8.90625L10.6667 10.6875L14 7.125" stroke="black" stroke-width="1.5" stroke-miterlimit="10" stroke-linecap="round" stroke-linejoin="round"/>
<path d="M17.6865 10.2422C17.89 9.68104 18 9.08242 18 8.46094C18 5.26373 15.0899 2.67188 11.5 2.67188C7.91015 2.67188 5 5.26373 5 8.46094C5 11.6581 7.91015 14.25 11.5 14.25C12.1978 14.25 12.8699 14.1521 13.5 13.9708" stroke="black" stroke-width="1.5"/>
</svg>
