<svg width="32" height="32" viewBox="0 0 32 32" fill="none" xmlns="http://www.w3.org/2000/svg">
<path d="M16 29C14.0013 29 12.2101 27.1556 11 24.3571M16 3C14.0013 3 12.2101 4.84436 11 7.64286" stroke="black" stroke-width="1.5"/>
<path d="M9 25C11.2091 25 13 20.7545 13 16C13 11.2455 11.2091 7 9 7" stroke="black" stroke-width="1.5"/>
<path d="M23 25C25.2091 25 27 20.7545 27 16C27 11.2455 25.2091 7 23 7" stroke="black" stroke-width="1.5"/>
<path d="M9 25C6.79086 25 5 20.7545 5 16C5 11.2455 6.79086 7 9 7" stroke="black" stroke-width="1.5"/>
<path d="M30 16L28 16" stroke="black" stroke-width="1.5" stroke-linecap="round"/>
<path d="M8 13H2" stroke="black" stroke-width="1.5" stroke-linecap="round"/>
<path d="M8 19H2" stroke="black" stroke-width="1.5" stroke-linecap="round"/>
<path d="M9 7H23" stroke="black" stroke-width="1.5" stroke-linecap="round"/>
<path d="M9 25H23" stroke="black" stroke-width="1.5" stroke-linecap="round"/>
<path d="M16 29C17.8173 29 19.4458 27.1556 20.5461 24.3571C21.4522 22.0527 22 19.1013 22 16C22 12.8987 21.4522 9.94729 20.5461 7.64286C19.4458 4.84436 17.8173 3 16 3" stroke="black" stroke-width="1.5"/>
</svg>
