<svg width="28" height="32" viewBox="0 0 28 32" fill="none" xmlns="http://www.w3.org/2000/svg">
<path d="M1.71387 4.75H15.25V9.25H1.71387C1.53113 9.24985 1.30817 9.15189 1.10352 8.87109C0.898168 8.58928 0.750065 8.16448 0.75 7.66699V6.33301C0.750065 5.82359 0.90187 5.40053 1.10742 5.12305C1.31321 4.84532 1.53709 4.75015 1.71387 4.75Z" stroke="black" stroke-width="1.5"/>
<path d="M16.0368 12.7026C14.564 12.3957 13.0708 12.2321 11.5776 12.2321C8.93886 12.2321 6.32062 12.723 3.86601 13.664C3.62055 13.7662 3.45691 13.9912 3.45691 14.2572V24.2392C3.45691 24.3619 3.49782 24.4642 3.53873 24.5665C5.40014 27.6552 8.01838 28.7393 11.2298 30.6007C11.4344 30.7235 11.6798 30.7235 11.8639 30.6007C15.0754 28.7393 17.6936 27.6552 19.555 24.5665C19.6164 24.4642 19.6369 24.3415 19.6369 24.2392V15.5254" stroke="black" stroke-width="1.5"/>
<circle cx="4" cy="7" r="1" fill="black"/>
<circle cx="8" cy="7" r="1" fill="black"/>
<circle cx="12" cy="7" r="1" fill="black"/>
<path d="M12.5801 16L16.1367 24.5527H13.8389L13.1826 22.875H9.86328L9.24316 24.5527H7L10.5928 16H12.5801ZM10.4648 21.2148H12.6172L11.5596 18.2793L10.4648 21.2148Z" fill="black"/>
<path d="M22 10V9" stroke="black" stroke-width="1.5" stroke-linecap="round" stroke-linejoin="round"/>
<path d="M22 2C23.1 2 24 2.9 24 4V6H20V4C20 2.9 20.9 2 22 2Z" stroke="black" stroke-width="1.5" stroke-linecap="round" stroke-linejoin="round"/>
<path d="M26 6H18V13H26V6Z" stroke="black" stroke-width="1.5" stroke-linecap="round" stroke-linejoin="round"/>
</svg>
