<svg width="32" height="32" viewBox="0 0 32 32" fill="none" xmlns="http://www.w3.org/2000/svg">
<path d="M15.3314 3.53679C15.7606 3.37491 16.2339 3.37618 16.6556 3.5446L16.6624 3.54753L16.6703 3.55046L24.6703 6.54557H24.6712C25.0367 6.68191 25.3521 6.92629 25.5746 7.24577C25.7969 7.56516 25.9156 7.94492 25.9164 8.33366V14.5895C25.9163 20.7376 21.9253 26.4567 16.5316 28.1852L16.5287 28.1862C16.1856 28.2972 15.8141 28.2973 15.471 28.1862L15.4691 28.1852L14.9671 28.0124C9.82945 26.0991 6.08342 20.5331 6.08334 14.5895V8.33268C6.08334 7.532 6.57862 6.82058 7.3353 6.52995L7.33432 6.52897L15.3294 3.53679H15.3314Z" stroke="black" stroke-width="1.5"/>
<path d="M20 14.6667H12V20H20V14.6667Z" stroke="black" stroke-width="1.5" stroke-linecap="round" stroke-linejoin="round"/>
<path d="M16 9.33333C17.4667 9.33333 18.6667 10.5333 18.6667 12V14.6667H13.3333V12C13.3333 10.5333 14.5333 9.33333 16 9.33333Z" stroke="black" stroke-width="1.5" stroke-linecap="round" stroke-linejoin="round"/>
</svg>
