<svg width="32" height="32" viewBox="0 0 32 32" fill="none" xmlns="http://www.w3.org/2000/svg">
<path d="M2.66669 17.3334L2.66669 13.3333C2.66669 11.8606 3.86057 10.6667 5.33332 10.6667L6.66632 10.6667L12.0004 10.6667L13.3334 10.6667C14.8061 10.6667 16 11.8606 16 13.3333V17.3334" stroke="black" stroke-width="1.5" stroke-miterlimit="10" stroke-linecap="round" stroke-linejoin="round"/>
<path d="M13.3333 6.66666C13.3333 4.45753 11.5425 2.66666 9.33331 2.66666C7.12417 2.66666 5.33331 4.45753 5.33331 6.66666C5.33331 8.8758 7.12417 10.6667 9.33331 10.6667C11.5425 10.6667 13.3333 8.8758 13.3333 6.66666Z" stroke="black" stroke-width="1.5" stroke-miterlimit="10" stroke-linecap="round"/>
<path d="M5.33331 20V26.6667C5.33331 28.1394 6.52722 29.3333 7.99998 29.3333H10.6666C12.1394 29.3333 13.3333 28.1394 13.3333 26.6667V20" stroke="black" stroke-width="1.5" stroke-linecap="round"/>
<path d="M17.7309 20.939C17.5131 20.5867 17.0509 20.4776 16.6986 20.6953C16.3462 20.9131 16.2371 21.3753 16.4549 21.7276L17.0929 21.3333L17.7309 20.939ZM22.6667 25.3333L22.4295 26.0448L22.6667 26.1239L22.9039 26.0448L22.6667 25.3333ZM22.6667 9.33333L22.9452 8.63697L22.6667 8.52556L22.3881 8.63697L22.6667 9.33333ZM19.0548 9.97031C18.6702 10.1241 18.4832 10.5606 18.637 10.9452C18.7908 11.3298 19.2273 11.5169 19.6119 11.363L19.3333 10.6667L19.0548 9.97031ZM21.197 16.803C20.9041 16.5101 20.4292 16.5101 20.1364 16.803C19.8435 17.0959 19.8435 17.5708 20.1364 17.8637L20.6667 17.3333L21.197 16.803ZM22 18.6667L21.4697 19.197C21.6103 19.3376 21.8011 19.4167 22 19.4167C22.1989 19.4167 22.3897 19.3376 22.5303 19.197L22 18.6667ZM25.197 16.5303C25.4899 16.2374 25.4899 15.7626 25.197 15.4697C24.9041 15.1768 24.4292 15.1768 24.1364 15.4697L24.6667 16L25.197 16.5303ZM29.3333 12H30.0833V11.4922L29.6119 11.3036L29.3333 12ZM17.0929 21.3333L16.4549 21.7276C17.7138 23.7646 19.8489 25.1846 22.4295 26.0448L22.6667 25.3333L22.9039 24.6218C20.5402 23.8339 18.7496 22.5873 17.7309 20.939L17.0929 21.3333ZM20.6667 17.3333L20.1364 17.8637L21.4697 19.197L22 18.6667L22.5303 18.1363L21.197 16.803L20.6667 17.3333ZM22 18.6667L22.5303 19.197L25.197 16.5303L24.6667 16L24.1364 15.4697L21.4697 18.1363L22 18.6667ZM22.6667 9.33333L22.3881 10.0297L29.0548 12.6964L29.3333 12L29.6119 11.3036L22.9452 8.63697L22.6667 9.33333ZM29.3333 12H28.5833V17.3333H29.3333H30.0833V12H29.3333ZM29.3333 17.3333H28.5833C28.5833 20.902 26.2406 23.3515 22.4295 24.6218L22.6667 25.3333L22.9039 26.0448C27.0928 24.6485 30.0833 21.7646 30.0833 17.3333H29.3333ZM22.6667 9.33333L22.3881 8.63697L19.0548 9.97031L19.3333 10.6667L19.6119 11.363L22.9452 10.0297L22.6667 9.33333Z" fill="black"/>
</svg>
