<svg width="32" height="32" viewBox="0 0 32 32" fill="none" xmlns="http://www.w3.org/2000/svg">
<path d="M6 13.5V20.5C9.86131 22.1121 12 23 16 24.5C20.5 23 22.1387 22.1121 26 20.5V13.5M6 13.5C4.83239 13.1075 2.13477 12 2.13477 12C7 9.71181 11.1032 8.13952 16 6C20.8969 8.13953 30 12 30 12C30 12 27.1676 13.1075 26 13.5M6 13.5C9.58299 14.7043 16 17 16 17C19.5 16 22.4171 14.7043 26 13.5M2.13477 16.8281C10.5 20 10.5 11.101 16 11.101" stroke="black" stroke-width="1.5" stroke-linecap="round" stroke-linejoin="round"/>
</svg>
