<svg width="32" height="32" viewBox="0 0 32 32" fill="none" xmlns="http://www.w3.org/2000/svg">
<path d="M28.7733 8.49335C28.4667 7.16002 27.56 6.09335 26.4133 5.73335C24.3333 5.08002 16 5.08001 16 5.08001C16 5.08001 7.66667 5.08002 5.58667 5.73335C4.44 6.09335 3.53333 7.14668 3.22667 8.49335C2.66667 10.92 2.66667 16 2.66667 16C2.66667 16 2.66667 21.0667 3.22667 23.5067C3.53333 24.84 4.44 25.9067 5.58667 26.2667C7.66667 26.92 16 26.92 16 26.92C16 26.92 24.3467 26.92 26.4133 26.2667C27.56 25.9067 28.4667 24.8534 28.7733 23.5067C29.3333 21.08 29.3333 16 29.3333 16C29.3333 16 29.3333 10.9333 28.7733 8.49335Z" stroke="black" stroke-width="1.5" stroke-linecap="round" stroke-linejoin="round"/>
<path d="M13.3333 20L20.2667 16L13.3333 12V20Z" stroke="black" stroke-width="1.5" stroke-linecap="round" stroke-linejoin="round"/>
</svg>
