<svg width="32" height="32" viewBox="0 0 32 32" fill="none" xmlns="http://www.w3.org/2000/svg">
<path d="M25.76 13.3333H6.25334C4.28 13.3333 2.67999 11.72 2.67999 9.76001V6.25334C2.67999 4.28 4.29334 2.67999 6.25334 2.67999H25.76C27.7333 2.67999 29.3333 4.29334 29.3333 6.25334V9.76001C29.3333 11.72 27.72 13.3333 25.76 13.3333Z" stroke="black" stroke-width="1.5" stroke-linecap="round" stroke-linejoin="round"/>
<path d="M25.76 29.3333H6.25334C4.28 29.3333 2.67999 27.72 2.67999 25.76V22.2533C2.67999 20.28 4.29334 18.68 6.25334 18.68H25.76C27.7333 18.68 29.3333 20.2933 29.3333 22.2533V25.76C29.3333 27.72 27.72 29.3333 25.76 29.3333Z" stroke="black" stroke-width="1.5" stroke-linecap="round" stroke-linejoin="round"/>
<path d="M8 6.66669V9.33335" stroke="black" stroke-width="1.5" stroke-linecap="round" stroke-linejoin="round"/>
<path d="M13.3334 6.66669V9.33335" stroke="black" stroke-width="1.5" stroke-linecap="round" stroke-linejoin="round"/>
<path d="M8 22.6667V25.3334" stroke="black" stroke-width="1.5" stroke-linecap="round" stroke-linejoin="round"/>
<path d="M13.3334 22.6667V25.3334" stroke="black" stroke-width="1.5" stroke-linecap="round" stroke-linejoin="round"/>
<path d="M18.6666 8H24" stroke="black" stroke-width="1.5" stroke-linecap="round" stroke-linejoin="round"/>
<path d="M18.6666 24H24" stroke="black" stroke-width="1.5" stroke-linecap="round" stroke-linejoin="round"/>
</svg>
