<svg width="32" height="32" viewBox="0 0 32 32" fill="none" xmlns="http://www.w3.org/2000/svg">
<path d="M16.0046 4.32954L17.8603 6.62878C17.9658 6.76002 18.1066 6.85759 18.2658 6.9097C18.4249 6.96181 18.5956 6.96625 18.7573 6.92244L21.5842 6.15393C21.7088 6.12024 21.8393 6.11512 21.9662 6.13892C22.093 6.16273 22.213 6.21485 22.3174 6.2915C22.4217 6.36815 22.5078 6.46739 22.5693 6.58195C22.6308 6.69652 22.6662 6.82352 22.6729 6.95367L22.8213 9.90896C22.8307 10.0777 22.8883 10.2401 22.9871 10.3764C23.0859 10.5128 23.2217 10.6174 23.378 10.6775L26.1121 11.7334C26.2325 11.7802 26.341 11.8536 26.4297 11.9482C26.5183 12.0428 26.585 12.1563 26.6247 12.2802C26.6644 12.4042 26.6762 12.5355 26.6592 12.6647C26.6423 12.7938 26.5969 12.9175 26.5266 13.0267L24.9307 15.5259C24.8401 15.6674 24.792 15.8323 24.792 16.0007C24.792 16.1692 24.8401 16.3341 24.9307 16.4756L26.5266 18.9747C26.5969 19.0839 26.6423 19.2076 26.6592 19.3368C26.6762 19.4659 26.6644 19.5973 26.6247 19.7212C26.585 19.8452 26.5183 19.9586 26.4297 20.0532C26.341 20.1478 26.2325 20.2212 26.1121 20.2681L23.378 21.324C23.2207 21.3845 23.0843 21.49 22.9854 21.6276C22.8866 21.7652 22.8295 21.9289 22.8213 22.0987L22.6729 25.054C22.6653 25.1837 22.6293 25.3099 22.5674 25.4237C22.5055 25.5375 22.4193 25.636 22.3151 25.7119C22.2109 25.7879 22.0912 25.8395 21.9648 25.863C21.8383 25.8864 21.7083 25.8811 21.5842 25.8475L18.7573 25.079C18.5956 25.0352 18.4249 25.0396 18.2658 25.0918C18.1066 25.1439 17.9658 25.2414 17.8603 25.3727L16.0046 27.6782C15.9234 27.7788 15.821 27.8599 15.7049 27.9155C15.5888 27.9712 15.462 28.0001 15.3334 28.0001C15.2049 28.0001 15.078 27.9712 14.9619 27.9155C14.8459 27.8599 14.7435 27.7788 14.6623 27.6782L12.8065 25.3727C12.7011 25.2414 12.5603 25.1439 12.4011 25.0918C12.2419 25.0396 12.0712 25.0352 11.9096 25.079L9.0827 25.8475C8.95854 25.8811 8.82854 25.8864 8.70211 25.863C8.57569 25.8395 8.45601 25.7879 8.35178 25.7119C8.24754 25.636 8.16135 25.5375 8.09947 25.4237C8.03759 25.3099 8.00156 25.1837 7.99401 25.054L7.84555 22.0987C7.83733 21.9289 7.78031 21.7652 7.68144 21.6276C7.58256 21.49 7.44613 21.3845 7.28883 21.324L4.55472 20.2681C4.43436 20.2212 4.32588 20.1478 4.23721 20.0532C4.14853 19.9586 4.0819 19.8452 4.04218 19.7212C4.00246 19.5973 3.99066 19.4659 4.00763 19.3368C4.0246 19.2076 4.06992 19.0839 4.14027 18.9747L5.73619 16.4756C5.82674 16.3341 5.87492 16.1692 5.87492 16.0007C5.87492 15.8323 5.82674 15.6674 5.73619 15.5259L4.14027 13.0267C4.06992 12.9175 4.0246 12.7938 4.00763 12.6647C3.99066 12.5355 4.00246 12.4042 4.04218 12.2802C4.0819 12.1563 4.14853 12.0428 4.23721 11.9482C4.32588 11.8536 4.43436 11.7802 4.55472 11.7334L7.28883 10.6775C7.44521 10.6174 7.581 10.5128 7.6798 10.3764C7.7786 10.2401 7.83616 10.0777 7.84555 9.90896L7.99401 6.95367C8.00068 6.82352 8.03607 6.69652 8.09757 6.58195C8.15908 6.46739 8.24514 6.36815 8.34949 6.2915C8.45384 6.21485 8.57383 6.16273 8.70069 6.13892C8.82755 6.11512 8.95806 6.12024 9.0827 6.15393L11.9096 6.92244C12.0712 6.96625 12.2419 6.96181 12.4011 6.9097C12.5603 6.85759 12.7011 6.76002 12.8065 6.62878L14.6623 4.32954C14.7422 4.22688 14.8441 4.14388 14.9603 4.08681C15.0766 4.02974 15.2042 4.00009 15.3334 4.00009C15.4627 4.00009 15.5903 4.02974 15.7065 4.08681C15.8228 4.14388 15.9247 4.22688 16.0046 4.32954Z" stroke="black" stroke-width="1.5" stroke-miterlimit="10"/>
<path d="M11.4935 16.1304L14.1601 18.7971L19.4935 13.4638" stroke="black" stroke-width="1.5" stroke-miterlimit="10" stroke-linecap="round" stroke-linejoin="round"/>
</svg>
