<svg width="32" height="32" viewBox="0 0 32 32" fill="none" xmlns="http://www.w3.org/2000/svg">
<rect x="3" y="3" width="26" height="26" rx="13" stroke="black" stroke-width="1.5"/>
<path d="M8 25L24 7M13.7256 6C12.308 8.38907 13.1924 11.2463 14.4585 13.4258C14.8218 13.2078 15.2351 13.0645 15.6771 13.0172C15.9674 10.4751 17.78 7.54203 19 6H13.7256ZM13.0172 16.3229C10.4751 16.0326 7.54203 14.22 6 13V18.2744C8.38907 19.692 11.2463 18.8076 13.4258 17.5415C13.2078 17.1782 13.0645 16.7649 13.0172 16.3229ZM13 26C14.22 24.458 16.0326 21.5249 16.3229 18.9828C16.7649 18.9355 17.1782 18.7922 17.5415 18.5742C18.8076 20.7537 19.692 23.6109 18.2744 26H13ZM18.9828 15.6771C21.5249 15.9674 24.458 17.78 26 19V13.7256C23.6109 12.308 20.7537 13.1924 18.5742 14.4585C18.7922 14.8218 18.9355 15.2351 18.9828 15.6771ZM19 16C19 17.6569 17.6569 19 16 19C14.3431 19 13 17.6569 13 16C13 14.3431 14.3431 13 16 13C17.6569 13 19 14.3431 19 16Z" stroke="black" stroke-width="1.5" stroke-linecap="round"/>
</svg>
