<svg width="32" height="32" viewBox="0 0 32 32" fill="none" xmlns="http://www.w3.org/2000/svg">
<path d="M4 12L16 2.66667L28 12V26.6667C28 27.3739 27.719 28.0522 27.219 28.5523C26.7189 29.0524 26.0406 29.3333 25.3333 29.3333H6.66667C5.95942 29.3333 5.28115 29.0524 4.78105 28.5523C4.28095 28.0522 4 27.3739 4 26.6667V12Z" stroke="black" stroke-width="1.5" stroke-linecap="round" stroke-linejoin="round"/>
<path d="M21.8333 13.3333L16 11L10.1667 13.3333V18C10.1667 21.5 12.5 23.8333 16 25C19.5 23.8333 21.8333 21.5 21.8333 18V13.3333Z" stroke="black" stroke-width="1.5" stroke-miterlimit="10" stroke-linecap="round"/>
<path d="M14 18.3333L15.3333 19.6667L18 17" stroke="black" stroke-width="1.5" stroke-miterlimit="10" stroke-linecap="round" stroke-linejoin="round"/>
</svg>
