<svg width="32" height="32" viewBox="0 0 32 32" fill="none" xmlns="http://www.w3.org/2000/svg">
<g clip-path="url(#clip0_6230_376)">
<path d="M10.6667 5.33335L12.4 3.17335C12.6534 2.85335 13.04 2.66669 13.44 2.66669H18.56C18.96 2.66669 19.3467 2.85335 19.6 3.17335L21.3334 5.33335V6.66669C21.3334 7.40002 20.7334 8.00002 20 8.00002H12C11.2667 8.00002 10.6667 7.40002 10.6667 6.66669V5.33335Z" stroke="black" stroke-width="1.5" stroke-linecap="round" stroke-linejoin="round"/>
<path d="M12.8933 12.44L10.6667 14.6667L9.33334 13.3333" stroke="black" stroke-width="1.5" stroke-linecap="round" stroke-linejoin="round"/>
<path d="M17.3333 24H21.3333" stroke="black" stroke-width="1.5" stroke-linecap="round" stroke-linejoin="round"/>
<path d="M17.3333 13.3334H21.3333" stroke="black" stroke-width="1.5" stroke-linecap="round" stroke-linejoin="round"/>
<path d="M12.8933 17.7733L10.6667 20L9.33334 18.6666" stroke="black" stroke-width="1.5" stroke-linecap="round" stroke-linejoin="round"/>
<path d="M12.8933 23L10.6667 25.2267L9.33334 23.8933" stroke="black" stroke-width="1.5" stroke-linecap="round" stroke-linejoin="round"/>
<path d="M17.3333 18.6667H21.3333" stroke="black" stroke-width="1.5" stroke-linecap="round" stroke-linejoin="round"/>
<path d="M21.3333 5.33337H24C25.4667 5.33337 26.6667 6.53337 26.6667 8.00004V26.6667C26.6667 28.1334 25.4667 29.3334 24 29.3334H8.00001C6.53334 29.3334 5.33334 28.1334 5.33334 26.6667V8.00004C5.33334 6.53337 6.53334 5.33337 8.00001 5.33337H10.6667" stroke="black" stroke-width="1.5" stroke-linecap="round" stroke-linejoin="round"/>
</g>
<defs>
<clipPath id="clip0_6230_376">
<rect width="32" height="32" fill="white"/>
</clipPath>
</defs>
</svg>
