<svg width="32" height="32" viewBox="0 0 32 32" fill="none" xmlns="http://www.w3.org/2000/svg">
<path d="M18.6667 10.6667V6.00001C18.6667 4.15906 17.1743 2.66667 15.3333 2.66667H7.33332C5.49238 2.66667 3.99999 4.15906 3.99999 6.00001V24.6667C3.99999 26.5076 5.49237 28 7.33332 28H15.3333C17.1743 28 18.6667 26.5076 18.6667 24.6667V23.3333" stroke="black" stroke-width="1.5" stroke-linecap="round"/>
<path d="M22.4295 24.6218C22.0365 24.7528 21.8242 25.1776 21.9551 25.5705C22.0861 25.9635 22.5109 26.1758 22.9038 26.0449L22.6667 25.3333L22.4295 24.6218ZM22.9452 8.63699C22.5606 8.48315 22.1241 8.67021 21.9703 9.0548C21.8165 9.43939 22.0035 9.87587 22.3881 10.0297L22.6667 9.33334L22.9452 8.63699ZM21.197 16.803C20.9041 16.5101 20.4292 16.5101 20.1363 16.803C19.8434 17.0959 19.8434 17.5708 20.1363 17.8637L20.6667 17.3333L21.197 16.803ZM22 18.6667L21.4697 19.197C21.7626 19.4899 22.2374 19.4899 22.5303 19.197L22 18.6667ZM25.197 16.5303C25.4899 16.2374 25.4899 15.7626 25.197 15.4697C24.9041 15.1768 24.4292 15.1768 24.1363 15.4697L24.6667 16L25.197 16.5303ZM29.3333 12H30.0833V11.4922L29.6119 11.3037L29.3333 12ZM20.6667 17.3333L20.1363 17.8637L21.4697 19.197L22 18.6667L22.5303 18.1363L21.197 16.803L20.6667 17.3333ZM22 18.6667L22.5303 19.197L25.197 16.5303L24.6667 16L24.1363 15.4697L21.4697 18.1363L22 18.6667ZM22.6667 9.33334L22.3881 10.0297L29.0548 12.6964L29.3333 12L29.6119 11.3037L22.9452 8.63699L22.6667 9.33334ZM29.3333 12H28.5833V17.3333H29.3333H30.0833V12H29.3333ZM29.3333 17.3333H28.5833C28.5833 20.902 26.2406 23.3515 22.4295 24.6218L22.6667 25.3333L22.9038 26.0449C27.0928 24.6485 30.0833 21.7646 30.0833 17.3333H29.3333Z" fill="black"/>
<path d="M22.6667 25.3333C18.6667 24 16 21.3333 16 17.3333V12L22.6667 9.33334" stroke="black" stroke-width="1.5" stroke-miterlimit="10" stroke-linecap="round"/>
<path d="M10 6.66667H12.6667" stroke="black" stroke-width="1.5" stroke-linecap="round"/>
</svg>
