<svg width="32" height="32" viewBox="0 0 32 32" fill="none" xmlns="http://www.w3.org/2000/svg">
<mask id="path-1-inside-1_4919_829" fill="white">
<path d="M9.33331 29.3333C8.59704 29.3333 8.00048 28.7366 8.00031 28.0003L8.00031 26.6663L6.66632 26.6663C5.93009 26.6662 5.33331 26.0696 5.33331 25.3333L5.33331 22.6663L5.06085 22.6527C3.71619 22.5162 2.66649 21.381 2.66632 20.0003L2.66632 6.66635C2.6665 5.19374 3.86066 4.00033 5.33332 4.00033L26.6663 4.00034C28.139 4.00034 29.3331 5.19374 29.3333 6.66635L29.3333 20.0003C29.3332 21.3807 28.2841 22.5159 26.9398 22.6527L26.6663 22.6664L26.6663 25.3333C26.6663 26.0697 26.0697 26.6664 25.3333 26.6664L24.0003 26.6664L24.0003 28.0003C24.0001 28.7366 23.4026 29.3333 22.6663 29.3333L9.33331 29.3333Z"/>
</mask>
<path d="M8.00031 28.0003L6.50031 28.0003L6.50031 28.0007L8.00031 28.0003ZM8.00031 26.6663L9.50031 26.6663L9.50031 25.1663L8.00031 25.1663L8.00031 26.6663ZM6.66632 26.6663L6.66596 28.1663L6.66632 28.1663L6.66632 26.6663ZM5.33331 25.3333L3.83331 25.3333V25.3333L5.33331 25.3333ZM5.33331 22.6663L6.83331 22.6663L6.83331 21.2397L5.40849 21.1682L5.33331 22.6663ZM5.06085 22.6527L4.90939 24.145L4.94746 24.1489L4.98568 24.1508L5.06085 22.6527ZM2.66632 20.0003L1.16632 20.0003L1.16632 20.0005L2.66632 20.0003ZM2.66632 6.66635L1.16632 6.66617L1.16632 6.66635L2.66632 6.66635ZM5.33332 4.00033L5.33332 2.50033V2.50033L5.33332 4.00033ZM26.6663 4.00034L26.6663 5.50034L26.6663 4.00034ZM29.3333 6.66635L30.8333 6.66635L30.8333 6.66617L29.3333 6.66635ZM29.3333 20.0003L30.8333 20.0005L30.8333 20.0003L29.3333 20.0003ZM26.9398 22.6527L27.0147 24.1508L27.0532 24.1489L27.0916 24.145L26.9398 22.6527ZM26.6663 22.6664L26.5914 21.1682L25.1663 21.2395L25.1663 22.6664L26.6663 22.6664ZM24.0003 26.6664L24.0003 25.1664L22.5003 25.1664L22.5003 26.6664L24.0003 26.6664ZM24.0003 28.0003L25.5003 28.0007L25.5003 28.0003L24.0003 28.0003ZM9.33331 29.3333L9.33331 27.8333C9.42583 27.8333 9.50028 27.9084 9.50031 28L8.00031 28.0003L6.50031 28.0007C6.50068 29.5647 7.76826 30.8333 9.33331 30.8333L9.33331 29.3333ZM8.00031 28.0003L9.50031 28.0003L9.50031 26.6663L8.00031 26.6663L6.50031 26.6663L6.50031 28.0003L8.00031 28.0003ZM8.00031 26.6663L8.00031 25.1663L6.66632 25.1663L6.66632 26.6663L6.66632 28.1663L8.00031 28.1663L8.00031 26.6663ZM6.66632 26.6663L6.66668 25.1663C6.75824 25.1664 6.83331 25.2408 6.83331 25.3333L5.33331 25.3333L3.83331 25.3333C3.83331 26.8984 5.10195 28.166 6.66596 28.1663L6.66632 26.6663ZM5.33331 25.3333L6.83331 25.3333L6.83331 22.6663L5.33331 22.6663L3.83331 22.6663L3.83331 25.3333L5.33331 25.3333ZM5.33331 22.6663L5.40849 21.1682L5.13603 21.1546L5.06085 22.6527L4.98568 24.1508L5.25814 24.1645L5.33331 22.6663ZM5.06085 22.6527L5.21231 21.1603C4.62518 21.1008 4.16639 20.6028 4.16632 20.0002L2.66632 20.0003L1.16632 20.0005C1.16658 22.1591 2.80721 23.9317 4.90939 24.145L5.06085 22.6527ZM2.66632 20.0003L4.16632 20.0003L4.16632 6.66635L2.66632 6.66635L1.16632 6.66635L1.16632 20.0003L2.66632 20.0003ZM2.66632 6.66635L4.16632 6.66653C4.1664 6.02274 4.68855 5.50033 5.33332 5.50033L5.33332 4.00033L5.33332 2.50033C3.03278 2.50033 1.1666 4.36473 1.16632 6.66617L2.66632 6.66635ZM5.33332 4.00033L5.33332 5.50033L26.6663 5.50034L26.6663 4.00034L26.6663 2.50034L5.33332 2.50033L5.33332 4.00033ZM26.6663 4.00034L26.6663 5.50034C27.3111 5.50034 27.8332 6.02275 27.8333 6.66653L29.3333 6.66635L30.8333 6.66617C30.833 4.36474 28.9669 2.50034 26.6663 2.50034L26.6663 4.00034ZM29.3333 6.66635L27.8333 6.66635L27.8333 20.0003L29.3333 20.0003L30.8333 20.0003L30.8333 6.66635L29.3333 6.66635ZM29.3333 20.0003L27.8333 20.0002C27.8332 20.603 27.3746 21.1007 26.7879 21.1604L26.9398 22.6527L27.0916 24.145C29.1936 23.9311 30.8331 22.1585 30.8333 20.0005L29.3333 20.0003ZM26.9398 22.6527L26.8649 21.1546L26.5914 21.1682L26.6663 22.6664L26.7412 24.1645L27.0147 24.1508L26.9398 22.6527ZM26.6663 22.6664L25.1663 22.6664L25.1663 25.3333L26.6663 25.3333L28.1663 25.3333L28.1663 22.6664L26.6663 22.6664ZM26.6663 25.3333L25.1663 25.3333C25.1663 25.2413 25.2413 25.1664 25.3333 25.1664L25.3333 26.6664L25.3333 28.1664C26.8981 28.1664 28.1663 26.8982 28.1663 25.3333L26.6663 25.3333ZM25.3333 26.6664L25.3333 25.1664L24.0003 25.1664L24.0003 26.6664L24.0003 28.1664L25.3333 28.1664L25.3333 26.6664ZM24.0003 26.6664L22.5003 26.6664L22.5003 28.0003L24.0003 28.0003L25.5003 28.0003L25.5003 26.6664L24.0003 26.6664ZM24.0003 28.0003L22.5003 28C22.5003 27.907 22.5752 27.8333 22.6663 27.8333L22.6663 29.3333L22.6663 30.8333C24.2299 30.8333 25.4999 29.5661 25.5003 28.0007L24.0003 28.0003ZM22.6663 29.3333L22.6663 27.8333L9.33331 27.8333L9.33331 29.3333L9.33331 30.8333L22.6663 30.8333L22.6663 29.3333Z" fill="black" mask="url(#path-1-inside-1_4919_829)"/>
<path d="M16.0017 26.7365C15.8543 26.7365 15.741 26.6968 15.6617 26.6175C15.5823 26.5325 15.5427 26.4163 15.5427 26.269V25.0025H14.3017C14.16 25.0025 14.0495 24.9657 13.9702 24.892C13.8908 24.8127 13.8512 24.7022 13.8512 24.5605C13.8512 24.4188 13.8908 24.3112 13.9702 24.2375C14.0495 24.1582 14.16 24.1185 14.3017 24.1185H15.5427V22.903C15.5427 22.75 15.5823 22.6338 15.6617 22.5545C15.741 22.4752 15.8572 22.4355 16.0102 22.4355C16.1575 22.4355 16.268 22.4752 16.3417 22.5545C16.421 22.6338 16.4607 22.75 16.4607 22.903V24.1185H17.7017C17.849 24.1185 17.9595 24.1582 18.0332 24.2375C18.1125 24.3112 18.1522 24.4188 18.1522 24.5605C18.1522 24.7022 18.1125 24.8127 18.0332 24.892C17.9595 24.9657 17.849 25.0025 17.7017 25.0025H16.4607V26.269C16.4607 26.4163 16.421 26.5325 16.3417 26.6175C16.268 26.6968 16.1547 26.7365 16.0017 26.7365Z" fill="black"/>
<path d="M9.54686 21.081C9.31886 21.081 9.14486 21.018 9.02486 20.892C8.90486 20.766 8.84486 20.589 8.84486 20.361V15.366C8.84486 15.132 8.90486 14.955 9.02486 14.835C9.15086 14.715 9.32786 14.655 9.55586 14.655H11.7429C12.4509 14.655 12.9969 14.835 13.3809 15.195C13.7649 15.549 13.9569 16.044 13.9569 16.68C13.9569 17.316 13.7649 17.814 13.3809 18.174C12.9969 18.534 12.4509 18.714 11.7429 18.714H10.2399V20.361C10.2399 20.589 10.1799 20.766 10.0599 20.892C9.94586 21.018 9.77486 21.081 9.54686 21.081ZM10.2399 17.634H11.5089C11.8689 17.634 12.1419 17.553 12.3279 17.391C12.5199 17.229 12.6159 16.992 12.6159 16.68C12.6159 16.368 12.5199 16.134 12.3279 15.978C12.1419 15.822 11.8689 15.744 11.5089 15.744H10.2399V17.634ZM16.1411 21.099C15.6671 21.099 15.2531 21.006 14.8991 20.82C14.5511 20.634 14.2811 20.367 14.0891 20.019C13.8971 19.671 13.8011 19.26 13.8011 18.786C13.8011 18.432 13.8551 18.114 13.9631 17.832C14.0711 17.55 14.2271 17.31 14.4311 17.112C14.6411 16.908 14.8901 16.755 15.1781 16.653C15.4661 16.545 15.7871 16.491 16.1411 16.491C16.6151 16.491 17.0261 16.584 17.3741 16.77C17.7281 16.956 18.0011 17.22 18.1931 17.562C18.3911 17.904 18.4901 18.312 18.4901 18.786C18.4901 19.146 18.4331 19.467 18.3191 19.749C18.2111 20.031 18.0551 20.274 17.8511 20.478C17.6471 20.682 17.3981 20.838 17.1041 20.946C16.8161 21.048 16.4951 21.099 16.1411 21.099ZM16.1411 20.082C16.3391 20.082 16.5101 20.034 16.6541 19.938C16.7981 19.842 16.9121 19.701 16.9961 19.515C17.0801 19.323 17.1221 19.08 17.1221 18.786C17.1221 18.348 17.0321 18.027 16.8521 17.823C16.6721 17.613 16.4351 17.508 16.1411 17.508C15.9491 17.508 15.7781 17.553 15.6281 17.643C15.4841 17.733 15.3701 17.874 15.2861 18.066C15.2081 18.252 15.1691 18.492 15.1691 18.786C15.1691 19.224 15.2591 19.551 15.4391 19.767C15.6191 19.977 15.8531 20.082 16.1411 20.082ZM19.7129 21C19.4789 21 19.2989 20.937 19.1729 20.811C19.0469 20.685 18.9839 20.505 18.9839 20.271V15.384C18.9839 15.15 19.0469 14.97 19.1729 14.844C19.2989 14.718 19.4789 14.655 19.7129 14.655H22.8539C23.0339 14.655 23.1689 14.703 23.2589 14.799C23.3549 14.889 23.4029 15.021 23.4029 15.195C23.4029 15.375 23.3549 15.513 23.2589 15.609C23.1689 15.699 23.0339 15.744 22.8539 15.744H20.3159V17.229H22.6469C22.8329 17.229 22.9709 17.277 23.0609 17.373C23.1569 17.463 23.2049 17.598 23.2049 17.778C23.2049 17.958 23.1569 18.096 23.0609 18.192C22.9709 18.282 22.8329 18.327 22.6469 18.327H20.3159V19.911H22.8539C23.0339 19.911 23.1689 19.959 23.2589 20.055C23.3549 20.145 23.4029 20.277 23.4029 20.451C23.4029 20.631 23.3549 20.769 23.2589 20.865C23.1689 20.955 23.0339 21 22.8539 21H19.7129Z" fill="black"/>
<path d="M8 8V12" stroke="black" stroke-width="1.5" stroke-linecap="round"/>
<path d="M12 8V12" stroke="black" stroke-width="1.5" stroke-linecap="round"/>
<path d="M16 8V12" stroke="black" stroke-width="1.5" stroke-linecap="round"/>
<path d="M20 8V12" stroke="black" stroke-width="1.5" stroke-linecap="round"/>
<path d="M24 8V12" stroke="black" stroke-width="1.5" stroke-linecap="round"/>
</svg>
