<svg width="221" height="32" viewBox="0 0 221 32" fill="none" xmlns="http://www.w3.org/2000/svg">
<path d="M210.971 10.6668C210.971 4.62366 206.396 1.94458 200.371 1.94458H188.023V30.2876H195.954V19.3835H196.518L203.75 30.2876H213.396L204.297 18.6764C208.63 17.9583 210.971 14.5832 210.971 10.6668ZM197.991 14.6495H195.954V7.58999H198.228C200.834 7.58999 203.039 8.03742 203.039 11.1253C203.039 14.2131 200.597 14.655 197.996 14.655L197.991 14.6495ZM163.231 1.94458L152.569 30.2876H160.771L162.514 25.0731H173.108L174.851 30.2876H183.048L172.386 1.94458H163.236H163.231ZM164.393 19.4332L167.698 9.53992H167.918L171.224 19.4332H164.393ZM128.454 1.94458H147.797V8.18657H136.396V12.9205H147.317V19.157H136.396V24.0567H147.797V30.2931H128.454V1.94458ZM105.969 14.4672H121.482C121.397 18.6046 121.081 22.1288 118.362 25.6641C115.372 29.5474 111.113 31.2267 106.008 31.2267C96.4185 31.2267 89.9764 25.178 89.9764 16.2735C89.9764 7.36903 96.2211 1 106.059 1C112.332 1 117.194 3.64041 119.823 8.94334L112.292 11.871C111.204 9.16982 108.891 7.36351 105.698 7.36351C100.463 7.36351 98.2236 11.9815 98.2236 16.3067C98.2236 20.6319 100.83 25.178 106.048 25.178C109.494 25.178 111.892 23.5209 112.213 20.2507H105.969V14.4672ZM63.2437 1.94458H86.6652V8.18657H78.9821V30.2876H70.9211V8.18657H63.2437V1.94458ZM38.4909 1.94458H57.8283V8.18657H46.4278V12.9205H57.3488V19.157H46.4278V24.0567H57.8283V30.2931H38.4909V1.94458ZM21.1786 1.94458H29.1099V30.2876H21.1786L8.04631 12.9205H7.96169V30.2876H0.0247803V1.94458H7.95605L21.0883 19.273H21.173V1.94458H21.1786Z" fill="black"/>
<path d="M217.447 1.94629C219.342 1.94629 221 3.38448 221 5.38281C221 7.38102 219.289 8.83398 217.447 8.83398C215.605 8.8339 213.894 7.38853 213.894 5.38281C213.894 3.37697 215.59 1.94637 217.447 1.94629ZM217.455 2.55957C215.916 2.55959 214.547 3.75161 214.547 5.38281C214.547 7.01385 215.935 8.19816 217.447 8.19824H217.451C218.986 8.19824 220.367 7.01012 220.367 5.38281C220.367 3.75538 218.993 2.55957 217.455 2.55957ZM217.539 3.42188C218.21 3.42188 219.147 3.58491 219.147 4.52344H219.143C219.143 5.05708 218.805 5.4011 218.36 5.54492L219.177 7.20312H218.061L217.374 5.70801H217.071V7.20312H216.058V3.42188H217.539ZM217.071 4.07324V5.08008H217.439C217.742 5.08008 218.095 5.00043 218.095 4.5918C218.095 4.13385 217.711 4.07324 217.374 4.07324H217.071Z" fill="black"/>
</svg>
