<svg width="209" height="32" viewBox="0 0 209 32" fill="none" xmlns="http://www.w3.org/2000/svg">
<path d="M95.3372 0.727059C95.3372 0.534118 95.1475 0.501176 95.0117 0.501176H94.7119V1.28H94.918V0.971765H94.9789L95.1171 1.28H95.3442L95.178 0.938824C95.2669 0.910588 95.3372 0.837647 95.3372 0.729412V0.727059ZM94.9906 0.84H94.9157V0.632941H94.9765C95.0445 0.632941 95.1218 0.644706 95.1218 0.738824C95.1218 0.823529 95.0492 0.84 94.9883 0.84H94.9906ZM94.9929 0.195294C94.6182 0.195294 94.274 0.489412 94.274 0.903529C94.274 1.31765 94.6206 1.61412 94.9929 1.61412C95.3653 1.61412 95.7119 1.31529 95.7119 0.903529C95.7119 0.491765 95.377 0.195294 94.9929 0.195294ZM94.9929 1.48235C94.6861 1.48235 94.4051 1.23765 94.4051 0.901176C94.4051 0.564706 94.6815 0.32 94.9929 0.32C95.3044 0.32 95.5808 0.567059 95.5808 0.901176C95.5808 1.23529 95.3021 1.48235 94.9906 1.48235H94.9929ZM93.6417 2.00471C93.6417 0.750588 92.7166 0.195294 91.4988 0.195294H89.0023V6.07529H90.6042V3.81412H90.7189L92.1803 6.07529H94.1311L92.2927 3.66588C93.1686 3.51765 93.6417 2.81647 93.6417 2.00471ZM91.0164 2.83059H90.6042V1.36706H91.0632C91.5901 1.36706 92.0351 1.45882 92.0351 2.09882C92.0351 2.73882 91.541 2.83059 91.0164 2.83059ZM83.9906 0.195294L81.8337 6.07529H83.4918L83.8431 4.99294H85.9836L86.3349 6.07529H87.9906L85.836 0.195294H83.9859H83.9906ZM84.2248 3.82353L84.8922 1.77176H84.9367L85.6042 3.82353H84.2248ZM76.9602 0.195294H80.8712V1.48941H78.5667V2.47059H80.7751V3.76471H78.5667V4.78118H80.8712V6.07529H76.9602V0.195294ZM72.4145 2.79294H75.5503C75.5339 3.65176 75.4684 4.38353 74.9203 5.11529C74.3161 5.92 73.4566 6.26824 72.4215 6.26824C70.4824 6.26824 69.1803 5.01412 69.1803 3.16706C69.1803 1.32 70.4426 0 72.4309 0C73.6979 0 74.6815 0.548235 75.2131 1.64706L73.6908 2.25412C73.4707 1.69412 73.0023 1.32 72.3583 1.32C71.2997 1.32 70.8477 2.27765 70.8477 3.17412C70.8477 4.07059 71.3747 5.01412 72.4309 5.01412C73.1288 5.01412 73.6112 4.67059 73.6768 3.99294H72.4145V2.79294ZM63.7775 0.195294H68.5128V1.48941H66.9602V6.07294H65.3302V1.49176H63.7775V0.195294ZM58.7751 0.195294H62.6838V1.48941H60.3794V2.47059H62.5878V3.76471H60.3794V4.78118H62.6838V6.07529H58.7751V0.195294ZM55.274 0.195294H56.8782V6.07529H55.274L52.6206 2.47294H52.6042V6.07529H51V0.195294H52.6042L55.2599 3.79059H55.2763V0.195294H55.274Z" fill="white"/>
<path d="M25.5503 24.7435V11.8446H29.1569V24.7435H25.5503ZM28.4707 19.5976V17.0964H30.6533C31.1451 17.0964 31.5222 16.9764 31.7798 16.7341C32.0374 16.4917 32.1686 16.1717 32.1686 15.774C32.1686 15.3764 32.0398 15.0564 31.7798 14.814C31.5222 14.5717 31.1451 14.4517 30.6533 14.4517H28.4707V11.8423H31.2295C32.1194 11.8423 32.8992 12.0046 33.5737 12.3317C34.2482 12.6588 34.7751 13.1105 35.1615 13.6917C35.5456 14.2705 35.7376 14.9482 35.7376 15.7199C35.7376 16.4917 35.5433 17.1693 35.1522 17.7482C34.7611 18.327 34.2177 18.7811 33.5198 19.1058C32.822 19.4329 31.9999 19.5952 31.0491 19.5952H28.4707V19.5976ZM32.4754 24.7435L28.9765 19.2352L32.2224 18.5293L36.569 24.7435H32.4754Z" fill="white"/>
<path d="M42.8433 24.7436V11.8447H45.4592L50.239 18.8753H49.1032L53.8643 11.8447H56.4803V24.7436H52.9088V17.7859L53.4311 17.9318L50.8152 21.7012H48.506L45.9088 17.9318L46.4147 17.7859V24.7436H42.8433Z" fill="white"/>
<path d="M70.0726 24.9977C69.0632 24.9977 68.1335 24.8283 67.2857 24.4895C66.438 24.1506 65.6979 23.6801 65.0679 23.0753C64.438 22.4706 63.9461 21.7601 63.5972 20.9365C63.2483 20.1153 63.075 19.2283 63.075 18.273C63.075 17.3177 63.2459 16.4189 63.5878 15.6095C63.9298 14.8001 64.4145 14.0942 65.0398 13.4895C65.6651 12.8848 66.4005 12.4189 67.2483 12.0848C68.096 11.753 69.0234 11.5859 70.0351 11.5859C71.0468 11.5859 71.9743 11.753 72.822 12.0848C73.6698 12.4165 74.4052 12.8848 75.0305 13.4895C75.6558 14.0942 76.1405 14.8024 76.4824 15.6189C76.8244 16.4353 76.9953 17.3248 76.9953 18.2918C76.9953 19.2589 76.8244 20.1318 76.4824 20.9459C76.1405 21.7624 75.6558 22.4753 75.0305 23.0848C74.4052 23.6942 73.6721 24.1648 72.8314 24.4989C71.9906 24.8306 71.0703 24.9977 70.0726 24.9977ZM70.0375 21.8095C70.7096 21.8095 71.2928 21.6636 71.7869 21.3742C72.2787 21.0848 72.6581 20.673 72.9227 20.1412C73.1874 19.6095 73.3185 18.9883 73.3185 18.2753C73.3185 17.7436 73.2436 17.2636 73.0937 16.8353C72.9438 16.4071 72.7237 16.0377 72.4356 15.7295C72.1476 15.4212 71.8009 15.1859 71.3981 15.0236C70.9953 14.8612 70.541 14.7789 70.0375 14.7789C69.363 14.7789 68.7799 14.9201 68.2881 15.2048C67.7939 15.4895 67.4169 15.8942 67.1522 16.4189C66.8876 16.9436 66.7565 17.5624 66.7565 18.2753C66.7565 18.8189 66.8314 19.3083 66.9813 19.7436C67.1312 20.1789 67.3513 20.5506 67.6394 20.8589C67.9274 21.1671 68.274 21.4024 68.6768 21.5648C69.0796 21.7271 69.534 21.8095 70.0375 21.8095Z" fill="white"/>
<path d="M83.5972 24.7435V11.8446H87.2037V24.7435H83.5972ZM86.5199 19.5976V17.0964H88.7026C89.1944 17.0964 89.5714 16.9764 89.829 16.7341C90.0866 16.4917 90.2178 16.1717 90.2178 15.774C90.2178 15.3764 90.089 15.0564 89.829 14.814C89.5714 14.5717 89.1944 14.4517 88.7026 14.4517H86.5199V11.8423H89.2787C90.1686 11.8423 90.9485 12.0046 91.6229 12.3317C92.2974 12.6588 92.8243 13.1105 93.2108 13.6917C93.5948 14.2705 93.7869 14.9482 93.7869 15.7199C93.7869 16.4917 93.5925 17.1693 93.2014 17.7482C92.8103 18.327 92.267 18.7811 91.5691 19.1058C90.8712 19.4329 90.0492 19.5952 89.0983 19.5952H86.5199V19.5976ZM90.5222 24.7435L87.0234 19.2352L90.2693 18.5293L94.6159 24.7435H90.5222Z" fill="white"/>
<path fill-rule="evenodd" clip-rule="evenodd" d="M96.9133 12.2188V13.6612H96.4777V12.2188H95.9648V11.8447H97.4262V12.2188H96.9133Z" fill="white"/>
<path fill-rule="evenodd" clip-rule="evenodd" d="M99.4708 13.6636L99.4802 12.3765H99.4731L99.0024 13.6636H98.6956L98.2389 12.3765H98.2296L98.2413 13.6636H97.8291V11.8447H98.4497L98.8619 13.0094H98.8736L99.267 11.8447H99.8994V13.6636H99.4708Z" fill="white"/>
<path fill-rule="evenodd" clip-rule="evenodd" d="M8.61597 19.7435H11.2694L9.95789 15.7411L8.61597 19.7435Z" fill="white"/>
<path fill-rule="evenodd" clip-rule="evenodd" d="M19.4145 10.9718C16.4075 9.81646 13.2014 9.21411 9.96019 9.21411C6.71897 9.21411 3.5082 9.81646 0.501171 10.9718C0.199063 11.0894 0 11.3835 0 11.7106V24.0212C0 24.1671 0.0374707 24.3082 0.112412 24.4329C2.3911 28.2447 5.61358 29.5835 9.56206 31.88C9.80562 32.0212 10.1077 32.0212 10.3513 31.88C14.2998 29.5859 17.5222 28.2447 19.8009 24.4329C19.8759 24.3082 19.9133 24.1647 19.9133 24.0212V11.7082C19.9133 11.3812 19.7166 11.0847 19.4122 10.9694L19.4145 10.9718ZM12.9063 24.7435L12.1944 22.5694H7.66745L6.93677 24.7435H3.25761L8.1452 11.8447H11.8244L16.6581 24.7435H12.9063Z" fill="white"/>
<path d="M107.423 0H107V27.1738H107.423V0Z" fill="white"/>
<path d="M120.283 5.24501H120.743C120.94 5.24501 121.132 5.22261 121.316 5.18007C121.5 5.13752 121.661 5.0681 121.802 4.97404C121.943 4.87999 122.053 4.75682 122.136 4.60454C122.219 4.45227 122.259 4.26416 122.259 4.04022C122.259 3.81628 122.221 3.63713 122.143 3.48709C122.064 3.33705 121.959 3.21613 121.825 3.12431C121.69 3.0325 121.531 2.96532 121.35 2.92501C121.168 2.8847 120.973 2.8623 120.763 2.8623H119.358V6.68493H120.281V5.24277L120.283 5.24501ZM120.283 3.60802H120.689C120.772 3.60802 120.852 3.6125 120.928 3.62369C121.007 3.63489 121.074 3.65505 121.137 3.68864C121.197 3.71999 121.247 3.76702 121.282 3.823C121.318 3.88122 121.336 3.95512 121.336 4.0447C121.336 4.13427 121.318 4.21041 121.282 4.26864C121.247 4.3291 121.197 4.37613 121.135 4.41196C121.072 4.44779 121 4.47242 120.922 4.4881C120.843 4.50153 120.76 4.51049 120.673 4.51049H120.283V3.60802Z" fill="white"/>
<path d="M133.556 6.68489L134.313 4.10064H134.329L135.086 6.68489H135.998L137.089 2.8645H136.128L135.512 5.4062H135.496L134.811 2.8645H133.85L133.169 5.4062H133.153L132.548 2.8645H131.553L132.64 6.68489H133.556Z" fill="white"/>
<path d="M142.418 5.89663H140.642V5.10388H142.23V4.36489H140.642V3.64157H142.322V2.8645H139.75V6.68489H142.418V5.89663Z" fill="white"/>
<path d="M147.427 5.05047C147.79 4.94298 148.222 4.66753 148.222 4.00692C148.222 3.42915 147.884 2.88498 146.784 2.86035H145.299V6.68746H146.2V5.16916H146.515L147.344 6.6897H148.426L147.427 5.05271V5.05047ZM146.634 4.49958H146.195V3.60831H146.69C146.867 3.60831 147.308 3.62622 147.308 4.03603C147.308 4.44583 146.919 4.49958 146.634 4.49958Z" fill="white"/>
<path d="M153.812 5.89663H152.035V5.10388H153.623V4.36489H152.035V3.64157H153.715V2.8645H151.144V6.68489H153.812V5.89663Z" fill="white"/>
<path d="M158.893 6.5752C159.148 6.5013 159.379 6.38709 159.58 6.23034C159.784 6.07358 159.948 5.87427 160.071 5.63018C160.194 5.38833 160.257 5.09945 160.257 4.76354C160.257 4.403 160.194 4.10068 160.069 3.85659C159.943 3.6125 159.777 3.41767 159.571 3.26987C159.365 3.12431 159.132 3.01906 158.87 2.95636C158.608 2.89366 158.341 2.8623 158.07 2.8623H156.688V6.68493H158.113C158.375 6.68493 158.635 6.6491 158.89 6.5752H158.893ZM157.593 5.88547V3.65057H158.052C158.212 3.65057 158.364 3.66848 158.514 3.70431C158.664 3.74014 158.796 3.80061 158.913 3.8857C159.029 3.9708 159.123 4.08277 159.193 4.22609C159.262 4.36717 159.298 4.54632 159.298 4.76354C159.298 4.98076 159.262 5.15319 159.193 5.29875C159.123 5.44207 159.029 5.55852 158.913 5.64362C158.796 5.73095 158.66 5.79142 158.507 5.82949C158.355 5.86756 158.196 5.88547 158.03 5.88547H157.593Z" fill="white"/>
<path d="M168.816 6.62895C168.991 6.59088 169.146 6.52817 169.285 6.44308C169.421 6.35574 169.531 6.24153 169.614 6.10045C169.697 5.95937 169.737 5.78246 169.737 5.5742C169.737 5.44879 169.717 5.33458 169.674 5.23381C169.634 5.13304 169.578 5.0457 169.506 4.96956C169.437 4.89342 169.354 4.83296 169.258 4.78369C169.161 4.73443 169.06 4.70084 168.953 4.68292V4.67173C169.141 4.61126 169.291 4.51049 169.405 4.37165C169.52 4.23281 169.578 4.05814 169.578 3.84539C169.578 3.65057 169.538 3.49157 169.459 3.36393C169.381 3.23852 169.278 3.13775 169.152 3.06385C169.027 2.98995 168.886 2.93844 168.731 2.90709C168.577 2.87574 168.424 2.8623 168.279 2.8623H166.755V6.68493H168.279C168.462 6.68493 168.642 6.66702 168.816 6.62895ZM167.647 3.59682H168.099C168.294 3.59682 168.44 3.62593 168.539 3.6864C168.637 3.74686 168.686 3.84091 168.686 3.9708C168.686 4.1074 168.639 4.21041 168.543 4.28207C168.447 4.35149 168.315 4.38732 168.14 4.38732H167.642V3.59906L167.647 3.59682ZM167.647 5.94146V5.06586H168.16C168.357 5.06586 168.516 5.09721 168.635 5.15767C168.754 5.21814 168.814 5.32787 168.814 5.48686C168.814 5.58092 168.794 5.65705 168.754 5.71528C168.713 5.77574 168.662 5.82053 168.599 5.85188C168.536 5.88323 168.467 5.90787 168.388 5.91906C168.31 5.9325 168.236 5.93698 168.164 5.93698H167.647V5.94146Z" fill="white"/>
<path d="M173.548 6.68489H174.473V5.06582L175.94 2.8645H174.86L174.045 4.27755L173.229 2.8645H172.112L173.548 5.06582V6.68489Z" fill="white"/>
<path d="M126.988 6.7882C128.245 6.7882 129.058 5.89244 129.058 4.78619C129.058 3.67993 128.312 2.78418 126.988 2.78418C125.666 2.78418 124.918 3.67993 124.918 4.78619C124.918 5.89244 125.729 6.7882 126.988 6.7882ZM126.988 3.61275C127.656 3.61275 128.075 4.12781 128.075 4.78171C128.075 5.43561 127.633 5.95067 126.988 5.95067C126.341 5.95067 125.902 5.43561 125.902 4.78171C125.902 4.12781 126.321 3.61275 126.988 3.61275Z" fill="white"/>
<path d="M152.154 15.5823C149.817 15.5823 148.113 17.2103 148.113 19.6445C148.113 22.0787 149.902 23.7045 152.49 23.7045C153.245 23.7045 153.953 23.5724 154.555 23.3216L155.657 21.4831L155.512 21.4047C154.564 21.9018 153.565 22.1571 152.665 22.1571C151.329 22.1571 150.176 21.4786 150.048 20.3208H155.949V19.7878C155.949 17.0961 154.316 15.5823 152.154 15.5823ZM150.048 18.8697C150.194 17.7567 150.904 17.0312 152.048 17.0312C153.258 17.0312 154 17.741 154.015 18.8697H150.048Z" fill="white"/>
<path d="M174.84 15.5823C173.982 15.5823 173.014 16.0078 172.378 16.955H172.347V15.7771H170.698V15.7726H169.186V15.8577L169.67 16.1802C170.458 16.6773 170.51 16.8229 170.51 17.797V23.5142H172.443V19.2907C172.443 18.2583 172.943 17.3245 174.217 17.3245C175.572 17.3245 175.788 18.3569 175.788 19.2101V23.5142H177.723V18.6278C177.723 16.8341 176.668 15.5845 174.84 15.5845V15.5823Z" fill="white"/>
<path d="M159.385 14.3393C159.385 12.9868 160.583 12.5993 162.134 13.2062L162.228 13.1301L161.78 11.4931C158.814 10.9019 157.445 12.2343 157.445 14.3326V15.7434H155.559V15.8599L156.544 16.6616C157.315 17.2707 157.445 17.4118 157.445 18.0612V23.5119H159.387V17.3939H161.184V15.7457H159.387V14.3393H159.385Z" fill="white"/>
<path d="M165.315 15.5823C162.978 15.5823 161.276 17.2103 161.276 19.6445C161.276 22.0787 163.066 23.7045 165.653 23.7045C166.41 23.7045 167.116 23.5724 167.721 23.3216L168.821 21.4831L168.675 21.4047C167.727 21.9018 166.731 22.1571 165.828 22.1571C164.495 22.1571 163.341 21.4786 163.211 20.3208H169.112C169.367 17.2887 167.736 15.5823 165.315 15.5823ZM163.209 18.8697C163.355 17.7567 164.063 17.0312 165.207 17.0312C166.417 17.0312 167.161 17.741 167.174 18.8697H163.209Z" fill="white"/>
<path d="M199.363 16.9996H199.329V15.7702H196.065L196.072 15.8553L196.558 16.1777C197.345 16.6749 197.396 16.8205 197.396 17.7946V23.5117H199.332V19.3689C199.332 18.9479 199.589 17.4161 201.41 17.4161C201.72 17.4161 202.024 17.4811 202.347 17.5617V15.6918C202.123 15.6291 201.897 15.5798 201.655 15.5798C200.638 15.5798 199.784 16.1128 199.367 16.9974L199.363 16.9996Z" fill="white"/>
<path d="M192.349 15.5823C190.008 15.5823 188.308 17.2103 188.308 19.6445C188.308 22.0787 190.097 23.7045 192.687 23.7045C193.442 23.7045 194.15 23.5724 194.75 23.3216L195.855 21.4831L195.709 21.4047C194.761 21.9018 193.762 22.1571 192.86 22.1571C191.527 22.1571 190.375 21.4786 190.243 20.3208H196.141C196.399 17.2887 194.768 15.5823 192.349 15.5823ZM190.243 18.8697C190.386 17.7567 191.097 17.0312 192.239 17.0312C193.449 17.0312 194.192 17.741 194.208 18.8697H190.243Z" fill="white"/>
<path d="M183.928 11.7644L184.197 11.9435C185.129 12.5325 185.245 12.7027 185.245 13.7104V16.756H185.198C184.793 16.2566 184.02 15.5803 182.57 15.5803C180.362 15.5803 178.829 17.3516 178.829 19.6425C178.829 21.9334 180.265 23.7025 182.649 23.7025C183.731 23.7025 184.746 23.2838 185.31 22.3522H185.341L185.548 23.5122H187.181V11.6233H183.93V11.7644H183.928ZM183.034 21.9648C181.616 21.9648 180.76 20.854 180.76 19.6448C180.76 18.4355 181.616 17.3225 183.034 17.3225C184.452 17.3225 185.308 18.4355 185.308 19.6448C185.308 20.854 184.454 21.9648 183.034 21.9648Z" fill="white"/>
<path d="M128.397 15.9025L128.706 16.1466C129.401 16.6818 129.436 16.7848 129.436 17.4253V23.5119H131.372V15.7771H128.395V15.9047L128.397 15.9025Z" fill="white"/>
<path d="M130.389 11.988C129.679 11.988 129.163 12.5367 129.163 13.1503C129.163 13.7639 129.679 14.3103 130.389 14.3103C131.099 14.3103 131.648 13.8109 131.648 13.1503C131.648 12.4897 131.099 11.988 130.389 11.988Z" fill="white"/>
<path d="M143.798 11.7641L144.403 12.1537C144.956 12.5053 145.039 12.6733 145.039 13.1659V16.7579H144.992C144.589 16.2585 143.814 15.5822 142.365 15.5822C140.156 15.5822 138.624 17.3536 138.624 19.6445C138.624 21.9354 140.059 23.7045 142.445 23.7045C143.525 23.7045 144.542 23.2857 145.107 22.3541H145.138L145.34 23.5141H146.975V11.6252H143.798V11.7663V11.7641ZM142.831 21.9645C141.413 21.9645 140.555 20.8537 140.555 19.6445C140.555 18.4352 141.41 17.3222 142.831 17.3222C144.251 17.3222 145.104 18.4352 145.104 19.6445C145.104 20.8537 144.251 21.9645 142.831 21.9645Z" fill="white"/>
<path d="M125.339 17.499V17.4654C126.518 17.1116 127.322 16.2584 127.322 14.9685C127.322 12.8904 125.548 12.0999 123.825 12.0999H119.654H117.994V12.27L118.579 12.7672C119.282 13.3405 119.372 13.4502 119.372 13.9675V23.5117H123.485C125.642 23.5117 127.806 22.7392 127.806 20.2557C127.806 18.7911 126.771 17.6602 125.337 17.5012L125.339 17.499ZM121.408 13.8421H123.084C124.217 13.8421 124.569 13.9989 124.911 14.3236C125.174 14.5721 125.292 14.9103 125.292 15.3089C125.292 15.6784 125.167 16.0076 124.898 16.2629C124.562 16.5853 124.103 16.7421 123.26 16.7421H121.408V13.8421ZM123.276 21.7717H121.408V18.4843H123.357C125.001 18.4843 125.776 18.9031 125.776 20.0967C125.776 21.5948 124.325 21.7717 123.276 21.7717Z" fill="white"/>
<path d="M135.72 20.9251V17.4182H137.788V15.7768H135.72V13.5352H134.493L133.787 15.7768H131.907V15.8686L132.611 16.4755C133.697 17.369 133.776 17.3443 133.776 17.8437V17.4182L133.778 20.9789C133.778 23.5071 135.55 23.9617 137.127 23.5362L138.088 21.9978L138.023 21.9575C136.674 22.3538 135.72 22.3225 135.72 20.9251Z" fill="white"/>
<path d="M202.878 12.6914C202.929 12.687 202.978 12.6758 203.023 12.6579C203.068 12.6422 203.108 12.6175 203.142 12.5884C203.178 12.5571 203.205 12.519 203.223 12.4742C203.243 12.4294 203.254 12.3779 203.254 12.3152C203.254 12.1921 203.216 12.0958 203.137 12.0264C203.061 11.9592 202.938 11.9233 202.772 11.9233H202.297V13.3857H202.349V12.7004H202.772C202.772 12.7004 202.79 12.7004 202.797 12.6959H202.804L202.808 12.7004L203.249 13.3857H203.314L202.862 12.6914H202.878ZM202.716 12.6489H202.349V11.9726H202.768C202.822 11.9726 202.875 11.9771 202.929 11.986C202.983 11.995 203.028 12.0129 203.068 12.0375C203.108 12.0644 203.142 12.098 203.167 12.1406C203.191 12.1853 203.205 12.2413 203.205 12.3108C203.205 12.3847 203.189 12.4451 203.155 12.4921C203.124 12.5369 203.084 12.5705 203.034 12.5929C202.987 12.6153 202.934 12.631 202.878 12.6377C202.824 12.6444 202.772 12.6467 202.716 12.6467V12.6489Z" fill="white"/>
<path d="M203.899 12.1311C203.832 11.9788 203.74 11.8422 203.626 11.7258C203.512 11.6116 203.377 11.5198 203.223 11.4526C203.068 11.3854 202.902 11.3518 202.723 11.3518C202.544 11.3518 202.378 11.3854 202.224 11.4526C202.069 11.5198 201.932 11.6116 201.818 11.7258C201.702 11.8422 201.61 11.9788 201.545 12.1311C201.478 12.2856 201.444 12.4536 201.444 12.6305C201.444 12.8074 201.478 12.9754 201.545 13.1299C201.612 13.2822 201.704 13.4188 201.818 13.5352C201.932 13.6494 202.069 13.7412 202.224 13.8084C202.378 13.8734 202.546 13.9069 202.723 13.9069C202.9 13.9069 203.068 13.8734 203.223 13.8084C203.377 13.7412 203.514 13.6494 203.626 13.5352C203.74 13.421 203.832 13.2844 203.899 13.1299C203.966 12.9754 204 12.8074 204 12.6305C204 12.4536 203.966 12.2856 203.899 12.1311ZM203.852 13.1097C203.79 13.2575 203.7 13.3874 203.59 13.4994C203.48 13.6091 203.348 13.6987 203.2 13.7614C203.05 13.8241 202.891 13.8554 202.723 13.8554C202.555 13.8554 202.392 13.8241 202.244 13.7614C202.096 13.6987 201.964 13.6091 201.854 13.4994C201.742 13.3874 201.655 13.2575 201.592 13.1097C201.529 12.9597 201.498 12.7984 201.498 12.6283C201.498 12.4581 201.529 12.3013 201.592 12.1513C201.655 12.0012 201.744 11.8713 201.854 11.7616C201.964 11.6519 202.094 11.5623 202.244 11.4974C202.392 11.4324 202.553 11.4011 202.723 11.4011C202.893 11.4011 203.053 11.4324 203.2 11.4974C203.348 11.5623 203.48 11.6519 203.59 11.7616C203.7 11.8736 203.79 12.0035 203.852 12.1513C203.917 12.3013 203.949 12.4603 203.949 12.6283C203.949 12.7962 203.915 12.9597 203.852 13.1097Z" fill="white"/>
</svg>
