<svg width="83" height="64" viewBox="0 0 83 64" fill="none" xmlns="http://www.w3.org/2000/svg">
<g clip-path="url(#clip0_5223_7212)">
<g clip-path="url(#clip1_5223_7212)">
<g clip-path="url(#clip2_5223_7212)">
<path d="M79.4983 3.93741C79.4983 1.76519 77.9011 0.802181 75.7977 0.802181H71.4865V10.9902H74.2556V7.07066H74.4525L76.9774 10.9902H80.3452L77.1684 6.8165C78.681 6.55838 79.4983 5.34519 79.4983 3.93741ZM74.9666 5.36902H74.2556V2.83144H75.0493C75.9592 2.83144 76.7292 2.99228 76.7292 4.10222C76.7292 5.21215 75.8765 5.371 74.9685 5.371L74.9666 5.36902ZM62.8306 0.802181L59.1082 10.9902H61.9719L62.5804 9.1158H66.2791L66.8877 10.9902H69.7494L66.027 0.802181H62.8325H62.8306ZM63.2363 7.08853L64.3904 3.53235H64.4672L65.6213 7.08853H63.2363ZM50.6887 0.802181H57.4421V3.04589H53.4617V4.74753H57.2746V6.98925H53.4617V8.75046H57.4421V10.9922H50.6887V0.802181ZM42.8383 5.30349H48.2544C48.2248 6.79069 48.1146 8.05749 47.1653 9.32826C46.1214 10.7241 44.6345 11.3277 42.8521 11.3277C39.504 11.3277 37.2548 9.15353 37.2548 5.95278C37.2548 2.75202 39.435 0.462646 42.8698 0.462646C45.0599 0.462646 46.7576 1.41175 47.6754 3.31791L45.0461 4.37027C44.666 3.39932 43.8585 2.75003 42.7438 2.75003C40.9161 2.75003 40.1342 4.40998 40.1342 5.96469C40.1342 7.5194 41.0441 9.15353 42.8659 9.15353C44.0692 9.15353 44.9063 8.55786 45.0185 7.38239H42.8383V5.30349ZM27.9214 0.802181H36.0987V3.04589H33.4163V10.9902H30.6019V3.04589H27.9214V0.802181ZM19.2793 0.802181H26.0307V3.04589H22.0504V4.74753H25.8633V6.98925H22.0504V8.75046H26.0307V10.9922H19.2793V0.802181ZM13.2349 0.802181H16.004V10.9902H13.2349L8.64998 4.74753H8.62043V10.9902H5.84937V0.802181H8.61846L13.2034 7.03095H13.233V0.802181H13.2349Z" fill="white"/>
<path d="M81.759 0.802734C82.4208 0.802734 82.9993 1.31978 82.9993 2.03809C82.9991 2.75623 82.4019 3.27832 81.759 3.27832C81.1162 3.27821 80.519 2.75887 80.5188 2.03809C80.5188 1.31713 81.1108 0.802844 81.759 0.802734ZM81.762 1.02246C81.2248 1.02246 80.7463 1.45174 80.7463 2.03809C80.7465 2.62419 81.2314 3.04969 81.759 3.0498H81.761C82.2966 3.04959 82.7784 2.62276 82.7786 2.03809C82.7786 1.45311 82.2991 1.02248 81.762 1.02246ZM81.7913 1.33301C82.0257 1.33301 82.3528 1.3921 82.3528 1.72949H82.3508C82.3507 1.92101 82.2335 2.04496 82.0784 2.09668L82.3635 2.69238H81.9739L81.7336 2.15527H81.6282V2.69238H81.2747V1.33301H81.7913ZM81.6282 1.56738V1.92871H81.7561C81.8619 1.92871 81.9854 1.9006 81.9856 1.75391C81.9856 1.58929 81.8515 1.56738 81.7336 1.56738H81.6282Z" fill="white"/>
</g>
<path d="M43.8213 63.864H31.5547L21.9131 34.113L17.5195 47.3406H26.1943L20.8838 56.6814H14.418L12.0322 63.864H0L15.9824 21.2341H28.0137L43.8213 63.864ZM59.3799 47.3406L68.1455 21.2341H80.4717L64.8428 63.864H53.6396L38.2461 21.2341H50.75L59.3799 47.3406Z" fill="white"/>
</g>
</g>
<defs>
<clipPath id="clip0_5223_7212">
<rect width="83" height="64" fill="white"/>
</clipPath>
<clipPath id="clip1_5223_7212">
<rect width="83" height="64" fill="white"/>
</clipPath>
<clipPath id="clip2_5223_7212">
<rect width="77.1592" height="10.7836" fill="white" transform="translate(5.84058 0.462646)"/>
</clipPath>
</defs>
</svg>
