<svg width="78" height="32" viewBox="0 0 78 32" fill="none" xmlns="http://www.w3.org/2000/svg">
<path d="M12.1403 7.4519C5.43256 7.4519 0 12.9243 0 19.6742C0 26.424 5.43256 31.8964 12.1403 31.8964C18.8481 31.8964 24.2807 26.424 24.2807 19.6742C24.2807 12.9243 18.8481 7.4519 12.1403 7.4519ZM12.1175 29.3012C6.85074 29.3012 2.57903 25.0027 2.57903 19.6972C2.57903 14.3917 6.85074 10.0932 12.1175 10.0932C17.3842 10.0932 21.6559 14.3917 21.6559 19.6972C21.6559 25.0027 17.3842 29.3012 12.1175 29.3012Z" fill="white"/>
<path d="M26.9512 19.6742V31.9482H29.3815V19.6742C29.5531 14.3802 33.7104 10.0989 38.9657 10.0989C39 10.0989 39.0915 10.0989 39.0915 10.0989V7.4519C32.3265 7.4519 26.9512 12.9243 26.9512 19.6742Z" fill="white"/>
<path d="M53.4165 7.4519C49.5336 7.4519 46.0796 9.28754 43.8552 12.1417V0H41.2761V19.7777C41.3333 26.4816 46.743 31.8964 53.4165 31.8964C60.0899 31.8964 65.5568 26.424 65.5568 19.6742C65.5568 12.9243 60.1242 7.4519 53.4165 7.4519ZM53.3936 29.3012C48.1269 29.3012 43.8552 25.0027 43.8552 19.6972C43.8552 14.3917 48.1269 10.0931 53.3936 10.0931C58.6603 10.0931 62.932 14.3917 62.932 19.6972C62.932 25.0027 58.6603 29.3012 53.3936 29.3012Z" fill="white"/>
<path d="M69.4966 3.4929C70.4516 3.4929 71.2293 2.7103 71.2293 1.74933C71.2293 0.788347 70.4573 0 69.4966 0C68.5359 0 67.7639 0.782593 67.7639 1.74357C67.7639 2.70455 68.5416 3.48714 69.4966 3.48714V3.4929Z" fill="white"/>
<path d="M70.7834 7.4519H68.2043V32H70.7834V7.4519Z" fill="white"/>
<path d="M73.8772 30.4061C73.8772 30.1817 73.9172 29.9745 74.003 29.7789C74.0888 29.5832 74.2031 29.4106 74.3461 29.2667C74.4891 29.1229 74.6606 29.0078 74.8551 28.9215C75.0495 28.8351 75.2554 28.7949 75.4784 28.7949C75.7014 28.7949 75.9073 28.8351 76.1017 28.9215C76.2961 29.0078 76.4677 29.1229 76.6106 29.2667C76.7536 29.4106 76.8737 29.5832 76.9537 29.7789C77.0395 29.9745 77.0795 30.1817 77.0795 30.4061C77.0795 30.6305 77.0395 30.8377 76.9537 31.0276C76.868 31.2232 76.7536 31.3901 76.6106 31.5339C76.4677 31.6778 76.2961 31.7929 76.1017 31.8734C75.9073 31.954 75.7014 32 75.4784 32C75.2554 32 75.0495 31.9598 74.8551 31.8734C74.6606 31.7929 74.4891 31.6778 74.3461 31.5339C74.2031 31.3901 74.0831 31.2232 74.003 31.0276C73.9172 30.8319 73.8772 30.6247 73.8772 30.4061ZM74.1288 30.4061C74.1288 30.5902 74.1631 30.7629 74.2317 30.9297C74.3004 31.0966 74.3976 31.2405 74.5177 31.3671C74.6378 31.4937 74.7807 31.5915 74.9465 31.6605C75.1124 31.7296 75.2897 31.7641 75.4726 31.7641C75.6556 31.7641 75.8386 31.7296 75.9987 31.6605C76.1646 31.5915 76.3075 31.4937 76.4276 31.3671C76.5477 31.2405 76.6449 31.0966 76.7193 30.9297C76.7879 30.7629 76.8222 30.5902 76.8222 30.4061C76.8222 30.2219 76.7879 30.0378 76.7193 29.8767C76.6507 29.7098 76.5534 29.5659 76.4276 29.4451C76.3075 29.3243 76.1646 29.2264 75.9987 29.1516C75.8329 29.0826 75.6556 29.0481 75.4726 29.0481C75.2897 29.0481 75.1067 29.0826 74.9465 29.1516C74.7807 29.2207 74.6378 29.3185 74.5177 29.4451C74.3976 29.5717 74.3004 29.7098 74.2317 29.8767C74.1631 30.0436 74.1288 30.2219 74.1288 30.4061ZM74.8551 29.4911H75.4898C75.5756 29.4911 75.6556 29.5026 75.7357 29.5199C75.8158 29.5372 75.8844 29.5717 75.953 29.612C76.0216 29.6523 76.0674 29.7098 76.1017 29.7731C76.1417 29.8422 76.1589 29.9227 76.1589 30.0205C76.1589 30.1529 76.1188 30.2622 76.0445 30.3428C75.9702 30.4233 75.8672 30.4809 75.7414 30.5097L76.2275 31.3038H75.8329L75.4097 30.5442H75.1753V31.3038H74.8493V29.4911H74.8551ZM75.4441 30.2852C75.5355 30.2852 75.627 30.268 75.7128 30.2335C75.7986 30.1989 75.8386 30.1241 75.8386 30.0148C75.8386 29.917 75.7986 29.8479 75.7243 29.8191C75.6442 29.7846 75.5641 29.7673 75.4841 29.7673H75.1867V30.2852H75.4498H75.4441Z" fill="white"/>
</svg>
