<?xml version="1.0" encoding="UTF-8"?>
<svg id="background_x5F_DNP" xmlns="http://www.w3.org/2000/svg" version="1.1" viewBox="0 0 835.6 627.7">
  <!-- Generator: Adobe Illustrator 30.3.0, SVG Export Plug-In . SVG Version: 2.1.3 Build 182)  -->
  <defs>
    <style>
      .st0 {
        fill: #fff;
      }
    </style>
  </defs>
  <path class="st0" d="M554.4,242.3c0-1.2-1.2-1.4-2-1.4h-1.9v4.8h1.3v-1.9h.4l.9,1.9h1.4l-1-2.1c.6-.2,1-.6,1-1.3h-.1ZM552.3,243h-.5v-1.3h.4c.4,0,.9,0,.9.7s-.4.6-.8.6h0ZM552.3,239c-2.3,0-4.5,1.8-4.5,4.4s2.2,4.4,4.5,4.4,4.5-1.8,4.5-4.4-2.1-4.4-4.5-4.4ZM552.3,247c-1.9,0-3.7-1.5-3.7-3.6s1.7-3.6,3.7-3.6,3.7,1.5,3.7,3.6-1.7,3.6-3.7,3.6h0ZM543.9,250.2c0-7.8-5.7-11.2-13.3-11.2h-15.5v36.4h10v-14h.7l9.1,14h12.1l-11.4-14.9c5.4-.9,8.4-5.3,8.4-10.3h0ZM527.6,255.3h-2.6v-9.1h2.9c3.3,0,6,.6,6,4.5s-3.1,4.5-6.3,4.5h0ZM483.9,239l-13.4,36.4h10.3l2.2-6.7h13.3l2.2,6.7h10.3l-13.4-36.4h-11.5ZM485.3,261.5l4.1-12.7h.3l4.1,12.7h-8.6.1ZM440.2,239h24.3v8h-14.3v6.1h13.7v8h-13.7v6.3h14.3v8h-24.3v-36.4ZM411.9,255.1h19.5c-.1,5.3-.5,9.8-3.9,14.4-3.8,5-9.1,7.1-15.5,7.1-12.1,0-20.1-7.8-20.1-19.2s7.8-19.6,20.2-19.6,14,3.4,17.3,10.2l-9.5,3.8c-1.4-3.5-4.3-5.8-8.3-5.8-6.6,0-9.4,5.9-9.4,11.5s3.3,11.4,9.8,11.4,7.3-2.1,7.7-6.3h-7.8v-7.4h0ZM358.3,239h29.4v8h-9.7v28.4h-10.1v-28.3h-9.7v-8h.1ZM327.2,239h24.3v8h-14.3v6.1h13.7v8h-13.7v6.3h14.3v8h-24.3v-36.4ZM305.4,239h10v36.4h-10l-16.5-22.3h-.1v22.3h-10v-36.4h10l16.5,22.2h.1v-22.2h0Z"/>
  <polygon class="st0" points="120.2 370 120.2 356.9 154.6 356.9 154.6 338.8 120.2 338.8 120.2 327.3 158.1 327.3 158.1 308.7 116 308.7 116 308.8 97.8 308.8 97.8 388.6 116 388.6 120.2 388.6 158.8 388.6 158.8 370 120.2 370"/>
  <polygon class="st0" points="273 308.7 250.6 308.7 250.6 351 216.9 308.8 201.3 308.8 201.3 388.6 223.7 388.6 223.7 347.7 256.2 388.6 256.2 388.5 273 388.5 273 308.7"/>
  <path class="st0" d="M354.7,341.5v17.9l20,.6c-.2.4-.3.7-.4,1.1-1.5,2.9-3.6,5.2-6.3,6.7-2.8,1.6-6,2.4-10.2,2.4s-7.8-.9-11-2.7c-3.1-1.8-5.6-4.3-7.3-7.6-1.8-3.3-2.6-7-2.6-11.4s.9-8.1,2.9-11.3c1.9-3.2,4.5-5.7,7.7-7.5s6.8-2.6,10.8-2.6,7.8.8,10.8,2.4,5.9,4,8.6,7.2l15.1-15.1c-3.7-4.3-8.4-7.8-14.3-10.3s-12.5-3.8-19.9-3.8-11.9,1-17.3,3.1-10.1,4.9-14.2,8.6-7.2,8-9.5,13.1c-2.3,5-3.4,10.6-3.4,16.5s1.1,11.4,3.2,16.4c2.2,5,5.2,9.4,9.1,13.1s8.5,6.6,13.8,8.7,11,3.1,17.2,3.1h0c8.3,0,15.6-1.8,21.8-5.3,6.2-3.5,11.1-8.6,14.6-15.4,3.5-6.7,5.2-14.9,5.2-24.4v-3.4h-44.4Z"/>
  <path class="st0" d="M592.3,341.5v17.9l20,.6c-.2.4-.3.7-.4,1.1-1.5,2.9-3.6,5.2-6.3,6.7-2.8,1.6-6,2.4-10.2,2.4s-7.8-.9-11-2.7c-3.1-1.8-5.6-4.3-7.3-7.6-1.8-3.3-2.6-7-2.6-11.4s.9-8.1,2.9-11.3c1.9-3.2,4.5-5.7,7.7-7.5s6.8-2.6,10.8-2.6,7.8.8,10.8,2.4,5.9,4,8.6,7.2l15.1-15.1c-3.7-4.3-8.4-7.8-14.3-10.3-5.9-2.5-12.5-3.8-19.9-3.8s-11.9,1-17.3,3.1c-5.4,2.1-10.1,4.9-14.2,8.6-4.1,3.7-7.2,8-9.5,13.1-2.3,5-3.4,10.6-3.4,16.5s1.1,11.4,3.2,16.4c2.2,5,5.2,9.4,9.1,13.1,3.9,3.7,8.5,6.6,13.8,8.7s11,3.1,17.2,3.1h0c8.3,0,15.6-1.8,21.8-5.3s11.1-8.6,14.6-15.4c3.5-6.7,5.2-14.9,5.2-24.4v-3.4h-44.4Z"/>
  <polygon class="st0" points="699.2 370 699.2 356.9 733.6 356.9 733.6 338.8 699.2 338.8 699.2 327.3 737.1 327.3 737.1 308.7 694.9 308.7 694.9 308.8 676.8 308.8 676.8 388.6 694.9 388.6 699.2 388.6 737.7 388.6 737.7 370 699.2 370"/>
  <path class="st0" d="M492.2,388.6h23.2l-29.9-79.5h-22.8l-30.2,79.5h22.8l4.5-13.4h12.2l10.1-17.4h-16.4l8.3-24.7,18.3,55.5h-.1Z"/>
</svg>