<svg width="142" height="34" viewBox="0 0 142 34" fill="none" xmlns="http://www.w3.org/2000/svg">
<path d="M138.624 1.93627C138.624 1.68781 138.378 1.64539 138.202 1.64539H137.813V2.64833H138.08V2.2514H138.159L138.339 2.64833H138.633L138.418 2.20898C138.533 2.17262 138.624 2.07869 138.624 1.9393V1.93627ZM138.178 2.08172H138.08V1.81507H138.159C138.247 1.81507 138.348 1.83022 138.348 1.95143C138.348 2.06051 138.254 2.08172 138.175 2.08172H138.178ZM138.178 1.25149C137.692 1.25149 137.245 1.63024 137.245 2.16353C137.245 2.69681 137.695 3.07859 138.178 3.07859C138.661 3.07859 139.11 2.69378 139.11 2.16353C139.11 1.63327 138.676 1.25149 138.178 1.25149ZM138.178 2.90891C137.78 2.90891 137.415 2.59379 137.415 2.1605C137.415 1.7272 137.774 1.41208 138.178 1.41208C138.582 1.41208 138.94 1.73023 138.94 2.1605C138.94 2.59076 138.579 2.90891 138.175 2.90891H138.178ZM136.425 3.58157C136.425 1.96658 135.225 1.25149 133.646 1.25149H130.407V8.8235H132.485V5.91166H132.634L134.529 8.8235H137.06L134.675 5.72076C135.811 5.52987 136.425 4.62693 136.425 3.58157ZM133.023 4.64511H132.488V2.76044H133.084C133.767 2.76044 134.344 2.87861 134.344 3.70277C134.344 4.52694 133.703 4.64511 133.023 4.64511ZM123.91 1.25149L121.112 8.8235H123.263L123.719 7.42969H126.495L126.951 8.8235H129.098L126.304 1.25149H123.904H123.91ZM124.214 5.92378L125.08 3.2816H125.137L126.003 5.92378H124.214ZM114.791 1.25149H119.864V2.918H116.875V4.18152H119.739V5.84803H116.875V7.15699H119.864V8.8235H114.791V1.25149ZM108.895 4.59663H112.963C112.941 5.70258 112.856 6.64492 112.146 7.58725C111.362 8.62352 110.247 9.07196 108.904 9.07196C106.389 9.07196 104.7 7.45696 104.7 5.0784C104.7 2.69984 106.338 1 108.917 1C110.56 1 111.836 1.70599 112.525 3.12101L110.551 3.90276C110.265 3.18161 109.658 2.69984 108.822 2.69984C107.449 2.69984 106.863 3.93306 106.863 5.08749C106.863 6.24193 107.547 7.45696 108.917 7.45696C109.822 7.45696 110.448 7.01458 110.533 6.14194H108.895V4.59663ZM97.6927 1.25149H103.835V2.918H101.821V8.82047H99.7066V2.92103H97.6927V1.25149ZM91.2014 1.25149H96.2711V2.918H93.2821V4.18152H96.1466V5.84803H93.2821V7.15699H96.2711V8.8235H91.2014V1.25149ZM86.6602 1.25149H88.7409V8.8235H86.6602L83.2186 4.18455H83.1973V8.8235H81.1166V1.25149H83.1973L86.6419 5.88136H86.6632V1.25149H86.6602Z" fill="black"/>
<path d="M0.5 32.7182V16.1077H5.17788V32.7182H0.5Z" fill="black"/>
<path d="M14.5791 32.7182V16.1076H17.8536L19.257 19.6073V32.7182H14.5791ZM26.0399 32.7182L16.3804 20.6102L17.8536 16.1076L27.5131 28.2156L26.0399 32.7182ZM26.0399 32.7182L24.8704 29.0307V16.1046H29.5483V32.7152H26.0399V32.7182Z" fill="black"/>
<path d="M44.3323 33C42.9137 33 41.6774 32.7939 40.6264 32.3818C39.5754 31.9698 38.6034 31.3122 37.7134 30.4093L40.6355 27.4944C41.2431 28.0701 41.884 28.5095 42.5523 28.8125C43.2236 29.1155 43.9404 29.267 44.7029 29.267C45.3408 29.267 45.8268 29.17 46.1518 28.9761C46.4798 28.7822 46.6439 28.5125 46.6439 28.1701C46.6439 27.8277 46.5042 27.5429 46.2217 27.3187C45.9392 27.0945 45.5716 26.8914 45.1099 26.7127C44.6512 26.5339 44.1439 26.3521 43.5911 26.1642C43.0383 25.9764 42.4885 25.7522 41.9417 25.4885C41.3949 25.2249 40.8937 24.9007 40.432 24.5189C39.9733 24.1372 39.6028 23.6645 39.3203 23.0948C39.0408 22.5282 38.898 21.8313 38.898 21.0072C38.898 19.9345 39.1562 19.0073 39.6696 18.2317C40.1829 17.4529 40.9089 16.8591 41.8445 16.447C42.7801 16.0349 43.8797 15.8289 45.1433 15.8289C46.4069 15.8289 47.5491 16.0258 48.6153 16.4227C49.6845 16.8197 50.5684 17.3833 51.2701 18.1135L48.3237 21.0284C47.8103 20.5314 47.2939 20.1618 46.7806 19.9194C46.2672 19.68 45.7053 19.5588 45.0978 19.5588C44.6148 19.5588 44.229 19.6376 43.9404 19.7921C43.6519 19.9467 43.5091 20.18 43.5091 20.4921C43.5091 20.8193 43.6488 21.0859 43.9313 21.298C44.2108 21.5071 44.5814 21.698 45.0431 21.8707C45.5017 22.0434 46.009 22.2192 46.5619 22.407C47.1147 22.5949 47.6645 22.8161 48.2113 23.0706C48.758 23.3281 49.2592 23.6554 49.721 24.0493C50.1796 24.4462 50.5502 24.9401 50.8327 25.531C51.1122 26.1218 51.2549 26.8369 51.2549 27.6762C51.2549 29.373 50.6505 30.682 49.4415 31.6062C48.2325 32.5303 46.5285 32.9939 44.3323 32.9939V33Z" fill="black"/>
<path d="M59.8394 32.7182V16.1077H64.5172V32.7182H59.8394Z" fill="black"/>
<path d="M82.1292 33.0001C80.8351 33.0001 79.6383 32.7849 78.5387 32.3577C77.4391 31.9305 76.4792 31.3275 75.6621 30.5488C74.845 29.7701 74.2071 28.8611 73.7545 27.8187C73.3019 26.7764 73.0771 25.6401 73.0771 24.413C73.0771 23.1858 73.3141 22.0253 73.791 20.983C74.2679 19.9407 74.9301 19.0347 75.7776 18.2651C76.6251 17.4955 77.6123 16.8955 78.7362 16.4683C79.8601 16.0411 81.0599 15.8259 82.3388 15.8259C83.8818 15.8259 85.267 16.0895 86.4911 16.6198C87.7153 17.15 88.7086 17.8651 89.474 18.765L86.315 21.9132C85.7378 21.2436 85.1364 20.7467 84.5137 20.4194C83.891 20.0922 83.1407 19.9286 82.2689 19.9286C81.4427 19.9286 80.6924 20.1104 80.0241 20.477C79.3528 20.8436 78.8212 21.3587 78.4233 22.0284C78.0254 22.698 77.8279 23.4828 77.8279 24.3857C77.8279 25.2887 78.0102 26.0765 78.3777 26.7552C78.7453 27.4309 79.2556 27.9581 79.9087 28.3308C80.5648 28.7035 81.3272 28.8914 82.2021 28.8914C83.0769 28.8914 83.7543 28.7277 84.3314 28.4005C84.9086 28.0733 85.349 27.6066 85.6528 27.0006C85.9565 26.3946 86.1084 25.6795 86.1084 24.8554L89.3131 26.8855L81.5702 26.6522V22.9192H90.8106V23.6191C90.8106 25.6098 90.4491 27.3067 89.7231 28.7065C88.9971 30.1064 87.9856 31.173 86.6825 31.9032C85.3794 32.6334 83.8636 33.0001 82.1322 33.0001H82.1292Z" fill="black"/>
<path d="M99.2034 32.7182V16.1077H103.881V32.7182H99.2034ZM109.261 32.7182V16.1077H113.939V32.7182H109.261Z" fill="black"/>
<path d="M122.334 20.074V16.1077H137V20.074H122.334ZM127.316 32.7182V16.1077H131.994V32.7182H127.316Z" fill="black"/>
<path d="M101.752 26.1855V22.3131H109.27L106.983 26.1855H101.752Z" fill="black"/>
</svg>
