<svg width="89" height="64" viewBox="0 0 89 64" fill="none" xmlns="http://www.w3.org/2000/svg">
<g clip-path="url(#clip0_5223_7089)">
<g clip-path="url(#clip1_5223_7089)">
<path d="M61.9516 38.6931L56.35 29.0386H45.1485L45.1501 29.0402L45.1485 29.0386H33.9469L39.5485 38.6947H50.7501L50.7484 38.6931H50.7501H61.9516Z" fill="black"/>
<path d="M39.5485 19.3825L45.1485 9.72793H33.9469V9.72632L28.3453 19.3825H28.3486H28.3453L22.7454 29.0386H33.9469L39.5485 19.3825H39.5453H39.5469H39.5485Z" fill="black"/>
<path d="M61.9515 19.3824L56.3499 9.7263V9.72791L56.3483 9.7263H56.3499L50.7499 0.0717773L45.1483 9.7263H45.1515L45.1483 9.72791L50.7499 19.3824H50.7548H50.7499L56.3499 29.0386L61.9515 19.3824H61.9466H61.9515Z" fill="black"/>
<g clip-path="url(#clip2_5223_7089)">
<path d="M62.1998 49.2535C62.1998 48.2275 61.43 47.7727 60.4163 47.7727H58.3385V52.5848H59.6731V50.7335H59.768L60.9849 52.5848H62.608L61.0769 50.6134C61.8059 50.4915 62.1998 49.9185 62.1998 49.2535ZM60.0157 49.9297H59.6731V48.7312H60.0556C60.4941 48.7312 60.8653 48.8071 60.8653 49.3314C60.8653 49.8556 60.4543 49.9307 60.0167 49.9307L60.0157 49.9297ZM54.1668 47.7727L52.3728 52.5848H53.7529L54.0462 51.6995H55.8288L56.1221 52.5848H57.5013L55.7073 47.7727H54.1677H54.1668ZM54.3623 50.7419L54.9185 49.0622H54.9555L55.5118 50.7419H54.3623ZM48.3149 47.7727H51.5697V48.8324H49.6514V49.6362H51.4891V50.695H49.6514V51.5269H51.5697V52.5857H48.3149V47.7727ZM44.5314 49.8988H47.1417C47.1275 50.6012 47.0743 51.1996 46.6168 51.7998C46.1137 52.4591 45.3971 52.7442 44.5381 52.7442C42.9244 52.7442 41.8404 51.7173 41.8404 50.2055C41.8404 48.6936 42.8912 47.6123 44.5466 47.6123C45.6021 47.6123 46.4203 48.0606 46.8627 48.9609L45.5955 49.458C45.4123 48.9994 45.0231 48.6927 44.4859 48.6927C43.605 48.6927 43.2282 49.4767 43.2282 50.2111C43.2282 50.9454 43.6667 51.7173 44.5447 51.7173C45.1247 51.7173 45.5281 51.4359 45.5822 50.8807H44.5314V49.8988ZM37.3422 47.7727H41.2832V48.8324H39.9904V52.5848H38.634V48.8324H37.3422V47.7727ZM33.1771 47.7727H36.4309V48.8324H34.5126V49.6362H36.3503V50.695H34.5126V51.5269H36.4309V52.5857H33.1771V47.7727ZM30.264 47.7727H31.5985V52.5848H30.264L28.0542 49.6362H28.04V52.5848H26.7045V47.7727H28.039L30.2488 50.7147H30.263V47.7727H30.264Z" fill="black"/>
<path d="M63.2894 47.7732C63.6083 47.7732 63.887 48.017 63.8871 48.3562C63.8871 48.6955 63.5993 48.9421 63.2894 48.9421C62.9796 48.942 62.6918 48.6967 62.6918 48.3562C62.6919 48.0158 62.9771 47.7733 63.2894 47.7732ZM63.2914 47.8767C63.0326 47.8767 62.8013 48.0794 62.8011 48.3562C62.8011 48.6332 63.036 48.8347 63.2904 48.8347C63.5486 48.8346 63.7806 48.6325 63.7806 48.3562C63.7805 48.0802 63.55 47.877 63.2914 47.8767ZM63.3051 48.0242C63.418 48.0242 63.5754 48.0515 63.5756 48.2107H63.5746C63.5746 48.3013 63.5176 48.3601 63.4427 48.3845L63.5804 48.6658H63.3929L63.2777 48.4119H63.226V48.6658H63.056V48.0242H63.3051ZM63.226 48.1345V48.3054H63.2885C63.3394 48.3054 63.3988 48.2917 63.3988 48.2224C63.3988 48.1449 63.3344 48.1346 63.2777 48.1345H63.226Z" fill="black"/>
</g>
<path d="M2.03764 60.9819H5.14874V59.3476H2.03764V58.3198H5.46389V56.6453H2.03764H1.653H0.0109863V63.8274H1.653H2.03764H5.5253V62.1529H2.03764V60.9819Z" fill="black"/>
<path d="M13.9874 60.4479L10.9474 56.6453H9.52844V63.8274H11.5551V60.1503L14.4933 63.8274H16.0141V56.6453H13.9874V60.4479Z" fill="black"/>
<path d="M31.1204 60.9819H34.2315V59.3476H31.1204V58.3198H34.5451V56.6453H31.1204H30.7342H29.0922V63.8274H30.7342H31.1204H34.6065V62.1529H31.1204V60.9819Z" fill="black"/>
<path d="M43.0897 60.689C43.4808 60.5072 43.7879 60.2547 44.0061 59.933C44.2259 59.6097 44.3358 59.2333 44.3358 58.8038C44.3358 58.3743 44.2275 57.9963 44.0109 57.6746C43.7944 57.3513 43.497 57.0987 43.1188 56.9186C42.7406 56.7368 42.301 56.6467 41.8016 56.6467H38.6097V63.8289H40.6364V60.9641H40.6639L42.5014 63.8289H44.8012L42.6873 60.8354C42.8279 60.7952 42.962 60.7501 43.0881 60.6922L43.0897 60.689ZM41.4784 58.0976C41.7548 58.0976 41.9665 58.1652 42.1119 58.2987C42.2574 58.4338 42.3301 58.6108 42.3301 58.8327C42.3301 59.0547 42.2574 59.2333 42.1119 59.3668C41.9665 59.5019 41.7548 59.5679 41.4784 59.5679H40.6364V58.0944H41.4784V58.0976Z" fill="black"/>
<path d="M53.0985 56.9219C52.7236 56.737 52.3034 56.6453 51.8363 56.6453H48.4908V63.8274H50.5175V61.3052H51.8347C52.3001 61.3052 52.7219 61.2135 53.0969 61.0286C53.4718 60.8436 53.7692 60.5766 53.989 60.2259C54.2088 59.8768 54.3187 59.4586 54.3187 58.9744C54.3187 58.4903 54.2088 58.0656 53.989 57.7182C53.7692 57.3723 53.4718 57.1069 53.0969 56.9219H53.0985ZM52.1902 59.4651C52.1094 59.5953 52.0027 59.6935 51.8702 59.7578C51.7393 59.8222 51.5955 59.8543 51.4387 59.8543H50.5159V58.0994H51.4387C51.5939 58.0994 51.7377 58.1316 51.8702 58.1959C52.0027 58.2602 52.1078 58.3568 52.1902 58.4887C52.271 58.619 52.3114 58.783 52.3114 58.9777C52.3114 59.1723 52.271 59.3364 52.1902 59.4667V59.4651Z" fill="black"/>
<path d="M62.619 60.689C63.0101 60.5072 63.3172 60.2547 63.5354 59.933C63.7552 59.6097 63.8651 59.2333 63.8651 58.8038C63.8651 58.3743 63.7568 57.9963 63.5402 57.6746C63.3237 57.3513 63.0263 57.0987 62.6481 56.9186C62.2699 56.7368 61.8303 56.6467 61.3309 56.6467H58.139V63.8289H60.1657V60.9641H60.1932L62.0307 63.8289H64.3305L62.2166 60.8354C62.3572 60.7952 62.4913 60.7501 62.6174 60.6922L62.619 60.689ZM61.0077 58.0976C61.2841 58.0976 61.4958 58.1652 61.6412 58.2987C61.7867 58.4338 61.8594 58.6108 61.8594 58.8327C61.8594 59.0547 61.7867 59.2333 61.6412 59.3668C61.4958 59.5019 61.2841 59.5679 61.0077 59.5679H60.1657V58.0944H61.0077V58.0976Z" fill="black"/>
<path d="M70.0486 56.6453H68.022V63.8274H70.0486V56.6453Z" fill="black"/>
<path d="M76.4486 58.2393C76.5731 58.1717 76.7412 58.1379 76.9496 58.1379C77.2131 58.1379 77.4571 58.1894 77.6801 58.294C77.9032 58.3985 78.1262 58.5578 78.3492 58.7733L79.626 57.5122C79.3222 57.1969 78.9391 56.9524 78.4753 56.7803C78.0131 56.6082 77.5105 56.5229 76.9707 56.5229C76.4309 56.5229 75.9476 56.6114 75.542 56.79C75.1363 56.9685 74.8228 57.2259 74.5998 57.5621C74.3767 57.8983 74.2652 58.2988 74.2652 58.7621C74.2652 59.1192 74.3266 59.4199 74.4478 59.6644C74.5691 59.9106 74.7307 60.1148 74.9295 60.2805C75.1282 60.4446 75.3464 60.5845 75.5824 60.6988C75.8183 60.813 76.0575 60.9111 76.2967 60.9915C76.5359 61.0719 76.7557 61.1508 76.9561 61.228C77.1549 61.3052 77.3165 61.3936 77.4377 61.4902C77.5589 61.5883 77.6204 61.7105 77.6204 61.8585C77.6204 62.0065 77.5492 62.1223 77.407 62.206C77.2648 62.2896 77.0563 62.3314 76.7783 62.3314C76.447 62.3314 76.1367 62.2655 75.8458 62.1352C75.5549 62.0049 75.2785 61.8135 75.0151 61.5658L73.748 62.8269C74.1327 63.2177 74.5545 63.5008 75.0103 63.6794C75.466 63.8579 76.0026 63.9464 76.6167 63.9464C77.5703 63.9464 78.3072 63.747 78.8309 63.3464C79.3545 62.9459 79.6163 62.3797 79.6163 61.6462C79.6163 61.2827 79.5549 60.9738 79.4337 60.7181C79.3125 60.4623 79.1509 60.2484 78.9521 60.0778C78.7533 59.9057 78.5351 59.7658 78.2991 59.6548C78.0632 59.5438 77.824 59.4473 77.5848 59.3669C77.3456 59.2864 77.1258 59.2092 76.9254 59.1352C76.7266 59.0612 76.565 58.9792 76.4438 58.8875C76.3226 58.7974 76.2612 58.68 76.2612 58.5401C76.2612 58.4001 76.3242 58.3052 76.4486 58.2377V58.2393Z" fill="black"/>
<path d="M85.5248 62.1529V60.9819H88.6359V59.3476H85.5248V58.3198H88.9511V56.6453H85.5248H85.1402H83.4982V63.8274H85.1402H85.5248H89.0109V62.1529H85.5248Z" fill="black"/>
<path d="M25.3393 56.6453H23.7619H21.7352H21.572H18.8601L19.8573 58.3648H21.7352V63.8274H23.7619V58.3648H26.3381L25.3393 56.6453Z" fill="black"/>
</g>
</g>
<defs>
<clipPath id="clip0_5223_7089">
<rect width="89" height="64" fill="white"/>
</clipPath>
<clipPath id="clip1_5223_7089">
<rect width="89" height="64" fill="white"/>
</clipPath>
<clipPath id="clip2_5223_7089">
<rect width="37.1872" height="5.09343" fill="white" transform="translate(26.7001 47.6123)"/>
</clipPath>
</defs>
</svg>
