<svg width="102" height="32" viewBox="0 0 102 32" fill="none" xmlns="http://www.w3.org/2000/svg">
<g clip-path="url(#clip0_5223_7675)">
<g clip-path="url(#clip1_5223_7675)">
<path d="M95.3372 0.727059C95.3372 0.534118 95.1475 0.501176 95.0117 0.501176H94.7119V1.28H94.918V0.971765H94.9789L95.1171 1.28H95.3443L95.178 0.938824C95.267 0.910588 95.3372 0.837647 95.3372 0.729412V0.727059ZM94.9906 0.84H94.9157V0.632941H94.9766C95.0445 0.632941 95.1218 0.644706 95.1218 0.738824C95.1218 0.823529 95.0492 0.84 94.9883 0.84H94.9906ZM94.993 0.195294C94.6183 0.195294 94.274 0.489412 94.274 0.903529C94.274 1.31765 94.6206 1.61412 94.993 1.61412C95.3653 1.61412 95.7119 1.31529 95.7119 0.903529C95.7119 0.491765 95.377 0.195294 94.993 0.195294ZM94.993 1.48235C94.6862 1.48235 94.4052 1.23765 94.4052 0.901176C94.4052 0.564706 94.6815 0.32 94.993 0.32C95.3044 0.32 95.5808 0.567059 95.5808 0.901176C95.5808 1.23529 95.3021 1.48235 94.9906 1.48235H94.993ZM93.6417 2.00471C93.6417 0.750588 92.7166 0.195294 91.4988 0.195294H89.0023V6.07529H90.6042V3.81412H90.719L92.1803 6.07529H94.1311L92.2927 3.66588C93.1686 3.51765 93.6417 2.81647 93.6417 2.00471ZM91.0164 2.83059H90.6042V1.36706H91.0632C91.5902 1.36706 92.0351 1.45882 92.0351 2.09882C92.0351 2.73882 91.541 2.83059 91.0164 2.83059ZM83.9906 0.195294L81.8337 6.07529H83.4918L83.8431 4.99294H85.9836L86.3349 6.07529H87.9906L85.8361 0.195294H83.9859H83.9906ZM84.2248 3.82353L84.8923 1.77176H84.9368L85.6042 3.82353H84.2248ZM76.9602 0.195294H80.8712V1.48941H78.5667V2.47059H80.7752V3.76471H78.5667V4.78118H80.8712V6.07529H76.9602V0.195294ZM72.4145 2.79294H75.5504C75.534 3.65176 75.4684 4.38353 74.9204 5.11529C74.3162 5.92 73.4567 6.26824 72.4215 6.26824C70.4824 6.26824 69.1803 5.01412 69.1803 3.16706C69.1803 1.32 70.4426 0 72.4309 0C73.6979 0 74.6815 0.548235 75.2131 1.64706L73.6909 2.25412C73.4707 1.69412 73.0023 1.32 72.3583 1.32C71.2998 1.32 70.8478 2.27765 70.8478 3.17412C70.8478 4.07059 71.3747 5.01412 72.4309 5.01412C73.1288 5.01412 73.6112 4.67059 73.6768 3.99294H72.4145V2.79294ZM63.7775 0.195294H68.5129V1.48941H66.9602V6.07294H65.3302V1.49176H63.7775V0.195294ZM58.7752 0.195294H62.6838V1.48941H60.3794V2.47059H62.5878V3.76471H60.3794V4.78118H62.6838V6.07529H58.7752V0.195294ZM55.274 0.195294H56.8782V6.07529H55.274L52.6206 2.47294H52.6042V6.07529H51V0.195294H52.6042L55.26 3.79059H55.2763V0.195294H55.274Z" fill="white"/>
<path d="M25.5503 24.7435V11.8447H29.1569V24.7435H25.5503ZM28.4707 19.5976V17.0965H30.6533C31.1451 17.0965 31.5222 16.9765 31.7798 16.7341C32.0374 16.4918 32.1686 16.1718 32.1686 15.7741C32.1686 15.3765 32.0398 15.0565 31.7798 14.8141C31.5222 14.5718 31.1451 14.4518 30.6533 14.4518H28.4707V11.8423H31.2295C32.1194 11.8423 32.8992 12.0047 33.5737 12.3318C34.2482 12.6588 34.7751 13.1106 35.1615 13.6918C35.5456 14.2706 35.7376 14.9482 35.7376 15.72C35.7376 16.4918 35.5433 17.1694 35.1522 17.7482C34.7611 18.3271 34.2177 18.7812 33.5198 19.1059C32.822 19.4329 31.9999 19.5953 31.0491 19.5953H28.4707V19.5976ZM32.4754 24.7435L28.9765 19.2353L32.2224 18.5294L36.569 24.7435H32.4754Z" fill="white"/>
<path d="M42.843 24.7436V11.8447H45.4589L50.2388 18.8753H49.103L53.8641 11.8447H56.48V24.7436H52.9086V17.7859L53.4308 17.9318L50.8149 21.7012H48.5058L45.9086 17.9318L46.4144 17.7859V24.7436H42.843Z" fill="white"/>
<path d="M70.0726 24.9976C69.0632 24.9976 68.1335 24.8282 67.2857 24.4894C66.438 24.1506 65.6979 23.68 65.0679 23.0753C64.438 22.4706 63.9461 21.76 63.5972 20.9365C63.2483 20.1153 63.075 19.2282 63.075 18.2729C63.075 17.3176 63.2459 16.4188 63.5878 15.6094C63.9298 14.8 64.4145 14.0941 65.0398 13.4894C65.6651 12.8847 66.4005 12.4188 67.2483 12.0847C68.096 11.7529 69.0234 11.5859 70.0351 11.5859C71.0468 11.5859 71.9743 11.7529 72.822 12.0847C73.6698 12.4165 74.4052 12.8847 75.0305 13.4894C75.6558 14.0941 76.1405 14.8023 76.4824 15.6188C76.8244 16.4353 76.9953 17.3247 76.9953 18.2918C76.9953 19.2588 76.8244 20.1318 76.4824 20.9459C76.1405 21.7623 75.6558 22.4753 75.0305 23.0847C74.4052 23.6941 73.6721 24.1647 72.8314 24.4988C71.9906 24.8306 71.0703 24.9976 70.0726 24.9976ZM70.0375 21.8094C70.7096 21.8094 71.2928 21.6635 71.7869 21.3741C72.2787 21.0847 72.6581 20.6729 72.9227 20.1412C73.1874 19.6094 73.3185 18.9882 73.3185 18.2753C73.3185 17.7435 73.2436 17.2635 73.0937 16.8353C72.9438 16.4071 72.7237 16.0376 72.4356 15.7294C72.1476 15.4212 71.8009 15.1859 71.3981 15.0235C70.9953 14.8612 70.541 14.7788 70.0375 14.7788C69.363 14.7788 68.7799 14.92 68.2881 15.2047C67.7939 15.4894 67.4169 15.8941 67.1522 16.4188C66.8876 16.9435 66.7565 17.5623 66.7565 18.2753C66.7565 18.8188 66.8314 19.3082 66.9813 19.7435C67.1312 20.1788 67.3513 20.5506 67.6394 20.8588C67.9274 21.1671 68.274 21.4023 68.6768 21.5647C69.0796 21.7271 69.534 21.8094 70.0375 21.8094Z" fill="white"/>
<path d="M83.5972 24.7435V11.8447H87.2037V24.7435H83.5972ZM86.5199 19.5976V17.0965H88.7026C89.1944 17.0965 89.5714 16.9765 89.829 16.7341C90.0866 16.4918 90.2178 16.1718 90.2178 15.7741C90.2178 15.3765 90.089 15.0565 89.829 14.8141C89.5714 14.5718 89.1944 14.4518 88.7026 14.4518H86.5199V11.8423H89.2787C90.1686 11.8423 90.9485 12.0047 91.6229 12.3318C92.2974 12.6588 92.8243 13.1106 93.2108 13.6918C93.5948 14.2706 93.7869 14.9482 93.7869 15.72C93.7869 16.4918 93.5925 17.1694 93.2014 17.7482C92.8103 18.3271 92.267 18.7812 91.5691 19.1059C90.8712 19.4329 90.0492 19.5953 89.0983 19.5953H86.5199V19.5976ZM90.5222 24.7435L87.0234 19.2353L90.2693 18.5294L94.6159 24.7435H90.5222Z" fill="white"/>
<path fill-rule="evenodd" clip-rule="evenodd" d="M96.9133 12.2188V13.6612H96.4777V12.2188H95.9648V11.8447H97.4262V12.2188H96.9133Z" fill="white"/>
<path fill-rule="evenodd" clip-rule="evenodd" d="M99.4708 13.6636L99.4802 12.3765H99.4731L99.0024 13.6636H98.6956L98.2389 12.3765H98.2296L98.2413 13.6636H97.8291V11.8447H98.4497L98.8619 13.0094H98.8736L99.267 11.8447H99.8994V13.6636H99.4708Z" fill="white"/>
<path fill-rule="evenodd" clip-rule="evenodd" d="M8.61597 19.7435H11.2694L9.95789 15.7411L8.61597 19.7435Z" fill="white"/>
<path fill-rule="evenodd" clip-rule="evenodd" d="M19.4145 10.9718C16.4075 9.81646 13.2014 9.21411 9.96019 9.21411C6.71897 9.21411 3.5082 9.81646 0.501171 10.9718C0.199063 11.0894 0 11.3835 0 11.7106V24.0212C0 24.1671 0.0374707 24.3082 0.112412 24.4329C2.3911 28.2447 5.61358 29.5835 9.56206 31.88C9.80562 32.0212 10.1077 32.0212 10.3513 31.88C14.2998 29.5859 17.5222 28.2447 19.8009 24.4329C19.8759 24.3082 19.9133 24.1647 19.9133 24.0212V11.7082C19.9133 11.3812 19.7166 11.0847 19.4122 10.9694L19.4145 10.9718ZM12.9063 24.7435L12.1944 22.5694H7.66745L6.93677 24.7435H3.25761L8.1452 11.8447H11.8244L16.6581 24.7435H12.9063Z" fill="white"/>
</g>
</g>
<defs>
<clipPath id="clip0_5223_7675">
<rect width="102" height="32" fill="white"/>
</clipPath>
<clipPath id="clip1_5223_7675">
<rect width="102" height="32" fill="white"/>
</clipPath>
</defs>
</svg>
