<svg width="282" height="33" viewBox="0 0 282 33" fill="none" xmlns="http://www.w3.org/2000/svg">
<path d="M38.8818 32H33.7773V0.545898H38.8818V32ZM71.957 0.477539L70.2959 5.56738H61.7861C55.8929 5.56744 51.0996 10.3543 51.0996 16.2393C51.0999 22.124 55.893 26.9101 61.7861 26.9102H67.4971V18.7764H62.1445L63.8037 13.6943H72.5947V32H61.7861C53.0791 31.9999 46.0032 24.9339 46.0029 16.2393C46.0029 7.54439 53.0865 0.477594 61.7861 0.477539H71.957ZM106.945 32H101.849V21.4727L102.751 18.8135H87.2324V32H82.1279V0.545898H87.2324V13.7246H101.849V0.538086H106.945V32ZM139.817 5.63477H129.396V32H124.292V8.29395L125.202 5.63477H113.863L112.134 0.545898H141.555L139.817 5.63477ZM152.285 13.7246H166.901V0.545898H172.006V32H166.901V21.4727L167.804 18.8135H152.285V32H147.181V0.538086H152.285V13.7246ZM251.003 15.8369L265.065 0.545898H271.99L257.541 16.2695L271.99 32H265.065L251.003 16.7012V32H245.906V0.545898H251.003V15.8369ZM19.084 21.4873V0.538086H24.1885V31.9922H20.4492L5.12793 11.0508V31.9922H0.03125V0.538086H3.7627L19.084 21.4873ZM192.531 7.62695L192.493 7.72559L187.958 19.7686H196.619L198.349 24.8428L186.039 24.8652L183.347 31.9922H177.908L189.945 0L192.531 7.62695ZM212.852 21.5176L220.3 2.91602L227.778 21.6016L235.287 0.538086H240.611L240.49 0.90918L229.971 31.9922H226.443L220.3 16.6328L214.141 31.9922H210.629L210.568 31.8037L199.988 0.538086H206.108L212.852 21.5176ZM62.1426 18.7832L62.1348 18.7764H62.1445L62.1426 18.7832Z" fill="white"/>
<path d="M278.274 0.32019C280.048 0.32019 281.598 1.68228 281.598 3.57507C281.598 5.46781 279.997 6.8446 278.274 6.8446C276.551 6.84458 274.95 5.47496 274.95 3.57507C274.95 1.67513 276.537 0.320216 278.274 0.32019ZM278.281 0.900269C276.842 0.900478 275.56 2.03016 275.56 3.57507C275.56 5.12006 276.86 6.24204 278.274 6.24207H278.278C279.714 6.24193 281.007 5.1164 281.007 3.57507C281.007 2.0336 279.721 0.900269 278.281 0.900269ZM278.36 1.71765C278.988 1.71765 279.864 1.87256 279.864 2.7616H279.861C279.861 3.26687 279.545 3.59316 279.129 3.72937L279.893 5.29968H278.848L278.206 3.88367H277.923V5.29968H276.974V1.71765H278.36ZM277.923 2.33484V3.28796H278.267C278.551 3.2879 278.88 3.21286 278.881 2.82605C278.881 2.39229 278.522 2.33484 278.206 2.33484H277.923Z" fill="white"/>
</svg>
