<svg width="78" height="32" viewBox="0 0 78 32" fill="none" xmlns="http://www.w3.org/2000/svg">
<path d="M12.1403 7.4519C5.43256 7.4519 0 12.9243 0 19.6742C0 26.424 5.43256 31.8964 12.1403 31.8964C18.8481 31.8964 24.2807 26.424 24.2807 19.6742C24.2807 12.9243 18.8481 7.4519 12.1403 7.4519ZM12.1175 29.3012C6.85074 29.3012 2.57903 25.0027 2.57903 19.6972C2.57903 14.3917 6.85074 10.0932 12.1175 10.0932C17.3842 10.0932 21.6559 14.3917 21.6559 19.6972C21.6559 25.0027 17.3842 29.3012 12.1175 29.3012Z" fill="black"/>
<path d="M26.951 19.6742V31.9482H29.3814V19.6742C29.553 14.3802 33.7103 10.0989 38.9656 10.0989C38.9999 10.0989 39.0914 10.0989 39.0914 10.0989V7.4519C32.3264 7.4519 26.951 12.9243 26.951 19.6742Z" fill="black"/>
<path d="M53.4165 7.4519C49.5336 7.4519 46.0796 9.28754 43.8552 12.1417V0H41.2761V19.7777C41.3333 26.4816 46.743 31.8964 53.4165 31.8964C60.0899 31.8964 65.5568 26.424 65.5568 19.6742C65.5568 12.9243 60.1242 7.4519 53.4165 7.4519ZM53.3936 29.3012C48.1269 29.3012 43.8552 25.0027 43.8552 19.6972C43.8552 14.3917 48.1269 10.0931 53.3936 10.0931C58.6603 10.0931 62.932 14.3917 62.932 19.6972C62.932 25.0027 58.6603 29.3012 53.3936 29.3012Z" fill="black"/>
<path d="M69.4966 3.4929C70.4516 3.4929 71.2293 2.7103 71.2293 1.74933C71.2293 0.788347 70.4573 0 69.4966 0C68.5359 0 67.7639 0.782593 67.7639 1.74357C67.7639 2.70455 68.5416 3.48714 69.4966 3.48714V3.4929Z" fill="black"/>
<path d="M70.7834 7.4519H68.2043V32H70.7834V7.4519Z" fill="black"/>
<path d="M73.8771 30.4061C73.8771 30.1817 73.9171 29.9745 74.0029 29.7789C74.0887 29.5832 74.203 29.4106 74.346 29.2667C74.4889 29.1229 74.6605 29.0078 74.8549 28.9215C75.0494 28.8351 75.2552 28.7949 75.4782 28.7949C75.7013 28.7949 75.9071 28.8351 76.1016 28.9215C76.296 29.0078 76.4675 29.1229 76.6105 29.2667C76.7535 29.4106 76.8736 29.5832 76.9536 29.7789C77.0394 29.9745 77.0794 30.1817 77.0794 30.4061C77.0794 30.6305 77.0394 30.8377 76.9536 31.0276C76.8678 31.2232 76.7535 31.3901 76.6105 31.5339C76.4675 31.6778 76.296 31.7929 76.1016 31.8734C75.9071 31.954 75.7013 32 75.4782 32C75.2552 32 75.0494 31.9598 74.8549 31.8734C74.6605 31.7929 74.4889 31.6778 74.346 31.5339C74.203 31.3901 74.0829 31.2232 74.0029 31.0276C73.9171 30.8319 73.8771 30.6247 73.8771 30.4061ZM74.1287 30.4061C74.1287 30.5902 74.163 30.7629 74.2316 30.9297C74.3002 31.0966 74.3975 31.2405 74.5175 31.3671C74.6376 31.4937 74.7806 31.5915 74.9464 31.6605C75.1123 31.7296 75.2895 31.7641 75.4725 31.7641C75.6555 31.7641 75.8385 31.7296 75.9986 31.6605C76.1645 31.5915 76.3074 31.4937 76.4275 31.3671C76.5476 31.2405 76.6448 31.0966 76.7192 30.9297C76.7878 30.7629 76.8221 30.5902 76.8221 30.4061C76.8221 30.2219 76.7878 30.0378 76.7192 29.8767C76.6505 29.7098 76.5533 29.5659 76.4275 29.4451C76.3074 29.3243 76.1645 29.2264 75.9986 29.1516C75.8328 29.0826 75.6555 29.0481 75.4725 29.0481C75.2895 29.0481 75.1065 29.0826 74.9464 29.1516C74.7806 29.2207 74.6376 29.3185 74.5175 29.4451C74.3975 29.5717 74.3002 29.7098 74.2316 29.8767C74.163 30.0436 74.1287 30.2219 74.1287 30.4061ZM74.8549 29.4911H75.4897C75.5755 29.4911 75.6555 29.5026 75.7356 29.5199C75.8156 29.5372 75.8843 29.5717 75.9529 29.612C76.0215 29.6523 76.0672 29.7098 76.1016 29.7731C76.1416 29.8422 76.1587 29.9227 76.1587 30.0205C76.1587 30.1529 76.1187 30.2622 76.0444 30.3428C75.97 30.4233 75.8671 30.4809 75.7413 30.5097L76.2274 31.3038H75.8328L75.4096 30.5442H75.1752V31.3038H74.8492V29.4911H74.8549ZM75.4439 30.2852C75.5354 30.2852 75.6269 30.268 75.7127 30.2335C75.7985 30.1989 75.8385 30.1241 75.8385 30.0148C75.8385 29.917 75.7985 29.8479 75.7241 29.8191C75.6441 29.7846 75.564 29.7673 75.484 29.7673H75.1866V30.2852H75.4497H75.4439Z" fill="black"/>
</svg>
