<svg width="135" height="32" viewBox="0 0 135 32" fill="none" xmlns="http://www.w3.org/2000/svg">
<g clip-path="url(#clip0_5223_7288)">
<path d="M57.5076 0.936275C57.5076 0.687814 57.2615 0.645393 57.0854 0.645393H56.6965V1.64833H56.9638V1.2514H57.0428L57.222 1.64833H57.5167L57.301 1.20898C57.4164 1.17262 57.5076 1.07869 57.5076 0.939305V0.936275ZM57.0611 1.08172H56.9638V0.815074H57.0428C57.1309 0.815074 57.2312 0.830224 57.2312 0.951425C57.2312 1.06051 57.137 1.08172 57.058 1.08172H57.0611ZM57.0611 0.251491C56.575 0.251491 56.1285 0.630243 56.1285 1.16353C56.1285 1.69681 56.5781 2.07859 57.0611 2.07859C57.544 2.07859 57.9936 1.69378 57.9936 1.16353C57.9936 0.633273 57.5592 0.251491 57.0611 0.251491ZM57.0611 1.90891C56.6631 1.90891 56.2986 1.59379 56.2986 1.1605C56.2986 0.727204 56.6571 0.412082 57.0611 0.412082C57.4651 0.412082 57.8235 0.730234 57.8235 1.1605C57.8235 1.59076 57.462 1.90891 57.058 1.90891H57.0611ZM55.3084 2.58157C55.3084 0.966575 54.1085 0.251491 52.529 0.251491H49.2909V7.8235H51.3686V4.91166H51.5175L53.4129 7.8235H55.9432L53.5587 4.72076C54.6948 4.52987 55.3084 3.62693 55.3084 2.58157ZM51.9063 3.64511H51.3717V1.76044H51.967C52.6505 1.76044 53.2276 1.87861 53.2276 2.70277C53.2276 3.52694 52.5867 3.64511 51.9063 3.64511ZM42.7935 0.251491L39.9959 7.8235H42.1465L42.6021 6.42969H45.3785L45.8341 7.8235H47.9817L45.1871 0.251491H42.7874H42.7935ZM43.0973 4.92378L43.963 2.2816H44.0207L44.8864 4.92378H43.0973ZM33.6747 0.251491H38.7474V1.918H35.7585V3.18152H38.6229V4.84803H35.7585V6.15699H38.7474V7.8235H33.6747V0.251491ZM27.7787 3.59663H31.8461C31.8248 4.70258 31.7397 5.64492 31.0289 6.58725C30.2452 7.62352 29.1304 8.07196 27.7878 8.07196C25.2727 8.07196 23.5838 6.45696 23.5838 4.0784C23.5838 1.69984 25.2211 0 27.8 0C29.4433 0 30.7191 0.705994 31.4086 2.12101L29.4342 2.90276C29.1487 2.18161 28.5412 1.69984 27.7058 1.69984C26.3328 1.69984 25.7466 2.93306 25.7466 4.08749C25.7466 5.24193 26.43 6.45696 27.8 6.45696C28.7052 6.45696 29.3309 6.01458 29.416 5.14194H27.7787V3.59663ZM16.5761 0.251491H22.7181V1.918H20.7042V7.82047H18.59V1.92103H16.5761V0.251491ZM10.0848 0.251491H15.1545V1.918H12.1655V3.18152H15.03V4.84803H12.1655V6.15699H15.1545V7.8235H10.0848V0.251491ZM5.5436 0.251491H7.62434V7.8235H5.5436L2.10201 3.18455H2.08075V7.8235H0V0.251491H2.08075L5.52537 4.88136H5.54663V0.251491H5.5436Z" fill="white"/>
<path d="M0 31.7182V15.1077H4.67788V31.7182H0Z" fill="white"/>
<path d="M14.0791 31.7182V15.1076H17.3536L18.757 18.6073V31.7182H14.0791ZM25.5399 31.7182L15.8804 19.6102L17.3536 15.1076L27.0131 27.2156L25.5399 31.7182ZM25.5399 31.7182L24.3704 28.0307V15.1046H29.0483V31.7152H25.5399V31.7182Z" fill="white"/>
<path d="M43.8323 32C42.4137 32 41.1774 31.7939 40.1264 31.3818C39.0754 30.9698 38.1034 30.3122 37.2134 29.4093L40.1355 26.4944C40.7431 27.0701 41.384 27.5095 42.0523 27.8125C42.7236 28.1155 43.4404 28.267 44.2029 28.267C44.8408 28.267 45.3268 28.17 45.6518 27.9761C45.9798 27.7822 46.1439 27.5125 46.1439 27.1701C46.1439 26.8277 46.0042 26.5429 45.7217 26.3187C45.4392 26.0945 45.0716 25.8914 44.6099 25.7127C44.1512 25.5339 43.6439 25.3521 43.0911 25.1642C42.5383 24.9764 41.9885 24.7522 41.4417 24.4885C40.8949 24.2249 40.3937 23.9007 39.932 23.5189C39.4733 23.1372 39.1028 22.6645 38.8203 22.0948C38.5408 21.5282 38.398 20.8313 38.398 20.0072C38.398 18.9345 38.6562 18.0073 39.1696 17.2317C39.6829 16.4529 40.4089 15.8591 41.3445 15.447C42.2801 15.0349 43.3797 14.8289 44.6433 14.8289C45.9069 14.8289 47.0491 15.0258 48.1153 15.4227C49.1845 15.8197 50.0684 16.3833 50.7701 17.1135L47.8237 20.0284C47.3103 19.5314 46.7939 19.1618 46.2806 18.9194C45.7672 18.68 45.2053 18.5588 44.5978 18.5588C44.1148 18.5588 43.729 18.6376 43.4404 18.7921C43.1519 18.9467 43.0091 19.18 43.0091 19.4921C43.0091 19.8193 43.1488 20.0859 43.4313 20.298C43.7108 20.5071 44.0814 20.698 44.5431 20.8707C45.0017 21.0434 45.509 21.2192 46.0619 21.407C46.6147 21.5949 47.1645 21.8161 47.7113 22.0706C48.258 22.3281 48.7592 22.6554 49.221 23.0493C49.6796 23.4462 50.0502 23.9401 50.3327 24.531C50.6122 25.1218 50.7549 25.8369 50.7549 26.6762C50.7549 28.373 50.1505 29.682 48.9415 30.6062C47.7325 31.5303 46.0285 31.9939 43.8323 31.9939V32Z" fill="white"/>
<path d="M59.3394 31.7182V15.1077H64.0172V31.7182H59.3394Z" fill="white"/>
<path d="M81.6292 32.0001C80.3351 32.0001 79.1383 31.7849 78.0387 31.3577C76.9391 30.9305 75.9792 30.3275 75.1621 29.5488C74.345 28.7701 73.7071 27.8611 73.2545 26.8187C72.8019 25.7764 72.5771 24.6401 72.5771 23.413C72.5771 22.1858 72.8141 21.0253 73.291 19.983C73.7679 18.9407 74.4301 18.0347 75.2776 17.2651C76.1251 16.4955 77.1123 15.8955 78.2362 15.4683C79.3601 15.0411 80.5599 14.8259 81.8388 14.8259C83.3818 14.8259 84.767 15.0895 85.9911 15.6198C87.2153 16.15 88.2086 16.8651 88.974 17.765L85.815 20.9132C85.2378 20.2436 84.6364 19.7467 84.0137 19.4194C83.391 19.0922 82.6407 18.9286 81.7689 18.9286C80.9427 18.9286 80.1924 19.1104 79.5241 19.477C78.8528 19.8436 78.3212 20.3587 77.9233 21.0284C77.5254 21.698 77.3279 22.4828 77.3279 23.3857C77.3279 24.2887 77.5102 25.0765 77.8777 25.7552C78.2453 26.4309 78.7556 26.9581 79.4087 27.3308C80.0648 27.7035 80.8272 27.8914 81.7021 27.8914C82.5769 27.8914 83.2543 27.7277 83.8314 27.4005C84.4086 27.0733 84.849 26.6066 85.1528 26.0006C85.4565 25.3946 85.6084 24.6795 85.6084 23.8554L88.8131 25.8855L81.0702 25.6522V21.9192H90.3106V22.6191C90.3106 24.6098 89.9491 26.3067 89.2231 27.7065C88.4971 29.1064 87.4856 30.173 86.1825 30.9032C84.8794 31.6334 83.3636 32.0001 81.6322 32.0001H81.6292Z" fill="white"/>
<path d="M98.7034 31.7182V15.1077H103.381V31.7182H98.7034ZM108.761 31.7182V15.1077H113.439V31.7182H108.761Z" fill="white"/>
<path d="M121.834 19.074V15.1077H136.5V19.074H121.834ZM126.816 31.7182V15.1077H131.494V31.7182H126.816Z" fill="white"/>
<path d="M101.252 25.1855V21.3131H108.77L106.483 25.1855H101.252Z" fill="white"/>
</g>
<defs>
<clipPath id="clip0_5223_7288">
<rect width="135" height="32" fill="white"/>
</clipPath>
</defs>
</svg>
