<svg width="290" height="32" viewBox="0 0 290 32" fill="none" xmlns="http://www.w3.org/2000/svg">
<path d="M209.717 9.97003C209.717 3.87943 205.169 1.1793 199.179 1.1793H186.903V29.745H194.788V18.7552H195.349L202.539 29.745H212.129L203.083 18.0426C207.39 17.3188 209.717 13.9172 209.717 9.97003ZM196.813 13.984H194.788V6.86906H197.048C199.639 6.86906 201.832 7.32001 201.832 10.4321C201.832 13.5442 199.404 13.9896 196.818 13.9896L196.813 13.984ZM162.255 1.1793L151.656 29.745H159.81L161.543 24.4895H172.075L173.808 29.745H181.957L171.357 1.1793H162.261H162.255ZM163.411 18.8053L166.697 8.8343H166.916L170.202 18.8053H163.411ZM127.681 1.1793H146.911V7.47032H135.577V12.2415H146.435V18.5269H135.577V23.4651H146.911V29.7506H127.681V1.1793ZM105.327 13.8003H120.749C120.665 17.9702 120.351 21.5221 117.648 25.0852C114.676 28.999 110.441 30.6914 105.366 30.6914C95.8322 30.6914 89.4277 24.5953 89.4277 15.6208C89.4277 6.64636 95.636 0.227295 105.417 0.227295C111.653 0.227295 116.487 2.88845 119.1 8.23304L111.614 11.1837C110.531 8.4613 108.232 6.6408 105.058 6.6408C99.8533 6.6408 97.6269 11.295 97.6269 15.6542C97.6269 20.0134 100.218 24.5953 105.405 24.5953C108.832 24.5953 111.215 22.9251 111.535 19.6293H105.327V13.8003ZM62.8507 1.1793H86.1357V7.47032H78.4974V29.745H70.4834V7.47032H62.8507V1.1793ZM38.242 1.1793H57.4668V7.47032H46.1327V12.2415H56.9901V18.5269H46.1327V23.4651H57.4668V29.7506H38.242V1.1793ZM21.0306 1.1793H28.9157V29.745H21.0306L7.9748 12.2415H7.89068V29.745H0V1.1793H7.88507L20.9409 18.6438H21.025V1.1793H21.0306Z" fill="white"/>
<path d="M216.156 1.51074C218.04 1.51076 219.688 2.92223 219.688 4.88379C219.688 6.84549 217.987 8.27244 216.156 8.27246C214.325 8.27246 212.624 6.85293 212.624 4.88379C212.624 2.91478 214.31 1.51074 216.156 1.51074ZM216.164 2.1123C214.634 2.1123 213.272 3.2826 213.272 4.88379C213.272 6.48511 214.653 7.64844 216.156 7.64844H216.16C217.686 7.64837 219.058 6.48135 219.058 4.88379C219.058 3.28639 217.693 2.11242 216.164 2.1123ZM216.248 2.95996C216.915 2.96002 217.845 3.11979 217.845 4.04102H217.842C217.841 4.56472 217.506 4.90279 217.063 5.04395L217.876 6.6709H216.766L216.084 5.2041H215.782V6.6709H214.775V2.95996H216.248ZM215.782 3.59863V4.58691H216.148C216.45 4.58691 216.801 4.50868 216.801 4.10742C216.8 3.65819 216.419 3.59868 216.084 3.59863H215.782Z" fill="white"/>
<path d="M263.15 29.696H254.55L250.796 18.6541L247.077 24.8894H242.544L240.871 29.696H232.449L243.646 1.20776H252.077L263.15 29.696ZM274.051 18.655L280.199 1.20776H288.833L277.884 29.696H270.03L259.24 1.20776H268L274.051 18.655ZM244.718 18.6492H250.795L247.793 9.81909L244.718 18.6492Z" fill="#26E880"/>
</svg>
