<svg width="148" height="32" viewBox="0 0 148 32" fill="none" xmlns="http://www.w3.org/2000/svg">
<g clip-path="url(#clip0_5223_6955)">
<path d="M32.6047 32L27.9584 24H18.6696V24.0019V24H9.37891L14.0233 32H23.314H32.6047Z" fill="#1CB9A0"/>
<path d="M14.0233 16L18.6696 8H9.37886L4.73253 16H4.73639H4.73253L0.0881348 24H9.37886L14.0233 16H14.0213H14.0233Z" fill="#26E880"/>
<path d="M32.6048 16L27.9585 8L23.3141 0L18.6697 8H18.6716H18.6697L23.3141 16H23.3179H23.3141L27.9585 24L32.6048 16H32.6009H32.6048Z" fill="#2B3749"/>
<path d="M80.0282 8.83968C80.0282 7.69923 79.1758 7.19364 78.0534 7.19364H75.7529V12.5425H77.2306V10.4847H77.3356L78.683 12.5425H80.4801L78.7849 10.3512C79.592 10.2157 80.0282 9.57878 80.0282 8.83968ZM77.6099 9.59129H77.2306V8.25903H77.6541C78.1396 8.25903 78.5505 8.34347 78.5505 8.9262C78.5505 9.50893 78.0955 9.59233 77.611 9.59233L77.6099 9.59129ZM71.1341 7.19364L69.1478 12.5425H70.6758L71.0006 11.5584H72.9742L73.299 12.5425H74.826L72.8397 7.19364H71.1351H71.1341ZM71.3505 10.4941L71.9664 8.62702H72.0074L72.6232 10.4941H71.3505ZM64.655 7.19364H68.2587V8.37161H66.1347V9.265H68.1694V10.4419H66.1347V11.3666H68.2587V12.5435H64.655V7.19364ZM60.466 9.55689H63.356C63.3403 10.3377 63.2814 11.0028 62.7749 11.6699C62.2179 12.4028 61.4244 12.7197 60.4733 12.7197C58.6867 12.7197 57.4866 11.5782 57.4866 9.89777C57.4866 8.21733 58.6499 7.01538 60.4828 7.01538C61.6514 7.01538 62.5573 7.51367 63.0471 8.51443L61.6441 9.06693C61.4412 8.55717 61.0104 8.21629 60.4155 8.21629C59.4402 8.21629 59.023 9.08778 59.023 9.90402C59.023 10.7203 59.5086 11.5782 60.4807 11.5782C61.1228 11.5782 61.5695 11.2655 61.6294 10.6483H60.466V9.55689ZM52.5062 7.19364H56.8696V8.37161H55.4383V12.5425H53.9365V8.37161H52.5062V7.19364ZM47.8946 7.19364H51.4972V8.37161H49.3733V9.265H51.4079V10.4419H49.3733V11.3666H51.4972V12.5435H47.8946V7.19364ZM44.6693 7.19364H46.1469V12.5425H44.6693L42.2227 9.265H42.2069V12.5425H40.7283V7.19364H42.2059L44.6525 10.4638H44.6682V7.19364H44.6693Z" fill="#2B3749"/>
<path d="M81.2349 7.19385C81.5879 7.19395 81.897 7.46523 81.897 7.84229C81.8969 8.21926 81.5779 8.49355 81.2349 8.49365C80.8918 8.49365 80.5728 8.22076 80.5728 7.84229C80.5728 7.46374 80.8889 7.19385 81.2349 7.19385ZM81.2358 7.30908C80.9493 7.30922 80.6938 7.53454 80.6938 7.84229C80.6939 8.15005 80.9533 8.37354 81.2349 8.37354H81.2358C81.5215 8.3733 81.7787 8.14917 81.7788 7.84229C81.7788 7.53516 81.5225 7.30908 81.2358 7.30908ZM81.2515 7.47217C81.3765 7.47217 81.5512 7.50308 81.5513 7.68018H81.5503C81.5503 7.78088 81.4877 7.84639 81.4048 7.87354L81.5571 8.18604H81.3491L81.2212 7.90381H81.1646V8.18604H80.9761V7.47217H81.2515ZM81.1646 7.59521V7.78564H81.2329C81.2894 7.78564 81.355 7.77001 81.355 7.69287C81.3549 7.60669 81.284 7.59523 81.2212 7.59521H81.1646Z" fill="#2B3749"/>
<path d="M42.9889 21.8916H46.4662V20.0667H42.9889V18.9172H46.8184V17.0474H42.9889H42.5589H40.7236V25.0672H42.5589H42.9889H46.8871V23.1974H42.9889V21.8916Z" fill="#2B3749"/>
<path d="M56.3454 21.2935L52.9476 17.0474H51.3616V25.0672H53.6268V20.963L56.9108 25.0672H58.6107V17.0474H56.3454V21.2935Z" fill="#2B3749"/>
<path d="M75.4951 21.8916H78.9724V20.0667H75.4951V18.9172H79.3228V17.0474H75.4951H75.0633H73.228V25.0672H75.0633H75.4951H79.3915V23.1974H75.4951V21.8916Z" fill="#2B3749"/>
<path d="M88.8733 21.5648C89.3105 21.3618 89.6537 21.0798 89.8975 20.7206C90.1432 20.3595 90.266 19.9392 90.266 19.4597C90.266 18.9801 90.145 18.558 89.903 18.1988C89.6609 17.8377 89.3285 17.5557 88.9058 17.3546C88.4831 17.1516 87.9918 17.051 87.4336 17.051H83.866V25.0708H86.1312V21.8719H86.1619L88.2158 25.0708H90.7863L88.4235 21.7282C88.5807 21.6833 88.7306 21.633 88.8715 21.5683L88.8733 21.5648ZM87.0723 18.6694C87.3812 18.6694 87.6179 18.7448 87.7804 18.8939C87.943 19.0448 88.0243 19.2423 88.0243 19.4902C88.0243 19.7381 87.943 19.9374 87.7804 20.0865C87.6179 20.2374 87.3812 20.311 87.0723 20.311H86.1312V18.6658H87.0723V18.6694Z" fill="#2B3749"/>
<path d="M100.058 17.3583C99.6394 17.1517 99.1697 17.0493 98.6477 17.0493H94.9084V25.0691H97.1737V22.2528H98.6459C99.1661 22.2528 99.6376 22.1504 100.057 21.9438C100.476 21.7373 100.808 21.4391 101.054 21.0475C101.299 20.6578 101.422 20.1908 101.422 19.6501C101.422 19.1095 101.299 18.6353 101.054 18.2474C100.808 17.8612 100.476 17.5648 100.057 17.3583H100.058ZM99.0451 20.1962C98.9548 20.3417 98.8356 20.4512 98.6874 20.5231C98.5411 20.5949 98.3803 20.6308 98.2051 20.6308H97.1737V18.6712H98.2051C98.3785 18.6712 98.5393 18.7072 98.6874 18.779C98.8356 18.8509 98.953 18.9586 99.0451 19.1059C99.1354 19.2514 99.1806 19.4346 99.1806 19.6519C99.1806 19.8693 99.1354 20.0525 99.0451 20.198V20.1962Z" fill="#2B3749"/>
<path d="M110.702 21.5648C111.139 21.3618 111.482 21.0798 111.726 20.7206C111.972 20.3595 112.095 19.9392 112.095 19.4597C112.095 18.9801 111.974 18.558 111.732 18.1988C111.49 17.8377 111.157 17.5557 110.734 17.3546C110.312 17.1516 109.82 17.051 109.262 17.051H105.695V25.0708H107.96V21.8719H107.991L110.044 25.0708H112.615L110.252 21.7282C110.409 21.6833 110.559 21.633 110.7 21.5683L110.702 21.5648ZM108.901 18.6694C109.21 18.6694 109.446 18.7448 109.609 18.8939C109.772 19.0448 109.853 19.2423 109.853 19.4902C109.853 19.7381 109.772 19.9374 109.609 20.0865C109.446 20.2374 109.21 20.311 108.901 20.311H107.96V18.6658H108.901V18.6694Z" fill="#2B3749"/>
<path d="M119.006 17.0474H116.741V25.0672H119.006V17.0474Z" fill="#2B3749"/>
<path d="M126.159 18.8274C126.298 18.7519 126.486 18.7142 126.719 18.7142C127.014 18.7142 127.286 18.7717 127.536 18.8885C127.785 19.0052 128.034 19.183 128.283 19.4237L129.711 18.0155C129.371 17.6635 128.943 17.3905 128.424 17.1983C127.908 17.0061 127.346 16.9109 126.743 16.9109C126.139 16.9109 125.599 17.0097 125.146 17.209C124.692 17.4084 124.342 17.6958 124.093 18.0712C123.843 18.4466 123.719 18.8938 123.719 19.4111C123.719 19.8099 123.787 20.1458 123.923 20.4188C124.058 20.6936 124.239 20.9217 124.461 21.1067C124.683 21.2899 124.927 21.4462 125.191 21.5737C125.455 21.7012 125.722 21.8108 125.989 21.9006C126.257 21.9904 126.502 22.0784 126.726 22.1646C126.949 22.2508 127.129 22.3496 127.265 22.4574C127.4 22.567 127.469 22.7035 127.469 22.8687C127.469 23.034 127.389 23.1633 127.23 23.2567C127.071 23.3501 126.838 23.3968 126.528 23.3968C126.157 23.3968 125.81 23.3232 125.485 23.1777C125.16 23.0322 124.851 22.8184 124.557 22.5418L123.141 23.95C123.571 24.3865 124.042 24.7026 124.551 24.902C125.061 25.1013 125.661 25.2001 126.347 25.2001C127.413 25.2001 128.236 24.9774 128.822 24.5302C129.407 24.0829 129.7 23.4507 129.7 22.6316C129.7 22.2257 129.631 21.8808 129.496 21.5953C129.36 21.3097 129.179 21.0708 128.957 20.8804C128.735 20.6882 128.491 20.5319 128.227 20.408C127.964 20.2841 127.696 20.1763 127.429 20.0865C127.162 19.9967 126.916 19.9105 126.692 19.8278C126.47 19.7452 126.289 19.6536 126.154 19.5512C126.018 19.4506 125.95 19.3195 125.95 19.1633C125.95 19.007 126.02 18.901 126.159 18.8256V18.8274Z" fill="#2B3749"/>
<path d="M136.304 23.1974V21.8916H139.781V20.0667H136.304V18.9172H140.134V17.0474H136.304H135.874H134.039V25.0672H135.874H136.304H140.2V23.1974H136.304Z" fill="#2B3749"/>
<path d="M69.0336 17.0474H67.2706H65.0053H64.8229H61.7917L62.9063 18.9674H65.0053V25.0672H67.2706V18.9674H70.15L69.0336 17.0474Z" fill="#2B3749"/>
</g>
<defs>
<clipPath id="clip0_5223_6955">
<rect width="146.824" height="32" fill="white" transform="translate(0.0881348)"/>
</clipPath>
</defs>
</svg>
