<svg width="342" height="32" viewBox="0 0 342 32" fill="none" xmlns="http://www.w3.org/2000/svg">
<g clip-path="url(#clip0_5518_2726)">
<path d="M18.368 20.9789L3.59755 0.696564H0V31.1494H4.91372V10.8744L19.6841 31.1494H23.289V0.696564H18.368V20.9789Z" fill="black"/>
<path d="M37.4531 0.703857H32.5321V31.1567H37.4531V0.703857Z" fill="black"/>
<path d="M98.1574 13.4628H84.067V0.703896H79.146V31.1567H84.067V18.3904H99.0276L98.1574 20.9642V31.1567H103.071V0.696564H98.1574V13.4628Z" fill="black"/>
<path d="M109.74 5.63145H120.672L119.795 8.20523V31.1567H124.716V5.63145H134.762L136.437 0.703857H108.073L109.74 5.63145Z" fill="black"/>
<path d="M160.873 13.4628H146.783V0.696564H141.862V31.1567H146.783V18.3904H161.743L160.873 20.9642V31.1567H165.794V0.703896H160.873V13.4628Z" fill="black"/>
<path d="M219.56 21.0889L212.35 2.99904L205.17 21.0082L198.669 0.696564H192.768L202.969 30.966L203.027 31.1494H206.413L212.35 16.2786L218.273 31.1494H221.673L231.815 1.05587L231.932 0.696564H226.799L219.56 21.0889Z" fill="black"/>
<path d="M181.172 19.3144L185.545 7.65534L185.581 7.56002L183.088 0.175964L171.483 31.1494H176.726L179.322 24.2493L191.189 24.2273L189.522 19.3144H181.172Z" fill="black"/>
<path d="M262.182 0.703857H255.506L241.95 15.5086V0.703857H237.036V31.1567H241.95V16.3446L255.506 31.1567H262.182L248.253 15.9266L262.182 0.703857Z" fill="black"/>
<path d="M59.8712 18.3537H65.0408V26.2291H59.5348C53.8533 26.2291 49.2321 21.5948 49.2321 15.8973C49.2321 10.1998 53.8533 5.56548 59.5348 5.56548H67.739L69.3403 0.637894H59.5348C51.1478 0.637894 44.3184 7.47932 44.3184 15.8973C44.3184 24.3153 51.1405 31.1567 59.5348 31.1567H69.9545V13.4335H61.4798L59.8785 18.3611L59.8712 18.3537Z" fill="black"/>
<path d="M269.077 0.682526C270.849 0.682721 272.399 2.04476 272.399 3.93741C272.399 5.83 270.799 7.20674 269.077 7.20694C267.355 7.20694 265.755 5.83731 265.755 3.93741C265.755 2.03745 267.341 0.682526 269.077 0.682526ZM269.084 1.2626C267.646 1.2626 266.365 2.39235 266.365 3.93741C266.365 5.48242 267.664 6.6044 269.077 6.6044H269.08C270.515 6.6044 271.807 5.47883 271.807 3.93741C271.807 2.39595 270.523 1.26262 269.084 1.2626ZM269.163 2.07999C269.791 2.08003 270.666 2.23502 270.666 3.12393H270.662C270.662 3.62919 270.347 3.95549 269.931 4.09171L270.695 5.66202H269.651L269.009 4.246H268.726V5.66202H267.779V2.07999H269.163ZM268.726 2.69717V3.6503H269.07C269.353 3.6503 269.683 3.57535 269.683 3.18839C269.683 2.75473 269.325 2.6972 269.009 2.69717H268.726Z" fill="black"/>
<path d="M339.192 13.7268L334.205 29.4555L331.222 30.4307C330.176 30.7681 329.108 31.0614 328.055 31.296C326.988 31.538 325.913 31.714 324.853 31.824C323.792 31.934 322.798 31.9926 321.906 31.9926C319.347 31.9926 317.16 31.5527 315.398 30.6874C313.621 29.8148 312.254 28.6196 311.318 27.131C310.389 25.6498 309.848 23.912 309.709 21.9615C309.578 20.033 309.848 17.9725 310.536 15.8386C311.055 14.1888 311.523 12.9642 312.312 11.637L309.483 8.31526H320.999C319.844 9.29051 318.806 10.4418 317.914 11.7323C316.963 13.1109 316.239 14.5994 315.756 16.1466C315.267 17.7378 315.091 19.2337 315.223 20.5829C315.354 21.9175 315.742 23.098 316.378 24.0733C317.007 25.0412 317.892 25.8185 319.003 26.3684C320.122 26.9257 321.474 27.2044 323.017 27.2044C324.385 27.2044 325.737 27.0797 327.032 26.8231C328.231 26.5884 329.328 26.2438 330.286 25.8111L332.589 18.5077H326.081L327.551 13.7195H339.184L339.192 13.7268Z" fill="black"/>
<path d="M310.127 0.747955L308.598 5.52889L291.671 5.53622L292.007 4.6123L288.717 0.755288L310.127 0.747955Z" fill="black"/>
<path d="M304.606 21.6461C304.109 23.1714 303.378 24.5719 302.434 25.8038C301.491 27.0357 300.387 28.1063 299.151 28.9935C297.916 29.8808 296.555 30.5701 295.122 31.0394C293.682 31.5087 292.197 31.7506 290.713 31.7506C288.615 31.7506 286.845 31.1934 285.47 30.1008C284.066 28.9789 283.313 27.3657 283.218 25.3052L283.204 24.9019L288.695 23.2154L288.732 23.8826C288.797 25.0852 289.126 25.9431 289.719 26.4417C290.333 26.955 291.254 27.219 292.461 27.219C293.177 27.219 293.909 27.087 294.632 26.8377C295.364 26.5811 296.058 26.2071 296.702 25.7231C297.345 25.2392 297.923 24.6452 298.42 23.9413C298.917 23.2374 299.319 22.4307 299.605 21.5435C300.19 19.6077 300.065 18.1558 299.239 17.2245C298.384 16.2639 296.958 15.7726 295.013 15.7726C294.647 15.7726 294.216 15.802 293.726 15.868C293.228 15.934 292.695 16.0293 292.132 16.1539C291.583 16.2713 290.991 16.4326 290.391 16.6232C289.799 16.8139 289.214 17.0265 288.666 17.2685L287.591 17.7378L290.742 8.31526H295.766L294.662 11.6223H294.669C295.049 11.5343 295.459 11.461 295.89 11.4097C296.3 11.351 296.702 11.3143 297.082 11.285C297.47 11.2557 297.784 11.241 298.04 11.241C299.495 11.241 300.76 11.4977 301.798 11.9963C302.851 12.5096 303.677 13.2502 304.255 14.1888C304.825 15.12 305.147 16.2419 305.206 17.5178C305.264 18.7644 305.059 20.1576 304.599 21.6461H304.606Z" fill="black"/>
<path d="M325.767 5.5362C327.142 5.03758 328.583 4.78093 330.06 4.78093C331.537 4.78093 332.787 5.00092 333.928 5.43355C335.032 5.85151 335.99 6.61411 336.772 7.69202L337.094 8.13199L341.693 4.46563L341.437 4.06966C340.626 2.79377 339.397 1.78918 337.781 1.06324C336.195 0.359303 334.001 0 331.252 0C328.956 0 326.689 0.410632 324.517 1.21723C322.345 2.02383 320.327 3.14574 318.499 4.56095C318.097 4.86893 317.702 5.1989 317.322 5.5362H325.767Z" fill="black"/>
</g>
<defs>
<clipPath id="clip0_5518_2726">
<rect width="342" height="32" fill="white"/>
</clipPath>
</defs>
</svg>
