<?xml version="1.0" encoding="UTF-8"?>
<svg id="Layer_1" xmlns="http://www.w3.org/2000/svg" version="1.1" viewBox="0 0 546 186">
  <!-- Generator: Adobe Illustrator 29.7.1, SVG Export Plug-In . SVG Version: 2.1.1 Build 8)  -->
  <defs>
    <style>
      .st0 {
        fill: #1cb9a0;
      }

      .st1 {
        fill: #2b3749;
      }
    </style>
  </defs>
  <polygon class="st1" points="527.4 83.4 497.7 127.2 467.8 83.4 449.2 83.4 449.2 174.6 474.6 174.6 474.6 131.6 489.4 153.1 505.8 153.1 520.7 131.8 520.7 174.6 546 174.6 546 83.4 527.4 83.4"/>
  <path class="st1" d="M362.9,176.1c-8,0-15-1.6-21-4.9-6-3.3-10.6-7.9-14-13.7-3.3-5.8-5-12.5-5-20v-54.1h25.6v56.5c0,2.9.6,5.4,1.9,7.4,1.3,2,3,3.6,5.1,4.7,2.2,1,4.7,1.5,7.3,1.5s5.1-.5,7.2-1.5c2.1-1.1,3.8-2.6,5-4.6,1.2-2,1.8-4.5,1.8-7.4v-56.6h25.7v54.3c0,7.5-1.7,14.2-5,20-3.2,5.7-7.9,10.2-13.8,13.6-5.9,3.2-12.8,4.9-20.9,4.9Z"/>
  <g>
    <path class="st1" d="M416.1,15.5c0-8.8-6.6-12.7-15.2-12.7h-17.7v41.2h11.4v-15.9h.8l10.4,15.9h13.8l-13.1-16.9c6.2-1,9.6-6,9.6-11.7ZM397.5,21.3h-2.9v-10.3h3.3c3.7,0,6.9.7,6.9,5.1s-3.5,5.1-7.2,5.1h0ZM347.6,2.8l-15.3,41.2h11.8l2.5-7.6h15.2l2.5,7.6h11.8l-15.3-41.2h-13.1ZM349.3,28.3l4.7-14.4h.3l4.7,14.4h-9.8ZM297.7,2.8h27.8v9.1h-16.4v6.9h15.7v9.1h-15.7v7.1h16.4v9.1h-27.8V2.8ZM265.5,21h22.3c-.1,6-.6,11.1-4.5,16.3-4.3,5.6-10.4,8.1-17.7,8.1-13.8,0-23-8.8-23-21.8s9-22.2,23.1-22.2,16,3.8,19.7,11.6l-10.8,4.3c-1.6-3.9-4.9-6.6-9.5-6.6-7.5,0-10.7,6.7-10.7,13s3.7,12.9,11.2,12.9,8.4-2.4,8.8-7.2h-9v-8.4ZM204.2,2.8h33.6v9.1h-11v32.2h-11.6V11.9h-11V2.8ZM168.6,2.8h27.7v9.1h-16.4v6.9h15.7v9.1h-15.7v7.1h16.4v9.1h-27.7V2.8ZM143.8,2.8h11.4v41.2h-11.4l-18.8-25.3h-.1v25.3h-11.4V2.8h11.4l18.8,25.2h.1V2.8h0Z"/>
    <path class="st1" d="M425.4,2.8c2.7,0,5.1,2.1,5.1,5s-2.5,5-5.1,5-5.1-2.1-5.1-5,2.4-5,5.1-5ZM425.4,3.7c-2.2,0-4.2,1.7-4.2,4.1s2,4.1,4.2,4.1h0c2.2,0,4.2-1.7,4.2-4.1s-2-4.1-4.2-4.1ZM425.5,5c1,0,2.3.2,2.3,1.6h0c0,.8-.5,1.3-1.1,1.5l1.2,2.4h-1.6l-1-2.2h-.4v2.2h-1.5v-5.5h2.1ZM424.9,5.9v1.5h.5c.4,0,.9-.1.9-.7s-.6-.8-1-.8h-.4Z"/>
  </g>
  <polygon class="st1" points="25.6 153.3 25.6 138.5 64.9 138.5 64.9 117.7 25.6 117.7 25.6 104.7 68.9 104.7 68.9 83.4 25.6 83.4 20.7 83.4 0 83.4 0 174.6 20.7 174.6 25.6 174.6 69.6 174.6 69.6 153.3 25.6 153.3"/>
  <path class="st1" d="M249.3,174.6v-91.1h25.6v91.1h-25.6Z"/>
  <path class="st1" d="M152.6,156l-11.2,18.6h-29.3l26.7-39.8,13.8,21.2ZM177.5,121l-13.9-21.4,9.7-16.2h29.3l-25.1,37.6Z"/>
  <path class="st0" d="M122,96.9l58.2,89.1,16-24-58-89.4-16.2,24.3Z"/>
</svg>