<svg width="89" height="64" viewBox="0 0 89 64" fill="none" xmlns="http://www.w3.org/2000/svg">
<g clip-path="url(#clip0_5223_7066)">
<g clip-path="url(#clip1_5223_7066)">
<path d="M61.9515 38.6931L56.3499 29.0386H45.1483L45.15 29.0402L45.1483 29.0386H33.9468L39.5484 38.6947H50.7499L50.7483 38.6931H50.7499H61.9515Z" fill="#1CB9A0"/>
<path d="M39.5485 19.3825L45.1485 9.72793H33.9469V9.72632L28.3453 19.3825H28.3486H28.3453L22.7454 29.0386H33.9469L39.5485 19.3825H39.5453H39.5469H39.5485Z" fill="#26E880"/>
<path d="M61.9516 19.3824L56.35 9.7263V9.72791L56.3484 9.7263H56.35L50.75 0.0717773L45.1484 9.7263H45.1517L45.1484 9.72791L50.75 19.3824H50.7549H50.75L56.35 29.0386L61.9516 19.3824H61.9467H61.9516Z" fill="white"/>
<g clip-path="url(#clip2_5223_7066)">
<path d="M62.1997 49.2535C62.1997 48.2275 61.4299 47.7727 60.4162 47.7727H58.3384V52.5848H59.673V50.7335H59.7679L60.9847 52.5848H62.6079L61.0768 50.6134C61.8058 50.4915 62.1997 49.9185 62.1997 49.2535ZM60.0156 49.9297H59.673V48.7312H60.0555C60.494 48.7312 60.8651 48.8071 60.8651 49.3314C60.8651 49.8556 60.4541 49.9307 60.0166 49.9307L60.0156 49.9297ZM54.1666 47.7727L52.3726 52.5848H53.7528L54.0461 51.6995H55.8287L56.122 52.5848H57.5012L55.7072 47.7727H54.1676H54.1666ZM54.3622 50.7419L54.9184 49.0622H54.9554L55.5117 50.7419H54.3622ZM48.3148 47.7727H51.5696V48.8324H49.6513V49.6362H51.4889V50.695H49.6513V51.5269H51.5696V52.5857H48.3148V47.7727ZM44.5313 49.8988H47.1416C47.1274 50.6012 47.0742 51.1996 46.6167 51.7998C46.1136 52.4591 45.397 52.7442 44.5379 52.7442C42.9243 52.7442 41.8403 51.7173 41.8403 50.2055C41.8403 48.6936 42.8911 47.6123 44.5465 47.6123C45.602 47.6123 46.4202 48.0606 46.8625 48.9609L45.5953 49.458C45.4122 48.9994 45.023 48.6927 44.4857 48.6927C43.6049 48.6927 43.228 49.4767 43.228 50.2111C43.228 50.9454 43.6666 51.7173 44.5446 51.7173C45.1245 51.7173 45.528 51.4359 45.5821 50.8807H44.5313V49.8988ZM37.342 47.7727H41.2831V48.8324H39.9903V52.5848H38.6339V48.8324H37.342V47.7727ZM33.1769 47.7727H36.4308V48.8324H34.5125V49.6362H36.3501V50.695H34.5125V51.5269H36.4308V52.5857H33.1769V47.7727ZM30.2638 47.7727H31.5984V52.5848H30.2638L28.0541 49.6362H28.0399V52.5848H26.7043V47.7727H28.0389L30.2487 50.7147H30.2629V47.7727H30.2638Z" fill="white"/>
<path d="M63.2893 47.7732C63.6082 47.7732 63.8869 48.017 63.887 48.3562C63.887 48.6955 63.5992 48.9421 63.2893 48.9421C62.9795 48.942 62.6917 48.6967 62.6917 48.3562C62.6918 48.0158 62.977 47.7733 63.2893 47.7732ZM63.2913 47.8767C63.0324 47.8767 62.8011 48.0794 62.801 48.3562C62.801 48.6332 63.0359 48.8347 63.2903 48.8347C63.5485 48.8346 63.7805 48.6325 63.7805 48.3562C63.7804 48.0802 63.5499 47.877 63.2913 47.8767ZM63.3049 48.0242C63.4179 48.0242 63.5753 48.0515 63.5754 48.2107H63.5745C63.5745 48.3013 63.5175 48.3601 63.4426 48.3845L63.5803 48.6658H63.3928L63.2776 48.4119H63.2258V48.6658H63.0559V48.0242H63.3049ZM63.2258 48.1345V48.3054H63.2883C63.3393 48.3054 63.3987 48.2917 63.3987 48.2224C63.3987 48.1449 63.3343 48.1346 63.2776 48.1345H63.2258Z" fill="white"/>
</g>
<path d="M2.03764 60.9819H5.14874V59.3476H2.03764V58.3198H5.46389V56.6453H2.03764H1.653H0.0109863V63.8274H1.653H2.03764H5.5253V62.1529H2.03764V60.9819Z" fill="white"/>
<path d="M13.9875 60.4479L10.9475 56.6453H9.52856V63.8274H11.5552V60.1503L14.4934 63.8274H16.0142V56.6453H13.9875V60.4479Z" fill="white"/>
<path d="M31.1206 60.9819H34.2317V59.3476H31.1206V58.3198H34.5452V56.6453H31.1206H30.7343H29.0923V63.8274H30.7343H31.1206H34.6066V62.1529H31.1206V60.9819Z" fill="white"/>
<path d="M43.0896 60.689C43.4807 60.5072 43.7878 60.2547 44.006 59.933C44.2258 59.6097 44.3357 59.2333 44.3357 58.8038C44.3357 58.3743 44.2274 57.9963 44.0108 57.6746C43.7942 57.3513 43.4969 57.0987 43.1187 56.9186C42.7405 56.7368 42.3009 56.6467 41.8015 56.6467H38.6096V63.8289H40.6363V60.9641H40.6637L42.5013 63.8289H44.8011L42.6872 60.8354C42.8278 60.7952 42.9619 60.7501 43.088 60.6922L43.0896 60.689ZM41.4783 58.0976C41.7547 58.0976 41.9664 58.1652 42.1118 58.2987C42.2573 58.4338 42.33 58.6108 42.33 58.8327C42.33 59.0547 42.2573 59.2333 42.1118 59.3668C41.9664 59.5019 41.7547 59.5679 41.4783 59.5679H40.6363V58.0944H41.4783V58.0976Z" fill="white"/>
<path d="M53.0986 56.9219C52.7237 56.737 52.3035 56.6453 51.8364 56.6453H48.491V63.8274H50.5176V61.3052H51.8348C52.3002 61.3052 52.7221 61.2135 53.097 61.0286C53.472 60.8436 53.7693 60.5766 53.9891 60.2259C54.2089 59.8768 54.3188 59.4586 54.3188 58.9744C54.3188 58.4903 54.2089 58.0656 53.9891 57.7182C53.7693 57.3723 53.472 57.1069 53.097 56.9219H53.0986ZM52.1903 59.4651C52.1095 59.5953 52.0029 59.6935 51.8703 59.7578C51.7394 59.8222 51.5956 59.8543 51.4388 59.8543H50.516V58.0994H51.4388C51.594 58.0994 51.7378 58.1316 51.8703 58.1959C52.0029 58.2602 52.1079 58.3568 52.1903 58.4887C52.2711 58.619 52.3116 58.783 52.3116 58.9777C52.3116 59.1723 52.2711 59.3364 52.1903 59.4667V59.4651Z" fill="white"/>
<path d="M62.6191 60.689C63.0102 60.5072 63.3173 60.2547 63.5355 59.933C63.7553 59.6097 63.8652 59.2333 63.8652 58.8038C63.8652 58.3743 63.7569 57.9963 63.5403 57.6746C63.3238 57.3513 63.0264 57.0987 62.6482 56.9186C62.27 56.7368 61.8305 56.6467 61.3311 56.6467H58.1392V63.8289H60.1658V60.9641H60.1933L62.0309 63.8289H64.3306L62.2167 60.8354C62.3573 60.7952 62.4915 60.7501 62.6175 60.6922L62.6191 60.689ZM61.0078 58.0976C61.2842 58.0976 61.4959 58.1652 61.6414 58.2987C61.7868 58.4338 61.8595 58.6108 61.8595 58.8327C61.8595 59.0547 61.7868 59.2333 61.6414 59.3668C61.4959 59.5019 61.2842 59.5679 61.0078 59.5679H60.1658V58.0944H61.0078V58.0976Z" fill="white"/>
<path d="M70.0486 56.6453H68.022V63.8274H70.0486V56.6453Z" fill="white"/>
<path d="M76.4486 58.2393C76.5731 58.1717 76.7412 58.1379 76.9496 58.1379C77.2131 58.1379 77.4571 58.1894 77.6801 58.294C77.9032 58.3985 78.1262 58.5578 78.3492 58.7733L79.626 57.5122C79.3222 57.1969 78.9391 56.9524 78.4753 56.7803C78.0131 56.6082 77.5105 56.5229 76.9707 56.5229C76.4309 56.5229 75.9476 56.6114 75.542 56.79C75.1363 56.9685 74.8228 57.2259 74.5998 57.5621C74.3767 57.8983 74.2652 58.2988 74.2652 58.7621C74.2652 59.1192 74.3266 59.4199 74.4478 59.6644C74.5691 59.9106 74.7307 60.1148 74.9295 60.2805C75.1282 60.4446 75.3464 60.5845 75.5824 60.6988C75.8183 60.813 76.0575 60.9111 76.2967 60.9915C76.5359 61.0719 76.7557 61.1508 76.9561 61.228C77.1549 61.3052 77.3165 61.3936 77.4377 61.4902C77.5589 61.5883 77.6204 61.7105 77.6204 61.8585C77.6204 62.0065 77.5492 62.1223 77.407 62.206C77.2648 62.2896 77.0563 62.3314 76.7783 62.3314C76.447 62.3314 76.1367 62.2655 75.8458 62.1352C75.5549 62.0049 75.2785 61.8135 75.0151 61.5658L73.748 62.8269C74.1327 63.2177 74.5545 63.5008 75.0103 63.6794C75.466 63.8579 76.0026 63.9464 76.6167 63.9464C77.5703 63.9464 78.3072 63.747 78.8309 63.3464C79.3545 62.9459 79.6163 62.3797 79.6163 61.6462C79.6163 61.2827 79.5549 60.9738 79.4337 60.7181C79.3125 60.4623 79.1509 60.2484 78.9521 60.0778C78.7533 59.9057 78.5351 59.7658 78.2991 59.6548C78.0632 59.5438 77.824 59.4473 77.5848 59.3669C77.3456 59.2864 77.1258 59.2092 76.9254 59.1352C76.7266 59.0612 76.565 58.9792 76.4438 58.8875C76.3226 58.7974 76.2612 58.68 76.2612 58.5401C76.2612 58.4001 76.3242 58.3052 76.4486 58.2377V58.2393Z" fill="white"/>
<path d="M85.5249 62.1529V60.9819H88.636V59.3476H85.5249V58.3198H88.9512V56.6453H85.5249H85.1403H83.4983V63.8274H85.1403H85.5249H89.011V62.1529H85.5249Z" fill="white"/>
<path d="M25.3393 56.6453H23.7619H21.7352H21.572H18.8601L19.8573 58.3648H21.7352V63.8274H23.7619V58.3648H26.3381L25.3393 56.6453Z" fill="white"/>
</g>
</g>
<defs>
<clipPath id="clip0_5223_7066">
<rect width="89" height="64" fill="white"/>
</clipPath>
<clipPath id="clip1_5223_7066">
<rect width="89" height="64" fill="white"/>
</clipPath>
<clipPath id="clip2_5223_7066">
<rect width="37.1872" height="5.09343" fill="white" transform="translate(26.7 47.6123)"/>
</clipPath>
</defs>
</svg>
