<svg width="64" height="1080" viewBox="0 0 64 1080" fill="none" xmlns="http://www.w3.org/2000/svg">
<path d="M-8.72282e-06 865.991H63.1291V1080H-8.72282e-06V865.991Z" fill="#F1F5F9"/>
<path d="M-8.72282e-06 0H63.1291V889.941L-8.72282e-06 921.12V0Z" fill="black"/>
<g clip-path="url(#clip0_8584_2996)">
<path d="M35.9484 251.572C40.9158 251.572 43.118 247.812 43.118 242.861L43.118 232.713L19.8202 232.713L19.8202 239.231L28.7833 239.231L28.7833 239.694L19.8202 245.638L19.8202 253.565L29.3645 246.087C29.9548 249.648 32.7291 251.572 35.9484 251.572ZM32.6746 240.904L32.6746 239.231L38.4775 239.231L38.4775 241.099C38.4775 243.241 38.1097 245.054 35.5715 245.054C33.0333 245.054 32.6701 243.046 32.6701 240.909L32.6746 240.904ZM43.118 212.338L19.8202 203.576L19.8202 210.317L24.1065 211.749L24.1065 220.456L19.8202 221.888L19.8202 228.624L43.118 219.862L43.118 212.343L43.118 212.338ZM28.7425 213.293L36.8747 216.01L36.8747 216.191L28.7425 218.907L28.7425 213.293ZM43.118 183.758L43.118 199.654L37.9871 199.654L37.9871 190.285L34.0958 190.285L34.0958 199.26L28.9695 199.26L28.9695 190.285L24.942 190.285L24.942 199.654L19.8157 199.654L19.8157 183.758L43.118 183.758ZM32.8245 165.279L32.8245 178.028C29.4236 177.958 26.5267 177.699 23.6207 175.464C20.4287 173.007 19.0483 169.507 19.0483 165.312C19.0483 157.431 24.0203 152.137 31.3397 152.137C38.6591 152.137 43.8944 157.269 43.8944 165.354C43.8944 170.509 41.724 174.505 37.3651 176.665L34.9586 170.476C37.1789 169.581 38.6637 167.681 38.6637 165.057C38.6637 160.755 34.8677 158.914 31.3125 158.914C27.7572 158.914 24.0203 161.056 24.0203 165.344C24.0203 168.177 25.3825 170.147 28.0705 170.411L28.0705 165.279L32.8245 165.279ZM43.118 130.167L43.118 149.415L37.9871 149.415L37.9871 143.101L19.8202 143.101L19.8202 136.477L37.9871 136.477L37.9871 130.167L43.118 130.167ZM43.118 109.825L43.118 125.717L37.9871 125.717L37.9871 116.348L34.0958 116.348L34.0958 125.323L28.9695 125.323L28.9695 116.348L24.942 116.348L24.942 125.717L19.8157 125.717L19.8157 109.825L43.118 109.825ZM43.118 95.5975L43.118 102.116L19.8202 102.116L19.8202 95.5975L34.0958 84.8051L34.0958 84.7356L19.8202 84.7356L19.8202 78.2129L43.118 78.2129L43.118 84.731L28.8742 95.5233L28.8742 95.5928L43.118 95.5928L43.118 95.5975Z" fill="white"/>
<path d="M43.1166 256.894C43.1165 258.452 41.9348 259.814 40.2924 259.814C38.6498 259.814 37.4545 258.408 37.4545 256.894C37.4545 255.381 38.6435 253.974 40.2924 253.974C41.941 253.974 43.1166 255.368 43.1166 256.894ZM42.6127 256.9C42.6125 255.636 41.6329 254.511 40.2924 254.51C38.9515 254.51 37.9779 255.652 37.9779 256.894L37.9779 256.897C37.9779 258.158 38.9546 259.294 40.2924 259.294C41.6299 259.293 42.6127 258.164 42.6127 256.9ZM41.9037 256.969C41.9037 257.521 41.7697 258.29 40.9984 258.291L40.9984 258.288C40.5598 258.288 40.2768 258.01 40.1586 257.644L38.7953 258.316L38.7953 257.398L40.0248 256.835L40.0248 256.585L38.7953 256.585L38.7953 255.753L41.9037 255.753L41.9037 256.969ZM41.3685 256.585L40.5404 256.585L40.5404 256.887C40.5404 257.136 40.6061 257.427 40.9418 257.427C41.318 257.427 41.3685 257.112 41.3685 256.835L41.3685 256.585Z" fill="white"/>
</g>
<defs>
<clipPath id="clip0_8584_2996">
<rect width="181.621" height="26.3038" fill="white" transform="translate(44.7164 78.1925) rotate(90)"/>
</clipPath>
</defs>
</svg>
