<svg width="64" height="1080" viewBox="0 0 64 1080" fill="none" xmlns="http://www.w3.org/2000/svg">
<path d="M-8.72282e-06 865.991H63.1291V1080H-8.72282e-06V865.991Z" fill="#26E880"/>
<path d="M-8.72282e-06 0H63.1291V889.941L-8.72282e-06 921.12V0Z" fill="black"/>
<g clip-path="url(#clip0_8584_2999)">
<g clip-path="url(#clip1_8584_2999)">
<path d="M36.087 238.542C40.6549 238.542 42.68 235.06 42.68 230.475L42.68 221.078L21.2558 221.078L21.2558 227.114L29.4981 227.114L29.4981 227.543L21.2558 233.047L21.2558 240.388L30.0326 233.463C30.5754 236.76 33.1266 238.542 36.087 238.542ZM33.0765 228.664L33.0765 227.114L38.4127 227.114L38.4127 228.844C38.4127 230.827 38.0745 232.506 35.7404 232.506C33.4063 232.506 33.0723 230.647 33.0723 228.668L33.0765 228.664ZM42.68 202.209L21.2558 194.095L21.2558 200.337L25.1974 201.664L25.1974 209.727L21.2558 211.053L21.2558 217.291L42.68 209.177L42.68 202.214L42.68 202.209ZM29.4605 203.094L36.9388 205.609L36.9388 205.777L29.4605 208.293L29.4605 203.094ZM42.68 175.742L42.68 190.463L37.9618 190.463L37.9618 181.787L34.3834 181.787L34.3834 190.098L29.6693 190.098L29.6693 181.787L25.9657 181.787L25.9657 190.463L21.2516 190.463L21.2516 175.742L42.68 175.742ZM33.2143 158.63L33.2143 170.436C30.0869 170.371 27.4229 170.131 24.7506 168.062C21.8153 165.786 20.5459 162.545 20.5459 158.66C20.5459 151.361 25.1181 146.458 31.8489 146.458C38.5797 146.458 43.394 151.211 43.394 158.698C43.394 163.472 41.3982 167.173 37.3897 169.173L35.1767 163.442C37.2185 162.614 38.5839 160.853 38.5839 158.423C38.5839 154.439 35.0932 152.735 31.8239 152.735C28.5545 152.735 25.1181 154.718 25.1181 158.69C25.1181 161.313 26.3707 163.137 28.8426 163.382L28.8426 158.63L33.2143 158.63ZM42.68 126.113L42.68 143.938L37.9618 143.938L37.9618 138.091L21.2558 138.091L21.2558 131.956L37.9618 131.956L37.9618 126.113L42.68 126.113ZM42.68 107.275L42.68 121.992L37.9618 121.992L37.9618 113.315L34.3834 113.315L34.3834 121.627L29.6693 121.627L29.6693 113.315L25.9657 113.315L25.9657 121.992L21.2516 121.992L21.2516 107.275L42.68 107.275ZM42.68 94.0993L42.68 100.135L21.2558 100.135L21.2558 94.0993L34.3834 84.1048L34.3834 84.0405L21.2558 84.0405L21.2558 78L42.68 78L42.68 84.0362L29.5816 94.0306L29.5816 94.095L42.68 94.095L42.68 94.0993Z" fill="white"/>
<path d="M42.4315 243.471C42.4314 244.914 41.3724 246.175 39.9012 246.175C38.4301 246.175 37.3602 244.873 37.3602 243.471C37.3602 242.07 38.4245 240.767 39.9012 240.767C41.378 240.767 42.4315 242.058 42.4315 243.471ZM41.9803 243.477C41.9803 242.306 41.1022 241.263 39.9012 241.263C38.7004 241.263 37.8279 242.321 37.8279 243.471L37.8279 243.474C37.828 244.642 38.7032 245.693 39.9012 245.693C41.0993 245.693 41.9802 244.648 41.9803 243.477ZM41.3445 243.542C41.3445 244.053 41.2248 244.764 40.534 244.764L40.534 244.761C40.1411 244.761 39.8879 244.504 39.782 244.166L38.5613 244.788L38.5613 243.938L39.6619 243.416L39.6619 243.185L38.5613 243.185L38.5613 242.414L41.3445 242.414L41.3445 243.542ZM40.866 243.185L40.1248 243.185L40.1248 243.465C40.1249 243.696 40.1833 243.964 40.4842 243.964C40.821 243.964 40.866 243.672 40.866 243.416L40.866 243.185Z" fill="white"/>
<path d="M21.2933 279.446L21.2933 272.863L29.5746 269.99L24.8978 267.141L24.8978 263.672L21.2933 262.391L21.2933 255.943L42.6585 264.515L42.6585 270.969L21.2933 279.446ZM29.5726 287.79L42.6585 292.496L42.6585 299.107L21.2933 290.726L21.2933 284.712L42.6585 276.453L42.6585 283.159L29.5726 287.79ZM29.5775 265.336L29.5775 269.989L36.2005 267.691L29.5775 265.336Z" fill="white"/>
</g>
</g>
<defs>
<clipPath id="clip0_8584_2999">
<rect width="222" height="24" fill="white" transform="translate(43.5645 78) rotate(90)"/>
</clipPath>
<clipPath id="clip1_8584_2999">
<rect width="221.234" height="24" fill="white" transform="translate(43.5645 78) rotate(90)"/>
</clipPath>
</defs>
</svg>
