<svg width="64" height="1080" viewBox="0 0 64 1080" fill="none" xmlns="http://www.w3.org/2000/svg">
<path d="M-1.09343e-06 865.991H63.1291V1080H-1.09343e-06V865.991Z" fill="black"/>
<path d="M-1.09343e-06 0H63.1291V889.941L-1.09343e-06 921.12V0Z" fill="#002FFF"/>
<g clip-path="url(#clip0_8584_3000)">
<path d="M27.6748 92.0177L43.5204 80.7455L43.5204 78.0001L19.7291 78.0001L19.7291 81.75L35.5689 81.75L19.7291 93.0222L19.7291 95.7732L43.5204 95.7732L43.5204 92.0177L27.6748 92.0177Z" fill="white"/>
<path d="M43.5147 106.583L43.5147 102.827L19.7234 102.827L19.7234 106.583L43.5147 106.583Z" fill="white"/>
<path d="M33.5467 152.91L33.5467 142.156L43.5146 142.156L43.5146 138.401L19.7234 138.401L19.7234 142.156L29.697 142.156L29.697 153.574L27.6863 152.91L19.7234 152.91L19.7234 156.66L43.5204 156.66L43.5204 152.91L33.5467 152.91Z" fill="white"/>
<path d="M39.665 161.749L39.665 170.092L37.6542 169.422L19.7234 169.422L19.7234 173.178L39.665 173.178L39.665 180.845L43.5147 182.123L43.5147 160.477L39.665 161.749Z" fill="white"/>
<path d="M33.5467 200.772L33.5467 190.018L43.5204 190.018L43.5204 186.263L19.7234 186.263L19.7234 190.018L29.697 190.018L29.697 201.436L27.6863 200.771L19.7234 200.771L19.7234 204.527L43.5146 204.527L43.5146 200.772L33.5467 200.772Z" fill="white"/>
<path d="M27.5889 245.559L41.7216 240.057L27.6519 234.577L43.5204 229.616L43.5204 225.113L19.8723 232.897L19.7291 232.942L19.7291 235.525L31.3469 240.057L19.7291 244.577L19.7291 247.172L43.2397 254.911L43.5204 255.001L43.5204 251.083L27.5889 245.559Z" fill="white"/>
<path d="M28.9752 216.263L38.0838 219.6L38.1583 219.628L43.9271 217.725L19.7291 208.869L19.7291 212.87L25.1198 214.851L25.137 223.908L28.9752 222.636L28.9752 216.263Z" fill="white"/>
<path d="M43.5147 278.087L43.5147 272.992L31.9484 262.646L43.5147 262.646L43.5147 258.896L19.7234 258.896L19.7234 262.646L31.2954 262.646L19.7234 272.992L19.7234 278.087L31.6219 267.456L43.5147 278.087Z" fill="white"/>
<path d="M29.7257 123.691L29.7257 127.636L23.5731 127.636L23.5731 123.434C23.5731 119.099 27.1936 115.572 31.6448 115.572C36.096 115.572 39.7165 119.099 39.7165 123.434L39.7165 129.696L43.5662 130.918L43.5662 123.434C43.5662 117.034 38.2213 111.822 31.6448 111.822C25.0683 111.822 19.7234 117.028 19.7234 123.434L19.7234 131.386L33.5696 131.386L33.5696 124.919L29.72 123.697L29.7257 123.691Z" fill="white"/>
<path d="M43.5313 283.348C43.5313 284.701 42.4671 285.883 40.9883 285.883C39.5097 285.883 38.4347 284.662 38.4346 283.348C38.4346 282.034 39.5041 280.813 40.9883 280.813C42.4727 280.813 43.5313 282.023 43.5313 283.348ZM43.0782 283.354C43.0782 282.256 42.1954 281.279 40.9883 281.279C39.7814 281.279 38.9053 282.27 38.9053 283.348L38.9053 283.351C38.9055 284.446 39.7843 285.431 40.9883 285.431C42.1925 285.431 43.078 284.452 43.0782 283.354ZM42.4395 283.414C42.4395 283.893 42.3187 284.561 41.6241 284.561L41.6241 284.558C41.2293 284.558 40.9746 284.317 40.8682 284L39.6417 284.583L39.6417 283.786L40.7471 283.297L40.7471 283.08L39.6417 283.08L39.6417 282.357L42.4395 282.357L42.4395 283.414ZM41.9571 283.08L41.213 283.08L41.213 283.342C41.213 283.559 41.2713 283.811 41.5733 283.811C41.912 283.811 41.9571 283.537 41.9571 283.297L41.9571 283.08Z" fill="white"/>
<path d="M33.3405 336.857L21.0525 333.051L20.2905 330.774C20.027 329.976 19.7979 329.162 19.6146 328.358C19.4255 327.543 19.288 326.723 19.2021 325.914C19.1162 325.105 19.0703 324.346 19.0703 323.665C19.0703 321.712 19.4141 320.043 20.09 318.699C20.7718 317.343 21.7055 316.299 22.8685 315.585C24.0256 314.876 25.3833 314.463 26.9072 314.357C28.4138 314.257 30.0236 314.463 31.6906 314.988C32.9796 315.384 33.9363 315.741 34.9732 316.344L37.5683 314.184L37.5683 322.973C36.8063 322.091 35.9069 321.299 34.8987 320.618C33.8217 319.893 32.6588 319.34 31.45 318.972C30.2069 318.598 29.0382 318.464 27.9842 318.565C26.9415 318.665 26.0192 318.961 25.2573 319.446C24.5011 319.926 23.8939 320.602 23.4642 321.45C23.0289 322.304 22.8112 323.336 22.8112 324.513C22.8112 325.557 22.9085 326.589 23.1091 327.577C23.2924 328.492 23.5616 329.329 23.8996 330.06L29.6054 331.818L29.6054 326.851L33.3462 327.973L33.3462 336.851L33.3405 336.857Z" fill="white"/>
<path d="M43.4802 314.676L39.7451 313.509L39.7394 300.591L40.4612 300.848L43.4745 298.337L43.4802 314.676Z" fill="white"/>
<path d="M27.1535 310.463C25.9619 310.083 24.8678 309.525 23.9053 308.805C22.9429 308.085 22.1065 307.243 21.4134 306.3C20.7202 305.357 20.1817 304.319 19.8151 303.225C19.4484 302.126 19.2594 300.993 19.2594 299.86C19.2594 298.259 19.6948 296.908 20.5483 295.859C21.4248 294.788 22.6851 294.213 24.2949 294.14L24.61 294.129L25.9276 298.32L25.4063 298.348C24.4668 298.398 23.7965 298.649 23.4069 299.101C23.0059 299.57 22.7997 300.273 22.7997 301.194C22.7997 301.741 22.9028 302.299 23.0976 302.851C23.2981 303.409 23.5903 303.939 23.9684 304.43C24.3465 304.921 24.8105 305.362 25.3604 305.742C25.9104 306.121 26.5405 306.428 27.2337 306.646C28.7461 307.092 29.8804 306.997 30.6079 306.367C31.3584 305.714 31.7422 304.626 31.7422 303.141C31.7422 302.862 31.7193 302.533 31.6677 302.159C31.6162 301.78 31.5417 301.372 31.4443 300.943C31.3526 300.524 31.2266 300.072 31.0777 299.615C30.9287 299.163 30.7626 298.716 30.5735 298.298L30.2069 297.477L37.5683 299.882L37.5683 303.716L34.9846 302.873L34.9846 302.879C35.0534 303.169 35.1107 303.482 35.1508 303.811C35.1966 304.123 35.2252 304.43 35.2481 304.72C35.2711 305.016 35.2825 305.256 35.2825 305.451C35.2825 306.562 35.082 307.527 34.6925 308.32C34.2915 309.123 33.7129 309.754 32.9796 310.195C32.252 310.63 31.3756 310.876 30.3788 310.92C29.4049 310.965 28.3164 310.809 27.1535 310.457L27.1535 310.463Z" fill="white"/>
<path d="M39.7394 326.612C40.1289 327.661 40.3294 328.76 40.3294 329.888C40.3294 331.015 40.1576 331.969 39.8196 332.84C39.4931 333.682 38.8973 334.413 38.0552 335.01L37.7114 335.256L40.5758 338.766L40.8851 338.571C41.8819 337.951 42.6668 337.014 43.2339 335.78C43.7838 334.57 44.0646 332.895 44.0646 330.797C44.0646 329.045 43.7437 327.315 43.1136 325.658C42.4834 324 41.6069 322.46 40.5013 321.065C40.2607 320.758 40.0029 320.457 39.7394 320.167L39.7394 326.612Z" fill="white"/>
</g>
<defs>
<clipPath id="clip0_8584_3000">
<rect width="261" height="25" fill="white" transform="translate(44.0646 78) rotate(90)"/>
</clipPath>
</defs>
</svg>
