<?xml version="1.0" encoding="UTF-8"?>
<svg id="Layer_1" xmlns="http://www.w3.org/2000/svg" version="1.1" viewBox="0 0 64 1080">
  <!-- Generator: Adobe Illustrator 30.3.0, SVG Export Plug-In . SVG Version: 2.1.3 Build 182)  -->
  <defs>
    <style>
      .st0, .st1 {
        fill: #1e96fc;
      }

      .st1 {
        isolation: isolate;
        opacity: .5;
      }

      .st2 {
        fill: #fff;
      }
    </style>
  </defs>
  <path class="st1" d="M0,866h64v214H0v-214Z"/>
  <path class="st0" d="M0,0h64v889.9L0,921.1V0Z"/>
  <path class="st2" d="M43,90.4c0-6.7-5.5-12.1-12.2-12.1s-12.2,5.4-12.2,12.1,5.5,12.1,12.2,12.1,12.2-5.4,12.2-12.1ZM21.1,90.3c0-5.3,4.3-9.5,9.6-9.5s9.6,4.3,9.6,9.5-4.3,9.5-9.6,9.5-9.6-4.3-9.6-9.5Z"/>
  <path class="st2" d="M30.7,105.2h-12.3v2.4h12.3c5.3.2,9.6,4.3,9.6,9.6h0c0,.1,2.6.1,2.6.1,0-6.8-5.5-12.1-12.2-12.1Z"/>
  <path class="st2" d="M43,131.6c0-3.9-1.8-7.3-4.7-9.6h12.1v-2.6h-19.8c-6.7,0-12.1,5.5-12.1,12.1s5.5,12.1,12.2,12.1,12.2-5.4,12.2-12.1ZM21.1,131.6c0-5.3,4.3-9.5,9.6-9.5s9.6,4.3,9.6,9.5-4.3,9.5-9.6,9.5-9.6-4.3-9.6-9.5Z"/>
  <path class="st2" d="M46.9,147.7c0,1,.8,1.7,1.7,1.7s1.7-.8,1.7-1.7-.8-1.7-1.7-1.7-1.7.8-1.7,1.7h0Z"/>
  <path class="st2" d="M43,149v-2.6h-24.5v2.6h24.5Z"/>
  <path class="st2" d="M20,152.1c.2,0,.4,0,.6.1.2,0,.4.2.5.3.1.1.3.3.3.5,0,.2.1.4.1.6s0,.4-.1.6c0,.2-.2.4-.3.5-.1.1-.3.3-.5.3-.2,0-.4.1-.6.1s-.4,0-.6-.1c-.2,0-.4-.2-.5-.3-.1-.1-.3-.3-.3-.5,0-.2-.1-.4-.1-.6s0-.4.1-.6c0-.2.2-.4.3-.5.1-.1.3-.3.5-.3.2,0,.4-.1.6-.1ZM20,152.3c-.2,0-.4,0-.5.1-.2,0-.3.2-.4.3-.1.1-.2.3-.3.4,0,.2-.1.3-.1.5s0,.4.1.5c0,.2.2.3.3.4.1.1.3.2.4.3.2,0,.3.1.5.1s.4,0,.5-.1c.2,0,.3-.2.4-.3.1-.1.2-.3.3-.4,0-.2.1-.3.1-.5s0-.4-.1-.5c0-.2-.2-.3-.3-.4-.1-.1-.3-.2-.4-.3-.2,0-.3-.1-.5-.1ZM20.9,153.1v.6c0,0,0,.2,0,.2,0,0,0,.1,0,.2,0,0,0,.1-.2.1,0,0-.1,0-.2,0s-.2,0-.3-.1c0,0-.1-.2-.2-.3l-.8.5v-.4l.8-.4v-.2h-.8v-.3h1.8ZM20.1,153.7c0,0,0,.2,0,.3,0,0,.1.1.2.1s.2,0,.2-.1c0,0,0-.2,0-.2v-.3h-.5v.3h0Z"/>
</svg>