<svg width="64" height="1080" viewBox="0 0 64 1080" fill="none" xmlns="http://www.w3.org/2000/svg">
<g clip-path="url(#clip0_8584_2997)">
<path d="M0 202.436H63.1291V1092.38L0 1123.56V202.436Z" fill="#1E96FC"/>
<path d="M42.9608 364.14C42.9608 357.433 37.4884 352 30.7385 352C23.9887 352 18.5163 357.433 18.5163 364.14C18.5163 370.848 23.9887 376.281 30.7385 376.281C37.4884 376.281 42.9608 370.848 42.9608 364.14ZM21.1115 364.117C21.1115 358.851 25.41 354.579 30.7155 354.579C36.021 354.579 40.3195 358.851 40.3195 364.117C40.3195 369.384 36.021 373.656 30.7155 373.656C25.41 373.656 21.1115 369.384 21.1115 364.117Z" fill="white"/>
<path d="M30.7385 378.951L18.4645 378.951L18.4645 381.381L30.7385 381.381C36.0325 381.553 40.3138 385.71 40.3138 390.966C40.3138 391 40.3138 391.091 40.3138 391.091L42.9608 391.091C42.9608 384.326 37.4884 378.951 30.7385 378.951Z" fill="white"/>
<path d="M42.9608 405.416C42.9608 401.534 41.1251 398.08 38.271 395.855L50.4127 395.855L50.4127 393.276L30.6349 393.276C23.9311 393.333 18.5162 398.743 18.5162 405.416C18.5162 412.09 23.9886 417.557 30.7385 417.557C37.4884 417.557 42.9608 412.124 42.9608 405.416ZM21.1115 405.394C21.1115 400.127 25.41 395.855 30.7155 395.855C36.021 395.855 40.3195 400.127 40.3195 405.394C40.3195 410.66 36.021 414.932 30.7155 414.932C25.41 414.932 21.1115 410.66 21.1115 405.394Z" fill="white"/>
<path d="M46.9198 421.497C46.9198 422.452 47.7024 423.229 48.6633 423.229C49.6243 423.229 50.4127 422.457 50.4127 421.497C50.4127 420.536 49.6301 419.764 48.6691 419.764C47.7081 419.764 46.9255 420.542 46.9255 421.497L46.9198 421.497Z" fill="white"/>
<path d="M42.9608 422.783L42.9608 420.204L18.4127 420.204L18.4127 422.783L42.9608 422.783Z" fill="white"/>
<path d="M20.0066 425.877C20.231 425.877 20.4382 425.917 20.6338 426.003C20.8295 426.089 21.0021 426.203 21.146 426.346C21.2898 426.489 21.4049 426.661 21.4912 426.855C21.5775 427.049 21.6178 427.255 21.6178 427.478C21.6178 427.701 21.5775 427.907 21.4912 428.102C21.4049 428.296 21.2898 428.468 21.146 428.611C21.0021 428.753 20.8295 428.874 20.6338 428.954C20.4382 429.039 20.231 429.079 20.0066 429.079C19.7822 429.079 19.575 429.039 19.3851 428.954C19.1895 428.868 19.0226 428.753 18.8788 428.611C18.7349 428.468 18.6198 428.296 18.5392 428.102C18.4587 427.907 18.4127 427.701 18.4127 427.478C18.4127 427.255 18.4529 427.049 18.5392 426.855C18.6198 426.661 18.7349 426.489 18.8788 426.346C19.0226 426.203 19.1895 426.083 19.3851 426.003C19.5808 425.917 19.7879 425.877 20.0066 425.877ZM20.0066 426.129C19.8225 426.129 19.6498 426.163 19.483 426.232C19.3161 426.3 19.1722 426.397 19.0456 426.518C18.919 426.638 18.8212 426.781 18.7522 426.946C18.6831 427.112 18.6486 427.29 18.6486 427.473C18.6486 427.656 18.6831 427.839 18.7522 427.999C18.8212 428.164 18.919 428.307 19.0456 428.428C19.1722 428.548 19.3161 428.645 19.483 428.719C19.6498 428.788 19.8225 428.822 20.0066 428.822C20.1907 428.822 20.3749 428.788 20.536 428.719C20.7029 428.651 20.8467 428.553 20.9676 428.428C21.0884 428.307 21.1863 428.164 21.2611 427.999C21.3301 427.833 21.3646 427.656 21.3646 427.473C21.3646 427.29 21.3301 427.107 21.2611 426.946C21.192 426.781 21.0942 426.638 20.9676 426.518C20.841 426.397 20.7029 426.3 20.536 426.232C20.3691 426.163 20.1907 426.129 20.0066 426.129ZM20.9216 426.855L20.9216 427.49C20.9216 427.575 20.91 427.656 20.8928 427.736C20.8755 427.816 20.841 427.884 20.8007 427.953C20.7604 428.022 20.7029 428.067 20.6396 428.102C20.5705 428.142 20.49 428.159 20.3922 428.159C20.2598 428.159 20.1505 428.119 20.0699 428.044C19.9893 427.97 19.9318 427.867 19.903 427.741L19.1089 428.227L19.1089 427.833L19.8685 427.41L19.8685 427.175L19.1089 427.175L19.1089 426.849L20.9216 426.849L20.9216 426.855ZM20.1274 427.444C20.1274 427.535 20.1447 427.627 20.1792 427.713C20.2138 427.799 20.2886 427.839 20.3979 427.839C20.4957 427.839 20.5648 427.799 20.5936 427.724C20.6281 427.644 20.6453 427.564 20.6453 427.484L20.6453 427.187L20.1274 427.187L20.1274 427.45L20.1274 427.444Z" fill="white"/>
<path d="M-0.2949 -601.038H62.8342V288.903L-0.2949 320.082V-601.038Z" fill="black"/>
<g clip-path="url(#clip1_8584_2997)">
<path d="M35.6535 251.572C40.6209 251.572 42.8231 247.812 42.8231 242.861L42.8231 232.713L19.5253 232.713L19.5253 239.231L28.4885 239.231L28.4885 239.694L19.5253 245.638L19.5253 253.565L29.0697 246.087C29.6599 249.648 32.4342 251.572 35.6535 251.572ZM32.3797 240.904L32.3797 239.231L38.1826 239.231L38.1826 241.099C38.1826 243.241 37.8148 245.054 35.2766 245.054C32.7384 245.054 32.3752 243.046 32.3752 240.909L32.3797 240.904ZM42.8231 212.338L19.5253 203.576L19.5253 210.317L23.8117 211.749L23.8117 220.456L19.5253 221.888L19.5253 228.624L42.8231 219.862L42.8231 212.343L42.8231 212.338ZM28.4476 213.293L36.5798 216.01L36.5798 216.191L28.4476 218.907L28.4476 213.293ZM42.8231 183.758L42.8231 199.654L37.6922 199.654L37.6922 190.285L33.801 190.285L33.801 199.26L28.6746 199.26L28.6746 190.285L24.6471 190.285L24.6471 199.654L19.5208 199.654L19.5208 183.758L42.8231 183.758ZM32.5296 165.279L32.5296 178.028C29.1287 177.958 26.2318 177.699 23.3258 175.464C20.1338 173.007 18.7534 169.507 18.7534 165.312C18.7534 157.431 23.7254 152.137 31.0448 152.137C38.3642 152.137 43.5995 157.269 43.5995 165.354C43.5995 170.509 41.4291 174.505 37.0702 176.665L34.6637 170.476C36.884 169.581 38.3688 167.681 38.3688 165.057C38.3688 160.755 34.5729 158.914 31.0176 158.914C27.4623 158.914 23.7254 161.056 23.7254 165.344C23.7254 168.177 25.0876 170.147 27.7756 170.411L27.7756 165.279L32.5296 165.279ZM42.8231 130.167L42.8231 149.415L37.6922 149.415L37.6922 143.101L19.5253 143.101L19.5253 136.477L37.6922 136.477L37.6922 130.167L42.8231 130.167ZM42.8231 109.825L42.8231 125.717L37.6922 125.717L37.6922 116.348L33.801 116.348L33.801 125.323L28.6746 125.323L28.6746 116.348L24.6471 116.348L24.6471 125.717L19.5208 125.717L19.5208 109.825L42.8231 109.825ZM42.8231 95.5975L42.8231 102.116L19.5253 102.116L19.5253 95.5975L33.801 84.8051L33.801 84.7356L19.5253 84.7356L19.5253 78.2129L42.8231 78.2129L42.8231 84.731L28.5793 95.5233L28.5793 95.5928L42.8231 95.5928L42.8231 95.5975Z" fill="white"/>
<path d="M42.8217 256.894C42.8217 258.452 41.6399 259.814 39.9975 259.814C38.3549 259.814 37.1596 258.408 37.1596 256.894C37.1596 255.381 38.3486 253.974 39.9975 253.974C41.6461 253.974 42.8217 255.368 42.8217 256.894ZM42.3178 256.9C42.3176 255.636 41.338 254.511 39.9975 254.51C38.6566 254.51 37.683 255.652 37.683 256.894L37.683 256.897C37.683 258.158 38.6597 259.294 39.9975 259.294C41.335 259.293 42.3178 258.164 42.3178 256.9ZM41.6088 256.969C41.6088 257.521 41.4748 258.29 40.7035 258.291L40.7035 258.288C40.2649 258.288 39.9819 258.01 39.8637 257.644L38.5004 258.316L38.5004 257.398L39.7299 256.835L39.7299 256.585L38.5004 256.585L38.5004 255.753L41.6088 255.753L41.6088 256.969ZM41.0737 256.585L40.2455 256.585L40.2455 256.887C40.2455 257.136 40.3112 257.427 40.6469 257.427C41.0231 257.427 41.0736 257.112 41.0737 256.835L41.0737 256.585Z" fill="white"/>
</g>
</g>
<defs>
<clipPath id="clip0_8584_2997">
<rect width="63.1291" height="1080" fill="white"/>
</clipPath>
<clipPath id="clip1_8584_2997">
<rect width="181.621" height="26.3038" fill="white" transform="translate(44.4215 78.1925) rotate(90)"/>
</clipPath>
</defs>
</svg>
