<?xml version="1.0" encoding="UTF-8"?>
<svg id="Layer_1" xmlns="http://www.w3.org/2000/svg" xmlns:xlink="http://www.w3.org/1999/xlink" version="1.1" viewBox="0 0 64 1080">
  <!-- Generator: Adobe Illustrator 30.3.0, SVG Export Plug-In . SVG Version: 2.1.3 Build 182)  -->
  <defs>
    <style>
      .st0 {
        fill: none;
      }

      .st1 {
        fill: #002fff;
      }

      .st2 {
        fill: #fff;
      }

      .st3 {
        clip-path: url(#clippath);
      }
    </style>
    <clipPath id="clippath">
      <rect class="st0" x="19.1" y="78" width="25" height="261"/>
    </clipPath>
  </defs>
  <path d="M0,866h64v214H0v-214Z"/>
  <path class="st1" d="M0,0h64v889.9L0,921.1V0Z"/>
  <g class="st3">
    <g>
      <path class="st2" d="M27.7,92l15.8-11.3v-2.7h-23.8v3.7h15.8l-15.8,11.3v2.8h23.8v-3.8h-15.8Z"/>
      <path class="st2" d="M43.5,106.6v-3.8h-23.8v3.8h23.8Z"/>
      <path class="st2" d="M33.5,152.9v-10.8h10v-3.8h-23.8v3.8h10v11.4l-2-.7h-8v3.8h23.8v-3.8h-10Z"/>
      <path class="st2" d="M39.7,161.7v8.3l-2-.7h-17.9v3.8h19.9v7.7l3.8,1.3v-21.6l-3.8,1.3Z"/>
      <path class="st2" d="M33.5,200.8v-10.8h10v-3.8h-23.8v3.8h10v11.4l-2-.7h-8v3.8h23.8v-3.8h-10Z"/>
      <path class="st2" d="M27.6,245.6l14.1-5.5-14.1-5.5,15.9-5v-4.5l-23.6,7.8h-.1v2.6l11.6,4.5-11.6,4.5v2.6l23.5,7.7h.3c0,0,0-3.8,0-3.8l-15.9-5.5Z"/>
      <path class="st2" d="M29,216.3l9.1,3.3h0s5.8-1.9,5.8-1.9l-24.2-8.9v4l5.4,2v9.1s3.9-1.3,3.9-1.3v-6.4Z"/>
      <path class="st2" d="M43.5,278.1v-5.1l-11.6-10.3h11.6v-3.8h-23.8v3.8h11.6l-11.6,10.3v5.1l11.9-10.6,11.9,10.6Z"/>
      <path class="st2" d="M29.7,123.7v3.9h-6.2v-4.2c0-4.3,3.6-7.9,8.1-7.9s8.1,3.5,8.1,7.9v6.3l3.8,1.2v-7.5c0-6.4-5.3-11.6-11.9-11.6s-11.9,5.2-11.9,11.6v8h13.8v-6.5l-3.8-1.2h0Z"/>
      <path class="st2" d="M43.5,283.3c0,1.4-1.1,2.5-2.5,2.5s-2.6-1.2-2.6-2.5c0-1.3,1.1-2.5,2.6-2.5s2.5,1.2,2.5,2.5ZM43.1,283.4c0-1.1-.9-2.1-2.1-2.1s-2.1,1-2.1,2.1h0c0,1.1.9,2.1,2.1,2.1s2.1-1,2.1-2.1ZM42.4,283.4c0,.5-.1,1.1-.8,1.1h0c-.4,0-.6-.2-.8-.6l-1.2.6v-.8l1.1-.5v-.2h-1.1v-.7h2.8v1.1ZM42,283.1h-.7v.3c0,.2,0,.5.4.5s.4-.3.4-.5v-.2Z"/>
      <path class="st2" d="M33.3,336.9l-12.3-3.8-.8-2.3c-.3-.8-.5-1.6-.7-2.4-.2-.8-.3-1.6-.4-2.4,0-.8-.1-1.6-.1-2.2,0-2,.3-3.6,1-5,.7-1.4,1.6-2.4,2.8-3.1,1.2-.7,2.5-1.1,4-1.2,1.5-.1,3.1.1,4.8.6,1.3.4,2.2.8,3.3,1.4l2.6-2.2v8.8c-.8-.9-1.7-1.7-2.7-2.4-1.1-.7-2.2-1.3-3.4-1.6-1.2-.4-2.4-.5-3.5-.4-1,.1-2,.4-2.7.9-.8.5-1.4,1.2-1.8,2-.4.9-.7,1.9-.7,3.1s0,2.1.3,3.1c.2.9.5,1.8.8,2.5l5.7,1.8v-5l3.7,1.1v8.9h0Z"/>
      <path class="st2" d="M43.5,314.7l-3.7-1.2v-12.9s.7.3.7.3l3-2.5v16.3Z"/>
      <path class="st2" d="M27.2,310.5c-1.2-.4-2.3-.9-3.2-1.7-1-.7-1.8-1.6-2.5-2.5-.7-.9-1.2-2-1.6-3.1-.4-1.1-.6-2.2-.6-3.4s.4-3,1.3-4c.9-1.1,2.1-1.6,3.7-1.7h.3s1.3,4.2,1.3,4.2h-.5c-.9,0-1.6.3-2,.8-.4.5-.6,1.2-.6,2.1s.1,1.1.3,1.7c.2.6.5,1.1.9,1.6.4.5.8.9,1.4,1.3.6.4,1.2.7,1.9.9,1.5.4,2.6.4,3.4-.3.8-.7,1.1-1.7,1.1-3.2s0-.6,0-1c0-.4-.1-.8-.2-1.2,0-.4-.2-.9-.4-1.3-.1-.5-.3-.9-.5-1.3l-.4-.8,7.4,2.4v3.8l-2.6-.8h0c0,.3.1.6.2.9,0,.3,0,.6,0,.9,0,.3,0,.5,0,.7,0,1.1-.2,2.1-.6,2.9-.4.8-1,1.4-1.7,1.9-.7.4-1.6.7-2.6.7-1,0-2.1-.1-3.2-.5h0Z"/>
      <path class="st2" d="M39.7,326.6c.4,1,.6,2.1.6,3.3s-.2,2.1-.5,3c-.3.8-.9,1.6-1.8,2.2l-.3.2,2.9,3.5.3-.2c1-.6,1.8-1.6,2.3-2.8.5-1.2.8-2.9.8-5s-.3-3.5-1-5.1c-.6-1.7-1.5-3.2-2.6-4.6-.2-.3-.5-.6-.8-.9v6.4Z"/>
    </g>
  </g>
</svg>