<?xml version="1.0" encoding="UTF-8"?>
<svg id="Layer_1" xmlns="http://www.w3.org/2000/svg" xmlns:xlink="http://www.w3.org/1999/xlink" version="1.1" viewBox="0 0 64 1080">
  <!-- Generator: Adobe Illustrator 30.3.0, SVG Export Plug-In . SVG Version: 2.1.3 Build 182)  -->
  <defs>
    <style>
      .st0 {
        fill: none;
      }

      .st1 {
        fill: #fff;
      }

      .st2 {
        fill: #f1f5f9;
      }

      .st3 {
        clip-path: url(#clippath);
      }
    </style>
    <clipPath id="clippath">
      <rect class="st0" x="18.4" y="78.2" width="26.3" height="181.6"/>
    </clipPath>
  </defs>
  <path class="st2" d="M0,866h64v214H0v-214Z"/>
  <path d="M0,0h64v889.9L0,921.1V0Z"/>
  <g class="st3">
    <g>
      <path class="st1" d="M35.9,251.6c5,0,7.2-3.8,7.2-8.7v-10.1h-23.3v6.5h9v.5l-9,5.9v7.9l9.5-7.5c.6,3.6,3.4,5.5,6.6,5.5ZM32.7,240.9v-1.7h5.8v1.9c0,2.1-.4,4-2.9,4s-2.9-2-2.9-4.1h0ZM43.1,212.3l-23.3-8.8v6.7l4.3,1.4v8.7l-4.3,1.4v6.7l23.3-8.8v-7.5h0ZM28.7,213.3l8.1,2.7v.2l-8.1,2.7v-5.6ZM43.1,183.8v15.9h-5.1v-9.4h-3.9v9h-5.1v-9h-4v9.4h-5.1v-15.9h23.3ZM32.8,165.3v12.7c-3.4,0-6.3-.3-9.2-2.6-3.2-2.5-4.6-6-4.6-10.2,0-7.9,5-13.2,12.3-13.2s12.6,5.1,12.6,13.2-2.2,9.2-6.5,11.3l-2.4-6.2c2.2-.9,3.7-2.8,3.7-5.4,0-4.3-3.8-6.1-7.4-6.1s-7.3,2.1-7.3,6.4,1.4,4.8,4.1,5.1v-5.1h4.8ZM43.1,130.2v19.2h-5.1v-6.3h-18.2v-6.6h18.2v-6.3h5.1ZM43.1,109.8v15.9h-5.1v-9.4h-3.9v9h-5.1v-9h-4v9.4h-5.1v-15.9h23.3ZM43.1,95.6v6.5h-23.3v-6.5l14.3-10.8h0c0,0-14.3,0-14.3,0v-6.5h23.3v6.5l-14.2,10.8h0c0,0,14.2,0,14.2,0h0Z"/>
      <path class="st1" d="M43.1,256.9c0,1.6-1.2,2.9-2.8,2.9s-2.8-1.4-2.8-2.9,1.2-2.9,2.8-2.9,2.8,1.4,2.8,2.9ZM42.6,256.9c0-1.3-1-2.4-2.3-2.4-1.3,0-2.3,1.1-2.3,2.4h0c0,1.3,1,2.4,2.3,2.4,1.3,0,2.3-1.1,2.3-2.4ZM41.9,257c0,.6-.1,1.3-.9,1.3h0c-.4,0-.7-.3-.8-.6l-1.4.7v-.9l1.2-.6v-.2h-1.2v-.8h3.1v1.2ZM41.4,256.6h-.8v.3c0,.2,0,.5.4.5s.4-.3.4-.6v-.2Z"/>
    </g>
  </g>
</svg>