<?xml version="1.0" encoding="UTF-8"?>
<svg id="Layer_1" xmlns="http://www.w3.org/2000/svg" xmlns:xlink="http://www.w3.org/1999/xlink" version="1.1" viewBox="0 0 64 1080">
  <!-- Generator: Adobe Illustrator 30.3.0, SVG Export Plug-In . SVG Version: 2.1.3 Build 182)  -->
  <defs>
    <style>
      .st0 {
        fill: none;
      }

      .st1 {
        fill: #1cb9a0;
      }

      .st2 {
        fill: #a7efd8;
      }

      .st3 {
        clip-path: url(#clippath-1);
      }

      .st4 {
        clip-path: url(#clippath);
      }
    </style>
    <clipPath id="clippath">
      <rect class="st0" x="4.1" y="75" width="56" height="261"/>
    </clipPath>
    <clipPath id="clippath-1">
      <rect class="st0" x="4.1" y="77" width="56" height="256.9"/>
    </clipPath>
  </defs>
  <path class="st2" d="M0,866h64v214H0v-214Z"/>
  <path class="st1" d="M0,0h64v889.9L0,921.1V0Z"/>
  <g class="st4">
    <g class="st3">
      <g>
        <path d="M4.1,133.9l14-8.1v-16.3h0,0v-16.3l-14,8.1v32.5Z"/>
        <path d="M32.1,101.4l14,8.1v-16.3l-14-8.1h0s0,0,0,0l-14-8.1v16.3l14,8.1h0s0,0,0,0Z"/>
        <path d="M32.1,133.9l14-8.1,14-8.1-14-8.1h0s0,0,0,0l-14,8.1h0s0,0,0,0l-14,8.1,14,8.1h0s0,0,0,0Z"/>
        <path d="M44.7,216.9c2,0,2.9-1.5,2.9-3.5v-4h-9.4v2.6h3.6v.2l-3.6,2.4v3.1l3.8-3c.2,1.4,1.4,2.2,2.6,2.2ZM43.3,212.7v-.7h2.3v.7c0,.8-.1,1.6-1.2,1.6s-1.2-.8-1.2-1.6h0ZM47.5,201.4l-9.4-3.5v2.7l1.7.6v3.5l-1.7.6v2.7l9.4-3.5v-3h0ZM41.8,201.7l3.3,1.1h0c0,0-3.3,1.2-3.3,1.2v-2.2ZM47.5,190v6.3h-2.1v-3.7h-1.6v3.6h-2.1v-3.6h-1.6v3.7h-2.1v-6.3h9.4ZM43.4,182.7v5.1c-1.4,0-2.5-.1-3.7-1-1.3-1-1.8-2.4-1.8-4,0-3.1,2-5.2,4.9-5.2s5,2,5,5.2-.9,3.6-2.6,4.5l-1-2.5c.9-.4,1.5-1.1,1.5-2.1,0-1.7-1.5-2.4-3-2.4s-2.9.9-2.9,2.6.5,1.9,1.6,2v-2h1.9ZM47.5,168.8v7.6h-2.1v-2.5h-7.3v-2.6h7.3v-2.5h2.1ZM47.5,160.7v6.3h-2.1v-3.7h-1.6v3.6h-2.1v-3.6h-1.6v3.7h-2.1v-6.3h9.4ZM47.5,155v2.6h-9.4v-2.6l5.7-4.3h0s-5.7,0-5.7,0v-2.6h9.4v2.6l-5.7,4.3h0s5.7,0,5.7,0h0Z"/>
        <path d="M47.5,219c0,.6-.5,1.2-1.1,1.2s-1.1-.6-1.1-1.2c0-.6.5-1.2,1.1-1.2s1.1.6,1.1,1.2ZM47.3,219c0-.5-.4-.9-.9-.9s-.9.5-.9.9h0c0,.5.4,1,.9,1s.9-.4.9-.9ZM47.1,219.1c0,.2,0,.5-.4.5h0c-.2,0-.3-.1-.3-.3l-.5.3v-.4l.5-.2h0c0,0-.5,0-.5,0v-.3h1.2v.5ZM46.8,218.9h-.3c0,.2,0,.3.2.3.2,0,.2-.1.2-.2h0Z"/>
        <path d="M21.8,152.1v6.1h3.2v-6.1h2v6.7h3.3v-10.7h-14v10.8h3.3v-6.8h2.3Z"/>
        <path d="M22.9,175.5l7.4-5.9v-2.8h-14v4h7.2l-7.2,5.7v3h14v-4h-7.4Z"/>
        <path d="M21.8,209v6.1h3.2v-6.1h2v6.7h3.3v-10.7h-14v10.8h3.3v-6.8h2.3Z"/>
        <path d="M22.4,232.4c.4.8.8,1.4,1.5,1.8.6.4,1.4.6,2.2.6s1.6-.2,2.2-.6c.6-.4,1.1-1,1.5-1.7.4-.7.5-1.6.5-2.6v-6.2h-14v4h5.6c0,0-5.6,3.6-5.6,3.6v4.5l5.8-4.1c0,.3.2.5.3.8h0ZM27.5,229.3c0,.5-.1,1-.4,1.2-.3.3-.6.4-1,.4s-.8-.1-1-.4c-.3-.3-.4-.7-.4-1.2v-1.6h2.9v1.6h0Z"/>
        <path d="M29.8,252c.4-.7.5-1.6.5-2.5v-6.5h-14v4h4.9v2.6c0,.9.2,1.7.5,2.5.4.7.9,1.3,1.6,1.7.7.4,1.5.6,2.4.6s1.8-.2,2.5-.6c.7-.4,1.2-1,1.6-1.7h0ZM24.8,250.2c-.3-.2-.4-.4-.6-.6-.1-.3-.2-.5-.2-.8v-1.8h3.4v1.8c0,.3,0,.6-.2.8s-.3.5-.6.6c-.3.2-.6.2-1,.2s-.7,0-1-.2h0Z"/>
        <path d="M22.4,270.6c.4.8.8,1.4,1.5,1.8.6.4,1.4.6,2.2.6s1.6-.2,2.2-.6c.6-.4,1.1-1,1.5-1.7.4-.7.5-1.6.5-2.6v-6.2h-14v4h5.6c0,0-5.6,3.6-5.6,3.6v4.5l5.8-4.1c0,.3.2.5.3.8h0ZM27.5,267.5c0,.5-.1,1-.4,1.2-.3.3-.6.4-1,.4s-.8-.1-1-.4c-.3-.3-.4-.7-.4-1.2v-1.6h2.9v1.6h0Z"/>
        <path d="M30.3,285.1v-4h-14v4h14Z"/>
        <path d="M27.2,297.7c.1.2.2.6.2,1s-.1,1-.3,1.4c-.2.4-.5.9-.9,1.3l2.5,2.5c.6-.6,1.1-1.3,1.4-2.3.3-.9.5-1.9.5-2.9s-.2-2-.5-2.8c-.3-.8-.9-1.4-1.5-1.8-.7-.4-1.4-.7-2.3-.7s-1.3.1-1.8.4c-.5.2-.9.6-1.2.9-.3.4-.6.8-.8,1.3-.2.5-.4.9-.6,1.4-.2.5-.3.9-.5,1.3-.2.4-.3.7-.5.9-.2.2-.4.4-.7.4s-.5-.1-.7-.4c-.2-.3-.2-.7-.2-1.2s.1-1.3.4-1.8c.3-.6.6-1.1,1.1-1.6l-2.5-2.5c-.8.8-1.3,1.6-1.7,2.5-.3.9-.5,1.9-.5,3.1,0,1.9.4,3.3,1.2,4.3.8,1,1.9,1.5,3.3,1.5s1.3-.1,1.8-.4c.5-.2.9-.6,1.3-.9.3-.4.6-.8.8-1.3.2-.5.4-.9.6-1.4.2-.5.3-.9.5-1.3.1-.4.3-.7.5-.9.2-.2.4-.4.7-.4s.5.1.6.4h0Z"/>
        <path d="M19.5,315.4h2.3v6.1h3.2v-6.1h2v6.7h3.3v-10.7h-14v10.8h3.3v-6.8Z"/>
        <path d="M30.3,197.7v-12.7l-3.4,2v3.7h-10.7v4h10.7v5l3.4-2Z"/>
      </g>
    </g>
  </g>
</svg>