<?xml version="1.0" encoding="UTF-8"?>
<svg id="Layer_1" xmlns="http://www.w3.org/2000/svg" xmlns:xlink="http://www.w3.org/1999/xlink" version="1.1" viewBox="0 0 64 1080">
  <!-- Generator: Adobe Illustrator 30.3.0, SVG Export Plug-In . SVG Version: 2.1.3 Build 182)  -->
  <defs>
    <style>
      .st0 {
        fill: none;
      }

      .st1 {
        clip-path: url(#clippath-1);
      }

      .st2 {
        fill: #26e880;
      }

      .st3 {
        fill: #fff;
      }

      .st4 {
        clip-path: url(#clippath);
      }
    </style>
    <clipPath id="clippath">
      <rect class="st0" x="19.6" y="78" width="24" height="222"/>
    </clipPath>
    <clipPath id="clippath-1">
      <rect class="st0" x="19.6" y="78" width="24" height="221.2"/>
    </clipPath>
  </defs>
  <path class="st2" d="M0,866h64v214H0v-214Z"/>
  <path d="M0,0h64v889.9L0,921.1V0Z"/>
  <g class="st4">
    <g class="st1">
      <g>
        <path class="st3" d="M36.1,238.5c4.6,0,6.6-3.5,6.6-8.1v-9.4h-21.4v6h8.2v.4l-8.2,5.5v7.3l8.8-6.9c.5,3.3,3.1,5.1,6.1,5.1ZM33.1,228.7v-1.6h5.3v1.7c0,2-.3,3.7-2.7,3.7s-2.7-1.9-2.7-3.8h0ZM42.7,202.2l-21.4-8.1v6.2l3.9,1.3v8.1l-3.9,1.3v6.2l21.4-8.1v-7h0ZM29.5,203.1l7.5,2.5v.2l-7.5,2.5v-5.2ZM42.7,175.7v14.7h-4.7v-8.7h-3.6v8.3h-4.7v-8.3h-3.7v8.7h-4.7v-14.7h21.4ZM33.2,158.6v11.8c-3.1,0-5.8-.3-8.5-2.4-2.9-2.3-4.2-5.5-4.2-9.4,0-7.3,4.6-12.2,11.3-12.2s11.5,4.8,11.5,12.2-2,8.5-6,10.5l-2.2-5.7c2-.8,3.4-2.6,3.4-5,0-4-3.5-5.7-6.8-5.7s-6.7,2-6.7,6,1.3,4.4,3.7,4.7v-4.8h4.4ZM42.7,126.1v17.8h-4.7v-5.8h-16.7v-6.1h16.7v-5.8h4.7ZM42.7,107.3v14.7h-4.7v-8.7h-3.6v8.3h-4.7v-8.3h-3.7v8.7h-4.7v-14.7h21.4ZM42.7,94.1v6h-21.4v-6l13.1-10h0c0,0-13.1,0-13.1,0v-6h21.4v6l-13.1,10h0c0,0,13.1,0,13.1,0h0Z"/>
        <path class="st3" d="M42.4,243.5c0,1.4-1.1,2.7-2.5,2.7s-2.5-1.3-2.5-2.7,1.1-2.7,2.5-2.7,2.5,1.3,2.5,2.7ZM42,243.5c0-1.2-.9-2.2-2.1-2.2s-2.1,1.1-2.1,2.2h0c0,1.2.9,2.2,2.1,2.2s2.1-1,2.1-2.2ZM41.3,243.5c0,.5-.1,1.2-.8,1.2h0c-.4,0-.6-.3-.8-.6l-1.2.6v-.8l1.1-.5v-.2h-1.1v-.8h2.8v1.1ZM40.9,243.2h-.7v.3c0,.2,0,.5.4.5s.4-.3.4-.5v-.2Z"/>
        <path class="st3" d="M21.3,279.4v-6.6l8.3-2.9-4.7-2.8v-3.5l-3.6-1.3v-6.4l21.4,8.6v6.5l-21.4,8.5ZM29.6,287.8l13.1,4.7v6.6l-21.4-8.4v-6l21.4-8.3v6.7l-13.1,4.6ZM29.6,265.3v4.7l6.6-2.3-6.6-2.4Z"/>
      </g>
    </g>
  </g>
</svg>