<?xml version="1.0" encoding="UTF-8"?>
<svg id="Layer_1" xmlns="http://www.w3.org/2000/svg" version="1.1" viewBox="0 0 64 1080">
  <!-- Generator: Adobe Illustrator 30.3.0, SVG Export Plug-In . SVG Version: 2.1.3 Build 182)  -->
  <defs>
    <style>
      .st0 {
        fill: #002fff;
      }

      .st1 {
        fill: #fff;
      }
    </style>
  </defs>
  <path class="st0" d="M0,866h64v214H0v-214Z"/>
  <path d="M0,0h64v889.9L0,921.1V0Z"/>
  <path class="st1" d="M19.3,107.9v-3.9h24.6v3.9h-24.6ZM43.9,133.4l-4-1.3v-6.5c0-4.5-3.7-8.2-8.3-8.2s-8.3,3.7-8.3,8.2v4.4h6.4v-4.1l4,1.3v6.8h-14.3v-8.3c0-6.7,5.5-12.1,12.3-12.1,6.8,0,12.3,5.5,12.3,12.1v7.8ZM19.3,160.3v-3.9h8.2l2.1.7v-11.9h-10.3v-3.9h24.6v3.9h-10.3v11.2h10.3v3.9h-24.6ZM39.9,185.6v-8h-20.6v-3.9h18.5l2.1.7v-8.7l4-1.3v22.6l-4-1.3ZM33.6,195.2v11.2h10.3v3.9h-24.6v-3.9h8.2l2.1.7v-11.9h-10.3v-3.9h24.6v3.9h-10.3ZM31.9,271.1l11.9,10.8v5.3l-12.3-11.1-12.3,11.1v-5.3l12-10.8h-12v-3.9h24.6v3.9h-11.9ZM27.5,92.7h16.4v3.9h-24.6v-2.9l16.4-11.8h-16.4v-3.9h24.6v2.9l-16.4,11.8ZM38.4,226.2h0s-9.4-3.5-9.4-3.5v6.7l-4,1.3v-9.5s-5.6-2.1-5.6-2.1v-4.2l25,9.3-6,2ZM27.5,241.8l14.5,5.7-14.6,5.8,16.5,5.8v4.1h-.3c0,0-24.3-8.2-24.3-8.2v-2.7l12-4.7-12-4.7v-2.7h.1s24.4-8.2,24.4-8.2v4.7l-16.4,5.2ZM29.6,125.8h0s0,0,0,0h0Z"/>
  <path class="st1" d="M44.1,292.1c0,1.4-1.1,2.6-2.5,2.6s-2.6-1.2-2.6-2.6c0-1.3,1.1-2.6,2.6-2.6s2.5,1.2,2.5,2.6ZM43.6,292.1c0-1.1-.9-2.1-2.1-2.1s-2.1,1-2.1,2.1h0c0,1.1.9,2.1,2.1,2.1s2.1-1,2.1-2.1ZM43,292.2c0,.5-.1,1.2-.8,1.2h0c-.4,0-.6-.2-.8-.6l-1.2.6v-.8l1.1-.5v-.2h-1.1v-.7h2.8v1.1ZM42.5,291.9h-.7v.3c0,.2,0,.5.4.5s.4-.3.4-.5v-.2Z"/>
</svg>