<svg width="64" height="1080" viewBox="0 0 64 1080" fill="none" xmlns="http://www.w3.org/2000/svg">
<g clip-path="url(#clip0_8584_3000)">
<path d="M0.294913 192.573H63.424V1082.51L0.294913 1113.69V192.573Z" fill="#002FFF"/>
<path d="M0.294913 -601.038H63.424V288.903L0.294913 320.082V-601.038Z" fill="black"/>
<g clip-path="url(#clip1_8584_3000)">
<path d="M27.6748 368.018L43.5204 356.746L43.5204 354L19.7291 354L19.7291 357.75L35.5689 357.75L19.7291 369.022L19.7291 371.773L43.5204 371.773L43.5204 368.018L27.6748 368.018Z" fill="white"/>
<path d="M43.5146 382.583L43.5146 378.827L19.7234 378.827L19.7234 382.583L43.5146 382.583Z" fill="white"/>
<path d="M33.5467 428.91L33.5467 418.156L43.5146 418.156L43.5146 414.401L19.7234 414.401L19.7234 418.156L29.697 418.156L29.697 429.574L27.6863 428.91L19.7234 428.91L19.7234 432.66L43.5204 432.66L43.5204 428.91L33.5467 428.91Z" fill="white"/>
<path d="M39.665 437.749L39.665 446.092L37.6542 445.422L19.7234 445.422L19.7234 449.178L39.665 449.178L39.665 456.845L43.5146 458.123L43.5146 436.477L39.665 437.749Z" fill="white"/>
<path d="M33.5467 476.772L33.5467 466.018L43.5204 466.018L43.5204 462.263L19.7234 462.263L19.7234 466.018L29.697 466.018L29.697 477.436L27.6863 476.772L19.7234 476.772L19.7234 480.527L43.5146 480.527L43.5146 476.772L33.5467 476.772Z" fill="white"/>
<path d="M27.5889 521.559L41.7215 516.057L27.6519 510.577L43.5204 505.616L43.5204 501.113L19.8723 508.897L19.7291 508.942L19.7291 511.525L31.3469 516.057L19.7291 520.577L19.7291 523.172L43.2396 530.911L43.5204 531.001L43.5204 527.083L27.5889 521.559Z" fill="white"/>
<path d="M28.9752 492.263L38.0838 495.6L38.1583 495.628L43.9271 493.725L19.7291 484.869L19.7291 488.87L25.1198 490.851L25.137 499.908L28.9752 498.636L28.9752 492.263Z" fill="white"/>
<path d="M43.5146 554.087L43.5146 548.992L31.9484 538.646L43.5146 538.646L43.5146 534.896L19.7234 534.896L19.7234 538.646L31.2954 538.646L19.7234 548.992L19.7234 554.087L31.6219 543.456L43.5146 554.087Z" fill="white"/>
<path d="M29.7257 399.691L29.7257 403.636L23.5731 403.636L23.5731 399.434C23.5731 395.099 27.1936 391.572 31.6448 391.572C36.096 391.572 39.7165 395.099 39.7165 399.434L39.7165 405.696L43.5662 406.918L43.5662 399.434C43.5662 393.034 38.2213 387.822 31.6448 387.822C25.0683 387.822 19.7234 393.028 19.7234 399.434L19.7234 407.386L33.5696 407.386L33.5696 400.919L29.72 399.697L29.7257 399.691Z" fill="white"/>
<path d="M43.5313 559.348C43.5313 560.701 42.4671 561.883 40.9883 561.883C39.5097 561.883 38.4346 560.662 38.4346 559.348C38.4346 558.034 39.5041 556.813 40.9883 556.813C42.4727 556.813 43.5313 558.023 43.5313 559.348ZM43.0782 559.354C43.0782 558.256 42.1954 557.279 40.9883 557.279C39.7814 557.279 38.9053 558.27 38.9053 559.348L38.9053 559.351C38.9055 560.446 39.7843 561.431 40.9883 561.431C42.1925 561.431 43.078 560.452 43.0782 559.354ZM42.4395 559.414C42.4395 559.893 42.3186 560.561 41.6241 560.561L41.6241 560.558C41.2293 560.558 40.9746 560.317 40.8682 560L39.6417 560.583L39.6417 559.786L40.7471 559.297L40.7471 559.08L39.6417 559.08L39.6417 558.357L42.4395 558.357L42.4395 559.414ZM41.9571 559.08L41.213 559.08L41.213 559.342C41.213 559.559 41.2713 559.811 41.5733 559.811C41.912 559.811 41.9571 559.537 41.9571 559.297L41.9571 559.08Z" fill="white"/>
<path d="M33.3405 612.857L21.0524 609.051L20.2905 606.774C20.027 605.976 19.7979 605.162 19.6145 604.358C19.4255 603.543 19.288 602.723 19.2021 601.914C19.1162 601.105 19.0703 600.346 19.0703 599.665C19.0703 597.712 19.414 596.043 20.09 594.699C20.7717 593.343 21.7055 592.299 22.8684 591.585C24.0256 590.876 25.3833 590.463 26.9072 590.357C28.4138 590.257 30.0236 590.463 31.6906 590.988C32.9796 591.384 33.9363 591.741 34.9732 592.344L37.5683 590.184L37.5683 598.973C36.8063 598.091 35.9069 597.299 34.8987 596.618C33.8217 595.893 32.6588 595.34 31.45 594.972C30.2069 594.598 29.0382 594.464 27.9842 594.565C26.9415 594.665 26.0192 594.961 25.2573 595.446C24.5011 595.926 23.8939 596.602 23.4642 597.45C23.0288 598.304 22.8112 599.336 22.8112 600.513C22.8112 601.557 22.9085 602.589 23.109 603.577C23.2924 604.492 23.5616 605.329 23.8996 606.06L29.6054 607.818L29.6054 602.851L33.3462 603.973L33.3462 612.851L33.3405 612.857Z" fill="white"/>
<path d="M43.4802 590.676L39.7451 589.509L39.7394 576.591L40.4612 576.848L43.4745 574.337L43.4802 590.676Z" fill="white"/>
<path d="M27.1535 586.463C25.9619 586.083 24.8678 585.525 23.9053 584.805C22.9429 584.085 22.1065 583.243 21.4134 582.3C20.7202 581.357 20.1817 580.319 19.8151 579.225C19.4484 578.126 19.2594 576.993 19.2594 575.86C19.2594 574.259 19.6948 572.908 20.5483 571.859C21.4248 570.788 22.6851 570.213 24.2949 570.14L24.61 570.129L25.9276 574.32L25.4063 574.348C24.4667 574.398 23.7965 574.649 23.4069 575.101C23.0059 575.57 22.7997 576.273 22.7997 577.194C22.7997 577.741 22.9028 578.299 23.0976 578.851C23.2981 579.409 23.5903 579.939 23.9684 580.43C24.3464 580.921 24.8105 581.362 25.3604 581.742C25.9104 582.121 26.5405 582.428 27.2337 582.646C28.7461 583.092 29.8804 582.997 30.6079 582.367C31.3584 581.714 31.7422 580.626 31.7422 579.141C31.7422 578.862 31.7193 578.533 31.6677 578.159C31.6161 577.78 31.5417 577.372 31.4443 576.943C31.3526 576.524 31.2266 576.072 31.0777 575.615C30.9287 575.163 30.7626 574.716 30.5735 574.298L30.2069 573.477L37.5683 575.882L37.5683 579.716L34.9846 578.873L34.9846 578.879C35.0534 579.169 35.1106 579.482 35.1507 579.811C35.1966 580.123 35.2252 580.43 35.2481 580.72C35.271 581.016 35.2825 581.256 35.2825 581.452C35.2825 582.562 35.082 583.527 34.6925 584.32C34.2914 585.123 33.7128 585.754 32.9796 586.195C32.252 586.63 31.3755 586.876 30.3788 586.92C29.4049 586.965 28.3164 586.809 27.1535 586.457L27.1535 586.463Z" fill="white"/>
<path d="M39.7394 602.612C40.1289 603.661 40.3294 604.76 40.3294 605.888C40.3294 607.015 40.1576 607.969 39.8196 608.84C39.4931 609.682 38.8973 610.413 38.0552 611.01L37.7114 611.256L40.5758 614.766L40.8851 614.571C41.8819 613.951 42.6667 613.014 43.2339 611.78C43.7838 610.57 44.0645 608.895 44.0645 606.797C44.0645 605.045 43.7437 603.315 43.1136 601.658C42.4834 600 41.6069 598.46 40.5013 597.065C40.2607 596.758 40.0029 596.457 39.7394 596.167L39.7394 602.612Z" fill="white"/>
</g>
<g clip-path="url(#clip2_8584_3000)">
<path d="M36.2433 251.572C41.2107 251.572 43.4129 247.812 43.4129 242.861L43.4129 232.713L20.1151 232.713L20.1151 239.231L29.0783 239.231L29.0783 239.694L20.1151 245.638L20.1151 253.565L29.6595 246.087C30.2497 249.648 33.024 251.572 36.2433 251.572ZM32.9696 240.904L32.9696 239.231L38.7724 239.231L38.7724 241.099C38.7724 243.241 38.4046 245.054 35.8665 245.054C33.3283 245.054 32.965 243.046 32.965 240.909L32.9696 240.904ZM43.4129 212.338L20.1151 203.576L20.1151 210.317L24.4015 211.749L24.4015 220.456L20.1151 221.888L20.1151 228.624L43.4129 219.862L43.4129 212.343L43.4129 212.338ZM29.0374 213.293L37.1696 216.01L37.1696 216.191L29.0374 218.907L29.0374 213.293ZM43.4129 183.758L43.4129 199.654L38.282 199.654L38.282 190.285L34.3908 190.285L34.3908 199.26L29.2644 199.26L29.2644 190.285L25.2369 190.285L25.2369 199.654L20.1106 199.654L20.1106 183.758L43.4129 183.758ZM33.1194 165.279L33.1194 178.028C29.7185 177.958 26.8216 177.699 23.9156 175.464C20.7236 173.007 19.3432 169.507 19.3432 165.312C19.3432 157.431 24.3152 152.137 31.6346 152.137C38.9541 152.137 44.1894 157.269 44.1894 165.354C44.1894 170.509 42.019 174.505 37.66 176.665L35.2535 170.476C37.4738 169.581 38.9586 167.681 38.9586 165.057C38.9586 160.755 35.1627 158.914 31.6074 158.914C28.0521 158.914 24.3152 161.056 24.3152 165.344C24.3152 168.177 25.6774 170.147 28.3654 170.411L28.3654 165.279L33.1194 165.279ZM43.4129 130.167L43.4129 149.415L38.2821 149.415L38.2821 143.101L20.1151 143.101L20.1151 136.477L38.2821 136.477L38.2821 130.167L43.4129 130.167ZM43.4129 109.825L43.4129 125.717L38.2821 125.717L38.2821 116.348L34.3908 116.348L34.3908 125.323L29.2644 125.323L29.2644 116.348L25.2369 116.348L25.2369 125.717L20.1106 125.717L20.1106 109.825L43.4129 109.825ZM43.4129 95.5975L43.4129 102.116L20.1152 102.116L20.1152 95.5975L34.3908 84.8051L34.3908 84.7356L20.1152 84.7356L20.1152 78.2129L43.4129 78.2129L43.4129 84.731L29.1691 95.5233L29.1691 95.5928L43.4129 95.5928L43.4129 95.5975Z" fill="white"/>
<path d="M43.4115 256.894C43.4115 258.452 42.2297 259.814 40.5873 259.814C38.9447 259.814 37.7495 258.408 37.7494 256.894C37.7494 255.381 38.9385 253.974 40.5873 253.974C42.236 253.974 43.4115 255.368 43.4115 256.894ZM42.9076 256.9C42.9074 255.636 41.9278 254.511 40.5873 254.51C39.2464 254.51 38.2728 255.652 38.2728 256.894L38.2728 256.897C38.2728 258.158 39.2496 259.294 40.5873 259.294C41.9249 259.293 42.9076 258.164 42.9076 256.9ZM42.1986 256.969C42.1986 257.521 42.0646 258.29 41.2934 258.291L41.2934 258.288C40.8547 258.288 40.5717 258.01 40.4535 257.644L39.0902 258.316L39.0902 257.398L40.3197 256.835L40.3197 256.585L39.0902 256.585L39.0902 255.753L42.1986 255.753L42.1986 256.969ZM41.6635 256.585L40.8353 256.585L40.8353 256.887C40.8353 257.136 40.901 257.427 41.2367 257.427C41.6129 257.427 41.6634 257.112 41.6635 256.835L41.6635 256.585Z" fill="white"/>
</g>
</g>
<defs>
<clipPath id="clip0_8584_3000">
<rect width="63.1291" height="1080" fill="white"/>
</clipPath>
<clipPath id="clip1_8584_3000">
<rect width="261" height="25" fill="white" transform="translate(44.0645 354) rotate(90)"/>
</clipPath>
<clipPath id="clip2_8584_3000">
<rect width="181.621" height="26.3038" fill="white" transform="translate(45.0114 78.1925) rotate(90)"/>
</clipPath>
</defs>
</svg>
