<svg width="64" height="1080" viewBox="0 0 64 1080" fill="none" xmlns="http://www.w3.org/2000/svg">
<path d="M-1.09343e-06 865.991H63.1291V1080H-1.09343e-06V865.991Z" fill="#002FFF"/>
<path d="M-1.09343e-06 0H63.1291V889.941L-1.09343e-06 921.12V0Z" fill="black"/>
<path d="M19.3144 107.92L19.3144 103.992L43.8887 103.992L43.8887 107.92L19.3144 107.92ZM43.9414 133.371L39.9658 132.093L39.9658 125.545C39.9658 121.01 36.2255 117.321 31.6279 117.321C27.0304 117.321 23.291 121.01 23.291 125.545L23.291 129.939L29.6455 129.939L29.6455 125.821L33.6162 127.098L33.6162 133.861L19.3144 133.861L19.3144 125.545C19.3144 118.845 24.8351 113.4 31.6279 113.399C38.4208 113.399 43.9414 118.85 43.9414 125.545L43.9414 133.371ZM19.3144 160.295L19.3144 156.373L27.539 156.373L29.6162 157.067L29.6162 145.126L19.3144 145.126L19.3144 141.198L43.8887 141.198L43.8886 145.126L33.5928 145.126L33.5928 156.373L43.8945 156.373L43.8945 160.295L19.3144 160.295ZM39.9121 185.59L39.9121 177.571L19.3144 177.571L19.3144 173.643L37.8349 173.643L39.9121 174.344L39.9121 165.618L43.8886 164.287L43.8886 186.927L39.9121 185.59ZM33.5927 195.185L33.5927 206.431L43.8886 206.431L43.8886 210.359L19.3144 210.359L19.3144 206.431L27.539 206.431L29.6162 207.126L29.6162 195.185L19.3144 195.185L19.3144 191.256L43.8945 191.256L43.8945 195.185L33.5927 195.185ZM31.9414 271.147L43.8886 281.969L43.8886 287.297L31.6045 276.179L19.3144 287.297L19.3144 281.969L31.2676 271.147L19.3144 271.147L19.3144 267.226L43.8886 267.226L43.8886 271.147L31.9414 271.147ZM27.5273 92.6855L43.8945 92.6855L43.8945 96.6133L19.3203 96.6133L19.3203 93.7363L35.6816 81.9463L19.3203 81.9463L19.3203 78.0244L43.8945 78.0244L43.8945 80.8955L27.5273 92.6855ZM38.3564 226.153L38.2793 226.124L28.8711 222.634L28.8711 229.3L24.9062 230.63L24.8886 221.157L19.3203 219.086L19.3203 214.9L44.3144 224.163L38.3564 226.153ZM27.5039 241.79L42.0361 247.521L27.4384 253.276L43.8945 259.055L43.8945 263.151L43.6045 263.058L19.3203 254.963L19.3203 252.249L31.3203 247.521L19.3203 242.782L19.3203 240.08L19.4687 240.033L43.8945 231.892L43.8945 236.602L27.5039 241.79ZM29.6396 125.819L29.6455 125.813L29.6455 125.821L29.6396 125.819Z" fill="white"/>
<path d="M44.0645 292.133C44.0645 293.497 43.0003 294.691 41.5216 294.691C40.043 294.691 38.9679 293.459 38.9679 292.133C38.9681 290.807 40.0375 289.575 41.5216 289.575C43.0058 289.575 44.0643 290.796 44.0645 292.133ZM43.6114 292.138C43.6114 291.031 42.7286 290.045 41.5216 290.045C40.3148 290.045 39.4388 291.044 39.4386 292.133L39.4386 292.136C39.4386 293.24 40.3174 294.235 41.5216 294.235C42.7259 294.235 43.6114 293.246 43.6114 292.138ZM42.9727 292.199C42.9727 292.682 42.8519 293.357 42.1573 293.357L42.1573 293.354C41.7626 293.354 41.508 293.111 41.4015 292.791L40.1749 293.379L40.1749 292.575L41.2804 292.081L41.2804 291.862L40.1749 291.862L40.1749 291.133L42.9727 291.133L42.9727 292.199ZM42.4903 291.862L41.7462 291.862L41.7462 292.128C41.7462 292.346 41.8046 292.599 42.1065 292.599C42.4453 292.599 42.4903 292.324 42.4903 292.081L42.4903 291.862Z" fill="white"/>
</svg>
