<svg width="64" height="1080" viewBox="0 0 64 1080" fill="none" xmlns="http://www.w3.org/2000/svg">
<g clip-path="url(#clip0_8584_3001)">
<path d="M-8.72282e-06 192.573H63.1291V1082.51L-8.72282e-06 1113.69V192.573Z" fill="#002FFF"/>
<path d="M19.3144 383.92L19.3144 379.992L43.8886 379.992L43.8886 383.92L19.3144 383.92ZM43.9414 409.371L39.9658 408.093L39.9658 401.545C39.9658 397.01 36.2255 393.321 31.6279 393.321C27.0304 393.321 23.291 397.01 23.291 401.545L23.291 405.939L29.6455 405.939L29.6455 401.821L33.6162 403.098L33.6162 409.861L19.3144 409.861L19.3144 401.545C19.3144 394.845 24.8351 389.4 31.6279 389.399C38.4208 389.399 43.9414 394.85 43.9414 401.545L43.9414 409.371ZM19.3144 436.295L19.3144 432.373L27.539 432.373L29.6162 433.067L29.6162 421.126L19.3144 421.126L19.3144 417.198L43.8886 417.198L43.8886 421.126L33.5927 421.126L33.5927 432.373L43.8945 432.373L43.8945 436.295L19.3144 436.295ZM39.9121 461.59L39.9121 453.571L19.3144 453.571L19.3144 449.643L37.8349 449.643L39.9121 450.344L39.9121 441.618L43.8886 440.287L43.8886 462.927L39.9121 461.59ZM33.5927 471.185L33.5927 482.431L43.8886 482.431L43.8886 486.359L19.3144 486.359L19.3144 482.431L27.539 482.431L29.6162 483.126L29.6162 471.185L19.3144 471.185L19.3144 467.256L43.8945 467.256L43.8945 471.185L33.5927 471.185ZM31.9414 547.147L43.8886 557.969L43.8886 563.297L31.6045 552.179L19.3144 563.297L19.3144 557.969L31.2675 547.147L19.3144 547.147L19.3144 543.226L43.8886 543.226L43.8886 547.147L31.9414 547.147ZM27.5273 368.686L43.8945 368.686L43.8945 372.613L19.3203 372.613L19.3203 369.736L35.6816 357.946L19.3203 357.946L19.3203 354.024L43.8945 354.024L43.8945 356.896L27.5273 368.686ZM38.3564 502.153L38.2793 502.124L28.8711 498.634L28.8711 505.3L24.9062 506.63L24.8886 497.157L19.3203 495.086L19.3203 490.9L44.3144 500.163L38.3564 502.153ZM27.5039 517.79L42.0361 523.521L27.4384 529.276L43.8945 535.055L43.8945 539.151L43.6045 539.058L19.3203 530.963L19.3203 528.249L31.3203 523.521L19.3203 518.782L19.3203 516.08L19.4687 516.033L43.8945 507.892L43.8945 512.602L27.5039 517.79ZM29.6396 401.819L29.6455 401.813L29.6455 401.821L29.6396 401.819Z" fill="white"/>
<path d="M44.0645 568.133C44.0645 569.497 43.0003 570.691 41.5216 570.691C40.0429 570.691 38.9679 569.459 38.9679 568.133C38.9681 566.807 40.0375 565.575 41.5216 565.575C43.0058 565.575 44.0643 566.796 44.0645 568.133ZM43.6114 568.138C43.6114 567.031 42.7286 566.045 41.5216 566.045C40.3148 566.045 39.4388 567.044 39.4386 568.133L39.4386 568.136C39.4386 569.24 40.3174 570.235 41.5216 570.235C42.7258 570.235 43.6114 569.246 43.6114 568.138ZM42.9727 568.199C42.9727 568.682 42.8519 569.357 42.1573 569.357L42.1573 569.354C41.7626 569.354 41.5079 569.111 41.4015 568.791L40.1749 569.379L40.1749 568.575L41.2804 568.081L41.2804 567.862L40.1749 567.862L40.1749 567.133L42.9727 567.133L42.9727 568.199ZM42.4903 567.862L41.7462 567.862L41.7462 568.128C41.7462 568.346 41.8046 568.599 42.1065 568.599C42.4452 568.599 42.4903 568.324 42.4903 568.081L42.4903 567.862Z" fill="white"/>
<path d="M-8.72282e-06 -601.038H63.1291V288.903L-8.72282e-06 320.082V-601.038Z" fill="black"/>
<g clip-path="url(#clip1_8584_3001)">
<path d="M35.9484 251.572C40.9158 251.572 43.118 247.812 43.118 242.861L43.118 232.713L19.8202 232.713L19.8202 239.231L28.7833 239.231L28.7833 239.694L19.8202 245.638L19.8202 253.565L29.3645 246.087C29.9548 249.648 32.7291 251.572 35.9484 251.572ZM32.6746 240.904L32.6746 239.231L38.4775 239.231L38.4775 241.099C38.4775 243.241 38.1097 245.054 35.5715 245.054C33.0333 245.054 32.6701 243.046 32.6701 240.909L32.6746 240.904ZM43.118 212.338L19.8202 203.576L19.8202 210.317L24.1065 211.749L24.1065 220.456L19.8202 221.888L19.8202 228.624L43.118 219.862L43.118 212.343L43.118 212.338ZM28.7425 213.293L36.8747 216.01L36.8747 216.191L28.7425 218.907L28.7425 213.293ZM43.118 183.758L43.118 199.654L37.9871 199.654L37.9871 190.285L34.0958 190.285L34.0958 199.26L28.9695 199.26L28.9695 190.285L24.942 190.285L24.942 199.654L19.8157 199.654L19.8157 183.758L43.118 183.758ZM32.8245 165.279L32.8245 178.028C29.4236 177.958 26.5267 177.699 23.6207 175.464C20.4287 173.007 19.0483 169.507 19.0483 165.312C19.0483 157.431 24.0203 152.137 31.3397 152.137C38.6591 152.137 43.8944 157.269 43.8944 165.354C43.8944 170.509 41.724 174.505 37.3651 176.665L34.9586 170.476C37.1789 169.581 38.6637 167.681 38.6637 165.057C38.6637 160.755 34.8677 158.914 31.3125 158.914C27.7572 158.914 24.0203 161.056 24.0203 165.344C24.0203 168.177 25.3824 170.147 28.0705 170.411L28.0705 165.279L32.8245 165.279ZM43.118 130.167L43.118 149.415L37.9871 149.415L37.9871 143.101L19.8202 143.101L19.8202 136.477L37.9871 136.477L37.9871 130.167L43.118 130.167ZM43.118 109.825L43.118 125.717L37.9871 125.717L37.9871 116.348L34.0958 116.348L34.0958 125.323L28.9695 125.323L28.9695 116.348L24.942 116.348L24.942 125.717L19.8157 125.717L19.8157 109.825L43.118 109.825ZM43.118 95.5975L43.118 102.116L19.8202 102.116L19.8202 95.5975L34.0958 84.8051L34.0958 84.7356L19.8202 84.7356L19.8202 78.2129L43.118 78.2129L43.118 84.731L28.8742 95.5233L28.8742 95.5928L43.118 95.5928L43.118 95.5975Z" fill="white"/>
<path d="M43.1166 256.894C43.1165 258.452 41.9348 259.814 40.2924 259.814C38.6498 259.814 37.4545 258.408 37.4545 256.894C37.4545 255.381 38.6435 253.974 40.2924 253.974C41.941 253.974 43.1166 255.368 43.1166 256.894ZM42.6127 256.9C42.6125 255.636 41.6329 254.511 40.2924 254.51C38.9515 254.51 37.9779 255.652 37.9779 256.894L37.9779 256.897C37.9779 258.158 38.9546 259.294 40.2924 259.294C41.6299 259.293 42.6127 258.164 42.6127 256.9ZM41.9037 256.969C41.9037 257.521 41.7697 258.29 40.9984 258.291L40.9984 258.288C40.5598 258.288 40.2768 258.01 40.1586 257.644L38.7953 258.316L38.7953 257.398L40.0248 256.835L40.0248 256.585L38.7953 256.585L38.7953 255.753L41.9037 255.753L41.9037 256.969ZM41.3685 256.585L40.5404 256.585L40.5404 256.887C40.5404 257.136 40.6061 257.427 40.9418 257.427C41.318 257.427 41.3685 257.112 41.3685 256.835L41.3685 256.585Z" fill="white"/>
</g>
</g>
<defs>
<clipPath id="clip0_8584_3001">
<rect width="63.1291" height="1080" fill="white"/>
</clipPath>
<clipPath id="clip1_8584_3001">
<rect width="181.621" height="26.3038" fill="white" transform="translate(44.7164 78.1925) rotate(90)"/>
</clipPath>
</defs>
</svg>
