<svg width="64" height="1080" viewBox="0 0 64 1080" fill="none" xmlns="http://www.w3.org/2000/svg">
<path d="M-8.72282e-06 865.991H63.1291V1080H-8.72282e-06V865.991Z" fill="#A7EFD8"/>
<path d="M-8.72282e-06 0H63.1291V889.941L-8.72282e-06 921.12V0Z" fill="#1CB9A0"/>
<g clip-path="url(#clip0_8584_2998)">
<g clip-path="url(#clip1_8584_2998)">
<path d="M4.12909 133.933L18.1291 125.802L18.1291 109.547L18.1257 109.547L18.1291 109.547L18.1291 93.2882L4.12909 101.416L4.12909 117.675L4.12909 133.933Z" fill="black"/>
<path d="M32.1291 101.416L46.1291 109.547L46.1291 93.2882L32.1291 85.1571L32.1291 85.1639L32.1291 85.1571L18.1291 77.0294L18.1291 93.2882L32.1291 101.416L32.1291 101.413L32.1291 101.416Z" fill="black"/>
<path d="M32.1291 133.933L46.1291 125.802L60.1291 117.675L46.1291 109.547L46.1291 109.55L46.1291 109.547L32.1291 117.675L32.1291 117.681L32.1291 117.675L18.1291 125.802L32.1291 133.933L32.1291 133.927L32.1291 133.933Z" fill="black"/>
<path d="M44.6597 216.924C46.6554 216.924 47.5402 215.433 47.5402 213.469L47.5402 209.443L38.1798 209.443L38.1798 212.028L41.7809 212.028L41.7809 212.212L38.1798 214.57L38.1798 217.715L42.0144 214.749C42.2516 216.161 43.3662 216.924 44.6597 216.924ZM43.3443 212.692L43.3443 212.028L45.6758 212.028L45.6758 212.77C45.6758 213.619 45.528 214.338 44.5082 214.338C43.4885 214.338 43.3425 213.542 43.3425 212.694L43.3443 212.692ZM47.5402 201.36L38.1798 197.884L38.1798 200.558L39.9019 201.126L39.9019 204.58L38.1798 205.148L38.1798 207.821L47.5402 204.345L47.5402 201.361L47.5402 201.36ZM41.7645 201.738L45.0318 202.816L45.0318 202.888L41.7645 203.966L41.7645 201.738ZM47.5402 190.021L47.5402 196.328L45.4788 196.328L45.4788 192.611L43.9153 192.611L43.9153 196.171L41.8557 196.171L41.8557 192.611L40.2376 192.611L40.2376 196.328L38.1779 196.328L38.1779 190.021L47.5402 190.021ZM43.4045 182.69L43.4045 187.748C42.0381 187.721 40.8742 187.618 39.7067 186.731C38.4242 185.756 37.8696 184.368 37.8696 182.703C37.8696 179.577 39.8672 177.476 42.808 177.476C45.7488 177.476 47.8522 179.512 47.8522 182.72C47.8522 184.765 46.9802 186.35 45.2288 187.207L44.262 184.752C45.154 184.397 45.7506 183.643 45.7506 182.602C45.7506 180.895 44.2255 180.165 42.797 180.165C41.3686 180.165 39.8672 181.015 39.8672 182.716C39.8672 183.84 40.4145 184.622 41.4945 184.726L41.4945 182.69L43.4045 182.69ZM47.5402 168.761L47.5402 176.397L45.4788 176.397L45.4788 173.892L38.1798 173.892L38.1798 171.264L45.4788 171.264L45.4788 168.761L47.5402 168.761ZM47.5402 160.691L47.5402 166.995L45.4788 166.995L45.4788 163.278L43.9153 163.278L43.9153 166.839L41.8557 166.839L41.8557 163.278L40.2376 163.278L40.2376 166.995L38.1779 166.995L38.1779 160.691L47.5402 160.691ZM47.5402 155.046L47.5402 157.632L38.1798 157.632L38.1798 155.046L43.9153 150.765L43.9153 150.737L38.1798 150.737L38.1798 148.149L47.5402 148.149L47.5402 150.735L41.8174 155.017L41.8174 155.044L47.5402 155.044L47.5402 155.046Z" fill="black"/>
<path d="M47.5396 219.036C47.5396 219.654 47.0648 220.194 46.4049 220.194C45.745 220.194 45.2652 219.636 45.2652 219.036C45.2653 218.435 45.7425 217.877 46.4049 217.877C47.0673 217.877 47.5396 218.43 47.5396 219.036ZM47.3375 219.039C47.3375 218.537 46.9436 218.09 46.4049 218.09C45.8663 218.09 45.4753 218.543 45.4752 219.036L45.4752 219.037C45.4752 219.537 45.8674 219.988 46.4049 219.988C46.9422 219.988 47.3373 219.54 47.3375 219.039ZM47.0523 219.066C47.0523 219.285 46.998 219.59 46.6881 219.59L46.6881 219.588C46.5121 219.588 46.3986 219.478 46.3512 219.333L45.8033 219.6L45.8033 219.236L46.2975 219.012L46.2975 218.914L45.8033 218.914L45.8033 218.583L47.0523 218.583L47.0523 219.066ZM46.8375 218.914L46.5045 218.914L46.5045 219.034C46.5046 219.132 46.5311 219.247 46.6656 219.248C46.8168 219.248 46.8375 219.122 46.8375 219.012L46.8375 218.914Z" fill="black"/>
<path d="M21.8188 152.106L21.8188 158.191L25.0124 158.191L25.0124 152.106L27.0241 152.106L27.0241 158.807L30.2962 158.807L30.2962 152.106L30.2962 151.353L30.2962 148.141L16.2615 148.141L16.2615 151.353L16.2615 152.106L16.2615 158.927L19.5337 158.927L19.5337 152.106L21.8188 152.106Z" fill="black"/>
<path d="M22.8655 175.479L30.2962 169.533L30.2962 166.758L16.2615 166.758L16.2615 170.722L23.4439 170.722L16.2615 176.469L16.2615 179.444L30.2962 179.444L30.2962 175.479L22.8655 175.479Z" fill="black"/>
<path d="M21.8188 208.991L21.8188 215.077L25.0124 215.077L25.0124 208.991L27.0241 208.991L27.0241 215.69L30.2962 215.69L30.2962 208.991L30.2962 208.236L30.2962 205.024L16.2615 205.024L16.2615 208.236L16.2615 208.991L16.2615 215.81L19.5337 215.81L19.5337 208.991L21.8188 208.991Z" fill="black"/>
<path d="M22.3909 232.403C22.7461 233.168 23.2396 233.769 23.8682 234.196C24.5 234.626 25.2355 234.841 26.0748 234.841C26.914 234.841 27.6527 234.629 28.2814 234.205C28.9132 233.782 29.4067 233.2 29.7587 232.46C30.1139 231.72 30.2899 230.861 30.2899 229.884L30.2899 223.64L16.2552 223.64L16.2552 227.605L21.8534 227.605L21.8534 227.658L16.2552 231.253L16.2552 235.751L22.1049 231.616C22.1834 231.891 22.2714 232.153 22.3846 232.4L22.3909 232.403ZM27.4578 229.252C27.4578 229.792 27.3258 230.206 27.0649 230.491C26.8009 230.775 26.4551 230.917 26.0214 230.917C25.5876 230.917 25.2387 230.775 24.9778 230.491C24.7138 230.206 24.5849 229.792 24.5849 229.252L24.5849 227.605L27.4641 227.605L27.4641 229.252L27.4578 229.252Z" fill="black"/>
<path d="M29.7524 251.977C30.1139 251.244 30.2931 250.422 30.2931 249.508L30.2931 242.965L16.2584 242.965L16.2584 246.929L21.187 246.929L21.187 249.505C21.187 250.416 21.3662 251.241 21.7277 251.974C22.0891 252.708 22.6109 253.289 23.2962 253.719C23.9782 254.149 24.7955 254.364 25.7416 254.364C26.6877 254.364 27.5176 254.149 28.1965 253.719C28.8723 253.289 29.3909 252.708 29.7524 251.974L29.7524 251.977ZM24.7861 250.204C24.5315 250.046 24.3397 249.837 24.214 249.578C24.0883 249.322 24.0254 249.041 24.0254 248.734L24.0254 246.929L27.4547 246.929L27.4547 248.734C27.4547 249.037 27.3918 249.319 27.2661 249.578C27.1404 249.837 26.9518 250.043 26.694 250.204C26.4394 250.362 26.1188 250.441 25.7385 250.441C25.3581 250.441 25.0375 250.362 24.7829 250.204L24.7861 250.204Z" fill="black"/>
<path d="M22.3909 270.603C22.7461 271.368 23.2396 271.969 23.8682 272.396C24.5 272.825 25.2355 273.04 26.0748 273.04C26.914 273.04 27.6527 272.829 28.2814 272.405C28.9132 271.981 29.4067 271.4 29.7587 270.66C30.1139 269.92 30.2899 269.06 30.2899 268.084L30.2899 261.84L16.2552 261.84L16.2552 265.804L21.8534 265.804L21.8534 265.858L16.2552 269.452L16.2552 273.951L22.1049 269.816C22.1834 270.091 22.2714 270.353 22.3846 270.6L22.3909 270.603ZM27.4578 267.451C27.4578 267.992 27.3258 268.406 27.0649 268.691C26.8009 268.975 26.4551 269.117 26.0214 269.117C25.5876 269.117 25.2387 268.975 24.9778 268.691C24.7138 268.406 24.5849 267.992 24.5849 267.451L24.5849 265.804L27.4641 265.804L27.4641 267.451L27.4578 267.451Z" fill="black"/>
<path d="M30.2962 285.135L30.2962 281.171L16.2615 281.171L16.2615 285.135L30.2962 285.135Z" fill="black"/>
<path d="M27.1812 297.654C27.3132 297.897 27.3793 298.226 27.3793 298.634C27.3793 299.149 27.2787 299.626 27.0744 300.062C26.87 300.499 26.5589 300.935 26.1377 301.371L28.602 303.869C29.2181 303.274 29.6958 302.525 30.0322 301.618C30.3685 300.714 30.5351 299.73 30.5351 298.675C30.5351 297.619 30.3622 296.674 30.0133 295.88C29.6644 295.087 29.1615 294.473 28.5045 294.037C27.8476 293.601 27.0649 293.383 26.1597 293.383C25.4619 293.383 24.8741 293.503 24.3963 293.74C23.9154 293.977 23.5162 294.293 23.1924 294.682C22.8718 295.071 22.5984 295.498 22.3752 295.959C22.152 296.421 21.9603 296.889 21.8031 297.356C21.6459 297.824 21.4919 298.254 21.341 298.646C21.1902 299.035 21.0173 299.351 20.8287 299.588C20.637 299.825 20.3981 299.945 20.1089 299.945C19.8197 299.945 19.5934 299.806 19.4299 299.528C19.2665 299.25 19.1848 298.842 19.1848 298.298C19.1848 297.65 19.3136 297.043 19.5682 296.474C19.8228 295.905 20.1969 295.365 20.681 294.85L18.2166 292.371C17.4528 293.124 16.8996 293.949 16.5507 294.84C16.2018 295.732 16.0289 296.781 16.0289 297.982C16.0289 299.847 16.4187 301.289 17.2014 302.313C17.984 303.337 19.0905 303.85 20.5238 303.85C21.2342 303.85 21.8377 303.729 22.3375 303.492C22.8372 303.255 23.2553 302.939 23.5885 302.55C23.9248 302.161 24.1983 301.735 24.4152 301.273C24.632 300.812 24.8206 300.344 24.9778 299.876C25.135 299.408 25.2858 298.978 25.4304 298.586C25.575 298.197 25.7353 297.881 25.9145 297.644C26.0905 297.407 26.32 297.287 26.5934 297.287C26.8669 297.287 27.0524 297.41 27.1844 297.654L27.1812 297.654Z" fill="black"/>
<path d="M19.5337 315.407L21.8188 315.407L21.8188 321.492L25.0124 321.492L25.0124 315.407L27.0241 315.407L27.0241 322.109L30.2962 322.109L30.2962 315.407L30.2962 314.655L30.2962 311.443L16.2615 311.443L16.2615 314.655L16.2615 315.407L16.2615 322.226L19.5337 322.226L19.5337 315.407Z" fill="black"/>
<path d="M30.2962 197.684L30.2962 194.598L30.2962 190.634L30.2962 190.315L30.2962 185.01L26.9361 186.961L26.9361 190.634L16.2615 190.634L16.2615 194.598L26.9361 194.598L26.9361 199.637L30.2962 197.684Z" fill="black"/>
</g>
</g>
<defs>
<clipPath id="clip0_8584_2998">
<rect width="261" height="56" fill="white" transform="translate(60.1291 75) rotate(90)"/>
</clipPath>
<clipPath id="clip1_8584_2998">
<rect width="256.941" height="56" fill="white" transform="translate(60.1291 77.0294) rotate(90)"/>
</clipPath>
</defs>
</svg>
