<svg width="64" height="1080" viewBox="0 0 64 1080" fill="none" xmlns="http://www.w3.org/2000/svg">
<path opacity="0.5" d="M-8.72282e-06 865.991H63.1291V1080H-8.72282e-06V865.991Z" fill="#1E96FC"/>
<path d="M-8.72282e-06 0H63.1291V889.941L-8.72282e-06 921.12V0Z" fill="#1E96FC"/>
<path d="M42.9608 90.3533C42.9608 83.6455 37.4884 78.2129 30.7385 78.2129C23.9887 78.2129 18.5163 83.6455 18.5163 90.3533C18.5163 97.061 23.9887 102.494 30.7385 102.494C37.4884 102.494 42.9608 97.061 42.9608 90.3533ZM21.1115 90.3304C21.1115 85.0637 25.41 80.792 30.7155 80.792C36.021 80.792 40.3195 85.0637 40.3195 90.3304C40.3195 95.5971 36.021 99.8688 30.7155 99.8688C25.41 99.8688 21.1115 95.5971 21.1115 90.3304Z" fill="white"/>
<path d="M30.7385 105.164L18.4645 105.164L18.4645 107.594L30.7385 107.594C36.0325 107.766 40.3138 111.923 40.3138 117.179C40.3138 117.213 40.3138 117.304 40.3138 117.304L42.9608 117.304C42.9608 110.539 37.4884 105.164 30.7385 105.164Z" fill="white"/>
<path d="M42.9608 131.629C42.9608 127.746 41.1251 124.293 38.271 122.068L50.4127 122.068L50.4127 119.489L30.6349 119.489C23.9311 119.546 18.5162 124.956 18.5162 131.629C18.5162 138.303 23.9886 143.77 30.7385 143.77C37.4884 143.77 42.9608 138.337 42.9608 131.629ZM21.1115 131.606C21.1115 126.34 25.41 122.068 30.7155 122.068C36.021 122.068 40.3195 126.34 40.3195 131.606C40.3195 136.873 36.021 141.145 30.7155 141.145C25.41 141.145 21.1115 136.873 21.1115 131.606Z" fill="white"/>
<path d="M46.9198 147.709C46.9198 148.664 47.7024 149.442 48.6633 149.442C49.6243 149.442 50.4127 148.67 50.4127 147.709C50.4127 146.749 49.6301 145.977 48.6691 145.977C47.7081 145.977 46.9255 146.754 46.9255 147.709L46.9198 147.709Z" fill="white"/>
<path d="M42.9608 148.996L42.9608 146.417L18.4127 146.417L18.4127 148.996L42.9608 148.996Z" fill="white"/>
<path d="M20.0066 152.09C20.231 152.09 20.4382 152.13 20.6338 152.216C20.8295 152.302 21.0021 152.416 21.146 152.559C21.2898 152.702 21.4049 152.873 21.4912 153.068C21.5775 153.262 21.6178 153.468 21.6178 153.691C21.6178 153.914 21.5775 154.12 21.4912 154.315C21.4049 154.509 21.2898 154.681 21.146 154.823C21.0021 154.966 20.8295 155.087 20.6338 155.167C20.4382 155.252 20.231 155.292 20.0066 155.292C19.7822 155.292 19.575 155.252 19.3851 155.167C19.1895 155.081 19.0226 154.966 18.8788 154.823C18.7349 154.681 18.6198 154.509 18.5392 154.315C18.4587 154.12 18.4127 153.914 18.4127 153.691C18.4127 153.468 18.4529 153.262 18.5392 153.068C18.6198 152.873 18.7349 152.702 18.8788 152.559C19.0226 152.416 19.1895 152.296 19.3851 152.216C19.5808 152.13 19.7879 152.09 20.0066 152.09ZM20.0066 152.342C19.8225 152.342 19.6498 152.376 19.483 152.445C19.3161 152.513 19.1722 152.61 19.0456 152.731C18.919 152.851 18.8212 152.994 18.7522 153.159C18.6831 153.325 18.6486 153.503 18.6486 153.685C18.6486 153.868 18.6831 154.051 18.7522 154.212C18.8212 154.377 18.919 154.52 19.0456 154.64C19.1722 154.761 19.3161 154.858 19.483 154.932C19.6498 155.001 19.8225 155.035 20.0066 155.035C20.1907 155.035 20.3749 155.001 20.536 154.932C20.7029 154.864 20.8467 154.766 20.9676 154.64C21.0884 154.52 21.1863 154.377 21.2611 154.212C21.3301 154.046 21.3646 153.868 21.3646 153.685C21.3646 153.503 21.3301 153.32 21.2611 153.159C21.192 152.994 21.0942 152.851 20.9676 152.731C20.841 152.61 20.7029 152.513 20.536 152.445C20.3691 152.376 20.1907 152.342 20.0066 152.342ZM20.9216 153.068L20.9216 153.703C20.9216 153.788 20.91 153.868 20.8928 153.949C20.8755 154.029 20.841 154.097 20.8007 154.166C20.7604 154.234 20.7029 154.28 20.6396 154.315C20.5705 154.355 20.49 154.372 20.3922 154.372C20.2598 154.372 20.1505 154.332 20.0699 154.257C19.9893 154.183 19.9318 154.08 19.903 153.954L19.1089 154.44L19.1089 154.046L19.8685 153.623L19.8685 153.388L19.1089 153.388L19.1089 153.062L20.9216 153.062L20.9216 153.068ZM20.1274 153.657C20.1274 153.748 20.1447 153.84 20.1792 153.926C20.2138 154.011 20.2886 154.051 20.3979 154.051C20.4957 154.051 20.5648 154.011 20.5936 153.937C20.6281 153.857 20.6453 153.777 20.6453 153.697L20.6453 153.4L20.1274 153.4L20.1274 153.663L20.1274 153.657Z" fill="white"/>
</svg>
